<?xml version="1.0" encoding="UTF-8"?>
<svg xmlns="http://www.w3.org/2000/svg" xmlns:xlink="http://www.w3.org/1999/xlink" width="163pt" height="142pt" viewBox="0 0 163 142" version="1.1">
<g id="surface1">
<path style=" stroke:none;fill-rule:nonzero;fill:rgb(29.801941%,44.703674%,69.018555%);fill-opacity:0.25;" d="M 13.679688 141.046875 C 13.71875 141.027344 13.796875 141.027344 13.816406 141.027344 C 13.835938 141.027344 13.628906 141.03125 13.816406 141.027344 C 14.003906 141.027344 14.800781 141.042969 15.175781 141.019531 C 15.554688 141 16.160156 140.976562 16.535156 140.886719 C 16.914062 140.796875 17.519531 140.59375 17.894531 140.378906 C 18.273438 140.167969 18.878906 139.710938 19.257812 139.347656 C 19.632812 138.984375 20.238281 138.273438 20.617188 137.761719 C 20.992188 137.253906 21.597656 136.3125 21.976562 135.679688 C 22.355469 135.042969 22.960938 133.917969 23.335938 133.183594 C 23.714844 132.449219 24.320312 131.191406 24.695312 130.386719 C 25.074219 129.582031 25.679688 128.234375 26.054688 127.382812 C 26.433594 126.53125 27.039062 125.132812 27.417969 124.261719 C 27.792969 123.390625 28.398438 121.972656 28.777344 121.097656 C 29.152344 120.222656 29.757812 118.820312 30.136719 117.957031 C 30.515625 117.09375 31.121094 115.722656 31.496094 114.882812 C 31.875 114.046875 32.480469 112.722656 32.855469 111.921875 C 33.234375 111.117188 33.839844 109.859375 34.214844 109.097656 C 34.59375 108.335938 35.199219 107.148438 35.578125 106.4375 C 35.953125 105.722656 36.558594 104.613281 36.9375 103.949219 C 37.3125 103.289062 37.917969 102.265625 38.296875 101.652344 C 38.675781 101.042969 39.28125 100.105469 39.65625 99.550781 C 40.035156 98.992188 40.640625 98.144531 41.015625 97.640625 C 41.394531 97.140625 42 96.378906 42.375 95.929688 C 42.753906 95.480469 43.359375 94.808594 43.738281 94.414062 C 44.113281 94.015625 44.71875 93.425781 45.097656 93.085938 C 45.472656 92.742188 46.078125 92.234375 46.457031 91.941406 C 46.835938 91.648438 47.4375 91.222656 47.816406 90.976562 C 48.195312 90.734375 48.800781 90.382812 49.175781 90.1875 C 49.554688 89.988281 50.160156 89.710938 50.535156 89.558594 C 50.914062 89.40625 51.519531 89.199219 51.898438 89.085938 C 52.273438 88.976562 52.878906 88.835938 53.257812 88.765625 C 53.632812 88.695312 54.238281 88.617188 54.617188 88.585938 C 54.996094 88.550781 55.597656 88.53125 55.976562 88.535156 C 56.355469 88.539062 56.960938 88.574219 57.335938 88.609375 C 57.714844 88.644531 58.320312 88.730469 58.695312 88.800781 C 59.074219 88.867188 59.679688 89 60.058594 89.097656 C 60.433594 89.195312 61.039062 89.371094 61.417969 89.496094 C 61.792969 89.617188 62.398438 89.835938 62.777344 89.984375 C 63.15625 90.128906 63.757812 90.386719 64.136719 90.554688 C 64.515625 90.722656 65.121094 91.011719 65.496094 91.203125 C 65.875 91.390625 66.480469 91.707031 66.855469 91.914062 C 67.234375 92.121094 67.839844 92.464844 68.21875 92.6875 C 68.59375 92.90625 69.199219 93.273438 69.578125 93.507812 C 69.953125 93.742188 70.558594 94.128906 70.9375 94.371094 C 71.316406 94.617188 71.917969 95.015625 72.296875 95.269531 C 72.675781 95.523438 73.28125 95.933594 73.65625 96.191406 C 74.035156 96.449219 74.640625 96.867188 75.015625 97.128906 C 75.394531 97.386719 76 97.808594 76.378906 98.070312 C 76.753906 98.328125 77.359375 98.75 77.738281 99.007812 C 78.113281 99.265625 78.71875 99.675781 79.097656 99.929688 C 79.472656 100.179688 80.078125 100.582031 80.457031 100.824219 C 80.835938 101.066406 81.441406 101.453125 81.816406 101.683594 C 82.195312 101.914062 82.800781 102.273438 83.175781 102.488281 C 83.554688 102.707031 84.160156 103.039062 84.539062 103.234375 C 84.914062 103.429688 85.519531 103.726562 85.898438 103.898438 C 86.273438 104.070312 86.878906 104.328125 87.257812 104.46875 C 87.632812 104.613281 88.238281 104.820312 88.617188 104.933594 C 88.996094 105.042969 89.601562 105.195312 89.976562 105.265625 C 90.355469 105.339844 90.960938 105.425781 91.335938 105.453125 C 91.714844 105.480469 92.320312 105.496094 92.699219 105.472656 C 93.074219 105.453125 93.679688 105.382812 94.058594 105.308594 C 94.433594 105.230469 95.039062 105.066406 95.417969 104.929688 C 95.792969 104.792969 96.398438 104.523438 96.777344 104.320312 C 97.15625 104.113281 97.761719 103.730469 98.136719 103.449219 C 98.515625 103.167969 99.121094 102.65625 99.496094 102.292969 C 99.875 101.929688 100.480469 101.277344 100.859375 100.824219 C 101.234375 100.371094 101.839844 99.570312 102.21875 99.015625 C 102.59375 98.464844 103.199219 97.503906 103.578125 96.84375 C 103.953125 96.1875 104.558594 95.050781 104.9375 94.28125 C 105.316406 93.511719 105.921875 92.1875 106.296875 91.296875 C 106.675781 90.410156 107.28125 88.890625 107.65625 87.878906 C 108.035156 86.863281 108.640625 85.140625 109.015625 84 C 109.394531 82.859375 110 80.921875 110.378906 79.648438 C 110.753906 78.378906 111.359375 76.230469 111.738281 74.824219 C 112.113281 73.421875 112.71875 71.0625 113.097656 69.53125 C 113.476562 67.996094 114.082031 65.433594 114.457031 63.78125 C 114.835938 62.125 115.441406 59.371094 115.816406 57.609375 C 116.195312 55.847656 116.800781 52.925781 117.175781 51.074219 C 117.554688 49.21875 118.160156 46.167969 118.539062 44.25 C 118.914062 42.332031 119.519531 39.195312 119.898438 37.25 C 120.273438 35.300781 120.878906 32.144531 121.257812 30.214844 C 121.636719 28.285156 122.242188 25.191406 122.617188 23.335938 C 122.996094 21.480469 123.601562 18.554688 123.976562 16.847656 C 124.355469 15.140625 124.960938 12.503906 125.335938 11.03125 C 125.714844 9.558594 126.320312 7.371094 126.699219 6.238281 C 127.074219 5.101562 127.679688 3.535156 128.058594 2.851562 C 128.433594 2.171875 129.039062 1.425781 129.417969 1.320312 C 129.796875 1.21875 130.402344 1.507812 130.777344 2.113281 C 131.15625 2.71875 131.761719 4.257812 132.136719 5.695312 C 132.515625 7.132812 133.121094 10.117188 133.496094 12.484375 C 133.875 14.847656 134.480469 19.414062 134.859375 22.753906 C 135.234375 26.097656 135.839844 32.285156 136.21875 36.558594 C 136.59375 40.832031 137.199219 48.519531 137.578125 53.558594 C 137.957031 58.601562 138.5625 67.414062 138.9375 72.894531 C 139.316406 78.375 139.921875 87.644531 140.296875 93.058594 C 140.675781 98.472656 141.28125 107.199219 141.65625 111.910156 C 142.035156 116.625 142.640625 123.609375 143.019531 127.023438 C 143.394531 130.4375 144 134.664062 144.378906 136.515625 C 144.753906 138.371094 145.359375 139.757812 145.738281 140.378906 C 146.117188 141.003906 146.71875 140.929688 147.097656 141.019531 C 147.476562 141.109375 148.269531 141.027344 148.457031 141.027344 C 148.648438 141.03125 148.4375 141.027344 148.457031 141.027344 C 148.476562 141.027344 148.554688 141.027344 148.59375 141.027344 L 13.679688 141.027344 Z M 13.679688 141.046875 "/>
<path style=" stroke:none;fill-rule:nonzero;fill:rgb(86.665344%,51.763916%,32.154846%);fill-opacity:0.25;" d="M 13.679688 141.046875 C 13.71875 141.027344 13.796875 141.027344 13.816406 141.027344 C 13.835938 141.027344 13.628906 141.027344 13.816406 141.027344 C 14.003906 141.027344 14.800781 141.03125 15.175781 141.027344 C 15.554688 141.023438 16.160156 141.027344 16.535156 141.003906 C 16.914062 140.976562 17.519531 140.929688 17.894531 140.84375 C 18.273438 140.757812 18.878906 140.570312 19.257812 140.382812 C 19.632812 140.195312 20.238281 139.804688 20.617188 139.484375 C 20.992188 139.164062 21.597656 138.539062 21.976562 138.074219 C 22.355469 137.609375 22.960938 136.746094 23.335938 136.144531 C 23.714844 135.542969 24.320312 134.464844 24.695312 133.738281 C 25.074219 133.015625 25.679688 131.75 26.054688 130.921875 C 26.433594 130.097656 27.039062 128.6875 27.417969 127.785156 C 27.792969 126.882812 28.398438 125.367188 28.777344 124.414062 C 29.152344 123.457031 29.757812 121.882812 30.136719 120.898438 C 30.515625 119.914062 31.121094 118.308594 31.496094 117.320312 C 31.875 116.328125 32.480469 114.730469 32.855469 113.746094 C 33.234375 112.765625 33.839844 111.203125 34.214844 110.246094 C 34.59375 109.292969 35.199219 107.785156 35.578125 106.867188 C 35.953125 105.953125 36.558594 104.519531 36.9375 103.65625 C 37.3125 102.789062 37.917969 101.445312 38.296875 100.640625 C 38.675781 99.832031 39.28125 98.585938 39.65625 97.84375 C 40.035156 97.105469 40.640625 95.964844 41.015625 95.292969 C 41.394531 94.621094 42 93.597656 42.375 92.996094 C 42.753906 92.394531 43.359375 91.484375 43.738281 90.957031 C 44.113281 90.425781 44.71875 89.636719 45.097656 89.179688 C 45.472656 88.722656 46.078125 88.050781 46.457031 87.667969 C 46.835938 87.28125 47.4375 86.722656 47.816406 86.410156 C 48.195312 86.09375 48.800781 85.648438 49.175781 85.402344 C 49.554688 85.15625 50.160156 84.816406 50.535156 84.636719 C 50.914062 84.457031 51.519531 84.21875 51.898438 84.101562 C 52.273438 83.984375 52.878906 83.84375 53.257812 83.785156 C 53.632812 83.726562 54.238281 83.679688 54.617188 83.675781 C 54.996094 83.671875 55.597656 83.710938 55.976562 83.761719 C 56.355469 83.808594 56.960938 83.925781 57.335938 84.019531 C 57.714844 84.117188 58.320312 84.308594 58.695312 84.445312 C 59.074219 84.585938 59.679688 84.84375 60.058594 85.019531 C 60.433594 85.199219 61.039062 85.515625 61.417969 85.730469 C 61.792969 85.945312 62.398438 86.3125 62.777344 86.558594 C 63.15625 86.804688 63.757812 87.21875 64.136719 87.492188 C 64.515625 87.761719 65.121094 88.21875 65.496094 88.515625 C 65.875 88.808594 66.480469 89.296875 66.855469 89.613281 C 67.234375 89.925781 67.839844 90.441406 68.21875 90.769531 C 68.59375 91.097656 69.199219 91.636719 69.578125 91.972656 C 69.953125 92.3125 70.558594 92.863281 70.9375 93.210938 C 71.316406 93.554688 71.917969 94.113281 72.296875 94.464844 C 72.675781 94.8125 73.28125 95.375 73.65625 95.71875 C 74.035156 96.066406 74.640625 96.625 75.015625 96.96875 C 75.394531 97.308594 76 97.855469 76.378906 98.1875 C 76.753906 98.523438 77.359375 99.050781 77.738281 99.375 C 78.113281 99.695312 78.71875 100.199219 79.097656 100.503906 C 79.472656 100.8125 80.078125 101.289062 80.457031 101.570312 C 80.835938 101.855469 81.441406 102.296875 81.816406 102.558594 C 82.195312 102.820312 82.800781 103.21875 83.175781 103.453125 C 83.554688 103.683594 84.160156 104.035156 84.539062 104.238281 C 84.914062 104.4375 85.519531 104.738281 85.898438 104.902344 C 86.273438 105.066406 86.878906 105.304688 87.257812 105.429688 C 87.632812 105.554688 88.238281 105.726562 88.617188 105.808594 C 88.996094 105.890625 89.601562 105.988281 89.976562 106.019531 C 90.355469 106.054688 90.960938 106.074219 91.335938 106.054688 C 91.714844 106.039062 92.320312 105.96875 92.699219 105.894531 C 93.074219 105.820312 93.679688 105.65625 94.058594 105.523438 C 94.433594 105.390625 95.039062 105.128906 95.417969 104.929688 C 95.792969 104.730469 96.398438 104.363281 96.777344 104.097656 C 97.15625 103.828125 97.761719 103.347656 98.136719 103.007812 C 98.515625 102.667969 99.121094 102.066406 99.496094 101.652344 C 99.875 101.238281 100.480469 100.507812 100.859375 100.011719 C 101.234375 99.515625 101.839844 98.65625 102.21875 98.078125 C 102.59375 97.496094 103.199219 96.5 103.578125 95.832031 C 103.953125 95.167969 104.558594 94.027344 104.9375 93.269531 C 105.316406 92.511719 105.921875 91.226562 106.296875 90.375 C 106.675781 89.527344 107.28125 88.089844 107.65625 87.148438 C 108.035156 86.203125 108.640625 84.617188 109.015625 83.578125 C 109.394531 82.542969 110 80.804688 110.378906 79.671875 C 110.753906 78.542969 111.359375 76.652344 111.738281 75.429688 C 112.113281 74.210938 112.71875 72.175781 113.097656 70.867188 C 113.476562 69.5625 114.082031 67.390625 114.457031 66.003906 C 114.835938 64.617188 115.441406 62.324219 115.816406 60.867188 C 116.195312 59.410156 116.800781 57.011719 117.175781 55.5 C 117.554688 53.984375 118.160156 51.507812 118.539062 49.953125 C 118.914062 48.402344 119.519531 45.875 119.898438 44.308594 C 120.273438 42.738281 120.878906 40.203125 121.257812 38.652344 C 121.636719 37.097656 122.242188 34.605469 122.617188 33.101562 C 122.996094 31.597656 123.601562 29.21875 123.976562 27.8125 C 124.355469 26.402344 124.960938 24.210938 125.335938 22.953125 C 125.714844 21.695312 126.320312 19.785156 126.699219 18.746094 C 127.074219 17.703125 127.679688 16.191406 128.058594 15.4375 C 128.433594 14.6875 129.039062 13.703125 129.417969 13.332031 C 129.796875 12.960938 130.402344 12.65625 130.777344 12.757812 C 131.15625 12.863281 131.761719 13.402344 132.136719 14.085938 C 132.515625 14.769531 133.121094 16.324219 133.496094 17.695312 C 133.875 19.0625 134.480469 21.804688 134.859375 23.953125 C 135.234375 26.097656 135.839844 30.171875 136.21875 33.15625 C 136.59375 36.140625 137.199219 41.632812 137.578125 45.457031 C 137.957031 49.28125 138.5625 56.15625 138.9375 60.726562 C 139.316406 65.296875 139.921875 73.328125 140.296875 78.394531 C 140.675781 83.460938 141.28125 92.128906 141.65625 97.246094 C 142.035156 102.359375 142.640625 110.75 143.019531 115.265625 C 143.394531 119.777344 144 126.574219 144.378906 129.773438 C 144.753906 132.976562 145.359375 136.792969 145.738281 138.335938 C 146.117188 139.882812 146.71875 140.53125 147.097656 140.90625 C 147.476562 141.277344 148.269531 141.011719 148.457031 141.027344 C 148.648438 141.046875 148.4375 141.027344 148.457031 141.027344 C 148.476562 141.027344 148.554688 141.027344 148.59375 141.027344 L 13.679688 141.027344 Z M 13.679688 141.046875 "/>
<path style="fill:none;stroke-width:1.19553;stroke-linecap:butt;stroke-linejoin:miter;stroke:rgb(29.801941%,44.703674%,69.018555%);stroke-opacity:1;stroke-miterlimit:10;" d="M 16.191406 13.972656 C 16.191406 13.972656 16.289062 13.972656 16.328125 13.972656 C 16.367188 13.972656 16.425781 13.972656 16.464844 13.972656 C 16.503906 13.972656 16.566406 13.972656 16.601562 13.972656 C 16.640625 13.972656 16.703125 13.972656 16.742188 13.972656 C 16.777344 13.972656 16.839844 13.972656 16.878906 13.972656 C 16.917969 13.972656 16.976562 13.972656 17.015625 13.972656 C 17.054688 13.972656 17.117188 13.972656 17.152344 13.972656 C 17.191406 13.972656 17.253906 13.972656 17.292969 13.972656 C 17.328125 13.972656 17.390625 13.972656 17.429688 13.972656 C 17.46875 13.972656 17.527344 13.972656 17.566406 13.972656 C 17.605469 13.972656 17.667969 13.972656 17.703125 13.972656 C 17.742188 13.972656 17.804688 13.972656 17.84375 13.972656 C 17.878906 13.972656 17.941406 13.972656 17.980469 13.972656 C 18.019531 13.972656 18.078125 13.972656 18.117188 13.972656 C 18.15625 13.972656 18.214844 13.972656 18.253906 13.972656 C 18.292969 13.972656 18.355469 13.972656 18.390625 13.972656 C 18.429688 13.972656 18.492188 13.972656 18.53125 13.972656 C 18.570312 13.972656 18.628906 13.972656 18.667969 13.972656 C 18.707031 13.972656 18.765625 13.972656 18.804688 13.972656 C 18.84375 13.972656 18.90625 13.972656 18.941406 13.972656 C 18.980469 13.972656 19.042969 13.972656 19.082031 13.972656 C 19.117188 13.972656 19.179688 13.972656 19.21875 13.972656 C 19.257812 13.972656 19.316406 13.972656 19.355469 13.972656 C 19.394531 13.972656 19.457031 13.972656 19.492188 13.972656 C 19.53125 13.972656 19.59375 13.972656 19.632812 13.972656 C 19.667969 13.972656 19.730469 13.972656 19.769531 13.972656 C 19.808594 13.972656 19.867188 13.972656 19.90625 13.972656 C 19.945312 13.972656 20.007812 13.972656 20.042969 13.972656 C 20.082031 13.972656 20.144531 13.972656 20.183594 13.972656 C 20.21875 13.972656 20.28125 13.972656 20.320312 13.972656 C 20.359375 13.972656 20.417969 13.972656 20.457031 13.972656 C 20.496094 13.972656 20.554688 13.972656 20.59375 13.972656 C 20.632812 13.972656 20.695312 13.972656 20.730469 13.972656 C 20.769531 13.972656 20.832031 13.972656 20.871094 13.972656 C 20.90625 13.972656 20.96875 13.972656 21.007812 13.972656 C 21.046875 13.972656 21.105469 13.972656 21.144531 13.972656 C 21.183594 13.972656 21.246094 13.972656 21.28125 13.972656 C 21.320312 13.972656 21.382812 13.972656 21.421875 13.972656 C 21.457031 13.972656 21.519531 13.972656 21.558594 13.972656 C 21.597656 13.972656 21.65625 13.972656 21.695312 13.972656 C 21.734375 13.972656 21.796875 13.972656 21.832031 13.972656 C 21.871094 13.972656 21.933594 13.972656 21.972656 13.972656 C 22.007812 13.972656 22.070312 13.972656 22.109375 13.972656 C 22.148438 13.972656 22.207031 13.972656 22.246094 13.972656 C 22.285156 13.972656 22.347656 13.972656 22.382812 13.972656 C 22.421875 13.972656 22.484375 13.972656 22.523438 13.972656 C 22.558594 13.972656 22.621094 13.972656 22.660156 13.972656 C 22.699219 13.972656 22.757812 13.972656 22.796875 13.972656 C 22.835938 13.972656 22.894531 13.972656 22.933594 13.972656 C 22.972656 13.972656 23.035156 13.972656 23.070312 13.972656 C 23.109375 13.972656 23.171875 13.972656 23.210938 13.972656 C 23.246094 13.972656 23.308594 13.972656 23.347656 13.972656 C 23.386719 13.972656 23.445312 13.972656 23.484375 13.972656 C 23.523438 13.972656 23.585938 13.972656 23.621094 13.972656 C 23.660156 13.972656 23.722656 13.972656 23.761719 13.972656 C 23.796875 13.972656 23.859375 13.972656 23.898438 13.972656 C 23.9375 13.972656 23.996094 13.972656 24.035156 13.972656 C 24.074219 13.972656 24.136719 13.972656 24.171875 13.972656 C 24.210938 13.972656 24.273438 13.972656 24.3125 13.972656 C 24.347656 13.972656 24.410156 13.972656 24.449219 13.972656 C 24.488281 13.972656 24.546875 13.972656 24.585938 13.972656 C 24.625 13.972656 24.6875 13.972656 24.722656 13.972656 C 24.761719 13.972656 24.824219 13.972656 24.863281 13.972656 C 24.898438 13.972656 24.960938 13.972656 25 13.972656 C 25.039062 13.972656 25.097656 13.972656 25.136719 13.972656 C 25.175781 13.972656 25.234375 13.972656 25.273438 13.972656 C 25.3125 13.972656 25.375 13.972656 25.410156 13.972656 C 25.449219 13.972656 25.511719 13.972656 25.550781 13.972656 C 25.585938 13.972656 25.648438 13.972656 25.6875 13.972656 C 25.726562 13.972656 25.785156 13.972656 25.824219 13.972656 C 25.863281 13.972656 25.925781 13.972656 25.960938 13.972656 C 26 13.972656 26.0625 13.972656 26.101562 13.972656 C 26.136719 13.972656 26.199219 13.972656 26.238281 13.972656 C 26.277344 13.972656 26.335938 13.972656 26.375 13.972656 C 26.414062 13.972656 26.476562 13.972656 26.511719 13.972656 C 26.550781 13.972656 26.613281 13.972656 26.652344 13.972656 C 26.6875 13.972656 26.75 13.972656 26.789062 13.972656 C 26.828125 13.972656 26.886719 13.972656 26.925781 13.972656 C 26.964844 13.972656 27.027344 13.972656 27.0625 13.972656 C 27.101562 13.972656 27.164062 13.972656 27.203125 13.972656 C 27.238281 13.972656 27.300781 13.972656 27.339844 13.972656 C 27.378906 13.972656 27.4375 13.972656 27.476562 13.972656 C 27.515625 13.972656 27.574219 13.972656 27.613281 13.972656 C 27.652344 13.972656 27.714844 13.972656 27.75 13.972656 C 27.789062 13.972656 27.851562 13.972656 27.890625 13.972656 C 27.925781 13.972656 27.988281 13.972656 28.027344 13.972656 C 28.066406 13.972656 28.125 13.972656 28.164062 13.972656 C 28.203125 13.972656 28.265625 13.972656 28.300781 13.972656 C 28.339844 13.972656 28.402344 13.972656 28.441406 13.972656 C 28.476562 13.972656 28.539062 13.972656 28.578125 13.972656 C 28.617188 13.972656 28.675781 13.972656 28.714844 13.972656 C 28.753906 13.972656 28.816406 13.972656 28.851562 13.972656 C 28.890625 13.972656 28.953125 13.972656 28.992188 13.972656 C 29.027344 13.972656 29.089844 13.972656 29.128906 13.972656 C 29.167969 13.972656 29.226562 13.972656 29.265625 13.972656 C 29.304688 13.972656 29.367188 13.972656 29.402344 13.972656 C 29.441406 13.972656 29.503906 13.972656 29.542969 13.972656 C 29.578125 13.972656 29.640625 13.972656 29.679688 13.972656 C 29.71875 13.972656 29.796875 13.972656 29.816406 13.972656 C 29.835938 13.972656 29.628906 13.96875 29.816406 13.972656 C 30.003906 13.972656 30.800781 13.957031 31.175781 13.980469 C 31.554688 14 32.160156 14.023438 32.535156 14.113281 C 32.914062 14.203125 33.519531 14.40625 33.894531 14.621094 C 34.273438 14.832031 34.878906 15.289062 35.257812 15.652344 C 35.632812 16.015625 36.238281 16.726562 36.617188 17.238281 C 36.992188 17.746094 37.597656 18.6875 37.976562 19.320312 C 38.355469 19.957031 38.960938 21.082031 39.335938 21.816406 C 39.714844 22.550781 40.320312 23.808594 40.695312 24.613281 C 41.074219 25.417969 41.679688 26.765625 42.054688 27.617188 C 42.433594 28.46875 43.039062 29.867188 43.417969 30.738281 C 43.792969 31.609375 44.398438 33.027344 44.777344 33.902344 C 45.152344 34.777344 45.757812 36.179688 46.136719 37.042969 C 46.515625 37.90625 47.121094 39.277344 47.496094 40.117188 C 47.875 40.953125 48.480469 42.277344 48.855469 43.078125 C 49.234375 43.882812 49.839844 45.140625 50.214844 45.902344 C 50.59375 46.664062 51.199219 47.851562 51.578125 48.5625 C 51.953125 49.277344 52.558594 50.386719 52.9375 51.050781 C 53.3125 51.710938 53.917969 52.734375 54.296875 53.347656 C 54.675781 53.957031 55.28125 54.894531 55.65625 55.449219 C 56.035156 56.007812 56.640625 56.855469 57.015625 57.359375 C 57.394531 57.859375 58 58.621094 58.375 59.070312 C 58.753906 59.519531 59.359375 60.191406 59.738281 60.585938 C 60.113281 60.984375 60.71875 61.574219 61.097656 61.914062 C 61.472656 62.257812 62.078125 62.765625 62.457031 63.058594 C 62.835938 63.351562 63.4375 63.777344 63.816406 64.023438 C 64.195312 64.265625 64.800781 64.617188 65.175781 64.8125 C 65.554688 65.011719 66.160156 65.289062 66.535156 65.441406 C 66.914062 65.59375 67.519531 65.800781 67.898438 65.914062 C 68.273438 66.023438 68.878906 66.164062 69.257812 66.234375 C 69.632812 66.304688 70.238281 66.382812 70.617188 66.414062 C 70.996094 66.449219 71.597656 66.46875 71.976562 66.464844 C 72.355469 66.460938 72.960938 66.425781 73.335938 66.390625 C 73.714844 66.355469 74.320312 66.269531 74.695312 66.199219 C 75.074219 66.132812 75.679688 66 76.058594 65.902344 C 76.433594 65.804688 77.039062 65.628906 77.417969 65.503906 C 77.792969 65.382812 78.398438 65.164062 78.777344 65.015625 C 79.15625 64.871094 79.757812 64.613281 80.136719 64.445312 C 80.515625 64.277344 81.121094 63.988281 81.496094 63.796875 C 81.875 63.609375 82.480469 63.292969 82.855469 63.085938 C 83.234375 62.878906 83.839844 62.535156 84.21875 62.3125 C 84.59375 62.09375 85.199219 61.726562 85.578125 61.492188 C 85.953125 61.257812 86.558594 60.871094 86.9375 60.628906 C 87.316406 60.382812 87.917969 59.984375 88.296875 59.730469 C 88.675781 59.476562 89.28125 59.066406 89.65625 58.808594 C 90.035156 58.550781 90.640625 58.132812 91.015625 57.871094 C 91.394531 57.613281 92 57.191406 92.378906 56.929688 C 92.753906 56.671875 93.359375 56.25 93.738281 55.992188 C 94.113281 55.734375 94.71875 55.324219 95.097656 55.070312 C 95.472656 54.820312 96.078125 54.417969 96.457031 54.175781 C 96.835938 53.933594 97.441406 53.546875 97.816406 53.316406 C 98.195312 53.085938 98.800781 52.726562 99.175781 52.511719 C 99.554688 52.292969 100.160156 51.960938 100.539062 51.765625 C 100.914062 51.570312 101.519531 51.273438 101.898438 51.101562 C 102.273438 50.929688 102.878906 50.671875 103.257812 50.53125 C 103.632812 50.386719 104.238281 50.179688 104.617188 50.066406 C 104.996094 49.957031 105.601562 49.804688 105.976562 49.734375 C 106.355469 49.660156 106.960938 49.574219 107.335938 49.546875 C 107.714844 49.519531 108.320312 49.503906 108.699219 49.527344 C 109.074219 49.546875 109.679688 49.617188 110.058594 49.691406 C 110.433594 49.769531 111.039062 49.933594 111.417969 50.070312 C 111.792969 50.207031 112.398438 50.476562 112.777344 50.679688 C 113.15625 50.886719 113.761719 51.269531 114.136719 51.550781 C 114.515625 51.832031 115.121094 52.34375 115.496094 52.707031 C 115.875 53.070312 116.480469 53.722656 116.859375 54.175781 C 117.234375 54.628906 117.839844 55.429688 118.21875 55.984375 C 118.59375 56.535156 119.199219 57.496094 119.578125 58.15625 C 119.953125 58.8125 120.558594 59.949219 120.9375 60.71875 C 121.316406 61.488281 121.921875 62.8125 122.296875 63.703125 C 122.675781 64.589844 123.28125 66.109375 123.65625 67.121094 C 124.035156 68.136719 124.640625 69.859375 125.015625 71 C 125.394531 72.140625 126 74.078125 126.378906 75.351562 C 126.753906 76.621094 127.359375 78.769531 127.738281 80.175781 C 128.113281 81.578125 128.71875 83.9375 129.097656 85.46875 C 129.476562 87.003906 130.082031 89.566406 130.457031 91.21875 C 130.835938 92.875 131.441406 95.628906 131.816406 97.390625 C 132.195312 99.152344 132.800781 102.074219 133.175781 103.925781 C 133.554688 105.78125 134.160156 108.832031 134.539062 110.75 C 134.914062 112.667969 135.519531 115.804688 135.898438 117.75 C 136.273438 119.699219 136.878906 122.855469 137.257812 124.785156 C 137.636719 126.714844 138.242188 129.808594 138.617188 131.664062 C 138.996094 133.519531 139.601562 136.445312 139.976562 138.152344 C 140.355469 139.859375 140.960938 142.496094 141.335938 143.96875 C 141.714844 145.441406 142.320312 147.628906 142.699219 148.761719 C 143.074219 149.898438 143.679688 151.464844 144.058594 152.148438 C 144.433594 152.828125 145.039062 153.574219 145.417969 153.679688 C 145.796875 153.78125 146.402344 153.492188 146.777344 152.886719 C 147.15625 152.28125 147.761719 150.742188 148.136719 149.304688 C 148.515625 147.867188 149.121094 144.882812 149.496094 142.515625 C 149.875 140.152344 150.480469 135.585938 150.859375 132.246094 C 151.234375 128.902344 151.839844 122.714844 152.21875 118.441406 C 152.59375 114.167969 153.199219 106.480469 153.578125 101.441406 C 153.957031 96.398438 154.5625 87.585938 154.9375 82.105469 C 155.316406 76.625 155.921875 67.355469 156.296875 61.941406 C 156.675781 56.527344 157.28125 47.800781 157.65625 43.089844 C 158.035156 38.375 158.640625 31.390625 159.019531 27.976562 C 159.394531 24.5625 160 20.335938 160.378906 18.484375 C 160.753906 16.628906 161.359375 15.242188 161.738281 14.621094 C 162.117188 13.996094 162.71875 14.070312 163.097656 13.980469 C 163.476562 13.890625 164.269531 13.972656 164.457031 13.972656 C 164.648438 13.96875 164.4375 13.972656 164.457031 13.972656 C 164.476562 13.972656 164.558594 13.972656 164.59375 13.972656 C 164.632812 13.972656 164.695312 13.972656 164.734375 13.972656 C 164.773438 13.972656 164.832031 13.972656 164.871094 13.972656 C 164.910156 13.972656 164.96875 13.972656 165.007812 13.972656 C 165.046875 13.972656 165.109375 13.972656 165.144531 13.972656 C 165.183594 13.972656 165.246094 13.972656 165.285156 13.972656 C 165.320312 13.972656 165.382812 13.972656 165.421875 13.972656 C 165.460938 13.972656 165.519531 13.972656 165.558594 13.972656 C 165.597656 13.972656 165.660156 13.972656 165.695312 13.972656 C 165.734375 13.972656 165.796875 13.972656 165.835938 13.972656 C 165.871094 13.972656 165.933594 13.972656 165.972656 13.972656 C 166.011719 13.972656 166.070312 13.972656 166.109375 13.972656 C 166.148438 13.972656 166.210938 13.972656 166.246094 13.972656 C 166.285156 13.972656 166.347656 13.972656 166.386719 13.972656 C 166.421875 13.972656 166.484375 13.972656 166.523438 13.972656 C 166.5625 13.972656 166.621094 13.972656 166.660156 13.972656 C 166.699219 13.972656 166.757812 13.972656 166.796875 13.972656 C 166.835938 13.972656 166.898438 13.972656 166.933594 13.972656 C 166.972656 13.972656 167.035156 13.972656 167.074219 13.972656 C 167.113281 13.972656 167.171875 13.972656 167.210938 13.972656 C 167.25 13.972656 167.308594 13.972656 167.347656 13.972656 C 167.386719 13.972656 167.449219 13.972656 167.484375 13.972656 C 167.523438 13.972656 167.585938 13.972656 167.625 13.972656 C 167.660156 13.972656 167.722656 13.972656 167.761719 13.972656 C 167.800781 13.972656 167.859375 13.972656 167.898438 13.972656 C 167.9375 13.972656 168 13.972656 168.035156 13.972656 C 168.074219 13.972656 168.136719 13.972656 168.175781 13.972656 C 168.210938 13.972656 168.273438 13.972656 168.3125 13.972656 C 168.351562 13.972656 168.410156 13.972656 168.449219 13.972656 C 168.488281 13.972656 168.550781 13.972656 168.585938 13.972656 C 168.625 13.972656 168.6875 13.972656 168.726562 13.972656 C 168.761719 13.972656 168.824219 13.972656 168.863281 13.972656 C 168.902344 13.972656 168.960938 13.972656 169 13.972656 C 169.039062 13.972656 169.097656 13.972656 169.136719 13.972656 C 169.175781 13.972656 169.238281 13.972656 169.273438 13.972656 C 169.3125 13.972656 169.375 13.972656 169.414062 13.972656 C 169.449219 13.972656 169.511719 13.972656 169.550781 13.972656 C 169.589844 13.972656 169.648438 13.972656 169.6875 13.972656 C 169.726562 13.972656 169.789062 13.972656 169.824219 13.972656 C 169.863281 13.972656 169.925781 13.972656 169.964844 13.972656 C 170 13.972656 170.0625 13.972656 170.101562 13.972656 C 170.140625 13.972656 170.199219 13.972656 170.238281 13.972656 C 170.277344 13.972656 170.339844 13.972656 170.375 13.972656 C 170.414062 13.972656 170.476562 13.972656 170.515625 13.972656 C 170.550781 13.972656 170.613281 13.972656 170.652344 13.972656 C 170.691406 13.972656 170.75 13.972656 170.789062 13.972656 C 170.828125 13.972656 170.890625 13.972656 170.925781 13.972656 C 170.964844 13.972656 171.027344 13.972656 171.066406 13.972656 C 171.101562 13.972656 171.164062 13.972656 171.203125 13.972656 C 171.242188 13.972656 171.300781 13.972656 171.339844 13.972656 C 171.378906 13.972656 171.4375 13.972656 171.476562 13.972656 C 171.515625 13.972656 171.578125 13.972656 171.613281 13.972656 C 171.652344 13.972656 171.714844 13.972656 171.753906 13.972656 C 171.789062 13.972656 171.851562 13.972656 171.890625 13.972656 C 171.929688 13.972656 171.988281 13.972656 172.027344 13.972656 C 172.066406 13.972656 172.128906 13.972656 172.164062 13.972656 C 172.203125 13.972656 172.265625 13.972656 172.304688 13.972656 C 172.339844 13.972656 172.402344 13.972656 172.441406 13.972656 C 172.480469 13.972656 172.539062 13.972656 172.578125 13.972656 C 172.617188 13.972656 172.679688 13.972656 172.714844 13.972656 C 172.753906 13.972656 172.816406 13.972656 172.855469 13.972656 C 172.890625 13.972656 172.953125 13.972656 172.992188 13.972656 C 173.03125 13.972656 173.089844 13.972656 173.128906 13.972656 C 173.167969 13.972656 173.230469 13.972656 173.265625 13.972656 C 173.304688 13.972656 173.367188 13.972656 173.40625 13.972656 C 173.441406 13.972656 173.503906 13.972656 173.542969 13.972656 C 173.582031 13.972656 173.640625 13.972656 173.679688 13.972656 C 173.71875 13.972656 173.777344 13.972656 173.816406 13.972656 C 173.855469 13.972656 173.917969 13.972656 173.953125 13.972656 C 173.992188 13.972656 174.054688 13.972656 174.09375 13.972656 C 174.128906 13.972656 174.191406 13.972656 174.230469 13.972656 C 174.269531 13.972656 174.328125 13.972656 174.367188 13.972656 C 174.40625 13.972656 174.46875 13.972656 174.503906 13.972656 C 174.542969 13.972656 174.605469 13.972656 174.644531 13.972656 C 174.679688 13.972656 174.742188 13.972656 174.78125 13.972656 C 174.820312 13.972656 174.878906 13.972656 174.917969 13.972656 C 174.957031 13.972656 175.019531 13.972656 175.054688 13.972656 C 175.09375 13.972656 175.15625 13.972656 175.195312 13.972656 C 175.230469 13.972656 175.292969 13.972656 175.332031 13.972656 C 175.371094 13.972656 175.429688 13.972656 175.46875 13.972656 C 175.507812 13.972656 175.570312 13.972656 175.605469 13.972656 C 175.644531 13.972656 175.707031 13.972656 175.746094 13.972656 C 175.78125 13.972656 175.84375 13.972656 175.882812 13.972656 C 175.921875 13.972656 175.980469 13.972656 176.019531 13.972656 C 176.058594 13.972656 176.117188 13.972656 176.15625 13.972656 C 176.195312 13.972656 176.257812 13.972656 176.292969 13.972656 C 176.332031 13.972656 176.394531 13.972656 176.433594 13.972656 C 176.46875 13.972656 176.53125 13.972656 176.570312 13.972656 C 176.609375 13.972656 176.667969 13.972656 176.707031 13.972656 C 176.746094 13.972656 176.808594 13.972656 176.84375 13.972656 C 176.882812 13.972656 176.945312 13.972656 176.984375 13.972656 C 177.019531 13.972656 177.082031 13.972656 177.121094 13.972656 C 177.160156 13.972656 177.21875 13.972656 177.257812 13.972656 C 177.296875 13.972656 177.359375 13.972656 177.394531 13.972656 C 177.433594 13.972656 177.496094 13.972656 177.535156 13.972656 C 177.570312 13.972656 177.632812 13.972656 177.671875 13.972656 C 177.710938 13.972656 177.769531 13.972656 177.808594 13.972656 C 177.847656 13.972656 177.910156 13.972656 177.945312 13.972656 C 177.984375 13.972656 178.085938 13.972656 178.085938 13.972656 " transform="matrix(1,0,0,-1,-16,155)"/>
<path style="fill:none;stroke-width:1.19553;stroke-linecap:butt;stroke-linejoin:miter;stroke:rgb(86.665344%,51.763916%,32.154846%);stroke-opacity:1;stroke-miterlimit:10;" d="M 16.191406 13.972656 C 16.191406 13.972656 16.289062 13.972656 16.328125 13.972656 C 16.367188 13.972656 16.425781 13.972656 16.464844 13.972656 C 16.503906 13.972656 16.566406 13.972656 16.601562 13.972656 C 16.640625 13.972656 16.703125 13.972656 16.742188 13.972656 C 16.777344 13.972656 16.839844 13.972656 16.878906 13.972656 C 16.917969 13.972656 16.976562 13.972656 17.015625 13.972656 C 17.054688 13.972656 17.117188 13.972656 17.152344 13.972656 C 17.191406 13.972656 17.253906 13.972656 17.292969 13.972656 C 17.328125 13.972656 17.390625 13.972656 17.429688 13.972656 C 17.46875 13.972656 17.527344 13.972656 17.566406 13.972656 C 17.605469 13.972656 17.667969 13.972656 17.703125 13.972656 C 17.742188 13.972656 17.804688 13.972656 17.84375 13.972656 C 17.878906 13.972656 17.941406 13.972656 17.980469 13.972656 C 18.019531 13.972656 18.078125 13.972656 18.117188 13.972656 C 18.15625 13.972656 18.214844 13.972656 18.253906 13.972656 C 18.292969 13.972656 18.355469 13.972656 18.390625 13.972656 C 18.429688 13.972656 18.492188 13.972656 18.53125 13.972656 C 18.570312 13.972656 18.628906 13.972656 18.667969 13.972656 C 18.707031 13.972656 18.765625 13.972656 18.804688 13.972656 C 18.84375 13.972656 18.90625 13.972656 18.941406 13.972656 C 18.980469 13.972656 19.042969 13.972656 19.082031 13.972656 C 19.117188 13.972656 19.179688 13.972656 19.21875 13.972656 C 19.257812 13.972656 19.316406 13.972656 19.355469 13.972656 C 19.394531 13.972656 19.457031 13.972656 19.492188 13.972656 C 19.53125 13.972656 19.59375 13.972656 19.632812 13.972656 C 19.667969 13.972656 19.730469 13.972656 19.769531 13.972656 C 19.808594 13.972656 19.867188 13.972656 19.90625 13.972656 C 19.945312 13.972656 20.007812 13.972656 20.042969 13.972656 C 20.082031 13.972656 20.144531 13.972656 20.183594 13.972656 C 20.21875 13.972656 20.28125 13.972656 20.320312 13.972656 C 20.359375 13.972656 20.417969 13.972656 20.457031 13.972656 C 20.496094 13.972656 20.554688 13.972656 20.59375 13.972656 C 20.632812 13.972656 20.695312 13.972656 20.730469 13.972656 C 20.769531 13.972656 20.832031 13.972656 20.871094 13.972656 C 20.90625 13.972656 20.96875 13.972656 21.007812 13.972656 C 21.046875 13.972656 21.105469 13.972656 21.144531 13.972656 C 21.183594 13.972656 21.246094 13.972656 21.28125 13.972656 C 21.320312 13.972656 21.382812 13.972656 21.421875 13.972656 C 21.457031 13.972656 21.519531 13.972656 21.558594 13.972656 C 21.597656 13.972656 21.65625 13.972656 21.695312 13.972656 C 21.734375 13.972656 21.796875 13.972656 21.832031 13.972656 C 21.871094 13.972656 21.933594 13.972656 21.972656 13.972656 C 22.007812 13.972656 22.070312 13.972656 22.109375 13.972656 C 22.148438 13.972656 22.207031 13.972656 22.246094 13.972656 C 22.285156 13.972656 22.347656 13.972656 22.382812 13.972656 C 22.421875 13.972656 22.484375 13.972656 22.523438 13.972656 C 22.558594 13.972656 22.621094 13.972656 22.660156 13.972656 C 22.699219 13.972656 22.757812 13.972656 22.796875 13.972656 C 22.835938 13.972656 22.894531 13.972656 22.933594 13.972656 C 22.972656 13.972656 23.035156 13.972656 23.070312 13.972656 C 23.109375 13.972656 23.171875 13.972656 23.210938 13.972656 C 23.246094 13.972656 23.308594 13.972656 23.347656 13.972656 C 23.386719 13.972656 23.445312 13.972656 23.484375 13.972656 C 23.523438 13.972656 23.585938 13.972656 23.621094 13.972656 C 23.660156 13.972656 23.722656 13.972656 23.761719 13.972656 C 23.796875 13.972656 23.859375 13.972656 23.898438 13.972656 C 23.9375 13.972656 23.996094 13.972656 24.035156 13.972656 C 24.074219 13.972656 24.136719 13.972656 24.171875 13.972656 C 24.210938 13.972656 24.273438 13.972656 24.3125 13.972656 C 24.347656 13.972656 24.410156 13.972656 24.449219 13.972656 C 24.488281 13.972656 24.546875 13.972656 24.585938 13.972656 C 24.625 13.972656 24.6875 13.972656 24.722656 13.972656 C 24.761719 13.972656 24.824219 13.972656 24.863281 13.972656 C 24.898438 13.972656 24.960938 13.972656 25 13.972656 C 25.039062 13.972656 25.097656 13.972656 25.136719 13.972656 C 25.175781 13.972656 25.234375 13.972656 25.273438 13.972656 C 25.3125 13.972656 25.375 13.972656 25.410156 13.972656 C 25.449219 13.972656 25.511719 13.972656 25.550781 13.972656 C 25.585938 13.972656 25.648438 13.972656 25.6875 13.972656 C 25.726562 13.972656 25.785156 13.972656 25.824219 13.972656 C 25.863281 13.972656 25.925781 13.972656 25.960938 13.972656 C 26 13.972656 26.0625 13.972656 26.101562 13.972656 C 26.136719 13.972656 26.199219 13.972656 26.238281 13.972656 C 26.277344 13.972656 26.335938 13.972656 26.375 13.972656 C 26.414062 13.972656 26.476562 13.972656 26.511719 13.972656 C 26.550781 13.972656 26.613281 13.972656 26.652344 13.972656 C 26.6875 13.972656 26.75 13.972656 26.789062 13.972656 C 26.828125 13.972656 26.886719 13.972656 26.925781 13.972656 C 26.964844 13.972656 27.027344 13.972656 27.0625 13.972656 C 27.101562 13.972656 27.164062 13.972656 27.203125 13.972656 C 27.238281 13.972656 27.300781 13.972656 27.339844 13.972656 C 27.378906 13.972656 27.4375 13.972656 27.476562 13.972656 C 27.515625 13.972656 27.574219 13.972656 27.613281 13.972656 C 27.652344 13.972656 27.714844 13.972656 27.75 13.972656 C 27.789062 13.972656 27.851562 13.972656 27.890625 13.972656 C 27.925781 13.972656 27.988281 13.972656 28.027344 13.972656 C 28.066406 13.972656 28.125 13.972656 28.164062 13.972656 C 28.203125 13.972656 28.265625 13.972656 28.300781 13.972656 C 28.339844 13.972656 28.402344 13.972656 28.441406 13.972656 C 28.476562 13.972656 28.539062 13.972656 28.578125 13.972656 C 28.617188 13.972656 28.675781 13.972656 28.714844 13.972656 C 28.753906 13.972656 28.816406 13.972656 28.851562 13.972656 C 28.890625 13.972656 28.953125 13.972656 28.992188 13.972656 C 29.027344 13.972656 29.089844 13.972656 29.128906 13.972656 C 29.167969 13.972656 29.226562 13.972656 29.265625 13.972656 C 29.304688 13.972656 29.367188 13.972656 29.402344 13.972656 C 29.441406 13.972656 29.503906 13.972656 29.542969 13.972656 C 29.578125 13.972656 29.640625 13.972656 29.679688 13.972656 C 29.71875 13.972656 29.796875 13.972656 29.816406 13.972656 C 29.835938 13.972656 29.628906 13.972656 29.816406 13.972656 C 30.003906 13.972656 30.800781 13.96875 31.175781 13.972656 C 31.554688 13.976562 32.160156 13.972656 32.535156 13.996094 C 32.914062 14.023438 33.519531 14.070312 33.894531 14.15625 C 34.273438 14.242188 34.878906 14.429688 35.257812 14.617188 C 35.632812 14.804688 36.238281 15.195312 36.617188 15.515625 C 36.992188 15.835938 37.597656 16.460938 37.976562 16.925781 C 38.355469 17.390625 38.960938 18.253906 39.335938 18.855469 C 39.714844 19.457031 40.320312 20.535156 40.695312 21.261719 C 41.074219 21.984375 41.679688 23.25 42.054688 24.078125 C 42.433594 24.902344 43.039062 26.3125 43.417969 27.214844 C 43.792969 28.117188 44.398438 29.632812 44.777344 30.585938 C 45.152344 31.542969 45.757812 33.117188 46.136719 34.101562 C 46.515625 35.085938 47.121094 36.691406 47.496094 37.679688 C 47.875 38.671875 48.480469 40.269531 48.855469 41.253906 C 49.234375 42.234375 49.839844 43.796875 50.214844 44.753906 C 50.59375 45.707031 51.199219 47.214844 51.578125 48.132812 C 51.953125 49.046875 52.558594 50.480469 52.9375 51.34375 C 53.3125 52.210938 53.917969 53.554688 54.296875 54.359375 C 54.675781 55.167969 55.28125 56.414062 55.65625 57.15625 C 56.035156 57.894531 56.640625 59.035156 57.015625 59.707031 C 57.394531 60.378906 58 61.402344 58.375 62.003906 C 58.753906 62.605469 59.359375 63.515625 59.738281 64.042969 C 60.113281 64.574219 60.71875 65.363281 61.097656 65.820312 C 61.472656 66.277344 62.078125 66.949219 62.457031 67.332031 C 62.835938 67.71875 63.4375 68.277344 63.816406 68.589844 C 64.195312 68.90625 64.800781 69.351562 65.175781 69.597656 C 65.554688 69.84375 66.160156 70.183594 66.535156 70.363281 C 66.914062 70.542969 67.519531 70.78125 67.898438 70.898438 C 68.273438 71.015625 68.878906 71.15625 69.257812 71.214844 C 69.632812 71.273438 70.238281 71.320312 70.617188 71.324219 C 70.996094 71.328125 71.597656 71.289062 71.976562 71.238281 C 72.355469 71.191406 72.960938 71.074219 73.335938 70.980469 C 73.714844 70.882812 74.320312 70.691406 74.695312 70.554688 C 75.074219 70.414062 75.679688 70.15625 76.058594 69.980469 C 76.433594 69.800781 77.039062 69.484375 77.417969 69.269531 C 77.792969 69.054688 78.398438 68.6875 78.777344 68.441406 C 79.15625 68.195312 79.757812 67.78125 80.136719 67.507812 C 80.515625 67.238281 81.121094 66.78125 81.496094 66.484375 C 81.875 66.191406 82.480469 65.703125 82.855469 65.386719 C 83.234375 65.074219 83.839844 64.558594 84.21875 64.230469 C 84.59375 63.902344 85.199219 63.363281 85.578125 63.027344 C 85.953125 62.6875 86.558594 62.136719 86.9375 61.789062 C 87.316406 61.445312 87.917969 60.886719 88.296875 60.535156 C 88.675781 60.1875 89.28125 59.625 89.65625 59.28125 C 90.035156 58.933594 90.640625 58.375 91.015625 58.03125 C 91.394531 57.691406 92 57.144531 92.378906 56.8125 C 92.753906 56.476562 93.359375 55.949219 93.738281 55.625 C 94.113281 55.304688 94.71875 54.800781 95.097656 54.496094 C 95.472656 54.1875 96.078125 53.710938 96.457031 53.429688 C 96.835938 53.144531 97.441406 52.703125 97.816406 52.441406 C 98.195312 52.179688 98.800781 51.78125 99.175781 51.546875 C 99.554688 51.316406 100.160156 50.964844 100.539062 50.761719 C 100.914062 50.5625 101.519531 50.261719 101.898438 50.097656 C 102.273438 49.933594 102.878906 49.695312 103.257812 49.570312 C 103.632812 49.445312 104.238281 49.273438 104.617188 49.191406 C 104.996094 49.109375 105.601562 49.011719 105.976562 48.980469 C 106.355469 48.945312 106.960938 48.925781 107.335938 48.945312 C 107.714844 48.960938 108.320312 49.03125 108.699219 49.105469 C 109.074219 49.179688 109.679688 49.34375 110.058594 49.476562 C 110.433594 49.609375 111.039062 49.871094 111.417969 50.070312 C 111.792969 50.269531 112.398438 50.636719 112.777344 50.902344 C 113.15625 51.171875 113.761719 51.652344 114.136719 51.992188 C 114.515625 52.332031 115.121094 52.933594 115.496094 53.347656 C 115.875 53.761719 116.480469 54.492188 116.859375 54.988281 C 117.234375 55.484375 117.839844 56.34375 118.21875 56.921875 C 118.59375 57.503906 119.199219 58.5 119.578125 59.167969 C 119.953125 59.832031 120.558594 60.972656 120.9375 61.730469 C 121.316406 62.488281 121.921875 63.773438 122.296875 64.625 C 122.675781 65.472656 123.28125 66.910156 123.65625 67.851562 C 124.035156 68.796875 124.640625 70.382812 125.015625 71.421875 C 125.394531 72.457031 126 74.195312 126.378906 75.328125 C 126.753906 76.457031 127.359375 78.347656 127.738281 79.570312 C 128.113281 80.789062 128.71875 82.824219 129.097656 84.132812 C 129.476562 85.4375 130.082031 87.609375 130.457031 88.996094 C 130.835938 90.382812 131.441406 92.675781 131.816406 94.132812 C 132.195312 95.589844 132.800781 97.988281 133.175781 99.5 C 133.554688 101.015625 134.160156 103.492188 134.539062 105.046875 C 134.914062 106.597656 135.519531 109.125 135.898438 110.691406 C 136.273438 112.261719 136.878906 114.796875 137.257812 116.347656 C 137.636719 117.902344 138.242188 120.394531 138.617188 121.898438 C 138.996094 123.402344 139.601562 125.78125 139.976562 127.1875 C 140.355469 128.597656 140.960938 130.789062 141.335938 132.046875 C 141.714844 133.304688 142.320312 135.214844 142.699219 136.253906 C 143.074219 137.296875 143.679688 138.808594 144.058594 139.5625 C 144.433594 140.3125 145.039062 141.296875 145.417969 141.667969 C 145.796875 142.039062 146.402344 142.34375 146.777344 142.242188 C 147.15625 142.136719 147.761719 141.597656 148.136719 140.914062 C 148.515625 140.230469 149.121094 138.675781 149.496094 137.304688 C 149.875 135.9375 150.480469 133.195312 150.859375 131.046875 C 151.234375 128.902344 151.839844 124.828125 152.21875 121.84375 C 152.59375 118.859375 153.199219 113.367188 153.578125 109.542969 C 153.957031 105.71875 154.5625 98.84375 154.9375 94.273438 C 155.316406 89.703125 155.921875 81.671875 156.296875 76.605469 C 156.675781 71.539062 157.28125 62.871094 157.65625 57.753906 C 158.035156 52.640625 158.640625 44.25 159.019531 39.734375 C 159.394531 35.222656 160 28.425781 160.378906 25.226562 C 160.753906 22.023438 161.359375 18.207031 161.738281 16.664062 C 162.117188 15.117188 162.71875 14.46875 163.097656 14.09375 C 163.476562 13.722656 164.269531 13.988281 164.457031 13.972656 C 164.648438 13.953125 164.4375 13.972656 164.457031 13.972656 C 164.476562 13.972656 164.558594 13.972656 164.59375 13.972656 C 164.632812 13.972656 164.695312 13.972656 164.734375 13.972656 C 164.773438 13.972656 164.832031 13.972656 164.871094 13.972656 C 164.910156 13.972656 164.96875 13.972656 165.007812 13.972656 C 165.046875 13.972656 165.109375 13.972656 165.144531 13.972656 C 165.183594 13.972656 165.246094 13.972656 165.285156 13.972656 C 165.320312 13.972656 165.382812 13.972656 165.421875 13.972656 C 165.460938 13.972656 165.519531 13.972656 165.558594 13.972656 C 165.597656 13.972656 165.660156 13.972656 165.695312 13.972656 C 165.734375 13.972656 165.796875 13.972656 165.835938 13.972656 C 165.871094 13.972656 165.933594 13.972656 165.972656 13.972656 C 166.011719 13.972656 166.070312 13.972656 166.109375 13.972656 C 166.148438 13.972656 166.210938 13.972656 166.246094 13.972656 C 166.285156 13.972656 166.347656 13.972656 166.386719 13.972656 C 166.421875 13.972656 166.484375 13.972656 166.523438 13.972656 C 166.5625 13.972656 166.621094 13.972656 166.660156 13.972656 C 166.699219 13.972656 166.757812 13.972656 166.796875 13.972656 C 166.835938 13.972656 166.898438 13.972656 166.933594 13.972656 C 166.972656 13.972656 167.035156 13.972656 167.074219 13.972656 C 167.113281 13.972656 167.171875 13.972656 167.210938 13.972656 C 167.25 13.972656 167.308594 13.972656 167.347656 13.972656 C 167.386719 13.972656 167.449219 13.972656 167.484375 13.972656 C 167.523438 13.972656 167.585938 13.972656 167.625 13.972656 C 167.660156 13.972656 167.722656 13.972656 167.761719 13.972656 C 167.800781 13.972656 167.859375 13.972656 167.898438 13.972656 C 167.9375 13.972656 168 13.972656 168.035156 13.972656 C 168.074219 13.972656 168.136719 13.972656 168.175781 13.972656 C 168.210938 13.972656 168.273438 13.972656 168.3125 13.972656 C 168.351562 13.972656 168.410156 13.972656 168.449219 13.972656 C 168.488281 13.972656 168.550781 13.972656 168.585938 13.972656 C 168.625 13.972656 168.6875 13.972656 168.726562 13.972656 C 168.761719 13.972656 168.824219 13.972656 168.863281 13.972656 C 168.902344 13.972656 168.960938 13.972656 169 13.972656 C 169.039062 13.972656 169.097656 13.972656 169.136719 13.972656 C 169.175781 13.972656 169.238281 13.972656 169.273438 13.972656 C 169.3125 13.972656 169.375 13.972656 169.414062 13.972656 C 169.449219 13.972656 169.511719 13.972656 169.550781 13.972656 C 169.589844 13.972656 169.648438 13.972656 169.6875 13.972656 C 169.726562 13.972656 169.789062 13.972656 169.824219 13.972656 C 169.863281 13.972656 169.925781 13.972656 169.964844 13.972656 C 170 13.972656 170.0625 13.972656 170.101562 13.972656 C 170.140625 13.972656 170.199219 13.972656 170.238281 13.972656 C 170.277344 13.972656 170.339844 13.972656 170.375 13.972656 C 170.414062 13.972656 170.476562 13.972656 170.515625 13.972656 C 170.550781 13.972656 170.613281 13.972656 170.652344 13.972656 C 170.691406 13.972656 170.75 13.972656 170.789062 13.972656 C 170.828125 13.972656 170.890625 13.972656 170.925781 13.972656 C 170.964844 13.972656 171.027344 13.972656 171.066406 13.972656 C 171.101562 13.972656 171.164062 13.972656 171.203125 13.972656 C 171.242188 13.972656 171.300781 13.972656 171.339844 13.972656 C 171.378906 13.972656 171.4375 13.972656 171.476562 13.972656 C 171.515625 13.972656 171.578125 13.972656 171.613281 13.972656 C 171.652344 13.972656 171.714844 13.972656 171.753906 13.972656 C 171.789062 13.972656 171.851562 13.972656 171.890625 13.972656 C 171.929688 13.972656 171.988281 13.972656 172.027344 13.972656 C 172.066406 13.972656 172.128906 13.972656 172.164062 13.972656 C 172.203125 13.972656 172.265625 13.972656 172.304688 13.972656 C 172.339844 13.972656 172.402344 13.972656 172.441406 13.972656 C 172.480469 13.972656 172.539062 13.972656 172.578125 13.972656 C 172.617188 13.972656 172.679688 13.972656 172.714844 13.972656 C 172.753906 13.972656 172.816406 13.972656 172.855469 13.972656 C 172.890625 13.972656 172.953125 13.972656 172.992188 13.972656 C 173.03125 13.972656 173.089844 13.972656 173.128906 13.972656 C 173.167969 13.972656 173.230469 13.972656 173.265625 13.972656 C 173.304688 13.972656 173.367188 13.972656 173.40625 13.972656 C 173.441406 13.972656 173.503906 13.972656 173.542969 13.972656 C 173.582031 13.972656 173.640625 13.972656 173.679688 13.972656 C 173.71875 13.972656 173.777344 13.972656 173.816406 13.972656 C 173.855469 13.972656 173.917969 13.972656 173.953125 13.972656 C 173.992188 13.972656 174.054688 13.972656 174.09375 13.972656 C 174.128906 13.972656 174.191406 13.972656 174.230469 13.972656 C 174.269531 13.972656 174.328125 13.972656 174.367188 13.972656 C 174.40625 13.972656 174.46875 13.972656 174.503906 13.972656 C 174.542969 13.972656 174.605469 13.972656 174.644531 13.972656 C 174.679688 13.972656 174.742188 13.972656 174.78125 13.972656 C 174.820312 13.972656 174.878906 13.972656 174.917969 13.972656 C 174.957031 13.972656 175.019531 13.972656 175.054688 13.972656 C 175.09375 13.972656 175.15625 13.972656 175.195312 13.972656 C 175.230469 13.972656 175.292969 13.972656 175.332031 13.972656 C 175.371094 13.972656 175.429688 13.972656 175.46875 13.972656 C 175.507812 13.972656 175.570312 13.972656 175.605469 13.972656 C 175.644531 13.972656 175.707031 13.972656 175.746094 13.972656 C 175.78125 13.972656 175.84375 13.972656 175.882812 13.972656 C 175.921875 13.972656 175.980469 13.972656 176.019531 13.972656 C 176.058594 13.972656 176.117188 13.972656 176.15625 13.972656 C 176.195312 13.972656 176.257812 13.972656 176.292969 13.972656 C 176.332031 13.972656 176.394531 13.972656 176.433594 13.972656 C 176.46875 13.972656 176.53125 13.972656 176.570312 13.972656 C 176.609375 13.972656 176.667969 13.972656 176.707031 13.972656 C 176.746094 13.972656 176.808594 13.972656 176.84375 13.972656 C 176.882812 13.972656 176.945312 13.972656 176.984375 13.972656 C 177.019531 13.972656 177.082031 13.972656 177.121094 13.972656 C 177.160156 13.972656 177.21875 13.972656 177.257812 13.972656 C 177.296875 13.972656 177.359375 13.972656 177.394531 13.972656 C 177.433594 13.972656 177.496094 13.972656 177.535156 13.972656 C 177.570312 13.972656 177.632812 13.972656 177.671875 13.972656 C 177.710938 13.972656 177.769531 13.972656 177.808594 13.972656 C 177.847656 13.972656 177.910156 13.972656 177.945312 13.972656 C 177.984375 13.972656 178.085938 13.972656 178.085938 13.972656 " transform="matrix(1,0,0,-1,-16,155)"/>
</g>
</svg>
