<?xml version="1.0" standalone="no"?>
<!DOCTYPE svg PUBLIC "-//W3C//DTD SVG 20010904//EN"
 "http://www.w3.org/TR/2001/REC-SVG-20010904/DTD/svg10.dtd">
<svg version="1.0" xmlns="http://www.w3.org/2000/svg"
 width="2000.000000pt" height="2000.000000pt" viewBox="0 0 2000.000000 2000.000000"
 preserveAspectRatio="xMidYMid meet">
<metadata>
Created by potrace 1.16, written by Peter Selinger 2001-2019
</metadata>
<g transform="translate(0.000000,2000.000000) scale(0.100000,-0.100000)"
fill="#000000" stroke="none">
<path d="M9966 19525 c27 -20 170 -21 190 0 14 13 3 15 -97 15 -101 0 -111 -1
-93 -15z"/>
<path d="M9793 19503 c-13 -2 -23 -9 -23 -14 0 -11 140 -12 158 0 27 17 -69
27 -135 14z"/>
<path d="M10192 19501 c-11 -7 -10 -10 3 -15 25 -9 115 -7 115 3 0 19 -93 29
-118 12z"/>
<path d="M9630 19461 c0 -12 34 -17 83 -12 59 5 43 21 -23 21 -33 0 -60 -4
-60 -9z"/>
<path d="M10320 19461 c0 -5 10 -11 23 -13 32 -5 68 3 61 13 -7 12 -84 12 -84
0z"/>
<path d="M9505 19430 c-3 -6 0 -13 8 -16 24 -9 80 0 85 14 5 15 -84 17 -93 2z"/>
<path d="M10410 19431 c0 -11 25 -21 56 -21 15 0 24 6 24 15 0 11 -11 15 -40
15 -22 0 -40 -4 -40 -9z"/>
<path d="M9398 19403 c-10 -2 -18 -9 -18 -14 0 -13 100 -7 103 6 2 11 -56 16
-85 8z"/>
<path d="M10500 19395 c0 -10 11 -15 35 -15 36 0 47 13 19 24 -28 11 -54 6
-54 -9z"/>
<path d="M10577 19374 c-15 -15 -6 -24 23 -24 17 0 30 5 30 10 0 6 -4 10 -9
10 -5 0 -16 2 -23 5 -8 3 -17 2 -21 -1z"/>
<path d="M9290 19360 c0 -5 18 -10 40 -10 22 0 40 5 40 10 0 6 -18 10 -40 10
-22 0 -40 -4 -40 -10z"/>
<path d="M9200 19325 c0 -16 35 -20 64 -9 29 11 16 24 -24 24 -29 0 -40 -4
-40 -15z"/>
<path d="M10632 19328 c3 -7 15 -15 29 -16 13 -2 28 -10 32 -18 11 -19 57 -18
57 1 0 10 -10 15 -30 15 -20 0 -30 5 -30 15 0 10 -10 15 -31 15 -20 0 -29 -4
-27 -12z"/>
<path d="M9117 19303 c-15 -15 -5 -23 28 -23 24 0 35 5 35 15 0 15 -50 22 -63
8z"/>
<path d="M9048 19273 c-31 -8 -20 -23 16 -23 38 0 55 14 30 24 -17 6 -19 6
-46 -1z"/>
<path d="M10757 19274 c-15 -15 -6 -24 24 -24 20 0 29 4 27 13 -5 14 -40 21
-51 11z"/>
<path d="M8950 19231 c0 -14 29 -22 56 -15 38 10 28 24 -16 24 -22 0 -40 -4
-40 -9z"/>
<path d="M10810 19230 c0 -5 4 -10 9 -10 5 0 16 -3 25 -6 11 -4 16 -1 16 10 0
10 -9 16 -25 16 -14 0 -25 -4 -25 -10z"/>
<path d="M8890 19195 c0 -12 7 -15 25 -13 14 2 26 8 26 13 0 6 -12 11 -26 13
-18 2 -25 -1 -25 -13z"/>
<path d="M10870 19195 c0 -9 9 -15 25 -15 16 0 25 -6 25 -15 0 -9 9 -15 25
-15 14 0 25 4 25 10 0 5 -11 12 -25 16 -14 3 -25 12 -25 20 0 8 -10 14 -25 14
-16 0 -25 -6 -25 -15z"/>
<path d="M8820 19165 c-11 -13 -7 -15 24 -15 25 0 36 4 36 15 0 9 -9 15 -24
15 -13 0 -29 -7 -36 -15z"/>
<path d="M8768 19143 c-29 -7 -20 -23 13 -23 19 0 29 4 27 12 -5 14 -17 17
-40 11z"/>
<path d="M10975 19140 c-3 -6 1 -13 10 -16 19 -8 30 0 20 15 -8 14 -22 14 -30
1z"/>
<path d="M8690 19095 c0 -8 -8 -15 -18 -15 -11 0 -29 -9 -42 -20 -13 -11 -29
-20 -37 -20 -7 0 -13 -4 -13 -10 0 -5 11 -10 25 -10 16 0 25 6 25 15 0 10 10
15 30 15 19 0 30 5 30 14 0 8 12 16 27 18 39 4 42 28 4 28 -21 0 -31 -5 -31
-15z"/>
<path d="M11010 19100 c0 -5 11 -12 25 -16 14 -3 25 -10 25 -15 0 -5 8 -12 18
-16 17 -6 38 -23 70 -55 9 -10 24 -18 33 -18 9 0 19 -7 23 -15 3 -8 12 -15 21
-15 8 0 15 -7 15 -15 0 -8 5 -15 12 -15 12 0 18 -5 79 -65 20 -19 41 -35 47
-35 6 0 16 -9 22 -20 6 -11 17 -20 25 -20 8 0 15 -7 15 -15 0 -8 7 -15 15 -15
8 0 15 -7 15 -15 0 -8 5 -15 10 -15 6 0 18 -8 29 -17 10 -10 30 -27 44 -38 14
-11 26 -26 27 -32 0 -7 7 -13 15 -13 8 0 15 -7 15 -15 0 -8 7 -15 15 -15 8 0
15 -5 15 -11 0 -12 120 -129 133 -129 4 0 7 -5 7 -10 0 -6 14 -24 30 -40 17
-16 30 -32 30 -34 0 -3 11 -18 25 -33 82 -91 95 -107 95 -118 0 -7 7 -15 15
-19 8 -3 15 -12 15 -21 0 -8 5 -15 10 -15 6 0 10 -7 10 -15 0 -8 7 -15 15 -15
8 0 15 -7 15 -15 0 -9 7 -18 15 -21 8 -4 15 -12 15 -19 0 -7 7 -15 15 -19 8
-3 15 -12 15 -21 0 -8 4 -15 10 -15 5 0 12 -11 16 -24 3 -14 12 -27 20 -30 8
-3 14 -12 14 -21 0 -8 5 -15 10 -15 6 0 10 -7 10 -15 0 -9 6 -18 14 -21 8 -3
17 -16 20 -30 4 -13 11 -24 16 -24 6 0 10 -9 10 -20 0 -11 5 -20 10 -20 6 0
15 -11 20 -25 5 -14 14 -25 20 -25 5 0 10 -11 10 -25 0 -16 6 -25 15 -25 9 0
15 -9 15 -25 0 -14 7 -28 15 -31 8 -4 15 -14 15 -24 0 -11 4 -21 9 -25 5 -3
12 -19 16 -35 4 -17 10 -30 15 -30 5 0 11 -13 15 -30 4 -16 10 -30 15 -30 4 0
10 -13 14 -30 3 -16 10 -30 16 -30 16 0 12 50 -5 56 -9 4 -15 19 -15 35 0 19
-5 29 -15 29 -10 0 -15 10 -15 30 0 20 -5 30 -15 30 -9 0 -15 9 -15 25 0 14
-7 28 -15 31 -8 4 -15 17 -15 30 0 13 -4 24 -10 24 -5 0 -13 12 -16 26 -4 15
-16 36 -26 46 -11 11 -24 33 -30 49 -5 16 -14 29 -19 29 -5 0 -9 9 -9 20 0 11
-7 20 -15 20 -8 0 -15 7 -15 15 0 9 -7 18 -15 21 -8 4 -15 14 -15 24 0 10 -7
23 -15 30 -8 7 -15 18 -15 25 0 7 -7 15 -15 19 -8 3 -15 11 -15 17 0 6 -10 21
-23 33 -13 12 -26 29 -30 39 -3 9 -11 17 -17 17 -5 0 -10 6 -10 13 0 8 -9 22
-20 32 -11 10 -20 24 -20 32 0 7 -4 13 -10 13 -5 0 -10 7 -10 15 0 8 -7 15
-15 15 -8 0 -15 7 -15 15 0 9 -7 18 -15 21 -8 4 -15 12 -15 20 0 8 -7 14 -15
14 -8 0 -15 5 -15 10 0 12 -9 24 -52 71 -16 16 -28 34 -28 39 0 6 -7 10 -15
10 -8 0 -15 7 -15 15 0 8 -7 15 -15 15 -8 0 -15 5 -15 12 0 13 -89 98 -102 98
-5 0 -8 7 -8 15 0 8 -7 15 -15 15 -8 0 -15 7 -15 15 0 8 -7 15 -15 15 -8 0
-15 7 -15 15 0 8 -7 15 -15 15 -8 0 -15 5 -15 10 0 15 -50 60 -66 60 -8 0 -14
7 -14 15 0 8 -7 15 -15 15 -8 0 -15 7 -15 15 0 8 -6 15 -13 15 -7 0 -18 9 -25
20 -7 11 -21 20 -32 20 -11 0 -20 7 -20 15 0 8 -7 15 -15 15 -8 0 -15 7 -15
15 0 8 -4 15 -10 15 -9 0 -18 7 -71 55 -9 8 -21 15 -27 15 -7 0 -12 7 -12 15
0 9 -9 15 -25 15 -14 0 -25 6 -25 13 0 16 -53 57 -75 57 -8 0 -15 7 -15 15 0
9 -9 15 -25 15 -14 0 -25 -4 -25 -10z"/>
<path d="M8540 18994 c0 -9 7 -14 17 -12 25 5 28 28 4 28 -12 0 -21 -6 -21
-16z"/>
<path d="M8484 18966 c-3 -8 -16 -17 -30 -20 -13 -4 -24 -13 -24 -21 0 -8 -7
-15 -15 -15 -8 0 -15 -4 -15 -9 0 -5 -10 -13 -22 -17 -13 -3 -38 -22 -56 -40
-18 -19 -39 -34 -47 -34 -8 0 -15 -7 -15 -15 0 -8 -7 -15 -15 -15 -8 0 -15 -7
-15 -15 0 -8 -7 -15 -15 -15 -8 0 -15 -6 -15 -14 0 -8 -11 -17 -25 -20 -14 -4
-25 -13 -25 -21 0 -8 -7 -15 -15 -15 -8 0 -15 -7 -15 -15 0 -8 -7 -15 -15 -15
-8 0 -15 -7 -15 -15 0 -8 -7 -15 -15 -15 -8 0 -15 -6 -15 -14 0 -8 -7 -16 -15
-20 -8 -3 -15 -12 -15 -21 0 -8 -7 -15 -15 -15 -8 0 -15 -7 -15 -15 0 -8 -7
-15 -15 -15 -8 0 -15 -6 -15 -14 0 -8 -7 -16 -15 -20 -8 -3 -15 -12 -15 -21 0
-8 -4 -15 -10 -15 -5 0 -10 -7 -10 -15 0 -9 -7 -18 -15 -21 -8 -4 -15 -10 -15
-15 0 -12 -42 -73 -52 -77 -5 -2 -8 -10 -8 -17 0 -7 -7 -15 -15 -19 -8 -3 -15
-15 -15 -26 0 -11 -7 -23 -15 -26 -8 -4 -15 -14 -15 -24 0 -10 -7 -20 -15 -24
-8 -3 -15 -15 -15 -27 0 -12 -7 -27 -17 -34 -10 -7 -14 -19 -10 -29 8 -20 27
-12 27 10 0 9 7 22 15 30 8 9 15 24 15 34 0 10 7 20 15 24 8 3 15 12 15 21 0
8 4 15 9 15 5 0 12 12 15 26 4 14 18 36 31 48 14 13 25 31 25 40 0 9 7 16 15
16 8 0 15 8 15 19 0 10 7 24 15 31 8 7 15 19 15 26 0 8 7 14 15 14 8 0 15 7
15 15 0 9 7 18 15 21 8 4 15 12 15 20 0 8 7 14 15 14 8 0 15 6 15 14 0 8 7 16
15 20 8 3 15 12 15 21 0 8 7 15 15 15 8 0 15 7 15 15 0 8 4 15 10 15 5 0 24
16 43 35 19 19 39 35 46 35 6 0 11 7 11 15 0 8 7 15 15 15 8 0 15 7 15 15 0 8
7 15 15 15 8 0 15 7 15 15 0 8 11 17 25 21 14 3 25 13 25 21 0 10 9 13 27 11
24 -3 29 -9 35 -48 4 -25 12 -46 18 -48 17 -6 12 -92 -5 -98 -8 -4 -15 -12
-15 -20 0 -16 90 -119 104 -119 12 0 25 54 33 142 l5 62 -38 3 c-37 3 -39 5
-45 43 -3 22 -10 50 -17 62 -20 36 -14 72 14 98 15 14 33 25 40 25 8 0 14 6
14 14 0 8 10 16 22 18 12 2 23 9 26 16 5 17 -37 15 -44 -2z"/>
<path d="M9178 18513 c-21 -2 -38 -8 -38 -14 0 -5 -9 -9 -20 -9 -22 0 -90 -66
-90 -89 0 -5 -7 -11 -15 -15 -8 -3 -15 -10 -15 -16 0 -5 7 -10 15 -10 8 0 15
7 15 16 0 9 6 14 13 12 7 -3 13 -28 15 -64 2 -38 8 -62 18 -67 8 -4 14 -15 14
-22 0 -22 72 -20 91 3 26 30 42 103 30 135 -6 16 -11 39 -11 53 0 14 -6 24
-14 24 -15 0 -28 24 -19 34 4 3 250 6 547 7 552 1 721 10 431 22 -164 7 -900
7 -967 0z"/>
<path d="M10515 18470 c3 -5 29 -10 56 -10 36 0 51 -4 56 -16 3 -9 1 -19 -4
-23 -16 -10 -25 -78 -18 -135 6 -44 11 -55 41 -74 37 -24 54 -21 87 16 13 14
20 40 22 89 2 37 4 71 4 75 1 3 10 4 21 1 14 -4 20 0 20 11 0 9 -7 16 -15 16
-8 0 -15 5 -15 10 0 6 -11 15 -25 20 -14 5 -25 14 -25 20 0 6 -40 10 -106 10
-67 0 -103 -4 -99 -10z"/>
<path d="M8950 18301 c0 -10 -7 -21 -15 -25 -17 -6 -21 -46 -5 -46 6 0 10 9
10 19 0 10 7 21 15 25 17 6 21 46 5 46 -5 0 -10 -9 -10 -19z"/>
<path d="M10890 18305 c0 -8 7 -15 15 -15 8 0 15 -7 15 -15 0 -8 7 -15 15 -15
21 0 18 11 -9 38 -28 26 -36 28 -36 7z"/>
<path d="M8890 18205 c0 -8 -7 -15 -15 -15 -8 0 -15 -7 -15 -16 0 -8 -7 -22
-15 -30 -17 -17 -20 -44 -5 -44 6 0 10 7 10 15 0 8 9 23 20 32 11 10 20 23 20
30 0 7 5 13 10 13 6 0 10 7 10 15 0 8 -4 15 -10 15 -5 0 -10 -7 -10 -15z"/>
<path d="M10982 18208 c3 -7 13 -15 22 -16 12 -3 17 1 14 10 -3 7 -13 15 -22
16 -12 3 -17 -1 -14 -10z"/>
<path d="M11030 18175 c0 -8 7 -15 15 -15 8 0 15 7 15 15 0 8 -7 15 -15 15 -8
0 -15 -7 -15 -15z"/>
<path d="M8803 18083 c-4 -10 -11 -21 -16 -24 -5 -4 -7 -15 -4 -25 4 -17 6
-17 12 4 4 12 14 22 21 22 16 0 19 26 4 35 -6 3 -13 -2 -17 -12z"/>
<path d="M11130 18075 c0 -8 7 -15 15 -15 9 0 18 -6 21 -14 8 -20 34 -29 34
-11 0 8 -7 15 -15 15 -8 0 -15 6 -15 14 0 8 -7 17 -16 20 -22 9 -24 8 -24 -9z"/>
<path d="M7686 18058 c-9 -34 -8 -38 9 -38 10 0 15 10 15 30 0 35 -15 40 -24
8z"/>
<path d="M8748 17995 c-4 -17 -1 -25 8 -25 8 0 14 11 14 25 0 14 -4 25 -9 25
-5 0 -11 -11 -13 -25z"/>
<path d="M7660 17980 c0 -16 5 -30 10 -30 6 0 10 14 10 30 0 17 -4 30 -10 30
-5 0 -10 -13 -10 -30z"/>
<path d="M11240 17975 c0 -8 7 -15 15 -15 8 0 15 -7 15 -15 0 -8 7 -15 15 -15
8 0 15 -6 15 -14 0 -8 11 -17 25 -20 14 -4 25 -13 25 -21 0 -8 7 -15 15 -15 8
0 15 -7 15 -15 0 -8 7 -15 15 -15 8 0 15 -7 15 -15 0 -8 7 -15 15 -15 8 0 15
-6 15 -14 0 -8 11 -17 25 -20 14 -4 25 -13 25 -21 0 -8 7 -15 15 -15 8 0 15 7
15 15 0 8 -4 15 -10 15 -5 0 -18 8 -29 18 -10 9 -30 26 -44 37 -14 11 -26 26
-27 33 0 6 -7 12 -15 12 -8 0 -15 7 -15 15 0 8 -7 15 -15 15 -8 0 -15 7 -15
15 0 8 -8 15 -18 15 -9 0 -30 16 -46 35 -32 38 -46 44 -46 20z"/>
<path d="M7630 17910 c0 -22 5 -40 10 -40 6 0 10 18 10 40 0 22 -4 40 -10 40
-5 0 -10 -18 -10 -40z"/>
<path d="M8660 17861 c0 -17 5 -31 10 -31 6 0 10 9 10 20 0 11 0 23 1 27 0 4
-4 9 -10 11 -6 2 -11 -10 -11 -27z"/>
<path d="M7600 17825 c0 -19 5 -35 10 -35 6 0 10 16 10 35 0 19 -4 35 -10 35
-5 0 -10 -16 -10 -35z"/>
<path d="M7577 17774 c-10 -11 -8 -84 2 -84 14 0 24 57 14 75 -5 9 -12 12 -16
9z"/>
<path d="M8574 17728 c-4 -13 -14 -28 -23 -35 -13 -9 -13 -14 -4 -24 10 -10
14 -8 19 7 4 10 13 23 21 27 15 9 18 47 4 47 -5 0 -13 -10 -17 -22z"/>
<path d="M11550 17680 c0 -5 -11 -12 -25 -16 -14 -3 -25 -12 -25 -20 0 -8 -6
-14 -14 -14 -30 0 -30 -185 0 -197 8 -3 14 -11 14 -19 0 -20 69 -19 76 1 4 8
12 15 19 15 9 0 15 -22 20 -67 3 -38 7 -75 9 -83 1 -8 6 48 10 126 4 77 4 154
1 170 -12 49 -29 84 -42 84 -7 0 -13 7 -13 15 0 8 -7 15 -15 15 -8 0 -15 -4
-15 -10z"/>
<path d="M7547 17663 c-10 -10 -8 -91 2 -97 11 -7 21 27 21 72 0 30 -9 40 -23
25z"/>
<path d="M8520 17634 c0 -14 4 -23 10 -19 6 3 10 15 10 26 0 10 -4 19 -10 19
-5 0 -10 -12 -10 -26z"/>
<path d="M7515 17496 c-9 -56 4 -141 16 -111 11 28 11 143 0 150 -6 3 -13 -15
-16 -39z"/>
<path d="M8430 17495 c0 -14 4 -25 9 -25 5 0 11 11 13 25 4 17 1 25 -8 25 -8
0 -14 -11 -14 -25z"/>
<path d="M8404 17454 c-4 -10 -11 -21 -14 -24 -13 -9 -21 -48 -11 -54 5 -3 12
6 16 21 3 15 14 32 23 39 13 10 14 15 5 25 -10 10 -14 8 -19 -7z"/>
<path d="M12470 17383 c0 -10 4 -24 9 -32 7 -11 10 -9 16 8 7 22 0 41 -16 41
-5 0 -9 -8 -9 -17z"/>
<path d="M8345 17360 c-8 -13 4 -32 16 -25 12 8 12 35 0 35 -6 0 -13 -4 -16
-10z"/>
<path d="M7485 17225 c-9 -140 4 -553 16 -534 12 19 12 636 0 643 -5 3 -12
-45 -16 -109z"/>
<path d="M12500 17305 c0 -19 5 -35 10 -35 6 0 10 16 10 35 0 19 -4 35 -10 35
-5 0 -10 -16 -10 -35z"/>
<path d="M9885 17248 c-62 -71 -61 -161 2 -227 28 -29 63 -23 83 14 7 14 17
25 22 25 4 0 8 33 8 74 0 53 -4 77 -15 86 -8 7 -15 18 -15 25 0 11 -29 25 -55
25 -6 0 -19 -10 -30 -22z"/>
<path d="M12530 17235 c0 -19 5 -35 10 -35 6 0 10 16 10 35 0 19 -4 35 -10 35
-5 0 -10 -16 -10 -35z"/>
<path d="M8260 17205 c0 -14 5 -25 10 -25 6 0 10 11 10 25 0 14 -4 25 -10 25
-5 0 -10 -11 -10 -25z"/>
<path d="M12560 17151 c0 -22 5 -43 10 -46 6 -4 10 12 10 39 0 25 -4 46 -10
46 -5 0 -10 -18 -10 -39z"/>
<path d="M8200 17105 c0 -14 5 -25 10 -25 6 0 10 4 10 9 0 5 3 16 6 25 4 11 1
16 -10 16 -10 0 -16 -9 -16 -25z"/>
<path d="M11646 17099 c-8 -41 -5 -661 4 -809 4 -72 7 62 8 363 1 262 0 477
-2 477 -2 0 -6 -14 -10 -31z"/>
<path d="M12590 17049 c0 -31 4 -48 10 -44 6 3 10 26 10 51 0 24 -4 44 -10 44
-5 0 -10 -23 -10 -51z"/>
<path d="M8174 17066 c-4 -10 -2 -22 4 -28 8 -8 13 -7 18 6 4 10 2 22 -4 28
-8 8 -13 7 -18 -6z"/>
<path d="M8147 17008 c-7 -27 2 -45 14 -27 11 18 11 49 0 49 -5 0 -11 -10 -14
-22z"/>
<path d="M12617 16980 c-7 -28 3 -91 14 -84 11 7 11 75 0 92 -6 10 -10 8 -14
-8z"/>
<path d="M8090 16890 c0 -11 -7 -23 -15 -26 -8 -4 -15 -18 -15 -33 0 -15 -7
-36 -15 -47 -19 -25 -19 -55 0 -90 8 -16 15 -41 15 -56 0 -18 5 -28 15 -28 10
0 15 -11 15 -35 0 -19 5 -35 10 -35 6 0 10 16 10 35 0 31 3 35 25 35 28 0 65
32 65 55 0 8 5 15 10 15 14 0 12 106 -2 132 -23 38 -47 58 -73 58 -18 0 -25 5
-25 20 0 11 -4 20 -10 20 -5 0 -10 -9 -10 -20z"/>
<path d="M12647 16864 c-9 -9 -9 -56 0 -107 8 -50 23 -28 22 33 0 50 -11 85
-22 74z"/>
<path d="M12678 16674 c-5 -4 -8 -43 -8 -86 l0 -78 -60 0 c-59 0 -60 0 -60 29
0 45 -30 45 -80 0 -24 -22 -47 -39 -52 -39 -4 0 -8 -10 -8 -22 0 -29 87 -109
115 -106 15 2 21 12 23 36 l3 32 60 0 59 0 0 -162 c0 -174 12 -237 23 -121 9
89 8 437 -1 486 -4 21 -10 35 -14 31z"/>
<path d="M7516 16567 c-10 -78 2 -260 15 -251 10 6 10 244 0 289 -6 25 -9 19
-15 -38z"/>
<path d="M8120 16511 c0 -17 5 -31 10 -31 6 0 10 11 10 24 0 14 -4 28 -10 31
-6 4 -10 -7 -10 -24z"/>
<path d="M8148 16465 c-8 -8 3 -55 13 -55 5 0 9 8 9 18 0 20 -14 44 -22 37z"/>
<path d="M10889 16450 c-23 -24 -33 -108 -20 -158 13 -48 55 -85 84 -76 28 9
57 41 57 63 0 11 5 23 10 26 23 14 1 113 -32 147 -23 23 -78 22 -99 -2z"/>
<path d="M8177 16404 c-11 -11 -8 -52 3 -59 6 -3 13 0 15 8 7 17 -8 60 -18 51z"/>
<path d="M8200 16310 c0 -16 5 -30 10 -30 6 0 10 14 10 30 0 17 -4 30 -10 30
-5 0 -10 -13 -10 -30z"/>
<path d="M7547 16267 c-9 -23 -9 -143 0 -188 10 -51 22 -9 21 76 0 87 -10 139
-21 112z"/>
<path d="M8230 16245 c0 -14 5 -25 10 -25 6 0 10 11 10 25 0 14 -4 25 -10 25
-5 0 -10 -11 -10 -25z"/>
<path d="M8260 16186 c0 -14 5 -28 10 -31 6 -4 10 7 10 24 0 17 -4 31 -10 31
-5 0 -10 -11 -10 -24z"/>
<path d="M8290 16125 c0 -14 5 -25 10 -25 6 0 10 11 10 25 0 14 -4 25 -10 25
-5 0 -10 -11 -10 -25z"/>
<path d="M8320 16066 c0 -14 5 -26 10 -26 6 0 10 9 10 19 0 11 -4 23 -10 26
-6 4 -10 -5 -10 -19z"/>
<path d="M9109 16061 c-8 -10 -21 -38 -28 -63 -11 -38 -11 -56 0 -97 7 -29 19
-51 26 -51 7 0 13 -7 13 -15 0 -25 51 -18 82 12 26 25 28 32 28 109 0 64 -3
83 -15 88 -8 3 -15 12 -15 21 0 22 -70 19 -91 -4z"/>
<path d="M12646 16012 c-8 -53 -7 -135 3 -150 13 -20 21 20 21 105 0 78 -14
105 -24 45z"/>
<path d="M8348 16017 c-6 -16 1 -37 13 -37 12 0 12 37 0 44 -5 3 -11 0 -13 -7z"/>
<path d="M7570 15928 c0 -91 13 -132 25 -79 8 38 -4 161 -16 161 -5 0 -9 -37
-9 -82z"/>
<path d="M8377 15974 c-8 -14 3 -54 14 -54 11 0 11 17 0 44 -4 11 -10 15 -14
10z"/>
<path d="M8400 15893 c0 -24 16 -48 23 -36 8 13 -3 53 -14 53 -5 0 -9 -8 -9
-17z"/>
<path d="M8430 15833 c0 -10 5 -25 10 -33 7 -11 10 -7 10 18 0 17 -4 32 -10
32 -5 0 -10 -8 -10 -17z"/>
<path d="M12615 15784 c-7 -50 2 -107 16 -98 12 7 12 131 0 138 -5 3 -12 -15
-16 -40z"/>
<path d="M7600 15711 c0 -44 5 -83 10 -86 6 -4 10 25 10 79 0 51 -4 86 -10 86
-6 0 -10 -33 -10 -79z"/>
<path d="M8490 15710 c0 -16 5 -30 10 -30 6 0 10 14 10 30 0 17 -4 30 -10 30
-5 0 -10 -13 -10 -30z"/>
<path d="M8520 15650 c0 -16 5 -30 10 -30 6 0 10 14 10 30 0 17 -4 30 -10 30
-5 0 -10 -13 -10 -30z"/>
<path d="M10387 15662 c-10 -10 -17 -24 -17 -30 0 -7 -4 -12 -10 -12 -6 0 -10
-28 -10 -63 0 -57 3 -67 33 -100 18 -20 40 -37 50 -37 18 0 57 33 57 49 0 5 7
14 15 21 10 8 15 30 15 65 0 35 -5 57 -15 65 -8 7 -15 17 -15 22 0 37 -75 51
-103 20z"/>
<path d="M12590 15605 c0 -30 5 -55 10 -55 6 0 10 25 10 55 0 30 -4 55 -10 55
-5 0 -10 -25 -10 -55z"/>
<path d="M8548 15614 c-8 -8 3 -44 13 -44 5 0 9 11 9 25 0 24 -10 32 -22 19z"/>
<path d="M11648 15465 c-5 -88 -8 -215 -8 -282 0 -118 -11 -158 -25 -93 -4 17
-13 30 -21 30 -8 0 -14 7 -14 15 0 24 -66 19 -92 -7 -19 -19 -22 -33 -22 -106
-1 -69 2 -85 17 -93 9 -6 17 -17 17 -24 0 -8 5 -15 10 -15 6 0 10 -7 10 -15 0
-9 -9 -15 -25 -15 -16 0 -25 -6 -25 -15 0 -9 9 -15 25 -15 16 0 25 6 25 15 0
8 7 15 16 15 9 0 28 9 42 21 45 35 62 70 62 126 0 28 5 53 10 55 7 2 9 100 8
283 -3 277 -3 278 -10 120z"/>
<path d="M7630 15520 c0 -40 4 -70 10 -70 6 0 10 30 10 70 0 40 -4 70 -10 70
-6 0 -10 -30 -10 -70z"/>
<path d="M8575 15550 c-7 -12 2 -30 16 -30 12 0 12 27 0 35 -5 3 -12 1 -16 -5z"/>
<path d="M12560 15475 c0 -30 5 -55 10 -55 6 0 10 25 10 55 0 30 -4 55 -10 55
-5 0 -10 -25 -10 -55z"/>
<path d="M8600 15486 c0 -26 15 -43 24 -28 7 12 -4 52 -15 52 -5 0 -9 -11 -9
-24z"/>
<path d="M8630 15426 c0 -14 5 -28 10 -31 6 -4 10 7 10 24 0 17 -4 31 -10 31
-5 0 -10 -11 -10 -24z"/>
<path d="M7660 15355 c0 -37 4 -65 10 -65 6 0 10 28 10 65 0 37 -4 65 -10 65
-6 0 -10 -28 -10 -65z"/>
<path d="M12530 15365 c0 -25 5 -45 10 -45 6 0 10 20 10 45 0 25 -4 45 -10 45
-5 0 -10 -20 -10 -45z"/>
<path d="M12507 15303 c-11 -10 -8 -83 3 -83 6 0 10 20 10 45 0 46 -2 50 -13
38z"/>
<path d="M8720 15255 c0 -14 5 -25 10 -25 6 0 10 11 10 25 0 14 -4 25 -10 25
-5 0 -10 -11 -10 -25z"/>
<path d="M7688 15237 c-7 -34 3 -98 13 -91 12 7 12 114 0 114 -5 0 -11 -10
-13 -23z"/>
<path d="M12477 15194 c-10 -10 -9 -62 2 -68 11 -7 24 55 13 66 -5 5 -11 5
-15 2z"/>
<path d="M7715 15107 c-9 -34 3 -100 16 -92 12 8 12 85 0 104 -8 12 -11 9 -16
-12z"/>
<path d="M8807 15113 c-8 -12 3 -53 13 -53 4 0 11 -15 15 -32 7 -33 7 -33 18
-9 9 19 8 26 -6 36 -9 7 -17 18 -17 26 0 20 -17 43 -23 32z"/>
<path d="M12446 15105 c-9 -25 -7 -63 3 -70 14 -8 26 64 14 76 -7 7 -12 5 -17
-6z"/>
<path d="M12415 15017 c-9 -22 -2 -62 10 -60 6 1 11 14 13 29 4 32 -14 56 -23
31z"/>
<path d="M7742 14943 c3 -51 28 -75 28 -26 0 39 -10 73 -22 73 -5 0 -8 -21 -6
-47z"/>
<path d="M8890 14926 c0 -14 5 -28 10 -31 6 -4 10 7 10 24 0 17 -4 31 -10 31
-5 0 -10 -11 -10 -24z"/>
<path d="M12386 14926 c-7 -28 2 -58 15 -50 12 7 12 74 0 74 -5 0 -12 -11 -15
-24z"/>
<path d="M8920 14865 c0 -14 5 -25 10 -25 6 0 10 11 10 25 0 14 -4 25 -10 25
-5 0 -10 -11 -10 -25z"/>
<path d="M7777 14864 c-10 -10 -9 -66 2 -83 8 -12 11 -10 15 10 7 28 -6 84
-17 73z"/>
<path d="M12360 14824 c0 -21 4 -33 10 -29 6 3 10 19 10 36 0 16 -4 29 -10 29
-5 0 -10 -16 -10 -36z"/>
<path d="M11400 14810 c0 -5 14 -10 30 -10 17 0 30 5 30 10 0 6 -13 10 -30 10
-16 0 -30 -4 -30 -10z"/>
<path d="M8978 14784 c-7 -7 3 -54 12 -54 4 0 10 -9 13 -20 3 -11 10 -20 16
-20 17 0 13 30 -4 36 -8 4 -15 17 -15 29 0 23 -12 39 -22 29z"/>
<path d="M11330 14774 c0 -10 7 -14 22 -12 32 5 35 28 4 28 -17 0 -26 -5 -26
-16z"/>
<path d="M12330 14755 c0 -19 5 -35 10 -35 6 0 10 16 10 35 0 19 -4 35 -10 35
-5 0 -10 -16 -10 -35z"/>
<path d="M7800 14716 c0 -48 14 -69 23 -34 7 26 -2 78 -14 78 -5 0 -9 -20 -9
-44z"/>
<path d="M11260 14744 c0 -11 8 -14 27 -12 39 4 42 28 4 28 -21 0 -31 -5 -31
-16z"/>
<path d="M11193 14723 c-24 -9 -13 -23 18 -23 20 0 29 4 27 13 -5 13 -26 18
-45 10z"/>
<path d="M12300 14675 c0 -19 5 -35 10 -35 6 0 10 16 10 35 0 19 -4 35 -10 35
-5 0 -10 -16 -10 -35z"/>
<path d="M11100 14681 c0 -11 29 -18 53 -13 30 6 18 22 -18 22 -19 0 -35 -4
-35 -9z"/>
<path d="M9037 14674 c-13 -13 -8 -44 7 -44 8 0 16 -11 18 -25 2 -14 8 -25 13
-25 11 1 8 42 -4 50 -4 3 -11 15 -16 28 -6 13 -14 20 -18 16z"/>
<path d="M7830 14615 c0 -25 5 -45 10 -45 6 0 10 20 10 45 0 25 -4 45 -10 45
-5 0 -10 -20 -10 -45z"/>
<path d="M11021 14651 c-11 -7 -9 -10 8 -16 24 -7 61 2 61 16 0 11 -50 12 -69
0z"/>
<path d="M10953 14624 c-25 -11 -12 -25 20 -22 17 2 32 8 32 13 0 11 -33 17
-52 9z"/>
<path d="M12270 14600 c0 -16 5 -30 10 -30 6 0 10 3 10 8 0 4 3 17 6 30 5 16
2 22 -10 22 -11 0 -16 -9 -16 -30z"/>
<path d="M10860 14581 c0 -15 15 -21 38 -14 32 8 27 23 -8 23 -16 0 -30 -4
-30 -9z"/>
<path d="M7860 14521 c0 -22 5 -43 10 -46 6 -4 10 12 10 39 0 25 -4 46 -10 46
-5 0 -10 -18 -10 -39z"/>
<path d="M10780 14544 c0 -11 8 -14 27 -12 39 4 42 28 4 28 -21 0 -31 -5 -31
-16z"/>
<path d="M12240 14531 c0 -16 -6 -31 -15 -35 -18 -7 -21 -60 -2 -54 6 3 14 15
16 29 1 13 7 26 11 29 5 3 12 18 15 33 6 21 4 27 -9 27 -11 0 -16 -9 -16 -29z"/>
<path d="M10692 14524 c-21 -9 -3 -24 29 -24 20 0 29 4 27 13 -5 13 -35 19
-56 11z"/>
<path d="M9120 14495 c0 -14 5 -25 10 -25 6 0 10 11 10 25 0 14 -4 25 -10 25
-5 0 -10 -11 -10 -25z"/>
<path d="M10600 14480 c0 -5 14 -10 30 -10 17 0 30 5 30 10 0 6 -13 10 -30 10
-16 0 -30 -4 -30 -10z"/>
<path d="M7890 14436 c0 -20 5 -36 10 -36 6 0 10 13 10 29 0 17 -4 33 -10 36
-6 4 -10 -8 -10 -29z"/>
<path d="M10510 14451 c0 -16 18 -22 45 -15 37 9 31 24 -10 24 -19 0 -35 -4
-35 -9z"/>
<path d="M10423 14423 c-27 -10 -11 -23 27 -23 29 0 40 4 40 15 0 15 -39 20
-67 8z"/>
<path d="M12184 14400 c-4 -16 -10 -30 -15 -30 -5 0 -9 -9 -9 -20 0 -11 5 -20
10 -20 6 0 10 7 10 16 0 8 7 22 15 30 17 17 20 54 5 54 -6 0 -13 -13 -16 -30z"/>
<path d="M9180 14396 c0 -14 5 -26 10 -26 6 0 10 9 10 19 0 11 -4 23 -10 26
-6 4 -10 -5 -10 -19z"/>
<path d="M7914 14386 c-8 -22 4 -68 16 -61 13 8 13 62 0 70 -6 3 -13 -1 -16
-9z"/>
<path d="M10338 14393 c-33 -8 -18 -23 22 -23 40 0 53 13 24 24 -17 6 -19 6
-46 -1z"/>
<path d="M8216 14363 c-11 -3 -26 -11 -34 -19 -7 -8 -24 -14 -38 -14 -24 0
-34 -25 -13 -32 18 -6 15 -79 -4 -93 -9 -7 -17 -17 -17 -24 0 -6 -4 -11 -9
-11 -5 0 -13 -9 -16 -20 -4 -13 -15 -20 -30 -20 -18 0 -25 7 -30 30 -4 17 -11
30 -16 30 -15 0 -10 -50 6 -56 8 -4 15 -17 15 -30 0 -14 7 -27 15 -30 8 -4 15
-13 15 -21 0 -9 11 -26 25 -39 13 -12 27 -34 31 -48 3 -14 10 -26 15 -26 5 0
9 -7 9 -15 0 -8 7 -15 15 -15 8 0 15 -7 15 -15 0 -9 7 -18 15 -21 8 -4 15 -12
15 -20 0 -8 7 -14 15 -14 8 0 15 -6 15 -14 0 -8 7 -16 15 -20 8 -3 15 -12 15
-21 0 -8 7 -15 15 -15 8 0 15 -7 15 -15 0 -8 7 -15 15 -15 8 0 15 -7 15 -15 0
-8 7 -15 15 -15 8 0 15 -7 15 -15 0 -8 11 -17 25 -21 14 -3 25 -12 25 -20 0
-8 7 -14 15 -14 8 0 15 -7 15 -15 0 -8 6 -15 13 -15 8 0 22 -9 32 -20 22 -24
35 -26 35 -5 0 8 -7 15 -15 15 -8 0 -15 7 -15 15 0 8 -11 17 -25 21 -14 3 -25
12 -25 20 0 8 -7 14 -15 14 -8 0 -15 7 -15 15 0 8 -6 15 -13 15 -7 0 -20 8
-29 18 -8 9 -27 26 -41 37 -15 11 -26 25 -27 30 0 6 -13 22 -30 35 -16 14 -29
31 -30 38 0 6 -7 12 -15 12 -8 0 -15 7 -15 15 0 9 -7 18 -15 21 -8 4 -15 12
-15 19 0 7 -7 18 -15 25 -8 7 -15 21 -15 31 0 11 -7 19 -15 19 -8 0 -15 5 -15
11 0 7 -8 17 -17 24 -15 11 -15 14 5 40 12 15 22 32 22 36 0 5 9 19 20 31 10
13 26 32 34 43 16 20 16 20 22 -2 3 -13 10 -23 14 -23 16 0 41 52 46 97 3 27
11 58 17 71 16 34 -7 48 -57 35z"/>
<path d="M9204 14344 c3 -9 6 -18 6 -20 0 -3 5 -2 10 1 16 10 12 35 -6 35 -11
0 -14 -5 -10 -16z"/>
<path d="M9368 14340 c-9 -10 -19 -29 -23 -42 -12 -42 -36 -88 -45 -88 -6 0
-10 -9 -10 -20 0 -11 7 -20 15 -20 8 0 15 -7 15 -15 0 -9 15 -32 34 -50 32
-34 67 -44 92 -27 21 15 44 94 44 155 0 55 -4 67 -28 95 -32 36 -68 41 -94 12z"/>
<path d="M10230 14350 c0 -5 18 -10 40 -10 22 0 40 5 40 10 0 6 -18 10 -40 10
-22 0 -40 -4 -40 -10z"/>
<path d="M10145 14320 c-8 -12 17 -23 41 -18 10 1 19 9 22 16 5 15 -54 17 -63
2z"/>
<path d="M12130 14300 c0 -16 5 -30 10 -30 6 0 10 14 10 30 0 17 -4 30 -10 30
-5 0 -10 -13 -10 -30z"/>
<path d="M7944 14307 c-7 -20 1 -47 16 -47 12 0 13 30 0 50 -8 12 -10 12 -16
-3z"/>
<path d="M9235 14300 c-7 -12 2 -30 16 -30 12 0 12 27 0 35 -5 3 -12 1 -16 -5z"/>
<path d="M10053 14294 c-27 -11 -11 -24 28 -24 28 0 39 4 37 13 -5 13 -44 19
-65 11z"/>
<path d="M9264 14257 c-4 -10 -2 -23 3 -28 14 -14 24 13 13 32 -7 11 -10 10
-16 -4z"/>
<path d="M12100 14250 c0 -11 -7 -20 -15 -20 -8 0 -15 -8 -15 -19 0 -10 -7
-24 -15 -31 -8 -7 -15 -18 -15 -25 0 -7 -7 -15 -15 -19 -8 -3 -15 -12 -15 -20
0 -7 -7 -16 -15 -20 -8 -3 -15 -11 -15 -17 0 -6 -11 -22 -25 -35 -14 -13 -25
-27 -25 -31 0 -5 -13 -20 -30 -33 -16 -14 -29 -31 -30 -37 0 -7 -7 -13 -15
-13 -8 0 -15 -7 -15 -15 0 -8 -7 -15 -15 -15 -8 0 -15 -5 -15 -10 0 -9 -35
-44 -102 -104 -10 -9 -22 -16 -28 -16 -5 0 -10 -7 -10 -15 0 -8 -7 -15 -15
-15 -8 0 -19 -9 -25 -20 -6 -11 -20 -20 -30 -20 -11 0 -20 -7 -20 -15 0 -8 -9
-15 -20 -15 -11 0 -23 -7 -26 -15 -4 -8 -15 -15 -25 -15 -10 0 -19 -7 -19 -15
0 -8 9 -15 20 -15 11 0 20 7 20 15 0 8 9 15 20 15 11 0 23 6 26 14 3 8 16 17
30 20 13 4 24 13 24 21 0 8 9 15 20 15 11 0 20 7 20 15 0 8 6 15 13 15 16 1
67 46 67 60 0 5 7 10 15 10 8 0 15 7 15 15 0 8 7 15 15 15 8 0 15 7 15 15 0 8
6 15 13 15 7 0 18 9 25 20 7 11 19 20 27 20 8 0 15 7 15 15 0 8 7 15 15 15 8
0 15 7 15 15 0 9 6 18 14 21 8 3 17 13 20 22 8 25 29 56 44 65 6 4 12 15 12
22 0 8 7 15 15 15 8 0 15 9 15 20 0 11 7 20 15 20 8 0 15 7 15 15 0 8 5 15 10
15 6 0 10 9 10 19 0 11 7 26 15 35 17 17 20 46 5 46 -5 0 -10 -9 -10 -20z"/>
<path d="M9945 14250 c-4 -6 12 -10 39 -10 25 0 46 5 46 10 0 6 -18 10 -39 10
-22 0 -43 -4 -46 -10z"/>
<path d="M7970 14226 c0 -27 15 -42 25 -26 8 13 -3 50 -16 50 -5 0 -9 -11 -9
-24z"/>
<path d="M9835 14221 c-3 -5 0 -13 5 -16 15 -9 80 4 80 15 0 13 -77 13 -85 1z"/>
<path d="M9742 14193 c-19 -7 -4 -23 23 -23 32 0 56 10 49 21 -5 9 -50 11 -72
2z"/>
<path d="M9610 14150 c0 -5 20 -10 44 -10 25 0 48 5 51 10 4 6 -13 10 -44 10
-28 0 -51 -4 -51 -10z"/>
<path d="M9490 14120 c0 -14 45 -23 75 -16 14 4 23 11 20 16 -8 13 -95 13 -95
0z"/>
<path d="M10350 13673 c0 -16 -7 -37 -15 -47 -8 -11 -15 -30 -15 -42 0 -13 -7
-29 -15 -38 -22 -21 -19 -33 13 -48 27 -13 27 -15 30 -115 l3 -101 -173 -6
c-95 -4 -301 -5 -458 -4 -211 2 -290 0 -305 -9 -16 -10 91 -12 520 -12 381 1
531 4 508 11 -37 12 -43 28 -43 129 0 62 4 81 21 103 l21 26 -22 71 c-30 97
-70 143 -70 82z"/>
<path d="M11430 13591 c0 -19 22 -23 38 -7 15 15 14 16 -11 16 -15 0 -27 -4
-27 -9z"/>
<path d="M8520 13555 c0 -9 9 -15 25 -15 16 0 25 -6 25 -15 0 -9 9 -15 25 -15
14 0 25 4 25 10 0 5 -11 12 -25 16 -14 3 -25 12 -25 20 0 8 -10 14 -25 14 -16
0 -25 -6 -25 -15z"/>
<path d="M11375 13561 c-3 -5 -1 -12 5 -16 13 -8 50 3 50 16 0 12 -47 12 -55
0z"/>
<path d="M11313 13533 c-7 -2 -13 -9 -13 -14 0 -15 53 -6 58 9 4 12 -21 15
-45 5z"/>
<path d="M8627 13504 c-15 -15 -6 -24 23 -24 17 0 30 5 30 10 0 6 -4 10 -9 10
-5 0 -16 2 -23 5 -8 3 -17 2 -21 -1z"/>
<path d="M11253 13503 c-24 -9 -13 -23 18 -23 20 0 29 4 27 13 -5 13 -26 18
-45 10z"/>
<path d="M8682 13458 c7 -20 58 -23 58 -4 0 11 -10 16 -31 16 -20 0 -29 -4
-27 -12z"/>
<path d="M11150 13460 c0 -16 27 -23 55 -16 39 10 29 26 -15 26 -22 0 -40 -5
-40 -10z"/>
<path d="M8750 13425 c0 -10 10 -15 30 -15 20 0 30 5 30 15 0 10 -10 15 -30
15 -20 0 -30 -5 -30 -15z"/>
<path d="M11070 13425 c0 -16 35 -20 64 -9 29 11 16 24 -24 24 -29 0 -40 -4
-40 -15z"/>
<path d="M8827 13404 c-13 -13 5 -24 39 -24 24 0 34 4 32 13 -5 13 -60 22 -71
11z"/>
<path d="M10973 13404 c-29 -12 -10 -24 38 -24 36 0 49 4 47 13 -5 12 -63 20
-85 11z"/>
<path d="M8910 13360 c0 -5 20 -10 45 -10 25 0 45 5 45 10 0 6 -20 10 -45 10
-25 0 -45 -4 -45 -10z"/>
<path d="M10845 13360 c-4 -6 15 -10 49 -10 31 0 56 5 56 10 0 6 -22 10 -49
10 -28 0 -53 -4 -56 -10z"/>
<path d="M9030 13331 c0 -6 11 -13 24 -17 33 -8 91 -1 89 11 -4 14 -113 19
-113 6z"/>
<path d="M10707 13334 c-13 -13 5 -24 41 -24 48 0 83 10 76 21 -6 10 -107 12
-117 3z"/>
<path d="M9172 13298 c5 -14 149 -24 177 -12 29 12 -19 23 -102 23 -59 1 -78
-2 -75 -11z"/>
<path d="M10505 13301 c-17 -8 -18 -10 -4 -15 24 -10 164 -2 164 9 0 12 -133
17 -160 6z"/>
<path d="M7599 12878 c-146 -200 -550 -754 -898 -1231 l-634 -869 -143 143
c-79 79 -144 141 -144 139 0 -40 41 -914 43 -916 1 -2 179 23 396 54 l393 57
-143 139 c-131 129 -141 141 -129 160 7 12 407 561 888 1220 480 660 876 1204
878 1210 2 6 -51 66 -119 134 l-123 123 -265 -363z"/>
<path d="M11787 13116 l-128 -121 897 -1230 896 -1230 -142 -138 c-79 -76
-141 -139 -139 -141 5 -4 783 -116 785 -113 1 1 10 207 20 458 l19 456 -145
-138 c-79 -76 -145 -137 -146 -136 -17 24 -1762 2418 -1773 2433 -16 20 -19
19 -144 -100z"/>
<path d="M4782 10123 c-12 -2 -20 -9 -17 -14 8 -12 182 -12 189 0 11 17 -105
27 -172 14z"/>
<path d="M15180 10121 c-22 -6 -23 -8 -7 -14 27 -10 175 -9 181 2 12 19 -116
28 -174 12z"/>
<path d="M4577 10084 c-14 -14 6 -24 47 -24 58 0 107 10 100 21 -6 10 -137 12
-147 3z"/>
<path d="M4980 10081 c0 -13 83 -25 110 -16 18 6 20 9 9 16 -19 12 -119 11
-119 0z"/>
<path d="M14976 10081 c-12 -19 52 -27 126 -15 21 4 35 10 32 15 -7 12 -151
12 -158 0z"/>
<path d="M15386 10081 c-4 -5 13 -13 38 -16 51 -8 82 -4 79 10 -4 13 -110 19
-117 6z"/>
<path d="M4432 10053 c-24 -10 0 -23 43 -23 50 0 77 8 69 21 -5 9 -90 11 -112
2z"/>
<path d="M5120 10046 c0 -12 11 -16 41 -16 52 0 48 24 -4 28 -28 2 -37 -1 -37
-12z"/>
<path d="M14843 10053 c-32 -12 -8 -24 44 -21 73 4 88 28 16 27 -26 0 -54 -3
-60 -6z"/>
<path d="M15527 10054 c-13 -14 5 -24 44 -24 28 0 39 4 37 13 -5 13 -69 22
-81 11z"/>
<path d="M4323 10023 c-42 -8 -24 -23 27 -23 49 0 66 12 34 24 -16 6 -24 6
-61 -1z"/>
<path d="M5217 10023 c-16 -15 -5 -23 33 -23 43 0 54 14 18 24 -30 8 -43 7
-51 -1z"/>
<path d="M14723 10023 c-43 -8 -23 -23 32 -23 56 0 73 13 33 24 -24 6 -29 6
-65 -1z"/>
<path d="M15622 10023 c-22 -9 -2 -23 34 -23 35 0 46 13 18 24 -18 7 -33 7
-52 -1z"/>
<path d="M4187 9984 c-12 -12 4 -24 33 -24 34 0 60 9 60 21 0 10 -83 12 -93 3z"/>
<path d="M5290 9980 c0 -12 45 -24 59 -15 22 13 10 25 -24 25 -19 0 -35 -4
-35 -10z"/>
<path d="M14590 9980 c0 -16 27 -23 65 -16 52 10 42 26 -15 26 -28 0 -50 -5
-50 -10z"/>
<path d="M15700 9980 c0 -12 45 -24 60 -15 5 3 8 11 5 16 -8 12 -65 12 -65 -1z"/>
<path d="M4090 9945 c0 -11 11 -15 40 -15 29 0 40 4 40 15 0 11 -11 15 -40 15
-29 0 -40 -4 -40 -15z"/>
<path d="M5370 9945 c0 -10 10 -15 30 -15 20 0 30 -5 30 -15 0 -10 10 -15 30
-15 38 0 39 16 1 25 -16 3 -32 13 -35 21 -7 19 -56 19 -56 -1z"/>
<path d="M14497 9953 c-17 -16 -4 -24 35 -21 55 4 64 28 11 28 -22 0 -43 -3
-46 -7z"/>
<path d="M15780 9945 c0 -9 9 -15 25 -15 16 0 25 6 25 15 0 9 -9 15 -25 15
-16 0 -25 -6 -25 -15z"/>
<path d="M4008 9923 c-33 -8 -19 -23 21 -23 42 0 62 14 35 24 -17 6 -29 6 -56
-1z"/>
<path d="M14418 9923 c-33 -8 -19 -23 21 -23 42 0 62 14 35 24 -17 6 -29 6
-56 -1z"/>
<path d="M15840 9915 c0 -9 9 -15 25 -15 28 0 34 15 9 24 -25 10 -34 7 -34 -9z"/>
<path d="M3910 9881 c0 -16 18 -22 45 -15 37 9 31 24 -10 24 -19 0 -35 -4 -35
-9z"/>
<path d="M5490 9881 c0 -5 12 -12 26 -15 15 -4 33 -14 41 -21 8 -8 23 -15 34
-15 10 0 19 -7 19 -15 0 -9 9 -15 25 -15 16 0 25 -6 25 -15 0 -8 9 -15 20 -15
11 0 23 0 27 -1 4 0 9 4 11 9 2 6 -11 13 -27 17 -17 4 -31 13 -31 21 0 8 -10
14 -24 14 -13 0 -26 7 -30 15 -3 8 -17 15 -31 15 -16 0 -25 6 -25 15 0 10 -10
15 -30 15 -16 0 -30 -4 -30 -9z"/>
<path d="M14320 9874 c0 -12 6 -15 23 -10 12 3 25 6 30 6 4 0 7 5 7 10 0 6
-13 10 -30 10 -21 0 -30 -5 -30 -16z"/>
<path d="M15900 9880 c0 -5 4 -10 9 -10 5 0 16 -3 25 -6 11 -4 16 -1 16 10 0
10 -9 16 -25 16 -14 0 -25 -4 -25 -10z"/>
<path d="M3830 9844 c0 -11 8 -14 32 -12 46 4 49 28 4 28 -26 0 -36 -4 -36
-16z"/>
<path d="M14234 9845 c-4 -8 -17 -15 -29 -15 -13 0 -30 -3 -39 -6 -29 -11 -16
-24 24 -24 29 0 40 4 40 15 0 9 9 15 24 15 31 0 56 10 56 21 0 16 -70 10 -76
-6z"/>
<path d="M15962 9848 c3 -7 13 -15 24 -17 10 -2 23 -9 27 -17 4 -8 19 -14 32
-14 16 0 25 -6 25 -15 0 -8 9 -15 20 -15 10 0 24 -9 30 -21 7 -12 19 -19 31
-17 28 4 24 22 -6 26 -14 2 -25 10 -25 18 0 8 -7 14 -15 14 -8 0 -23 9 -32 20
-10 11 -28 20 -40 20 -14 0 -23 6 -23 15 0 9 -10 15 -26 15 -16 0 -24 -5 -22
-12z"/>
<path d="M3763 9823 c-25 -10 -12 -23 22 -23 24 0 35 5 35 15 0 15 -31 19 -57
8z"/>
<path d="M3703 9793 c-33 -6 -28 -23 7 -23 20 0 30 5 30 15 0 8 -3 14 -7 14
-5 -1 -18 -4 -30 -6z"/>
<path d="M14108 9793 c-29 -7 -20 -23 13 -23 19 0 29 4 27 12 -5 14 -17 17
-40 11z"/>
<path d="M3615 9751 c-3 -5 0 -13 5 -16 15 -9 60 3 60 15 0 13 -57 13 -65 1z"/>
<path d="M5720 9745 c0 -9 9 -15 25 -15 16 0 25 -6 25 -15 0 -8 9 -15 20 -15
11 0 20 -7 20 -15 0 -9 9 -15 25 -15 16 0 25 -6 25 -15 0 -9 8 -19 18 -22 9
-4 23 -13 30 -20 7 -7 20 -13 28 -13 8 0 14 -7 14 -15 0 -9 9 -15 25 -15 32 0
33 18 1 26 -14 3 -27 12 -30 20 -3 8 -12 14 -21 14 -8 0 -15 7 -15 15 0 8 -7
15 -15 15 -8 0 -23 9 -32 20 -10 11 -25 20 -35 20 -10 0 -18 7 -18 15 0 8 -9
15 -20 15 -11 0 -20 7 -20 15 0 9 -9 15 -25 15 -16 0 -25 -6 -25 -15z"/>
<path d="M14020 9745 c0 -16 17 -19 44 -9 26 10 18 24 -14 24 -20 0 -30 -5
-30 -15z"/>
<path d="M3557 9724 c-4 -4 -7 -11 -7 -16 0 -13 50 -6 53 7 2 12 -36 19 -46 9z"/>
<path d="M13957 9715 c-8 -7 -26 -17 -41 -21 -35 -9 -33 -24 4 -24 20 0 30 5
30 15 0 10 10 15 30 15 20 0 30 5 30 15 0 19 -34 19 -53 0z"/>
<path d="M16180 9715 c0 -8 9 -15 20 -15 11 0 20 -7 20 -15 0 -9 9 -15 25 -15
18 0 25 -5 25 -20 0 -13 7 -20 19 -20 10 0 21 -7 25 -15 6 -17 32 -20 41 -4 4
6 -2 13 -14 16 -12 3 -21 12 -21 19 0 8 -7 14 -15 14 -8 0 -23 9 -32 20 -10
11 -25 20 -34 20 -9 0 -19 7 -23 15 -3 8 -12 15 -21 15 -8 0 -15 -7 -15 -15z"/>
<path d="M3503 9693 c-22 -8 -14 -23 12 -23 16 0 25 6 25 15 0 15 -14 18 -37
8z"/>
<path d="M3430 9645 c0 -8 -9 -15 -19 -15 -11 0 -26 -6 -33 -13 -7 -7 -21 -16
-30 -20 -24 -9 -23 -27 2 -27 11 0 20 7 20 15 0 9 9 15 25 15 13 0 28 6 32 14
4 8 19 16 32 18 37 5 39 28 2 28 -21 0 -31 -5 -31 -15z"/>
<path d="M13840 9644 c0 -10 7 -14 22 -12 32 5 35 28 4 28 -17 0 -26 -5 -26
-16z"/>
<path d="M13789 9617 c-8 -7 -22 -16 -31 -20 -24 -9 -23 -27 2 -27 11 0 20 6
20 14 0 9 12 16 28 18 15 2 26 8 25 13 -3 16 -29 17 -44 2z"/>
<path d="M16360 9586 c0 -10 9 -16 25 -16 14 0 25 5 25 10 0 6 -4 10 -9 10 -5
0 -16 3 -25 6 -11 4 -16 1 -16 -10z"/>
<path d="M3280 9545 c0 -9 -9 -15 -25 -15 -16 0 -25 -6 -25 -15 0 -8 -7 -15
-15 -15 -9 0 -18 -7 -21 -15 -3 -8 -15 -17 -26 -21 -23 -7 -58 -40 -58 -54 0
-5 -11 -10 -25 -10 -16 0 -25 -6 -25 -15 0 -8 -5 -15 -11 -15 -14 0 -59 -47
-59 -61 0 -5 -7 -9 -14 -9 -18 0 -66 -43 -66 -59 0 -6 -7 -11 -15 -11 -8 0
-15 -5 -15 -10 0 -6 -11 -21 -25 -34 -14 -13 -25 -28 -25 -35 0 -6 -7 -11 -15
-11 -8 0 -15 -7 -15 -15 0 -9 -7 -18 -15 -21 -8 -4 -15 -12 -15 -20 0 -8 -7
-14 -15 -14 -8 0 -15 -6 -15 -14 0 -8 -7 -16 -15 -20 -8 -3 -15 -12 -15 -21 0
-8 -4 -15 -10 -15 -5 0 -10 -6 -10 -13 0 -8 -9 -22 -20 -32 -11 -10 -20 -24
-20 -30 0 -7 -7 -15 -15 -19 -8 -3 -15 -12 -15 -20 0 -8 -3 -16 -7 -18 -11 -4
-43 -67 -43 -84 0 -8 -7 -14 -15 -14 -10 0 -15 -10 -15 -30 0 -20 -5 -30 -15
-30 -8 0 -15 -9 -15 -20 0 -11 5 -20 11 -20 6 0 13 9 16 20 3 11 9 20 14 20 5
0 9 9 9 19 0 11 7 26 15 35 8 8 15 21 15 29 0 8 7 17 15 21 8 3 15 17 15 31 0
16 6 25 15 25 8 0 15 9 15 20 0 11 7 20 15 20 8 0 15 7 15 15 0 8 5 15 10 15
6 0 10 4 10 9 0 14 52 91 62 91 4 0 8 4 8 10 0 5 12 23 28 39 43 47 52 59 52
71 0 5 7 10 15 10 8 0 15 7 15 15 0 8 7 15 15 15 8 0 20 9 27 20 7 11 18 20
25 20 7 0 13 7 13 15 0 8 7 15 15 15 8 0 15 7 15 15 0 8 7 15 15 15 8 0 15 6
15 14 0 8 9 18 20 21 11 3 20 13 20 21 0 8 9 14 20 14 10 0 23 7 28 16 5 9 18
14 33 12 18 -2 25 -11 30 -38 3 -19 11 -45 17 -57 18 -33 14 -74 -9 -99 l-20
-22 45 -48 c25 -27 46 -52 46 -56 0 -5 8 -8 18 -8 16 0 20 14 31 94 13 92 10
123 -10 110 -6 -3 -21 -3 -33 0 -18 4 -25 15 -30 48 -4 23 -11 47 -15 53 -5 5
-11 27 -14 49 -5 32 -3 39 13 43 11 3 20 12 20 19 0 8 10 14 25 14 15 0 25 6
25 14 0 8 11 17 25 20 14 4 25 11 25 16 0 6 -11 10 -25 10 -16 0 -25 -6 -25
-15z"/>
<path d="M6000 9549 c0 -6 9 -13 20 -16 11 -3 20 -10 20 -17 0 -11 25 -28 63
-42 9 -3 17 -11 17 -18 0 -16 45 -56 64 -56 9 0 16 -7 16 -15 0 -8 4 -15 10
-15 5 0 33 -22 61 -50 28 -27 57 -50 65 -50 8 0 14 -7 14 -15 0 -8 7 -15 15
-15 8 0 15 -7 15 -15 0 -9 7 -18 15 -21 8 -4 15 -12 15 -20 0 -8 7 -14 15 -14
8 0 15 -7 15 -15 0 -8 7 -15 15 -15 8 0 15 -7 15 -15 0 -8 7 -15 15 -15 8 0
15 -4 15 -8 0 -5 36 -45 80 -91 44 -45 80 -85 80 -90 0 -4 13 -18 30 -31 16
-14 29 -30 30 -36 0 -6 9 -19 20 -29 11 -10 20 -24 20 -32 0 -7 5 -13 10 -13
6 0 10 -7 10 -15 0 -8 7 -15 15 -15 8 0 15 -9 15 -20 0 -11 7 -20 15 -20 8 0
15 -6 15 -14 0 -8 7 -16 15 -20 8 -3 15 -10 15 -16 0 -6 11 -23 25 -38 14 -15
28 -37 31 -49 4 -13 10 -23 15 -23 5 0 9 -7 9 -15 0 -9 7 -18 15 -21 8 -4 15
-12 15 -20 0 -8 5 -14 11 -14 5 0 15 -13 20 -30 6 -16 15 -30 20 -30 5 0 9 -9
9 -20 0 -11 7 -20 15 -20 8 0 15 -7 15 -16 0 -8 7 -22 15 -30 8 -9 15 -24 15
-35 0 -10 4 -19 9 -19 5 0 12 -11 15 -25 4 -14 11 -25 16 -25 6 0 10 -9 10
-20 0 -11 7 -23 15 -26 9 -4 15 -19 15 -35 0 -19 5 -29 15 -29 10 0 15 -10 15
-30 0 -20 5 -30 15 -30 12 0 14 7 9 28 -4 15 -11 29 -15 32 -4 3 -11 18 -14
33 -4 15 -11 27 -16 27 -5 0 -9 9 -9 20 0 11 -7 23 -15 26 -8 4 -15 17 -15 30
0 15 -6 24 -15 24 -10 0 -15 10 -15 30 0 20 -5 30 -15 30 -8 0 -15 9 -15 20 0
11 -4 20 -10 20 -5 0 -12 11 -16 24 -3 14 -12 27 -20 30 -8 3 -14 15 -14 26 0
11 -4 20 -10 20 -5 0 -10 7 -10 15 0 8 -6 15 -12 15 -7 0 -23 23 -36 50 -12
28 -27 50 -32 50 -6 0 -10 7 -10 15 0 8 -7 15 -15 15 -8 0 -15 7 -15 16 0 9
-11 27 -25 40 -14 13 -25 27 -25 32 0 5 -9 17 -20 27 -11 10 -20 24 -20 30 0
7 -7 15 -15 19 -8 3 -15 12 -15 21 0 8 -4 15 -10 15 -5 0 -10 7 -10 15 0 8 -7
15 -15 15 -8 0 -15 7 -15 15 0 8 -7 15 -15 15 -8 0 -15 9 -15 20 0 11 -7 20
-15 20 -8 0 -15 7 -15 15 0 8 -7 15 -15 15 -8 0 -15 6 -15 14 0 8 -7 16 -15
20 -8 3 -15 10 -15 16 0 14 -136 150 -150 150 -5 0 -10 7 -10 15 0 8 -7 15
-15 15 -8 0 -15 5 -15 12 0 6 -28 38 -62 70 -35 32 -70 65 -79 73 -9 8 -21 15
-27 15 -7 0 -12 7 -12 15 0 8 -7 15 -15 15 -8 0 -15 7 -15 15 0 8 -8 15 -18
15 -9 0 -30 16 -46 35 -16 19 -35 35 -42 35 -6 0 -14 7 -18 15 -3 8 -12 15
-20 15 -7 0 -16 7 -20 15 -6 17 -36 21 -36 4z"/>
<path d="M13690 9545 c0 -9 -9 -15 -25 -15 -14 0 -28 -7 -31 -15 -4 -8 -12
-15 -20 -15 -8 0 -14 -7 -14 -15 0 -8 -6 -15 -14 -15 -16 0 -66 -45 -66 -60 0
-5 11 -10 24 -10 24 0 36 -21 36 -67 0 -13 5 -23 10 -23 17 0 12 -97 -5 -104
-8 -3 -15 -11 -15 -18 1 -16 92 -118 106 -118 14 0 34 90 34 154 0 52 -1 53
-27 48 -32 -6 -53 18 -53 64 0 18 -5 34 -11 36 -6 2 -13 25 -16 51 -5 39 -3
47 11 47 9 0 19 7 22 15 4 8 14 15 23 15 9 0 24 9 34 20 9 11 24 20 32 20 8 0
15 5 15 10 0 6 -11 10 -25 10 -16 0 -25 -6 -25 -15z"/>
<path d="M16410 9550 c0 -6 7 -13 15 -16 8 -4 15 -12 15 -20 0 -8 9 -14 19
-14 10 0 21 -7 25 -15 3 -8 10 -15 16 -15 6 0 25 -16 43 -35 17 -19 38 -35 45
-35 7 0 15 -7 18 -15 4 -8 12 -15 20 -15 8 0 14 -7 14 -15 0 -8 7 -15 15 -15
8 0 15 -5 15 -10 0 -14 51 -59 68 -60 6 0 12 -7 12 -15 0 -8 7 -15 15 -15 8 0
15 -5 15 -11 0 -6 59 -69 130 -139 72 -71 130 -134 130 -139 0 -6 7 -11 15
-11 8 0 15 -7 15 -15 0 -9 7 -18 15 -21 8 -4 15 -10 15 -16 0 -5 11 -21 25
-36 14 -15 28 -37 31 -49 4 -13 12 -23 20 -23 8 0 14 -6 14 -14 0 -8 7 -16 15
-20 8 -3 15 -12 15 -21 0 -8 5 -15 10 -15 6 0 10 -7 10 -15 0 -8 7 -15 15 -15
8 0 15 -7 15 -15 0 -9 7 -18 15 -21 8 -4 15 -13 15 -20 0 -8 6 -17 14 -20 8
-3 17 -16 20 -30 4 -13 11 -24 16 -24 6 0 10 -9 10 -20 0 -11 7 -20 15 -20 8
0 15 -7 15 -15 0 -8 4 -15 9 -15 5 0 12 -12 15 -26 4 -15 12 -32 19 -40 25
-28 33 -40 40 -56 3 -10 11 -18 17 -18 5 0 10 -11 10 -25 0 -14 7 -28 15 -31
8 -4 15 -14 15 -24 0 -10 7 -23 15 -30 8 -7 15 -21 15 -31 0 -11 5 -19 10 -19
6 0 10 11 10 25 0 14 -4 25 -10 25 -5 0 -12 11 -16 25 -3 14 -10 25 -14 25 -5
0 -11 14 -15 30 -4 17 -11 30 -16 30 -5 0 -9 9 -9 20 0 11 -7 20 -15 20 -8 0
-15 8 -15 19 0 10 -7 24 -15 31 -8 7 -15 19 -15 27 0 7 -7 16 -15 19 -8 4 -15
12 -15 20 0 8 -4 14 -8 14 -4 0 -13 12 -20 28 -23 50 -37 72 -44 72 -5 0 -8 7
-8 15 0 8 -7 15 -15 15 -8 0 -15 7 -15 15 0 9 -7 18 -15 21 -8 4 -15 12 -15
19 0 7 -3 15 -7 17 -11 4 -53 65 -53 77 0 5 -7 11 -15 15 -8 3 -15 12 -15 21
0 8 -7 15 -15 15 -8 0 -15 5 -15 10 0 6 -10 21 -23 33 -13 12 -26 30 -30 40
-3 9 -11 17 -17 17 -5 0 -10 7 -10 15 0 8 -7 15 -15 15 -8 0 -15 7 -15 15 0 8
-7 15 -15 15 -8 0 -15 7 -15 15 0 9 -7 18 -15 21 -8 4 -15 12 -15 20 0 8 -7
14 -15 14 -8 0 -15 7 -15 15 0 8 -7 15 -15 15 -8 0 -15 7 -15 15 0 8 -4 15 -8
15 -13 0 -132 117 -132 129 0 6 -7 11 -15 11 -8 0 -15 7 -15 15 0 8 -7 15 -15
15 -8 0 -15 6 -15 14 0 8 -11 17 -25 20 -14 4 -25 13 -25 21 0 8 -7 15 -15 15
-8 0 -15 7 -15 15 0 8 -7 15 -15 15 -8 0 -15 7 -15 15 0 9 -9 15 -25 15 -16 0
-25 6 -25 16 0 9 -9 18 -20 21 -11 3 -20 12 -20 19 0 8 -6 14 -14 14 -8 0 -16
7 -20 15 -3 8 -15 15 -26 15 -11 0 -20 7 -20 15 0 8 -7 15 -15 15 -8 0 -15 -5
-15 -10z"/>
<path d="M13438 9359 c-21 -22 -38 -44 -38 -50 0 -5 -7 -9 -17 -9 -17 0 -93
-74 -93 -90 0 -6 -7 -10 -15 -10 -8 0 -15 -7 -15 -15 0 -8 -7 -15 -15 -15 -8
0 -15 -6 -15 -14 0 -8 -7 -16 -15 -20 -8 -3 -15 -10 -15 -16 0 -6 -11 -21 -25
-34 -14 -13 -25 -28 -25 -34 0 -5 -7 -12 -15 -16 -8 -3 -15 -12 -15 -21 0 -8
-6 -15 -12 -15 -7 0 -22 -20 -33 -45 -10 -24 -25 -47 -32 -49 -7 -3 -13 -12
-13 -20 0 -7 -7 -16 -15 -20 -8 -3 -15 -14 -15 -25 0 -10 -7 -21 -15 -25 -8
-3 -15 -15 -15 -26 0 -11 -4 -20 -9 -20 -5 0 -12 -13 -16 -30 -4 -16 -11 -30
-16 -30 -5 0 -9 -9 -9 -20 0 -11 5 -20 10 -20 6 0 10 9 10 19 0 10 7 21 15 25
8 3 15 16 15 30 0 13 7 26 15 30 8 3 15 12 15 21 0 8 4 15 9 15 5 0 12 13 16
29 3 16 13 32 21 35 8 3 14 12 14 21 0 8 5 15 10 15 6 0 10 7 10 15 0 8 7 15
15 15 8 0 15 8 15 18 1 9 14 33 30 52 17 19 30 40 30 47 0 7 7 13 15 13 8 0
15 6 15 14 0 8 7 16 15 20 8 3 15 12 15 21 0 8 7 15 15 15 8 0 15 7 15 15 0 8
7 15 15 15 8 0 15 7 15 15 0 8 4 15 9 15 5 0 26 16 45 35 20 19 41 35 46 35 6
0 10 4 10 10 0 16 76 90 93 90 10 0 17 7 17 15 0 27 -35 15 -72 -26z"/>
<path d="M3936 9085 c-11 -8 -27 -15 -35 -15 -9 0 -25 -14 -36 -30 -11 -16
-23 -30 -27 -30 -5 0 -8 -7 -8 -15 0 -9 -7 -18 -15 -21 -8 -4 -15 -12 -15 -19
0 -7 -7 -15 -15 -19 -8 -3 -15 -12 -15 -21 0 -8 -4 -15 -10 -15 -5 0 -10 -6
-10 -13 0 -7 -9 -20 -20 -30 -11 -9 -20 -24 -20 -32 0 -8 -4 -15 -10 -15 -5 0
-10 -7 -10 -15 0 -8 5 -15 10 -15 6 0 10 7 10 15 0 8 7 15 15 15 8 0 15 9 15
20 0 11 4 20 10 20 5 0 12 11 16 24 3 14 12 27 20 30 8 3 14 12 14 21 0 8 7
15 15 15 8 0 15 7 15 15 0 8 4 15 9 15 4 0 11 -28 14 -62 3 -34 10 -64 16 -66
6 -2 11 -10 11 -17 0 -16 47 -26 75 -15 28 11 39 27 53 75 13 46 -4 123 -35
157 -9 10 -13 21 -10 24 4 4 169 6 367 5 387 -2 794 9 745 20 -16 4 -275 7
-575 7 -465 1 -548 -1 -564 -13z"/>
<path d="M14350 9090 c-8 -5 -28 -15 -44 -22 -16 -7 -34 -22 -40 -33 -6 -11
-17 -24 -23 -28 -7 -4 -13 -15 -13 -22 0 -8 -4 -15 -10 -15 -5 0 -10 -7 -10
-15 0 -8 5 -15 10 -15 6 0 10 7 10 15 0 8 7 15 15 15 12 0 15 -13 15 -60 0
-45 4 -62 15 -66 8 -4 15 -12 15 -19 0 -16 42 -27 67 -18 27 10 53 43 53 68 0
11 5 26 11 32 7 7 8 17 1 29 -5 11 -12 36 -16 56 -4 21 -14 41 -23 46 -8 5
-14 15 -11 22 3 10 80 12 368 11 387 -2 785 8 735 20 -45 10 -1108 9 -1125 -1z"/>
<path d="M5320 9061 c-19 -6 -10 -9 39 -14 35 -4 67 -9 70 -12 3 -3 -3 -19
-12 -34 -11 -20 -17 -51 -17 -95 0 -59 3 -68 30 -96 34 -35 62 -38 90 -10 21
21 38 91 36 145 -1 25 2 29 19 27 11 -2 24 -10 28 -18 11 -18 27 -18 27 1 0 8
-7 15 -15 15 -8 0 -15 7 -15 15 0 8 -4 15 -10 15 -9 0 -18 7 -71 55 -17 16
-151 20 -199 6z"/>
<path d="M15725 9061 c-24 -6 -16 -9 43 -15 51 -5 72 -11 72 -21 0 -8 -7 -18
-16 -23 -12 -7 -15 -26 -15 -87 0 -75 2 -81 30 -107 33 -31 68 -37 77 -13 4 8
12 15 19 15 14 0 30 81 26 137 -1 28 1 33 20 30 12 -1 24 4 26 11 3 7 -4 12
-16 12 -12 0 -21 6 -21 13 0 8 -11 19 -25 25 -14 6 -25 16 -25 22 0 11 -146
12 -195 1z"/>
<path d="M16010 8955 c0 -8 7 -15 15 -15 8 0 15 -7 15 -15 0 -8 7 -15 15 -15
8 0 15 7 15 15 0 8 -7 15 -15 15 -8 0 -15 7 -15 15 0 8 -7 15 -15 15 -8 0 -15
-7 -15 -15z"/>
<path d="M14180 8920 c0 -11 -7 -20 -15 -20 -8 0 -15 -9 -15 -20 0 -11 -4 -20
-10 -20 -5 0 -12 -11 -16 -25 -3 -14 -12 -25 -20 -25 -8 0 -14 -7 -14 -15 0
-8 7 -15 15 -15 8 0 15 7 15 15 0 8 5 15 10 15 6 0 10 9 10 20 0 11 6 20 14
20 8 0 17 11 20 25 4 14 11 25 16 25 6 0 10 9 10 20 0 11 -4 20 -10 20 -5 0
-10 -9 -10 -20z"/>
<path d="M16090 8894 c0 -8 76 -84 84 -84 3 0 6 7 6 15 0 8 -7 15 -15 15 -8 0
-15 7 -15 15 0 8 -7 15 -15 15 -8 0 -15 7 -15 15 0 8 -7 15 -15 15 -8 0 -15
-3 -15 -6z"/>
<path d="M5720 8855 c0 -8 7 -15 15 -15 8 0 15 -7 15 -15 0 -8 7 -15 15 -15 8
0 15 -7 15 -15 0 -9 9 -15 23 -15 20 0 19 3 -15 35 -21 18 -38 39 -38 44 0 6
-7 11 -15 11 -8 0 -15 -7 -15 -15z"/>
<path d="M16190 8795 c0 -9 9 -15 21 -15 18 0 19 2 9 15 -7 8 -16 15 -21 15
-5 0 -9 -7 -9 -15z"/>
<path d="M5820 8761 c0 -5 9 -13 20 -16 11 -3 20 -13 20 -21 0 -8 7 -14 15
-14 8 0 15 -7 15 -15 0 -8 7 -15 15 -15 8 0 15 -7 15 -15 0 -8 6 -15 13 -15 7
0 28 -16 47 -35 39 -38 50 -43 50 -20 0 8 -7 15 -15 15 -8 0 -15 7 -15 15 0 8
-7 15 -15 15 -8 0 -15 6 -15 14 0 8 -11 17 -25 20 -14 4 -25 13 -25 21 0 8 -7
15 -15 15 -8 0 -15 7 -15 15 0 8 -7 15 -15 15 -8 0 -15 7 -15 15 0 8 -9 15
-20 15 -11 0 -20 -4 -20 -9z"/>
<path d="M14060 8755 c0 -8 7 -15 15 -15 8 0 15 7 15 15 0 8 -7 15 -15 15 -8
0 -15 -7 -15 -15z"/>
<path d="M3637 8733 c-11 -10 -8 -53 3 -53 6 0 10 14 10 30 0 31 -2 35 -13 23z"/>
<path d="M14040 8721 c0 -11 -7 -27 -16 -35 -8 -9 -14 -24 -11 -34 3 -15 5
-15 12 3 5 11 14 24 22 28 15 9 17 43 3 52 -5 3 -10 -3 -10 -14z"/>
<path d="M16270 8725 c0 -8 7 -15 15 -15 8 0 15 -7 15 -15 0 -8 7 -15 15 -15
8 0 15 -7 15 -15 0 -8 7 -15 15 -15 8 0 19 -9 25 -20 6 -11 17 -20 25 -20 8 0
15 -7 15 -15 0 -8 7 -15 15 -15 8 0 15 -7 15 -15 0 -8 7 -15 15 -15 8 0 15 3
15 6 0 11 -77 84 -89 84 -6 0 -11 7 -11 15 0 8 -4 15 -10 15 -5 0 -24 16 -43
35 -37 38 -47 43 -47 20z"/>
<path d="M3600 8660 c0 -11 -7 -20 -15 -20 -8 0 -15 -7 -15 -15 0 -21 12 -19
33 5 19 22 23 50 7 50 -5 0 -10 -9 -10 -20z"/>
<path d="M2487 8653 c-4 -3 -7 -16 -7 -29 0 -12 -4 -24 -9 -26 -5 -1 -13 -15
-16 -30 -6 -22 -4 -28 9 -28 11 0 16 9 16 29 0 16 6 31 15 35 8 3 15 17 15 31
0 24 -10 32 -23 18z"/>
<path d="M12897 8653 c-11 -10 -8 -53 3 -53 6 0 10 14 10 30 0 31 -2 35 -13
23z"/>
<path d="M3544 8576 c-3 -14 -12 -27 -20 -30 -8 -3 -14 -12 -14 -21 0 -8 -4
-15 -10 -15 -5 0 -10 -7 -10 -15 0 -8 5 -15 10 -15 6 0 10 6 10 14 0 8 7 16
15 20 8 3 15 12 15 20 0 8 4 16 9 18 13 5 24 48 12 48 -6 0 -13 -11 -17 -24z"/>
<path d="M12867 8593 c-11 -10 -8 -53 3 -53 6 0 10 14 10 30 0 31 -2 35 -13
23z"/>
<path d="M13950 8575 c0 -14 4 -25 9 -25 5 0 11 11 13 25 4 17 1 25 -8 25 -8
0 -14 -11 -14 -25z"/>
<path d="M13925 8533 c-4 -13 -14 -23 -21 -23 -8 0 -14 -7 -14 -15 0 -8 7 -15
15 -15 8 0 15 6 15 14 0 8 5 16 11 18 6 2 9 13 6 23 -5 19 -5 19 -12 -2z"/>
<path d="M6070 8525 c0 -8 6 -15 14 -15 8 0 16 -7 20 -15 6 -17 36 -21 36 -5
0 6 -8 14 -17 17 -10 4 -22 12 -26 20 -11 18 -27 17 -27 -2z"/>
<path d="M16470 8533 c0 -12 52 -53 67 -53 23 0 9 25 -15 28 -12 2 -22 10 -22
18 0 8 -7 14 -15 14 -8 0 -15 -3 -15 -7z"/>
<path d="M2427 8510 c-7 -26 3 -61 14 -54 12 7 12 74 0 74 -5 0 -11 -9 -14
-20z"/>
<path d="M12837 8524 c-4 -4 -7 -22 -7 -40 0 -19 -6 -34 -15 -38 -9 -3 -15
-18 -15 -36 0 -20 5 -30 15 -30 10 0 15 11 15 35 0 19 4 35 9 35 13 0 25 60
14 71 -5 5 -12 6 -16 3z"/>
<path d="M3458 8445 c-4 -17 -1 -25 8 -25 8 0 14 11 14 25 0 14 -4 25 -9 25
-5 0 -11 -11 -13 -25z"/>
<path d="M13865 8449 c-4 -11 -4 -23 0 -27 7 -7 25 17 25 36 0 20 -18 14 -25
-9z"/>
<path d="M2400 8415 c0 -19 5 -35 10 -35 6 0 10 16 10 35 0 19 -4 35 -10 35
-5 0 -10 -16 -10 -35z"/>
<path d="M16580 8434 c0 -14 79 -84 94 -84 24 0 19 15 -9 28 -14 6 -25 16 -25
22 0 5 -7 10 -15 10 -8 0 -15 7 -15 15 0 8 -7 15 -15 15 -8 0 -15 -3 -15 -6z"/>
<path d="M6210 8395 c0 -8 7 -15 15 -15 8 0 15 -7 15 -15 0 -8 9 -15 20 -15
11 0 20 4 20 9 0 5 -9 13 -20 16 -11 3 -20 13 -20 21 0 8 -7 14 -15 14 -8 0
-15 -7 -15 -15z"/>
<path d="M13827 8389 c-10 -11 -16 -28 -14 -37 4 -14 6 -13 12 6 4 12 14 22
21 22 8 0 14 7 14 15 0 21 -12 19 -33 -6z"/>
<path d="M3400 8361 c0 -10 -7 -21 -15 -25 -8 -3 -15 -17 -15 -31 0 -16 -6
-25 -15 -25 -8 0 -15 -7 -15 -15 0 -8 7 -15 15 -15 8 0 15 7 15 15 0 8 5 15
10 15 6 0 10 9 10 19 0 11 7 26 15 35 17 17 20 46 5 46 -5 0 -10 -9 -10 -19z"/>
<path d="M2378 8364 c-5 -4 -8 -28 -8 -53 0 -32 3 -42 11 -34 5 5 9 29 7 53
-2 23 -6 38 -10 34z"/>
<path d="M12774 8335 c-7 -39 1 -69 16 -60 13 8 13 82 1 90 -6 3 -13 -10 -17
-30z"/>
<path d="M13780 8309 c0 -17 4 -28 10 -24 6 3 10 17 10 31 0 13 -4 24 -10 24
-5 0 -10 -14 -10 -31z"/>
<path d="M16690 8332 c0 -4 13 -19 30 -32 31 -26 39 -50 16 -50 -7 0 -25 -11
-40 -25 -24 -22 -26 -30 -26 -110 0 -67 3 -87 15 -91 8 -4 15 -12 15 -20 0
-25 67 -22 85 3 22 30 35 4 36 -75 1 -71 2 -74 11 -37 14 59 6 307 -9 313 -7
2 -13 10 -13 18 0 8 -7 17 -15 20 -8 4 -15 12 -15 20 0 8 -7 14 -15 14 -8 0
-15 7 -15 15 0 8 -7 15 -15 15 -8 0 -15 7 -15 15 0 8 -7 15 -15 15 -8 0 -15
-4 -15 -8z"/>
<path d="M6320 8295 c0 -8 7 -15 15 -15 8 0 15 -7 15 -15 0 -8 -8 -15 -18 -15
-10 0 -29 -12 -43 -27 -21 -25 -24 -37 -24 -109 0 -76 2 -82 29 -107 35 -32
49 -34 76 -7 30 30 40 17 40 -50 0 -32 5 -62 10 -65 7 -4 10 49 10 153 0 130
-3 162 -15 172 -8 7 -15 17 -15 22 0 10 -64 78 -74 78 -3 0 -6 -7 -6 -15z"/>
<path d="M2340 8200 c0 -27 5 -50 10 -50 6 0 10 23 10 50 0 28 -4 50 -10 50
-5 0 -10 -22 -10 -50z"/>
<path d="M3316 8234 c-4 -10 -2 -22 3 -27 7 -7 13 -5 17 7 4 10 2 22 -3 27 -7
7 -13 5 -17 -7z"/>
<path d="M12750 8194 c0 -34 4 -53 10 -49 6 3 10 28 10 56 0 27 -4 49 -10 49
-5 0 -10 -25 -10 -56z"/>
<path d="M3285 8170 c-3 -11 -11 -20 -16 -20 -5 0 -9 -9 -9 -20 0 -11 5 -20
10 -20 6 0 10 9 10 20 0 11 7 20 15 20 8 0 15 9 15 20 0 11 -4 20 -9 20 -5 0
-13 -9 -16 -20z"/>
<path d="M13695 8175 c-5 -11 -14 -24 -22 -28 -7 -4 -13 -15 -13 -22 0 -8 -4
-15 -9 -15 -5 0 -12 -12 -16 -27 -3 -15 -14 -32 -23 -39 -14 -10 -15 -15 -4
-26 10 -10 14 -9 18 9 3 12 12 24 20 27 8 3 14 16 14 30 0 13 7 26 15 30 8 3
15 12 15 20 0 8 5 16 11 18 6 2 9 13 7 23 -5 20 -5 20 -13 0z"/>
<path d="M17590 8150 c0 -16 5 -30 10 -30 6 0 10 14 10 30 0 17 -4 30 -10 30
-5 0 -10 -13 -10 -30z"/>
<path d="M2318 8114 c-11 -11 -10 -152 1 -158 10 -7 19 97 11 139 -3 15 -8 23
-12 19z"/>
<path d="M12720 8039 c0 -51 4 -78 10 -74 6 3 10 40 10 81 0 43 -4 74 -10 74
-6 0 -10 -34 -10 -81z"/>
<path d="M17620 8090 c0 -16 5 -30 10 -30 6 0 10 14 10 30 0 17 -4 30 -10 30
-5 0 -10 -13 -10 -30z"/>
<path d="M3230 8080 c0 -16 5 -30 10 -30 6 0 10 14 10 30 0 17 -4 30 -10 30
-5 0 -10 -13 -10 -30z"/>
<path d="M3200 8030 c0 -11 -7 -20 -15 -20 -9 0 -15 -9 -15 -25 0 -36 12 -31
33 14 20 43 21 51 7 51 -5 0 -10 -9 -10 -20z"/>
<path d="M7240 8026 c0 -14 5 -28 10 -31 6 -4 10 7 10 24 0 17 -4 31 -10 31
-5 0 -10 -11 -10 -24z"/>
<path d="M17645 8023 c3 -15 10 -30 15 -33 4 -3 11 -20 15 -38 3 -18 11 -30
16 -26 15 9 10 54 -6 60 -9 4 -15 19 -15 35 0 20 -5 29 -16 29 -13 0 -15 -6
-9 -27z"/>
<path d="M13580 7984 c0 -14 4 -23 10 -19 6 3 10 15 10 26 0 10 -4 19 -10 19
-5 0 -10 -12 -10 -26z"/>
<path d="M7270 7961 c0 -17 5 -33 10 -36 6 -4 10 8 10 29 0 20 -4 36 -10 36
-5 0 -10 -13 -10 -29z"/>
<path d="M2287 7891 c-9 -44 -9 -511 0 -581 l7 -55 7 45 c10 60 10 580 0 605
-7 16 -9 14 -14 -14z"/>
<path d="M3115 7911 c-3 -6 -3 -21 1 -33 l7 -23 9 24 c9 26 -4 52 -17 32z"/>
<path d="M7300 7890 c0 -16 5 -30 10 -30 6 0 10 14 10 30 0 17 -4 30 -10 30
-5 0 -10 -13 -10 -30z"/>
<path d="M12690 7601 c0 -203 4 -322 10 -326 7 -4 10 105 10 319 0 211 -4 326
-10 326 -6 0 -10 -113 -10 -319z"/>
<path d="M17700 7906 c0 -22 11 -46 21 -46 5 0 9 14 9 30 0 20 -5 30 -15 30
-8 0 -15 -6 -15 -14z"/>
<path d="M3090 7851 c0 -5 -7 -17 -16 -25 -9 -10 -14 -27 -11 -43 l4 -28 8 33
c4 17 14 32 21 32 8 0 14 9 14 20 0 11 -4 20 -10 20 -5 0 -10 -4 -10 -9z"/>
<path d="M4680 7833 c-23 -26 -50 -88 -50 -112 0 -26 30 -90 53 -113 9 -10 28
-18 40 -18 25 0 57 28 57 48 0 7 5 12 10 12 6 0 10 28 10 64 0 86 -27 136 -74
136 -18 0 -38 -8 -46 -17z"/>
<path d="M7328 7845 c-8 -8 3 -65 13 -65 5 0 9 16 9 35 0 32 -8 43 -22 30z"/>
<path d="M15090 7835 c0 -8 -4 -15 -9 -15 -15 0 -41 -60 -41 -95 0 -62 47
-135 86 -135 14 0 35 15 53 37 26 32 31 46 31 92 0 75 -37 131 -86 131 -24 0
-34 -5 -34 -15z"/>
<path d="M17730 7821 c0 -32 14 -49 25 -31 9 15 -3 60 -15 60 -6 0 -10 -13
-10 -29z"/>
<path d="M13464 7807 c-3 -9 -3 -25 1 -34 6 -16 8 -15 16 6 6 16 6 28 0 34 -7
7 -12 5 -17 -6z"/>
<path d="M7355 7770 c-9 -15 3 -80 15 -80 12 0 13 60 1 79 -6 10 -10 10 -16 1z"/>
<path d="M17760 7735 c0 -45 13 -61 23 -26 6 25 -3 71 -14 71 -5 0 -9 -20 -9
-45z"/>
<path d="M13433 7743 c-4 -10 -13 -24 -20 -31 -6 -7 -10 -19 -7 -27 8 -19 24
-9 24 15 0 10 7 20 15 24 17 6 21 36 5 36 -6 0 -14 -8 -17 -17z"/>
<path d="M3000 7695 c0 -14 5 -25 10 -25 6 0 10 11 10 25 0 14 -4 25 -10 25
-5 0 -10 -11 -10 -25z"/>
<path d="M16846 7596 c-4 -70 -4 -293 0 -495 l9 -366 9 293 c5 171 5 376 0
495 l-9 202 -9 -129z"/>
<path d="M6441 7278 c-1 -281 3 -439 9 -443 13 -8 13 831 0 860 -5 12 -9 -164
-9 -417z"/>
<path d="M7380 7658 c0 -36 11 -68 21 -62 10 6 12 45 3 68 -9 24 -24 19 -24
-6z"/>
<path d="M17790 7635 c0 -25 5 -45 10 -45 6 0 10 20 10 45 0 25 -4 45 -10 45
-5 0 -10 -20 -10 -45z"/>
<path d="M13377 7646 c-6 -15 1 -26 15 -26 4 0 8 9 8 20 0 23 -15 27 -23 6z"/>
<path d="M2946 7613 c-9 -10 -7 -53 3 -53 11 0 21 49 11 55 -4 2 -10 2 -14 -2z"/>
<path d="M13350 7590 c0 -16 5 -30 10 -30 6 0 10 14 10 30 0 17 -4 30 -10 30
-5 0 -10 -13 -10 -30z"/>
<path d="M7410 7536 c0 -46 15 -70 26 -42 8 21 -4 86 -16 86 -6 0 -10 -20 -10
-44z"/>
<path d="M17820 7530 c0 -27 5 -50 10 -50 6 0 10 23 10 50 0 28 -4 50 -10 50
-5 0 -10 -22 -10 -50z"/>
<path d="M2914 7546 c-4 -10 -2 -22 4 -28 8 -8 13 -7 18 6 4 10 2 22 -4 28 -8
8 -13 7 -18 -6z"/>
<path d="M2884 7475 c-3 -14 -10 -25 -15 -25 -5 0 -12 -18 -15 -40 -4 -22 -11
-43 -15 -46 -12 -7 -12 -71 0 -78 5 -3 12 -26 15 -51 4 -25 11 -45 16 -45 5 0
10 -12 12 -27 2 -14 9 -28 16 -31 10 -3 13 4 10 24 -2 24 1 30 22 32 27 4 57
32 78 70 14 29 16 132 2 132 -5 0 -10 6 -10 13 0 18 -37 47 -60 47 -13 0 -24
10 -30 25 -5 14 -12 25 -15 25 -2 0 -7 -11 -11 -25z"/>
<path d="M13298 7494 c-5 -4 -8 -14 -8 -21 0 -8 -7 -21 -15 -29 -8 -9 -15 -25
-15 -38 0 -12 -7 -31 -15 -42 -19 -25 -19 -45 0 -80 8 -16 15 -42 15 -57 0
-15 7 -30 15 -33 9 -4 15 -19 15 -35 0 -16 5 -29 10 -29 6 0 10 14 10 30 0 25
4 30 25 30 25 0 65 31 65 51 0 6 7 17 15 25 19 19 20 110 2 121 -6 4 -18 20
-26 36 -9 16 -23 27 -35 27 -28 0 -43 11 -47 33 -2 11 -7 15 -11 11z"/>
<path d="M7440 7388 c0 -35 5 -70 10 -78 7 -10 10 9 10 63 0 45 -4 77 -10 77
-6 0 -10 -27 -10 -62z"/>
<path d="M17850 7380 c0 -40 4 -70 10 -70 6 0 10 30 10 70 0 40 -4 70 -10 70
-6 0 -10 -30 -10 -70z"/>
<path d="M17877 7233 c-4 -21 -7 -62 -7 -91 l0 -53 -57 3 c-56 3 -58 4 -63 33
-7 42 -31 42 -76 1 -22 -20 -42 -36 -45 -36 -4 0 -9 -10 -12 -22 -5 -17 4 -31
41 -65 58 -53 89 -57 94 -10 3 32 4 32 61 35 l57 3 0 -129 c0 -149 9 -237 21
-207 10 27 11 547 0 563 -5 9 -10 1 -14 -25z"/>
<path d="M7468 7178 l-3 -83 -60 0 -60 0 -3 33 c-4 35 -24 42 -51 17 -53 -48
-62 -55 -71 -55 -5 0 -10 -11 -10 -25 0 -17 14 -39 43 -65 49 -46 87 -53 87
-16 0 35 22 48 77 44 l48 -3 3 -165 c1 -90 7 -169 12 -174 7 -7 10 92 10 282
0 180 -4 292 -10 292 -5 0 -10 -37 -12 -82z"/>
<path d="M2316 7204 c-10 -26 -7 -278 4 -294 6 -10 10 39 10 148 0 89 -2 162
-4 162 -2 0 -7 -7 -10 -16z"/>
<path d="M12720 7058 c0 -99 4 -158 10 -158 13 0 13 280 0 300 -6 10 -10 -37
-10 -142z"/>
<path d="M2910 7096 c0 -24 16 -43 26 -33 8 7 -7 57 -17 57 -5 0 -9 -11 -9
-24z"/>
<path d="M13320 7090 c0 -16 5 -30 10 -30 6 0 10 14 10 30 0 17 -4 30 -10 30
-5 0 -10 -13 -10 -30z"/>
<path d="M5703 7053 c-7 -2 -13 -9 -13 -15 0 -5 -7 -16 -15 -24 -10 -11 -15
-36 -15 -81 0 -55 4 -72 26 -100 40 -53 103 -36 120 32 3 14 10 28 15 31 5 3
9 18 9 34 0 16 -4 31 -9 34 -5 3 -12 17 -15 31 -13 53 -57 77 -103 58z"/>
<path d="M16093 7034 c-19 -22 -23 -37 -23 -99 0 -64 3 -77 26 -104 28 -34 84
-44 84 -16 0 8 6 15 13 15 7 0 19 22 26 51 15 58 2 128 -31 161 -26 26 -69 23
-95 -8z"/>
<path d="M2940 7026 c0 -26 15 -43 24 -28 7 12 -4 52 -15 52 -5 0 -9 -11 -9
-24z"/>
<path d="M13350 7026 c0 -14 5 -28 10 -31 6 -4 10 7 10 24 0 17 -4 31 -10 31
-5 0 -10 -11 -10 -24z"/>
<path d="M2970 6960 c0 -16 5 -30 10 -30 6 0 10 14 10 30 0 17 -4 30 -10 30
-5 0 -10 -13 -10 -30z"/>
<path d="M13380 6960 c0 -16 5 -30 10 -30 6 0 10 14 10 30 0 17 -4 30 -10 30
-5 0 -10 -13 -10 -30z"/>
<path d="M3000 6896 c0 -14 5 -28 10 -31 6 -4 10 7 10 24 0 17 -4 31 -10 31
-5 0 -10 -11 -10 -24z"/>
<path d="M13404 6898 c3 -13 6 -27 6 -31 0 -5 5 -5 10 -2 17 10 12 55 -6 55
-12 0 -15 -6 -10 -22z"/>
<path d="M2340 6756 c0 -59 4 -108 10 -111 6 -4 10 33 10 104 0 67 -4 111 -10
111 -6 0 -10 -41 -10 -104z"/>
<path d="M3030 6830 c0 -16 5 -30 10 -30 6 0 10 14 10 30 0 17 -4 30 -10 30
-5 0 -10 -13 -10 -30z"/>
<path d="M12750 6747 c0 -76 4 -116 10 -112 13 8 13 195 0 215 -7 10 -10 -23
-10 -103z"/>
<path d="M13435 6833 c3 -15 10 -30 14 -33 4 -3 12 -18 16 -35 l9 -30 4 29 c2
16 -1 32 -6 35 -5 3 -12 18 -16 34 -3 15 -11 27 -17 27 -7 0 -9 -10 -4 -27z"/>
<path d="M3056 6792 c-7 -12 4 -52 15 -52 12 0 12 47 0 55 -5 3 -12 2 -15 -3z"/>
<path d="M3084 6714 c3 -9 6 -20 6 -25 0 -6 5 -7 10 -4 16 10 12 45 -6 45 -11
0 -14 -5 -10 -16z"/>
<path d="M13490 6711 c0 -11 5 -23 10 -26 6 -3 10 1 10 9 0 9 0 19 1 23 0 4
-4 9 -10 11 -6 2 -11 -5 -11 -17z"/>
<path d="M3112 6654 c1 -9 9 -19 16 -22 9 -3 13 2 10 14 -1 9 -9 19 -16 22 -9
3 -13 -2 -10 -14z"/>
<path d="M3933 6662 c-13 -2 -23 -8 -23 -13 0 -6 -7 -17 -15 -25 -8 -9 -15
-26 -15 -39 0 -13 -4 -26 -9 -29 -14 -9 16 -105 41 -132 31 -32 50 -30 87 7
29 29 31 35 31 104 0 52 -4 78 -15 89 -8 8 -15 19 -15 24 0 11 -36 19 -67 14z"/>
<path d="M14341 6663 c-71 -28 -86 -181 -23 -240 33 -31 52 -29 88 8 27 28 29
35 28 108 0 65 -4 81 -21 98 -24 24 -52 34 -72 26z"/>
<path d="M7446 6614 c-10 -26 -7 -174 4 -174 6 0 10 38 10 95 0 95 -2 109 -14
79z"/>
<path d="M17850 6535 c0 -57 4 -95 10 -95 6 0 10 38 10 95 0 57 -4 95 -10 95
-6 0 -10 -38 -10 -95z"/>
<path d="M3145 6608 c-10 -24 2 -55 16 -41 6 6 6 18 0 34 -8 21 -10 22 -16 7z"/>
<path d="M13550 6591 c0 -17 5 -31 10 -31 6 0 10 11 10 24 0 14 -4 28 -10 31
-6 4 -10 -7 -10 -24z"/>
<path d="M2370 6500 c0 -60 4 -100 10 -100 6 0 10 40 10 100 0 60 -4 100 -10
100 -6 0 -10 -40 -10 -100z"/>
<path d="M12775 6567 c-9 -46 3 -169 16 -162 11 7 11 152 -1 180 -6 17 -9 14
-15 -18z"/>
<path d="M3170 6529 c0 -17 5 -29 11 -27 6 2 10 7 10 11 -1 4 -1 16 -1 27 0
11 -4 20 -10 20 -5 0 -10 -14 -10 -31z"/>
<path d="M13580 6530 c0 -16 5 -30 10 -30 6 0 10 14 10 30 0 17 -4 30 -10 30
-5 0 -10 -13 -10 -30z"/>
<path d="M3200 6470 c0 -16 5 -30 10 -30 6 0 10 14 10 30 0 17 -4 30 -10 30
-5 0 -10 -13 -10 -30z"/>
<path d="M13610 6471 c0 -17 5 -31 10 -31 6 0 10 11 10 24 0 14 -4 28 -10 31
-6 4 -10 -7 -10 -24z"/>
<path d="M3230 6405 c0 -14 5 -25 10 -25 6 0 10 11 10 25 0 14 -4 25 -10 25
-5 0 -10 -11 -10 -25z"/>
<path d="M13630 6421 c0 -20 13 -41 21 -35 15 9 10 44 -6 44 -8 0 -15 -4 -15
-9z"/>
<path d="M7416 6405 c-9 -25 -7 -135 3 -135 18 0 28 113 12 138 -7 11 -10 10
-15 -3z"/>
<path d="M17820 6340 c0 -40 4 -70 10 -70 6 0 10 30 10 70 0 40 -4 70 -10 70
-6 0 -10 -30 -10 -70z"/>
<path d="M2400 6290 c0 -47 4 -80 10 -80 6 0 10 33 10 80 0 47 -4 80 -10 80
-6 0 -10 -33 -10 -80z"/>
<path d="M12800 6316 c0 -72 10 -122 21 -104 10 15 12 102 3 136 -11 40 -24
23 -24 -32z"/>
<path d="M13662 6356 c1 -10 8 -17 13 -17 15 1 12 24 -3 29 -9 3 -13 -2 -10
-12z"/>
<path d="M13697 6324 c-10 -11 -9 -54 2 -54 15 0 18 13 12 38 -3 13 -9 20 -14
16z"/>
<path d="M3290 6296 c0 -14 5 -26 10 -26 6 0 10 9 10 19 0 11 -4 23 -10 26 -6
4 -10 -5 -10 -19z"/>
<path d="M3316 6262 c-7 -12 4 -52 15 -52 12 0 12 47 0 55 -5 3 -12 2 -15 -3z"/>
<path d="M5182 6240 c-9 -16 -20 -30 -24 -30 -5 0 -8 -31 -8 -70 0 -40 4 -70
10 -70 6 0 10 -6 10 -13 0 -18 37 -47 60 -47 11 0 28 8 38 18 24 24 52 85 52
112 0 27 -28 88 -52 112 -28 28 -66 23 -86 -12z"/>
<path d="M13720 6240 c0 -16 5 -30 10 -30 6 0 10 14 10 30 0 17 -4 30 -10 30
-5 0 -10 -13 -10 -30z"/>
<path d="M15581 6231 c-26 -32 -31 -48 -31 -91 0 -43 5 -59 31 -91 42 -53 74
-53 112 0 22 32 27 50 27 95 0 31 -4 56 -10 56 -5 0 -10 7 -10 15 0 9 -7 18
-15 21 -8 4 -15 12 -15 20 0 9 -11 14 -29 14 -22 0 -37 -10 -60 -39z"/>
<path d="M7386 6218 c-9 -34 -7 -76 3 -82 12 -8 21 19 21 65 0 43 -14 52 -24
17z"/>
<path d="M17790 6184 c0 -34 4 -53 10 -49 6 3 10 28 10 56 0 27 -4 49 -10 49
-5 0 -10 -25 -10 -56z"/>
<path d="M16851 6120 c-3 -235 -15 -470 -23 -470 -4 0 -8 6 -8 14 0 23 -53 76
-76 76 -11 0 -33 -11 -48 -25 -24 -22 -26 -30 -26 -110 0 -67 3 -87 15 -91 8
-4 15 -10 15 -15 0 -17 40 -49 60 -49 11 0 20 7 20 15 0 8 7 15 15 15 8 0 15
6 15 14 0 8 7 16 15 20 11 4 15 21 15 65 0 33 5 61 10 63 16 5 22 177 12 383
-6 136 -9 163 -11 95z"/>
<path d="M3340 6188 c0 -7 4 -19 9 -26 7 -11 10 -10 15 3 3 9 4 21 0 26 -8 13
-24 11 -24 -3z"/>
<path d="M2430 6105 c0 -48 4 -74 10 -70 6 3 10 35 10 70 0 35 -4 67 -10 70
-6 4 -10 -22 -10 -70z"/>
<path d="M12838 6174 c-11 -11 -10 -132 1 -139 6 -3 13 10 16 28 8 39 -6 123
-17 111z"/>
<path d="M6448 6144 c-5 -4 -8 -114 -8 -245 0 -231 -7 -285 -30 -225 -14 37
-46 66 -74 66 -14 0 -34 -13 -50 -32 -26 -31 -27 -38 -24 -112 2 -52 8 -81 16
-84 6 -2 12 -8 12 -13 0 -14 39 -49 55 -49 8 0 30 15 48 33 28 27 35 42 41 91
3 33 11 65 16 72 12 14 9 510 -2 498z"/>
<path d="M3370 6120 c0 -19 11 -26 23 -14 8 8 -3 34 -14 34 -5 0 -9 -9 -9 -20z"/>
<path d="M7355 6076 c-8 -41 -4 -70 10 -68 13 2 19 102 6 102 -6 0 -13 -15
-16 -34z"/>
<path d="M17767 6103 c-11 -10 -8 -93 3 -93 6 0 10 23 10 50 0 51 -1 55 -13
43z"/>
<path d="M3400 6070 c0 -16 5 -30 10 -30 6 0 10 14 10 30 0 17 -4 30 -10 30
-5 0 -10 -13 -10 -30z"/>
<path d="M13810 6073 c0 -18 5 -33 10 -33 13 0 13 30 0 50 -7 11 -10 7 -10
-17z"/>
<path d="M3430 6011 c0 -17 5 -31 10 -31 6 0 10 11 10 24 0 14 -4 28 -10 31
-6 4 -10 -7 -10 -24z"/>
<path d="M13836 6032 c-7 -12 4 -52 15 -52 12 0 12 47 0 55 -5 3 -12 2 -15 -3z"/>
<path d="M2456 6003 c-14 -15 -1 -133 15 -133 12 0 12 127 0 134 -4 3 -11 3
-15 -1z"/>
<path d="M12860 5946 c0 -36 5 -68 10 -71 6 -4 10 20 10 64 0 41 -4 71 -10 71
-6 0 -10 -28 -10 -64z"/>
<path d="M7330 5949 c0 -31 4 -48 10 -44 6 3 10 26 10 51 0 24 -4 44 -10 44
-5 0 -10 -23 -10 -51z"/>
<path d="M17736 5985 c-9 -25 -7 -73 3 -80 14 -8 25 60 13 80 -8 16 -9 16 -16
0z"/>
<path d="M13862 5954 c4 -21 22 -23 26 -1 2 10 -3 17 -13 17 -10 0 -15 -6 -13
-16z"/>
<path d="M3490 5896 c0 -14 5 -26 10 -26 6 0 10 9 10 19 0 11 -4 23 -10 26 -6
4 -10 -5 -10 -19z"/>
<path d="M13892 5896 c1 -10 8 -17 13 -17 15 1 12 24 -3 29 -9 3 -13 -2 -10
-12z"/>
<path d="M17705 5867 c-8 -41 0 -72 15 -62 12 8 13 65 1 84 -7 11 -11 5 -16
-22z"/>
<path d="M7300 5844 c0 -27 4 -43 10 -39 6 3 10 24 10 46 0 21 -4 39 -10 39
-5 0 -10 -21 -10 -46z"/>
<path d="M3519 5863 c-3 -17 3 -48 10 -53 4 -3 12 -16 18 -30 10 -23 11 -24
19 -6 5 13 2 23 -9 31 -10 7 -17 22 -17 33 0 20 -19 42 -21 25z"/>
<path d="M13920 5839 c0 -17 5 -29 11 -27 6 2 10 7 10 11 -1 4 -1 16 -1 27 0
11 -4 20 -10 20 -5 0 -10 -14 -10 -31z"/>
<path d="M2485 5839 c-9 -24 -2 -104 10 -104 14 0 18 65 6 95 -7 21 -10 22
-16 9z"/>
<path d="M12890 5790 c0 -33 4 -60 10 -60 6 0 10 27 10 60 0 33 -4 60 -10 60
-6 0 -10 -27 -10 -60z"/>
<path d="M13950 5791 c0 -11 5 -23 10 -26 6 -4 10 5 10 19 0 14 -4 26 -10 26
-5 0 -10 -9 -10 -19z"/>
<path d="M7277 5783 c-11 -10 -8 -73 3 -73 6 0 10 18 10 40 0 41 -2 45 -13 33z"/>
<path d="M17676 5775 c-3 -9 -6 -28 -6 -42 0 -34 24 -24 28 11 4 33 -12 56
-22 31z"/>
<path d="M3570 5730 c0 -11 7 -20 15 -20 17 0 18 2 9 24 -9 23 -24 20 -24 -4z"/>
<path d="M2510 5663 c0 -57 14 -87 25 -54 8 27 -3 101 -16 101 -5 0 -9 -21 -9
-47z"/>
<path d="M12920 5656 c0 -30 5 -58 10 -61 6 -4 10 17 10 54 0 34 -4 61 -10 61
-5 0 -10 -24 -10 -54z"/>
<path d="M3600 5676 c0 -26 15 -43 24 -28 7 12 -4 52 -15 52 -5 0 -9 -11 -9
-24z"/>
<path d="M7240 5660 c0 -22 5 -40 10 -40 6 0 10 18 10 40 0 22 -4 40 -10 40
-5 0 -10 -18 -10 -40z"/>
<path d="M14010 5670 c0 -16 4 -30 10 -30 5 0 12 -11 16 -25 3 -14 10 -25 15
-25 5 0 9 11 9 25 0 16 -6 25 -15 25 -10 0 -15 10 -15 30 0 17 -4 30 -10 30
-5 0 -10 -13 -10 -30z"/>
<path d="M17647 5674 c-2 -14 -2 -35 1 -46 7 -28 22 -2 22 40 0 38 -16 43 -23
6z"/>
<path d="M3630 5621 c0 -11 5 -23 10 -26 6 -4 10 5 10 19 0 14 -4 26 -10 26
-5 0 -10 -9 -10 -19z"/>
<path d="M7210 5576 c0 -20 5 -36 10 -36 6 0 10 11 10 25 0 14 0 28 1 32 0 4
-4 9 -10 11 -7 2 -11 -11 -11 -32z"/>
<path d="M17620 5575 c0 -19 5 -35 10 -35 6 0 10 16 10 35 0 19 -4 35 -10 35
-5 0 -10 -16 -10 -35z"/>
<path d="M2540 5531 c0 -28 5 -53 10 -56 6 -4 10 15 10 49 0 31 -4 56 -10 56
-5 0 -10 -22 -10 -49z"/>
<path d="M12948 5556 c-6 -32 2 -86 13 -86 12 0 12 97 0 104 -5 3 -11 -5 -13
-18z"/>
<path d="M14062 5564 c1 -9 9 -19 16 -22 9 -3 13 2 10 14 -1 9 -9 19 -16 22
-9 3 -13 -2 -10 -14z"/>
<path d="M3690 5511 c0 -17 5 -31 10 -31 6 0 10 11 10 24 0 14 -4 28 -10 31
-6 4 -10 -7 -10 -24z"/>
<path d="M14097 5534 c-13 -13 -8 -54 7 -54 7 0 17 -15 21 -32 l8 -33 4 29 c3
16 0 32 -5 35 -5 3 -13 19 -18 34 -5 16 -13 25 -17 21z"/>
<path d="M7186 5515 c-3 -9 -6 -27 -6 -40 0 -12 -7 -25 -15 -29 -19 -7 -21
-70 -2 -64 6 3 13 19 15 36 2 18 7 32 12 32 13 0 23 61 12 72 -6 6 -12 3 -16
-7z"/>
<path d="M17590 5490 c0 -22 5 -40 10 -40 6 0 10 18 10 40 0 22 -4 40 -10 40
-5 0 -10 -18 -10 -40z"/>
<path d="M3716 5472 c-8 -13 5 -53 15 -46 12 7 12 41 0 49 -5 3 -12 2 -15 -3z"/>
<path d="M2570 5406 c0 -25 5 -48 10 -51 6 -4 10 13 10 44 0 28 -4 51 -10 51
-5 0 -10 -20 -10 -44z"/>
<path d="M12974 5436 c-9 -22 5 -88 17 -81 12 8 12 82 -1 90 -6 3 -13 -1 -16
-9z"/>
<path d="M17560 5415 c0 -19 5 -35 10 -35 6 0 10 16 10 35 0 19 -4 35 -10 35
-5 0 -10 -16 -10 -35z"/>
<path d="M6260 5431 c0 -15 15 -21 38 -14 32 8 27 23 -8 23 -16 0 -30 -4 -30
-9z"/>
<path d="M16670 5424 c0 -11 5 -14 16 -10 9 3 20 6 25 6 5 0 9 5 9 10 0 6 -11
10 -25 10 -16 0 -25 -6 -25 -16z"/>
<path d="M3746 5413 c-12 -12 -6 -33 9 -33 8 0 15 6 15 14 0 17 -14 28 -24 19z"/>
<path d="M6205 5399 c-11 -16 1 -22 30 -15 14 4 23 11 20 16 -8 13 -42 13 -50
-1z"/>
<path d="M16610 5395 c0 -16 9 -19 34 -9 25 9 19 24 -9 24 -16 0 -25 -6 -25
-15z"/>
<path d="M6138 5373 c-29 -7 -20 -23 12 -23 20 0 30 5 30 15 0 15 -9 17 -42 8z"/>
<path d="M16543 5373 c-24 -9 -13 -23 18 -23 20 0 29 4 27 13 -5 13 -26 18
-45 10z"/>
<path d="M3770 5345 c0 -16 6 -25 16 -25 11 0 14 5 10 16 -3 9 -6 20 -6 25 0
5 -4 9 -10 9 -5 0 -10 -11 -10 -25z"/>
<path d="M7126 5348 c-9 -34 -8 -38 9 -38 10 0 15 10 15 30 0 35 -15 40 -24 8z"/>
<path d="M14180 5345 c0 -14 5 -25 10 -25 6 0 10 11 10 25 0 14 -4 25 -10 25
-5 0 -10 -11 -10 -25z"/>
<path d="M17530 5340 c0 -16 5 -30 10 -30 6 0 10 14 10 30 0 17 -4 30 -10 30
-5 0 -10 -13 -10 -30z"/>
<path d="M2600 5301 c0 -28 5 -51 10 -51 6 0 10 20 10 44 0 25 -4 48 -10 51
-6 4 -10 -13 -10 -44z"/>
<path d="M13004 5337 c-8 -22 4 -87 16 -87 13 0 13 70 0 90 -8 12 -10 12 -16
-3z"/>
<path d="M6060 5330 c0 -5 14 -10 30 -10 17 0 30 5 30 10 0 6 -13 10 -30 10
-16 0 -30 -4 -30 -10z"/>
<path d="M16460 5330 c0 -5 14 -10 30 -10 17 0 30 5 30 10 0 6 -13 10 -30 10
-16 0 -30 -4 -30 -10z"/>
<path d="M5980 5294 c0 -11 8 -14 27 -12 39 4 42 28 4 28 -21 0 -31 -5 -31
-16z"/>
<path d="M16380 5295 c0 -10 10 -15 30 -15 20 0 30 5 30 15 0 10 -10 15 -30
15 -20 0 -30 -5 -30 -15z"/>
<path d="M7100 5259 c0 -24 4 -38 10 -34 6 3 10 22 10 41 0 19 -4 34 -10 34
-5 0 -10 -18 -10 -41z"/>
<path d="M17504 5276 c-3 -14 -3 -34 1 -43 6 -15 10 -12 18 15 7 23 7 36 -1
44 -8 8 -13 4 -18 -16z"/>
<path d="M5905 5270 c-18 -7 -19 -8 -2 -15 9 -4 29 -4 44 0 21 5 24 8 12 16
-17 10 -27 10 -54 -1z"/>
<path d="M16318 5273 c-31 -8 -19 -24 15 -21 17 2 31 8 30 13 -2 12 -21 15
-45 8z"/>
<path d="M3830 5241 c0 -11 5 -23 10 -26 6 -4 10 5 10 19 0 14 -4 26 -10 26
-5 0 -10 -9 -10 -19z"/>
<path d="M14240 5240 c0 -12 7 -28 15 -36 8 -9 15 -24 15 -35 0 -11 5 -17 10
-14 16 10 12 55 -5 55 -8 0 -15 9 -15 19 0 11 -4 23 -10 26 -5 3 -10 -3 -10
-15z"/>
<path d="M2626 5225 c-7 -20 4 -75 15 -75 5 0 9 20 9 45 0 44 -12 60 -24 30z"/>
<path d="M5815 5230 c-4 -6 8 -10 29 -10 19 0 38 5 41 10 4 6 -8 10 -29 10
-19 0 -38 -4 -41 -10z"/>
<path d="M13030 5208 c0 -40 14 -66 25 -48 9 15 -3 80 -15 80 -6 0 -10 -15
-10 -32z"/>
<path d="M16220 5230 c0 -5 16 -10 35 -10 19 0 35 5 35 10 0 6 -16 10 -35 10
-19 0 -35 -4 -35 -10z"/>
<path d="M7070 5185 c0 -19 5 -35 10 -35 6 0 10 16 10 35 0 19 -4 35 -10 35
-5 0 -10 -16 -10 -35z"/>
<path d="M17477 5213 c-4 -3 -7 -19 -7 -34 0 -15 -5 -29 -10 -31 -14 -4 -18
-56 -5 -60 6 -2 11 10 13 26 2 16 10 35 18 43 8 8 14 25 14 39 0 23 -10 31
-23 17z"/>
<path d="M3860 5186 c0 -14 5 -28 10 -31 6 -4 10 7 10 24 0 17 -4 31 -10 31
-5 0 -10 -11 -10 -24z"/>
<path d="M5740 5201 c0 -16 19 -23 40 -16 30 10 24 25 -10 25 -16 0 -30 -4
-30 -9z"/>
<path d="M16150 5201 c0 -15 15 -21 38 -14 32 8 27 23 -8 23 -16 0 -30 -4 -30
-9z"/>
<path d="M5660 5165 c0 -10 10 -15 30 -15 20 0 30 5 30 15 0 10 -10 15 -30 15
-20 0 -30 -5 -30 -15z"/>
<path d="M16067 5173 c-15 -14 -6 -23 23 -23 20 0 30 5 30 15 0 15 -40 21 -53
8z"/>
<path d="M2655 5140 c-10 -16 4 -82 16 -75 12 8 12 72 0 80 -5 3 -13 0 -16 -5z"/>
<path d="M7040 5120 c0 -16 5 -30 10 -30 6 0 10 14 10 30 0 17 -4 30 -10 30
-5 0 -10 -13 -10 -30z"/>
<path d="M13060 5121 c0 -16 3 -37 7 -47 6 -17 7 -17 13 1 8 23 0 75 -11 75
-5 0 -9 -13 -9 -29z"/>
<path d="M14290 5135 c0 -7 6 -18 14 -22 8 -4 16 -18 18 -31 1 -12 8 -22 13
-22 11 1 7 42 -4 50 -4 3 -10 13 -14 23 -8 21 -27 23 -27 2z"/>
<path d="M5570 5130 c0 -5 13 -10 29 -10 17 0 33 5 36 10 4 6 -8 10 -29 10
-20 0 -36 -4 -36 -10z"/>
<path d="M15980 5130 c0 -5 14 -10 30 -10 17 0 30 5 30 10 0 6 -13 10 -30 10
-16 0 -30 -4 -30 -10z"/>
<path d="M3920 5083 c0 -18 4 -33 9 -33 5 0 11 -9 14 -20 3 -11 10 -20 16 -20
17 0 13 30 -4 36 -8 4 -15 14 -15 23 0 9 -5 23 -10 31 -7 11 -10 7 -10 -17z"/>
<path d="M5480 5101 c0 -16 18 -22 45 -15 37 9 31 24 -10 24 -19 0 -35 -4 -35
-9z"/>
<path d="M15890 5101 c0 -16 19 -23 40 -16 30 10 24 25 -10 25 -16 0 -30 -4
-30 -9z"/>
<path d="M5397 5074 c-12 -12 4 -24 34 -24 19 0 29 5 29 15 0 15 -50 22 -63 9z"/>
<path d="M7010 5051 c0 -16 -6 -31 -15 -35 -8 -3 -15 -16 -15 -30 0 -13 -7
-26 -15 -30 -8 -3 -15 -15 -15 -26 0 -11 -4 -20 -10 -20 -5 0 -13 -12 -16 -26
-4 -15 -16 -36 -26 -46 -11 -11 -24 -33 -30 -49 -5 -16 -14 -29 -19 -29 -5 0
-9 -9 -9 -20 0 -11 -7 -20 -15 -20 -8 0 -15 -9 -15 -20 0 -11 -7 -20 -15 -20
-8 0 -15 -7 -15 -15 0 -8 -7 -15 -15 -15 -8 0 -15 -6 -15 -14 0 -7 -11 -25
-25 -40 -14 -15 -25 -31 -25 -37 0 -5 -7 -9 -15 -9 -8 0 -15 -7 -15 -15 0 -8
-7 -15 -15 -15 -8 0 -15 -6 -15 -14 0 -8 -7 -16 -15 -20 -8 -3 -15 -12 -15
-21 0 -8 -7 -15 -15 -15 -8 0 -15 -7 -15 -15 0 -8 -7 -15 -15 -15 -8 0 -15 -7
-15 -15 0 -8 -6 -15 -14 -15 -16 0 -66 -45 -66 -60 0 -5 -9 -10 -20 -10 -11 0
-20 -7 -20 -15 0 -9 -9 -15 -25 -15 -15 0 -25 -6 -25 -14 0 -8 -11 -17 -25
-20 -14 -4 -25 -11 -25 -16 0 -6 11 -10 25 -10 15 0 25 6 25 14 0 8 11 17 25
20 14 4 25 11 25 16 0 6 7 10 15 10 9 0 18 7 21 15 3 8 14 17 25 20 10 4 19
13 19 21 0 8 9 14 20 14 11 0 20 7 20 15 0 8 7 15 15 15 8 0 15 5 15 10 0 12
121 130 133 130 4 0 7 5 7 10 0 6 5 16 10 23 39 46 50 61 50 69 0 5 10 19 23
31 13 12 26 30 30 40 3 9 11 17 17 17 5 0 10 9 10 20 0 11 7 20 15 20 8 0 15
8 15 19 0 10 7 24 15 31 8 7 15 18 15 25 0 7 7 15 15 19 8 3 15 16 15 30 0 13
7 26 15 30 8 3 15 15 15 26 0 11 4 20 10 20 5 0 13 12 16 28 4 15 11 29 15 32
4 3 11 18 14 33 6 21 4 27 -9 27 -11 0 -16 -9 -16 -29z"/>
<path d="M15805 5070 c-8 -12 17 -23 41 -18 10 1 19 9 22 16 5 15 -54 17 -63
2z"/>
<path d="M17420 5050 c0 -16 5 -30 10 -30 6 0 10 14 10 30 0 17 -4 30 -10 30
-5 0 -10 -13 -10 -30z"/>
<path d="M2680 5027 c0 -14 6 -32 14 -40 8 -8 16 -27 18 -42 2 -16 9 -31 17
-33 11 -4 13 3 7 29 -3 18 -10 35 -15 39 -5 3 -11 18 -13 34 -4 37 -28 48 -28
13z"/>
<path d="M5317 5043 c-15 -14 -6 -23 23 -23 20 0 30 5 30 15 0 15 -40 21 -53
8z"/>
<path d="M13090 5021 c0 -17 5 -33 10 -36 6 -4 10 8 10 29 0 20 -4 36 -10 36
-5 0 -10 -13 -10 -29z"/>
<path d="M15722 5044 c-21 -9 -3 -24 29 -24 20 0 29 4 27 13 -5 13 -35 19 -56
11z"/>
<path d="M17390 4990 c0 -16 5 -30 10 -30 6 0 10 14 10 30 0 17 -4 30 -10 30
-5 0 -10 -13 -10 -30z"/>
<path d="M3975 4991 c-5 -17 -3 -28 7 -35 8 -6 17 -20 21 -30 6 -15 10 -17 20
-7 9 10 9 15 -4 24 -9 7 -20 26 -26 42 l-10 30 -8 -24z"/>
<path d="M5210 5000 c0 -5 18 -10 40 -10 22 0 40 5 40 10 0 6 -18 10 -40 10
-22 0 -40 -4 -40 -10z"/>
<path d="M15620 5000 c0 -5 16 -10 35 -10 19 0 35 5 35 10 0 6 -16 10 -35 10
-19 0 -35 -4 -35 -10z"/>
<path d="M14380 4975 c0 -14 5 -25 10 -25 6 0 10 11 10 25 0 14 -4 25 -10 25
-5 0 -10 -11 -10 -25z"/>
<path d="M5120 4970 c0 -16 27 -23 55 -16 39 10 29 26 -15 26 -22 0 -40 -5
-40 -10z"/>
<path d="M13120 4945 c0 -19 5 -35 10 -35 6 0 10 16 10 35 0 19 -4 35 -10 35
-5 0 -10 -16 -10 -35z"/>
<path d="M15530 4965 c0 -15 26 -20 54 -9 28 11 17 24 -19 24 -24 0 -35 -5
-35 -15z"/>
<path d="M17368 4954 c-5 -4 -8 -16 -8 -26 0 -10 -7 -18 -15 -18 -10 0 -15
-10 -15 -30 0 -20 -5 -30 -15 -30 -8 0 -15 -9 -15 -20 0 -11 5 -20 11 -20 6 0
13 9 16 20 3 11 9 20 14 20 5 0 9 9 9 19 0 11 7 27 16 35 8 9 14 25 12 37 -2
11 -6 17 -10 13z"/>
<path d="M2990 4935 c-7 -8 -20 -15 -29 -15 -9 0 -23 -5 -31 -10 -12 -7 -12
-12 -2 -22 17 -17 16 -87 -3 -94 -8 -4 -15 -13 -15 -20 0 -8 -7 -17 -15 -20
-8 -4 -15 -12 -15 -20 0 -9 -11 -14 -30 -14 -25 0 -30 4 -30 24 0 14 -4 28
-10 31 -16 10 -12 -45 5 -61 8 -9 15 -24 15 -35 0 -10 5 -19 10 -19 6 0 10 -7
10 -15 0 -9 7 -18 15 -21 8 -4 15 -13 15 -20 0 -8 6 -17 14 -20 8 -3 17 -16
20 -30 4 -13 11 -24 16 -24 6 0 10 -9 10 -20 0 -11 7 -20 15 -20 8 0 15 -7 15
-15 0 -8 7 -15 15 -15 8 0 15 -9 15 -20 0 -11 7 -20 15 -20 8 0 15 -7 15 -15
0 -8 5 -15 10 -15 6 0 10 -7 10 -15 0 -8 7 -15 15 -15 8 0 15 -6 15 -12 0 -16
44 -58 59 -58 6 0 11 -7 11 -15 0 -8 7 -15 15 -15 9 0 18 -7 21 -15 3 -8 14
-17 25 -20 10 -4 19 -12 19 -20 0 -7 8 -16 18 -19 38 -15 62 -31 62 -43 0 -8
13 -13 30 -13 17 0 30 4 30 9 0 5 -13 12 -30 16 -16 4 -30 13 -30 21 0 8 -9
14 -20 14 -11 0 -20 7 -20 15 0 8 -7 15 -15 15 -8 0 -19 9 -25 20 -6 11 -17
20 -25 20 -8 0 -15 7 -15 15 0 8 -5 15 -10 15 -6 0 -26 16 -46 35 -19 19 -39
35 -44 35 -6 0 -10 7 -10 15 0 8 -7 15 -15 15 -8 0 -15 5 -15 10 0 12 -9 24
-52 71 -16 16 -28 32 -28 35 0 8 -44 69 -52 72 -5 2 -8 12 -8 23 0 10 -7 19
-15 19 -22 0 -18 16 15 65 17 24 30 48 30 54 0 6 7 11 15 11 8 0 15 7 15 15 0
22 18 18 25 -5 3 -11 10 -20 15 -20 15 0 40 62 40 99 0 20 7 49 15 65 8 15 12
32 9 37 -9 15 -71 10 -84 -6z"/>
<path d="M4163 4923 c-13 -14 -23 -34 -23 -43 0 -20 -27 -77 -41 -85 -16 -11
-10 -35 16 -59 14 -13 25 -27 25 -32 0 -22 43 -45 78 -42 30 2 38 8 40 26 4
23 16 29 27 12 8 -13 92 -13 100 -1 8 14 -30 23 -68 16 l-33 -7 0 91 c1 86 0
91 -28 120 -36 37 -63 38 -93 4z"/>
<path d="M5037 4943 c-15 -15 -5 -23 27 -23 19 0 37 4 40 9 10 16 -52 29 -67
14z"/>
<path d="M13390 4935 c-7 -8 -20 -15 -29 -15 -9 0 -23 -5 -31 -10 -13 -9 -13
-11 0 -19 9 -6 15 -26 15 -49 0 -21 -7 -46 -15 -55 -31 -34 -40 -47 -40 -57 0
-5 -13 -10 -29 -10 -24 0 -29 5 -35 31 -3 17 -10 28 -16 24 -15 -9 -12 -45 5
-51 8 -4 15 -12 15 -20 0 -23 34 -83 48 -84 6 0 12 -9 12 -20 0 -11 4 -20 10
-20 5 0 12 -11 16 -24 3 -14 12 -27 20 -30 8 -3 14 -11 14 -17 0 -6 11 -22 25
-35 14 -13 25 -28 25 -34 0 -6 7 -13 15 -16 8 -4 15 -12 15 -20 0 -8 7 -14 15
-14 8 0 15 -7 15 -15 0 -8 7 -15 15 -15 8 0 15 -5 15 -11 0 -14 70 -83 93 -92
9 -3 17 -11 17 -17 0 -5 7 -10 15 -10 8 0 15 -7 15 -14 0 -14 33 -37 73 -52 9
-3 17 -13 17 -20 0 -8 10 -14 25 -14 14 0 25 4 25 10 0 5 -11 12 -25 16 -14 3
-25 10 -25 15 0 5 -8 13 -17 16 -9 4 -24 14 -34 22 -15 15 -81 73 -151 136
-16 13 -28 29 -28 35 0 5 -7 10 -15 10 -8 0 -15 7 -15 15 0 8 -7 15 -15 15 -8
0 -15 7 -15 15 0 9 -7 18 -15 21 -8 4 -15 12 -15 20 0 8 -7 14 -15 14 -8 0
-15 8 -15 19 0 10 -7 24 -15 31 -8 7 -15 18 -15 25 0 7 -7 15 -15 19 -8 3 -15
12 -15 21 0 8 -4 15 -10 15 -5 0 -10 9 -10 20 0 11 4 20 10 20 5 0 12 11 16
24 3 14 12 27 20 30 8 3 14 10 14 16 0 10 36 50 45 50 3 0 5 -6 5 -14 0 -8 4
-17 10 -21 16 -10 44 45 51 104 5 31 11 66 15 79 6 20 3 22 -34 22 -23 0 -45
-6 -52 -15z"/>
<path d="M14575 4928 c-11 -13 -28 -45 -37 -73 -10 -27 -25 -53 -33 -58 -19
-10 -19 -36 0 -43 8 -4 15 -10 15 -15 0 -5 15 -24 34 -44 26 -26 43 -35 68
-35 30 0 36 5 51 38 11 25 17 65 17 113 0 72 -1 77 -33 107 -39 38 -56 40 -82
10z"/>
<path d="M15447 4944 c-16 -16 -5 -25 26 -22 17 2 31 8 30 13 -3 12 -46 19
-56 9z"/>
<path d="M4940 4900 c0 -5 16 -10 35 -10 19 0 35 5 35 10 0 6 -16 10 -35 10
-19 0 -35 -4 -35 -10z"/>
<path d="M15345 4900 c-4 -6 8 -10 29 -10 20 0 36 5 36 10 0 6 -13 10 -29 10
-17 0 -33 -4 -36 -10z"/>
<path d="M2740 4876 c0 -27 15 -42 25 -26 8 13 -3 50 -16 50 -5 0 -9 -11 -9
-24z"/>
<path d="M13150 4871 c0 -17 5 -31 10 -31 6 0 10 11 10 24 0 14 -4 28 -10 31
-6 4 -10 -7 -10 -24z"/>
<path d="M14440 4876 c0 -14 4 -26 10 -26 5 0 12 -11 16 -25 7 -28 24 -24 24
6 0 10 -7 19 -15 19 -8 0 -15 9 -15 19 0 11 -4 23 -10 26 -6 4 -10 -5 -10 -19z"/>
<path d="M4835 4871 c-3 -5 3 -12 14 -16 24 -7 73 4 65 16 -7 12 -71 12 -79 0z"/>
<path d="M15240 4871 c0 -14 29 -22 56 -15 38 10 28 24 -16 24 -22 0 -40 -4
-40 -9z"/>
<path d="M4060 4831 c0 -11 5 -23 10 -26 6 -4 10 5 10 19 0 14 -4 26 -10 26
-5 0 -10 -9 -10 -19z"/>
<path d="M4747 4843 c-16 -16 -4 -24 30 -21 48 4 57 28 11 28 -19 0 -38 -3
-41 -7z"/>
<path d="M15150 4835 c0 -16 35 -20 64 -9 29 11 16 24 -24 24 -29 0 -40 -4
-40 -15z"/>
<path d="M2770 4811 c0 -17 5 -31 10 -31 6 0 10 11 10 24 0 14 -4 28 -10 31
-6 4 -10 -7 -10 -24z"/>
<path d="M13177 4826 c-7 -19 1 -46 14 -46 11 0 11 31 0 48 -7 11 -9 11 -14
-2z"/>
<path d="M4648 4813 c-33 -8 -18 -23 22 -23 40 0 53 13 24 24 -17 6 -19 6 -46
-1z"/>
<path d="M15053 4813 c-27 -10 -11 -23 27 -23 40 0 53 13 24 24 -18 7 -33 7
-51 -1z"/>
<path d="M17274 4791 c-4 -16 -12 -32 -20 -35 -8 -3 -14 -12 -14 -20 0 -7 -7
-16 -15 -20 -8 -3 -15 -12 -15 -21 0 -8 -4 -15 -10 -15 -5 0 -10 -7 -10 -15 0
-8 -7 -15 -15 -15 -8 0 -15 -7 -15 -15 0 -9 -7 -18 -15 -21 -8 -4 -15 -11 -15
-16 0 -6 -25 -35 -55 -64 -30 -30 -55 -58 -55 -62 0 -4 -21 -25 -46 -47 -25
-22 -53 -48 -62 -57 -9 -10 -22 -18 -29 -18 -7 0 -13 -7 -13 -15 0 -8 -7 -15
-15 -15 -9 0 -18 -7 -21 -15 -4 -8 -14 -15 -23 -15 -9 0 -24 -9 -34 -20 -9
-11 -24 -20 -32 -20 -8 0 -15 -4 -15 -10 0 -5 11 -10 25 -10 16 0 25 6 25 15
0 8 9 15 20 15 11 0 23 7 26 15 4 8 15 15 25 15 10 0 19 6 19 13 0 8 11 19 25
25 14 6 25 16 25 22 0 5 7 10 15 10 8 0 15 7 15 15 0 8 5 15 11 15 14 0 159
148 159 161 0 5 7 9 15 9 8 0 15 5 15 10 0 12 34 62 68 100 12 13 22 30 22 37
0 7 7 13 15 13 8 0 15 9 15 19 0 10 7 21 15 25 17 6 20 42 5 51 -6 4 -13 -7
-16 -24z"/>
<path d="M4536 4771 c-3 -5 0 -11 7 -14 18 -7 67 3 67 14 0 12 -67 12 -74 0z"/>
<path d="M14936 4771 c-3 -5 3 -11 13 -14 26 -6 72 3 65 14 -7 12 -71 12 -78
0z"/>
<path d="M4422 4743 c-20 -8 -3 -23 28 -23 41 0 65 10 48 21 -14 9 -55 11 -76
2z"/>
<path d="M14821 4741 c-21 -14 23 -24 67 -16 26 5 32 9 21 16 -18 11 -70 11
-88 0z"/>
<path d="M14708 4713 c-37 -10 -16 -24 30 -21 26 2 47 8 47 13 0 11 -49 16
-77 8z"/>
<path d="M5145 4250 c-4 -22 -11 -42 -16 -46 -5 -3 -9 -13 -9 -22 0 -9 -7 -30
-15 -46 -17 -33 -13 -56 9 -56 9 0 20 -9 26 -19 11 -21 14 -142 4 -178 l-6
-23 -453 0 c-250 0 -460 -3 -469 -6 -9 -3 -16 -10 -16 -15 0 -5 224 -9 528 -9
l527 1 -27 22 c-27 22 -28 27 -28 113 0 76 3 95 20 114 21 24 19 56 -6 97 -8
12 -14 34 -14 48 0 14 -7 28 -15 31 -8 4 -15 12 -15 20 0 31 -19 11 -25 -26z"/>
<path d="M15555 4265 c-4 -17 -13 -44 -21 -62 -8 -17 -14 -40 -14 -52 0 -12
-4 -21 -10 -21 -5 0 -10 -11 -10 -24 0 -18 6 -25 23 -28 21 -3 22 -8 25 -110
l3 -108 -455 0 c-250 0 -461 -3 -470 -6 -9 -3 -16 -10 -16 -15 0 -5 224 -9
526 -9 467 0 525 2 514 15 -7 8 -18 15 -25 15 -16 0 -25 45 -25 125 0 47 5 68
20 88 21 26 27 81 10 92 -5 3 -14 23 -20 43 -5 20 -19 48 -29 62 l-19 25 -7
-30z"/>
<path d="M6287 4213 c-14 -13 -6 -24 15 -21 27 4 36 28 11 28 -11 0 -23 -3
-26 -7z"/>
<path d="M16690 4204 c0 -9 7 -14 17 -12 25 5 28 28 4 28 -12 0 -21 -6 -21
-16z"/>
<path d="M6230 4175 c0 -8 9 -15 20 -15 11 0 20 7 20 15 0 8 -9 15 -20 15 -11
0 -20 -7 -20 -15z"/>
<path d="M16635 4180 c-8 -12 20 -24 35 -15 5 3 10 10 10 16 0 12 -37 12 -45
-1z"/>
<path d="M6177 4154 c-4 -4 -7 -11 -7 -16 0 -13 50 -6 53 7 2 12 -36 19 -46 9z"/>
<path d="M16587 4153 c-14 -13 -6 -23 18 -23 16 0 25 6 25 15 0 15 -31 21 -43
8z"/>
<path d="M3373 4108 c2 -7 12 -13 22 -13 10 0 20 6 23 13 2 7 -6 12 -23 12
-17 0 -25 -5 -22 -12z"/>
<path d="M6100 4105 c0 -16 17 -19 44 -9 26 10 18 24 -14 24 -20 0 -30 -5 -30
-15z"/>
<path d="M13773 4108 c2 -7 12 -13 22 -13 10 0 20 6 23 13 2 7 -6 12 -23 12
-17 0 -25 -5 -22 -12z"/>
<path d="M16502 4108 c7 -19 43 -21 58 -3 11 13 8 15 -25 15 -25 0 -35 -4 -33
-12z"/>
<path d="M3420 4075 c0 -10 10 -15 30 -15 20 0 30 -5 30 -15 0 -10 10 -15 30
-15 39 0 39 19 1 26 -17 4 -32 12 -35 20 -7 19 -56 18 -56 -1z"/>
<path d="M6037 4083 c-15 -14 -6 -23 23 -23 20 0 30 5 30 15 0 15 -40 21 -53
8z"/>
<path d="M13830 4075 c0 -9 9 -15 25 -15 16 0 25 6 25 15 0 9 -9 15 -25 15
-16 0 -25 -6 -25 -15z"/>
<path d="M16440 4074 c0 -11 8 -14 27 -12 39 4 42 28 4 28 -21 0 -31 -5 -31
-16z"/>
<path d="M5963 4054 c-27 -12 -11 -25 25 -22 20 2 36 8 35 13 -3 11 -41 17
-60 9z"/>
<path d="M13890 4046 c0 -11 9 -16 26 -16 31 0 28 23 -4 28 -15 2 -22 -2 -22
-12z"/>
<path d="M16367 4053 c-15 -15 -5 -23 28 -23 24 0 35 5 35 15 0 15 -50 22 -63
8z"/>
<path d="M3540 4010 c0 -5 16 -10 35 -10 19 0 35 5 35 10 0 6 -16 10 -35 10
-19 0 -35 -4 -35 -10z"/>
<path d="M5860 4010 c0 -5 18 -10 40 -10 22 0 40 5 40 10 0 6 -18 10 -40 10
-22 0 -40 -4 -40 -10z"/>
<path d="M13950 4010 c0 -5 16 -10 36 -10 21 0 33 4 29 10 -3 6 -19 10 -36 10
-16 0 -29 -4 -29 -10z"/>
<path d="M16270 4010 c0 -5 18 -10 40 -10 22 0 40 5 40 10 0 6 -18 10 -40 10
-22 0 -40 -4 -40 -10z"/>
<path d="M3622 3978 c5 -15 67 -18 71 -3 1 6 -15 11 -37 13 -28 3 -37 0 -34
-10z"/>
<path d="M5760 3980 c0 -16 27 -23 65 -16 52 10 42 26 -15 26 -28 0 -50 -5
-50 -10z"/>
<path d="M14032 3978 c5 -15 67 -18 71 -3 1 6 -15 11 -37 13 -28 3 -37 0 -34
-10z"/>
<path d="M16165 3980 c-3 -5 6 -12 20 -16 30 -7 75 2 75 16 0 13 -87 13 -95 0z"/>
<path d="M3712 3948 c3 -7 23 -14 47 -16 32 -2 42 0 39 10 -3 7 -23 14 -47 16
-32 2 -42 0 -39 -10z"/>
<path d="M5653 3954 c-31 -13 -9 -25 40 -22 28 2 52 8 52 13 0 11 -72 17 -92
9z"/>
<path d="M14120 3946 c0 -12 11 -16 46 -16 59 0 55 24 -4 28 -33 2 -42 0 -42
-12z"/>
<path d="M16063 3953 c-29 -11 -10 -23 37 -23 38 0 50 4 50 15 0 11 -10 15
-37 14 -21 0 -44 -3 -50 -6z"/>
<path d="M3827 3923 c-17 -17 -2 -23 53 -23 33 0 60 4 60 9 0 16 -99 28 -113
14z"/>
<path d="M5525 3923 c-49 -12 -35 -23 28 -23 37 0 67 4 67 9 0 18 -47 25 -95
14z"/>
<path d="M14237 3923 c-17 -17 -2 -23 53 -23 33 0 60 4 60 9 0 16 -99 28 -113
14z"/>
<path d="M15928 3923 c-52 -8 -28 -23 37 -23 62 0 84 11 49 24 -16 6 -40 6
-86 -1z"/>
<path d="M3970 3881 c0 -13 95 -23 146 -15 24 3 41 10 38 15 -7 12 -184 12
-184 0z"/>
<path d="M5296 3881 c-3 -5 11 -11 32 -15 46 -7 143 4 136 15 -7 12 -161 12
-168 0z"/>
<path d="M14370 3881 c0 -5 23 -11 50 -15 60 -8 158 3 138 15 -17 11 -188 11
-188 0z"/>
<path d="M15700 3881 c0 -14 65 -22 120 -15 78 10 59 24 -35 24 -47 0 -85 -4
-85 -9z"/>
<path d="M1766 2599 c-490 -671 -893 -1222 -897 -1225 -5 -2 -71 57 -149 132
l-140 137 1 -54 c1 -149 36 -849 42 -855 5 -5 602 76 752 102 30 5 29 7 -110
142 -77 75 -141 138 -143 138 -1 1 386 534 860 1185 475 651 878 1205 897
1231 l33 47 -122 118 c-67 65 -125 119 -129 120 -3 2 -406 -547 -895 -1218z"/>
<path d="M6582 3699 c-77 -75 -120 -125 -115 -132 4 -7 407 -560 895 -1231
489 -670 888 -1219 886 -1220 -4 -1 -285 -276 -283 -276 1 0 171 -25 379 -55
207 -30 383 -55 391 -55 19 0 23 36 35 360 6 151 13 338 17 415 l6 140 -142
-138 c-77 -76 -145 -136 -149 -133 -5 3 -408 554 -898 1225 -489 671 -891
1221 -894 1221 -3 -1 -60 -55 -128 -121z"/>
<path d="M12182 2613 c-485 -665 -887 -1217 -895 -1228 -14 -18 -22 -12 -157
118 -79 76 -144 136 -145 135 -3 -6 37 -903 41 -907 4 -4 687 91 759 106 30 6
28 7 -114 143 l-144 138 71 99 c39 54 442 607 896 1228 l824 1130 -91 93 c-51
51 -108 107 -128 123 l-37 29 -880 -1207z"/>
<path d="M16993 3704 c-68 -64 -123 -120 -123 -126 0 -5 398 -556 885 -1224
487 -668 888 -1220 891 -1228 3 -8 -48 -64 -135 -146 -78 -74 -139 -135 -137
-137 4 -5 741 -113 767 -113 19 0 20 14 39 485 5 132 12 283 16 334 l5 95
-146 -138 c-80 -76 -147 -137 -149 -135 -2 2 -398 546 -881 1209 -483 663
-885 1213 -894 1222 -15 16 -24 9 -138 -98z"/>
</g>
</svg>
