<?xml version="1.0" encoding="utf-8" standalone="no"?>
<!DOCTYPE svg PUBLIC "-//W3C//DTD SVG 1.1//EN"
  "http://www.w3.org/Graphics/SVG/1.1/DTD/svg11.dtd">
<svg xmlns:xlink="http://www.w3.org/1999/xlink" width="551.163516pt" height="407.120962pt" viewBox="0 0 551.163516 407.120962" xmlns="http://www.w3.org/2000/svg" version="1.1">
 <metadata>
  <rdf:RDF xmlns:dc="http://purl.org/dc/elements/1.1/" xmlns:cc="http://creativecommons.org/ns#" xmlns:rdf="http://www.w3.org/1999/02/22-rdf-syntax-ns#">
   <cc:Work>
    <dc:type rdf:resource="http://purl.org/dc/dcmitype/StillImage"/>
    <dc:date>2026-03-23T22:49:12.121868</dc:date>
    <dc:format>image/svg+xml</dc:format>
    <dc:creator>
     <cc:Agent>
      <dc:title>Matplotlib v3.10.8, https://matplotlib.org/</dc:title>
     </cc:Agent>
    </dc:creator>
   </cc:Work>
  </rdf:RDF>
 </metadata>
 <defs>
  <style type="text/css">*{stroke-linejoin: round; stroke-linecap: butt}</style>
 </defs>
 <g id="figure_1">
  <g id="patch_1">
   <path d="M 0 407.120962 
L 551.163516 407.120962 
L 551.163516 0 
L 0 0 
z
" style="fill: #ffffff"/>
  </g>
  <g id="axes_1">
   <g id="patch_2">
    <path d="M 68.118516 293.51613 
L 543.963516 293.51613 
L 543.963516 7.2 
L 68.118516 7.2 
z
" style="fill: #ffffff"/>
   </g>
   <g id="matplotlib.axis_1">
    <g id="xtick_1">
     <g id="text_1">
      <!-- Fix -->
      <g style="fill: #262626" transform="translate(125.682668 326.015038) rotate(-25) scale(0.165 -0.165)">
       <defs>
        <path id="ArialMT-46" d="M 525 0 
L 525 4581 
L 3616 4581 
L 3616 4041 
L 1131 4041 
L 1131 2622 
L 3281 2622 
L 3281 2081 
L 1131 2081 
L 1131 0 
L 525 0 
z
" transform="scale(0.015625)"/>
        <path id="ArialMT-69" d="M 425 3934 
L 425 4581 
L 988 4581 
L 988 3934 
L 425 3934 
z
M 425 0 
L 425 3319 
L 988 3319 
L 988 0 
L 425 0 
z
" transform="scale(0.015625)"/>
        <path id="ArialMT-78" d="M 47 0 
L 1259 1725 
L 138 3319 
L 841 3319 
L 1350 2541 
Q 1494 2319 1581 2169 
Q 1719 2375 1834 2534 
L 2394 3319 
L 3066 3319 
L 1919 1756 
L 3153 0 
L 2463 0 
L 1781 1031 
L 1600 1309 
L 728 0 
L 47 0 
z
" transform="scale(0.015625)"/>
       </defs>
       <use xlink:href="#ArialMT-46"/>
       <use xlink:href="#ArialMT-69" transform="translate(61.083984 0)"/>
       <use xlink:href="#ArialMT-78" transform="translate(83.300781 0)"/>
      </g>
     </g>
    </g>
    <g id="xtick_2">
     <g id="text_2">
      <!-- Reproduce, Fix -->
      <g style="fill: #262626" transform="translate(203.261767 364.000463) rotate(-25) scale(0.165 -0.165)">
       <defs>
        <path id="ArialMT-52" d="M 503 0 
L 503 4581 
L 2534 4581 
Q 3147 4581 3465 4457 
Q 3784 4334 3975 4021 
Q 4166 3709 4166 3331 
Q 4166 2844 3850 2509 
Q 3534 2175 2875 2084 
Q 3116 1969 3241 1856 
Q 3506 1613 3744 1247 
L 4541 0 
L 3778 0 
L 3172 953 
Q 2906 1366 2734 1584 
Q 2563 1803 2427 1890 
Q 2291 1978 2150 2013 
Q 2047 2034 1813 2034 
L 1109 2034 
L 1109 0 
L 503 0 
z
M 1109 2559 
L 2413 2559 
Q 2828 2559 3062 2645 
Q 3297 2731 3419 2920 
Q 3541 3109 3541 3331 
Q 3541 3656 3305 3865 
Q 3069 4075 2559 4075 
L 1109 4075 
L 1109 2559 
z
" transform="scale(0.015625)"/>
        <path id="ArialMT-65" d="M 2694 1069 
L 3275 997 
Q 3138 488 2766 206 
Q 2394 -75 1816 -75 
Q 1088 -75 661 373 
Q 234 822 234 1631 
Q 234 2469 665 2931 
Q 1097 3394 1784 3394 
Q 2450 3394 2872 2941 
Q 3294 2488 3294 1666 
Q 3294 1616 3291 1516 
L 816 1516 
Q 847 969 1125 678 
Q 1403 388 1819 388 
Q 2128 388 2347 550 
Q 2566 713 2694 1069 
z
M 847 1978 
L 2700 1978 
Q 2663 2397 2488 2606 
Q 2219 2931 1791 2931 
Q 1403 2931 1139 2672 
Q 875 2413 847 1978 
z
" transform="scale(0.015625)"/>
        <path id="ArialMT-70" d="M 422 -1272 
L 422 3319 
L 934 3319 
L 934 2888 
Q 1116 3141 1344 3267 
Q 1572 3394 1897 3394 
Q 2322 3394 2647 3175 
Q 2972 2956 3137 2557 
Q 3303 2159 3303 1684 
Q 3303 1175 3120 767 
Q 2938 359 2589 142 
Q 2241 -75 1856 -75 
Q 1575 -75 1351 44 
Q 1128 163 984 344 
L 984 -1272 
L 422 -1272 
z
M 931 1641 
Q 931 1000 1190 694 
Q 1450 388 1819 388 
Q 2194 388 2461 705 
Q 2728 1022 2728 1688 
Q 2728 2322 2467 2637 
Q 2206 2953 1844 2953 
Q 1484 2953 1207 2617 
Q 931 2281 931 1641 
z
" transform="scale(0.015625)"/>
        <path id="ArialMT-72" d="M 416 0 
L 416 3319 
L 922 3319 
L 922 2816 
Q 1116 3169 1280 3281 
Q 1444 3394 1641 3394 
Q 1925 3394 2219 3213 
L 2025 2691 
Q 1819 2813 1613 2813 
Q 1428 2813 1281 2702 
Q 1134 2591 1072 2394 
Q 978 2094 978 1738 
L 978 0 
L 416 0 
z
" transform="scale(0.015625)"/>
        <path id="ArialMT-6f" d="M 213 1659 
Q 213 2581 725 3025 
Q 1153 3394 1769 3394 
Q 2453 3394 2887 2945 
Q 3322 2497 3322 1706 
Q 3322 1066 3130 698 
Q 2938 331 2570 128 
Q 2203 -75 1769 -75 
Q 1072 -75 642 372 
Q 213 819 213 1659 
z
M 791 1659 
Q 791 1022 1069 705 
Q 1347 388 1769 388 
Q 2188 388 2466 706 
Q 2744 1025 2744 1678 
Q 2744 2294 2464 2611 
Q 2184 2928 1769 2928 
Q 1347 2928 1069 2612 
Q 791 2297 791 1659 
z
" transform="scale(0.015625)"/>
        <path id="ArialMT-64" d="M 2575 0 
L 2575 419 
Q 2259 -75 1647 -75 
Q 1250 -75 917 144 
Q 584 363 401 755 
Q 219 1147 219 1656 
Q 219 2153 384 2558 
Q 550 2963 881 3178 
Q 1213 3394 1622 3394 
Q 1922 3394 2156 3267 
Q 2391 3141 2538 2938 
L 2538 4581 
L 3097 4581 
L 3097 0 
L 2575 0 
z
M 797 1656 
Q 797 1019 1065 703 
Q 1334 388 1700 388 
Q 2069 388 2326 689 
Q 2584 991 2584 1609 
Q 2584 2291 2321 2609 
Q 2059 2928 1675 2928 
Q 1300 2928 1048 2622 
Q 797 2316 797 1656 
z
" transform="scale(0.015625)"/>
        <path id="ArialMT-75" d="M 2597 0 
L 2597 488 
Q 2209 -75 1544 -75 
Q 1250 -75 995 37 
Q 741 150 617 320 
Q 494 491 444 738 
Q 409 903 409 1263 
L 409 3319 
L 972 3319 
L 972 1478 
Q 972 1038 1006 884 
Q 1059 663 1231 536 
Q 1403 409 1656 409 
Q 1909 409 2131 539 
Q 2353 669 2445 892 
Q 2538 1116 2538 1541 
L 2538 3319 
L 3100 3319 
L 3100 0 
L 2597 0 
z
" transform="scale(0.015625)"/>
        <path id="ArialMT-63" d="M 2588 1216 
L 3141 1144 
Q 3050 572 2676 248 
Q 2303 -75 1759 -75 
Q 1078 -75 664 370 
Q 250 816 250 1647 
Q 250 2184 428 2587 
Q 606 2991 970 3192 
Q 1334 3394 1763 3394 
Q 2303 3394 2647 3120 
Q 2991 2847 3088 2344 
L 2541 2259 
Q 2463 2594 2264 2762 
Q 2066 2931 1784 2931 
Q 1359 2931 1093 2626 
Q 828 2322 828 1663 
Q 828 994 1084 691 
Q 1341 388 1753 388 
Q 2084 388 2306 591 
Q 2528 794 2588 1216 
z
" transform="scale(0.015625)"/>
        <path id="ArialMT-2c" d="M 569 0 
L 569 641 
L 1209 641 
L 1209 0 
Q 1209 -353 1084 -570 
Q 959 -788 688 -906 
L 531 -666 
Q 709 -588 793 -436 
Q 878 -284 888 0 
L 569 0 
z
" transform="scale(0.015625)"/>
        <path id="ArialMT-20" transform="scale(0.015625)"/>
       </defs>
       <use xlink:href="#ArialMT-52"/>
       <use xlink:href="#ArialMT-65" transform="translate(72.216797 0)"/>
       <use xlink:href="#ArialMT-70" transform="translate(127.832031 0)"/>
       <use xlink:href="#ArialMT-72" transform="translate(183.447266 0)"/>
       <use xlink:href="#ArialMT-6f" transform="translate(216.748047 0)"/>
       <use xlink:href="#ArialMT-64" transform="translate(272.363281 0)"/>
       <use xlink:href="#ArialMT-75" transform="translate(327.978516 0)"/>
       <use xlink:href="#ArialMT-63" transform="translate(383.59375 0)"/>
       <use xlink:href="#ArialMT-65" transform="translate(433.59375 0)"/>
       <use xlink:href="#ArialMT-2c" transform="translate(489.208984 0)"/>
       <use xlink:href="#ArialMT-20" transform="translate(516.992188 0)"/>
       <use xlink:href="#ArialMT-46" transform="translate(544.775391 0)"/>
       <use xlink:href="#ArialMT-69" transform="translate(605.859375 0)"/>
       <use xlink:href="#ArialMT-78" transform="translate(628.076172 0)"/>
      </g>
     </g>
    </g>
    <g id="xtick_3">
     <g id="text_3">
      <!-- Reproduce, Fix or Abstain -->
      <g style="fill: #262626" transform="translate(291.64285 396.948839) rotate(-25) scale(0.165 -0.165)">
       <defs>
        <path id="ArialMT-41" d="M -9 0 
L 1750 4581 
L 2403 4581 
L 4278 0 
L 3588 0 
L 3053 1388 
L 1138 1388 
L 634 0 
L -9 0 
z
M 1313 1881 
L 2866 1881 
L 2388 3150 
Q 2169 3728 2063 4100 
Q 1975 3659 1816 3225 
L 1313 1881 
z
" transform="scale(0.015625)"/>
        <path id="ArialMT-62" d="M 941 0 
L 419 0 
L 419 4581 
L 981 4581 
L 981 2947 
Q 1338 3394 1891 3394 
Q 2197 3394 2470 3270 
Q 2744 3147 2920 2923 
Q 3097 2700 3197 2384 
Q 3297 2069 3297 1709 
Q 3297 856 2875 390 
Q 2453 -75 1863 -75 
Q 1275 -75 941 416 
L 941 0 
z
M 934 1684 
Q 934 1088 1097 822 
Q 1363 388 1816 388 
Q 2184 388 2453 708 
Q 2722 1028 2722 1663 
Q 2722 2313 2464 2622 
Q 2206 2931 1841 2931 
Q 1472 2931 1203 2611 
Q 934 2291 934 1684 
z
" transform="scale(0.015625)"/>
        <path id="ArialMT-73" d="M 197 991 
L 753 1078 
Q 800 744 1014 566 
Q 1228 388 1613 388 
Q 2000 388 2187 545 
Q 2375 703 2375 916 
Q 2375 1106 2209 1216 
Q 2094 1291 1634 1406 
Q 1016 1563 777 1677 
Q 538 1791 414 1992 
Q 291 2194 291 2438 
Q 291 2659 392 2848 
Q 494 3038 669 3163 
Q 800 3259 1026 3326 
Q 1253 3394 1513 3394 
Q 1903 3394 2198 3281 
Q 2494 3169 2634 2976 
Q 2775 2784 2828 2463 
L 2278 2388 
Q 2241 2644 2061 2787 
Q 1881 2931 1553 2931 
Q 1166 2931 1000 2803 
Q 834 2675 834 2503 
Q 834 2394 903 2306 
Q 972 2216 1119 2156 
Q 1203 2125 1616 2013 
Q 2213 1853 2448 1751 
Q 2684 1650 2818 1456 
Q 2953 1263 2953 975 
Q 2953 694 2789 445 
Q 2625 197 2315 61 
Q 2006 -75 1616 -75 
Q 969 -75 630 194 
Q 291 463 197 991 
z
" transform="scale(0.015625)"/>
        <path id="ArialMT-74" d="M 1650 503 
L 1731 6 
Q 1494 -44 1306 -44 
Q 1000 -44 831 53 
Q 663 150 594 308 
Q 525 466 525 972 
L 525 2881 
L 113 2881 
L 113 3319 
L 525 3319 
L 525 4141 
L 1084 4478 
L 1084 3319 
L 1650 3319 
L 1650 2881 
L 1084 2881 
L 1084 941 
Q 1084 700 1114 631 
Q 1144 563 1211 522 
Q 1278 481 1403 481 
Q 1497 481 1650 503 
z
" transform="scale(0.015625)"/>
        <path id="ArialMT-61" d="M 2588 409 
Q 2275 144 1986 34 
Q 1697 -75 1366 -75 
Q 819 -75 525 192 
Q 231 459 231 875 
Q 231 1119 342 1320 
Q 453 1522 633 1644 
Q 813 1766 1038 1828 
Q 1203 1872 1538 1913 
Q 2219 1994 2541 2106 
Q 2544 2222 2544 2253 
Q 2544 2597 2384 2738 
Q 2169 2928 1744 2928 
Q 1347 2928 1158 2789 
Q 969 2650 878 2297 
L 328 2372 
Q 403 2725 575 2942 
Q 747 3159 1072 3276 
Q 1397 3394 1825 3394 
Q 2250 3394 2515 3294 
Q 2781 3194 2906 3042 
Q 3031 2891 3081 2659 
Q 3109 2516 3109 2141 
L 3109 1391 
Q 3109 606 3145 398 
Q 3181 191 3288 0 
L 2700 0 
Q 2613 175 2588 409 
z
M 2541 1666 
Q 2234 1541 1622 1453 
Q 1275 1403 1131 1340 
Q 988 1278 909 1158 
Q 831 1038 831 891 
Q 831 666 1001 516 
Q 1172 366 1500 366 
Q 1825 366 2078 508 
Q 2331 650 2450 897 
Q 2541 1088 2541 1459 
L 2541 1666 
z
" transform="scale(0.015625)"/>
        <path id="ArialMT-6e" d="M 422 0 
L 422 3319 
L 928 3319 
L 928 2847 
Q 1294 3394 1984 3394 
Q 2284 3394 2536 3286 
Q 2788 3178 2913 3003 
Q 3038 2828 3088 2588 
Q 3119 2431 3119 2041 
L 3119 0 
L 2556 0 
L 2556 2019 
Q 2556 2363 2490 2533 
Q 2425 2703 2258 2804 
Q 2091 2906 1866 2906 
Q 1506 2906 1245 2678 
Q 984 2450 984 1813 
L 984 0 
L 422 0 
z
" transform="scale(0.015625)"/>
       </defs>
       <use xlink:href="#ArialMT-52"/>
       <use xlink:href="#ArialMT-65" transform="translate(72.216797 0)"/>
       <use xlink:href="#ArialMT-70" transform="translate(127.832031 0)"/>
       <use xlink:href="#ArialMT-72" transform="translate(183.447266 0)"/>
       <use xlink:href="#ArialMT-6f" transform="translate(216.748047 0)"/>
       <use xlink:href="#ArialMT-64" transform="translate(272.363281 0)"/>
       <use xlink:href="#ArialMT-75" transform="translate(327.978516 0)"/>
       <use xlink:href="#ArialMT-63" transform="translate(383.59375 0)"/>
       <use xlink:href="#ArialMT-65" transform="translate(433.59375 0)"/>
       <use xlink:href="#ArialMT-2c" transform="translate(489.208984 0)"/>
       <use xlink:href="#ArialMT-20" transform="translate(516.992188 0)"/>
       <use xlink:href="#ArialMT-46" transform="translate(544.775391 0)"/>
       <use xlink:href="#ArialMT-69" transform="translate(605.859375 0)"/>
       <use xlink:href="#ArialMT-78" transform="translate(628.076172 0)"/>
       <use xlink:href="#ArialMT-20" transform="translate(678.076172 0)"/>
       <use xlink:href="#ArialMT-6f" transform="translate(705.859375 0)"/>
       <use xlink:href="#ArialMT-72" transform="translate(761.474609 0)"/>
       <use xlink:href="#ArialMT-20" transform="translate(794.775391 0)"/>
       <use xlink:href="#ArialMT-41" transform="translate(817.058594 0)"/>
       <use xlink:href="#ArialMT-62" transform="translate(883.757812 0)"/>
       <use xlink:href="#ArialMT-73" transform="translate(939.373047 0)"/>
       <use xlink:href="#ArialMT-74" transform="translate(989.373047 0)"/>
       <use xlink:href="#ArialMT-61" transform="translate(1017.15625 0)"/>
       <use xlink:href="#ArialMT-69" transform="translate(1072.771484 0)"/>
       <use xlink:href="#ArialMT-6e" transform="translate(1094.988281 0)"/>
      </g>
     </g>
    </g>
   </g>
   <g id="matplotlib.axis_2">
    <g id="ytick_1">
     <g id="line2d_1">
      <path d="M 68.118516 293.51613 
L 543.963516 293.51613 
" clip-path="url(#pbee743aac2)" style="fill: none; stroke: #d8d8d8; stroke-width: 0.8; stroke-linecap: round"/>
     </g>
     <g id="text_4">
      <!-- 0 -->
      <g style="fill: #262626" transform="translate(46.442969 299.421325) scale(0.165 -0.165)">
       <defs>
        <path id="ArialMT-30" d="M 266 2259 
Q 266 3072 433 3567 
Q 600 4063 929 4331 
Q 1259 4600 1759 4600 
Q 2128 4600 2406 4451 
Q 2684 4303 2865 4023 
Q 3047 3744 3150 3342 
Q 3253 2941 3253 2259 
Q 3253 1453 3087 958 
Q 2922 463 2592 192 
Q 2263 -78 1759 -78 
Q 1097 -78 719 397 
Q 266 969 266 2259 
z
M 844 2259 
Q 844 1131 1108 757 
Q 1372 384 1759 384 
Q 2147 384 2411 759 
Q 2675 1134 2675 2259 
Q 2675 3391 2411 3762 
Q 2147 4134 1753 4134 
Q 1366 4134 1134 3806 
Q 844 3388 844 2259 
z
" transform="scale(0.015625)"/>
       </defs>
       <use xlink:href="#ArialMT-30"/>
      </g>
     </g>
    </g>
    <g id="ytick_2">
     <g id="line2d_2">
      <path d="M 68.118516 225.345623 
L 543.963516 225.345623 
" clip-path="url(#pbee743aac2)" style="fill: none; stroke: #d8d8d8; stroke-width: 0.8; stroke-linecap: round"/>
     </g>
     <g id="text_5">
      <!-- 25 -->
      <g style="fill: #262626" transform="translate(37.267422 231.250818) scale(0.165 -0.165)">
       <defs>
        <path id="ArialMT-32" d="M 3222 541 
L 3222 0 
L 194 0 
Q 188 203 259 391 
Q 375 700 629 1000 
Q 884 1300 1366 1694 
Q 2113 2306 2375 2664 
Q 2638 3022 2638 3341 
Q 2638 3675 2398 3904 
Q 2159 4134 1775 4134 
Q 1369 4134 1125 3890 
Q 881 3647 878 3216 
L 300 3275 
Q 359 3922 746 4261 
Q 1134 4600 1788 4600 
Q 2447 4600 2831 4234 
Q 3216 3869 3216 3328 
Q 3216 3053 3103 2787 
Q 2991 2522 2730 2228 
Q 2469 1934 1863 1422 
Q 1356 997 1212 845 
Q 1069 694 975 541 
L 3222 541 
z
" transform="scale(0.015625)"/>
        <path id="ArialMT-35" d="M 266 1200 
L 856 1250 
Q 922 819 1161 601 
Q 1400 384 1738 384 
Q 2144 384 2425 690 
Q 2706 997 2706 1503 
Q 2706 1984 2436 2262 
Q 2166 2541 1728 2541 
Q 1456 2541 1237 2417 
Q 1019 2294 894 2097 
L 366 2166 
L 809 4519 
L 3088 4519 
L 3088 3981 
L 1259 3981 
L 1013 2750 
Q 1425 3038 1878 3038 
Q 2478 3038 2890 2622 
Q 3303 2206 3303 1553 
Q 3303 931 2941 478 
Q 2500 -78 1738 -78 
Q 1113 -78 717 272 
Q 322 622 266 1200 
z
" transform="scale(0.015625)"/>
       </defs>
       <use xlink:href="#ArialMT-32"/>
       <use xlink:href="#ArialMT-35" transform="translate(55.615234 0)"/>
      </g>
     </g>
    </g>
    <g id="ytick_3">
     <g id="line2d_3">
      <path d="M 68.118516 157.175116 
L 543.963516 157.175116 
" clip-path="url(#pbee743aac2)" style="fill: none; stroke: #d8d8d8; stroke-width: 0.8; stroke-linecap: round"/>
     </g>
     <g id="text_6">
      <!-- 50 -->
      <g style="fill: #262626" transform="translate(37.267422 163.080311) scale(0.165 -0.165)">
       <use xlink:href="#ArialMT-35"/>
       <use xlink:href="#ArialMT-30" transform="translate(55.615234 0)"/>
      </g>
     </g>
    </g>
    <g id="ytick_4">
     <g id="line2d_4">
      <path d="M 68.118516 89.004608 
L 543.963516 89.004608 
" clip-path="url(#pbee743aac2)" style="fill: none; stroke: #d8d8d8; stroke-width: 0.8; stroke-linecap: round"/>
     </g>
     <g id="text_7">
      <!-- 75 -->
      <g style="fill: #262626" transform="translate(37.267422 94.909804) scale(0.165 -0.165)">
       <defs>
        <path id="ArialMT-37" d="M 303 3981 
L 303 4522 
L 3269 4522 
L 3269 4084 
Q 2831 3619 2401 2847 
Q 1972 2075 1738 1259 
Q 1569 684 1522 0 
L 944 0 
Q 953 541 1156 1306 
Q 1359 2072 1739 2783 
Q 2119 3494 2547 3981 
L 303 3981 
z
" transform="scale(0.015625)"/>
       </defs>
       <use xlink:href="#ArialMT-37"/>
       <use xlink:href="#ArialMT-35" transform="translate(55.615234 0)"/>
      </g>
     </g>
    </g>
    <g id="ytick_5">
     <g id="line2d_5">
      <path d="M 68.118516 20.834101 
L 543.963516 20.834101 
" clip-path="url(#pbee743aac2)" style="fill: none; stroke: #d8d8d8; stroke-width: 0.8; stroke-linecap: round"/>
     </g>
     <g id="text_8">
      <!-- 100 -->
      <g style="fill: #262626" transform="translate(28.091875 26.739297) scale(0.165 -0.165)">
       <defs>
        <path id="ArialMT-31" d="M 2384 0 
L 1822 0 
L 1822 3584 
Q 1619 3391 1289 3197 
Q 959 3003 697 2906 
L 697 3450 
Q 1169 3672 1522 3987 
Q 1875 4303 2022 4600 
L 2384 4600 
L 2384 0 
z
" transform="scale(0.015625)"/>
       </defs>
       <use xlink:href="#ArialMT-31"/>
       <use xlink:href="#ArialMT-30" transform="translate(55.615234 0)"/>
       <use xlink:href="#ArialMT-30" transform="translate(111.230469 0)"/>
      </g>
     </g>
    </g>
    <g id="text_9">
     <!-- Empty Submissions (%) -->
     <g style="fill: #262626" transform="translate(20.303438 245.879002) rotate(-90) scale(0.18 -0.18)">
      <defs>
       <path id="ArialMT-45" d="M 506 0 
L 506 4581 
L 3819 4581 
L 3819 4041 
L 1113 4041 
L 1113 2638 
L 3647 2638 
L 3647 2100 
L 1113 2100 
L 1113 541 
L 3925 541 
L 3925 0 
L 506 0 
z
" transform="scale(0.015625)"/>
       <path id="ArialMT-6d" d="M 422 0 
L 422 3319 
L 925 3319 
L 925 2853 
Q 1081 3097 1340 3245 
Q 1600 3394 1931 3394 
Q 2300 3394 2536 3241 
Q 2772 3088 2869 2813 
Q 3263 3394 3894 3394 
Q 4388 3394 4653 3120 
Q 4919 2847 4919 2278 
L 4919 0 
L 4359 0 
L 4359 2091 
Q 4359 2428 4304 2576 
Q 4250 2725 4106 2815 
Q 3963 2906 3769 2906 
Q 3419 2906 3187 2673 
Q 2956 2441 2956 1928 
L 2956 0 
L 2394 0 
L 2394 2156 
Q 2394 2531 2256 2718 
Q 2119 2906 1806 2906 
Q 1569 2906 1367 2781 
Q 1166 2656 1075 2415 
Q 984 2175 984 1722 
L 984 0 
L 422 0 
z
" transform="scale(0.015625)"/>
       <path id="ArialMT-79" d="M 397 -1278 
L 334 -750 
Q 519 -800 656 -800 
Q 844 -800 956 -737 
Q 1069 -675 1141 -563 
Q 1194 -478 1313 -144 
Q 1328 -97 1363 -6 
L 103 3319 
L 709 3319 
L 1400 1397 
Q 1534 1031 1641 628 
Q 1738 1016 1872 1384 
L 2581 3319 
L 3144 3319 
L 1881 -56 
Q 1678 -603 1566 -809 
Q 1416 -1088 1222 -1217 
Q 1028 -1347 759 -1347 
Q 597 -1347 397 -1278 
z
" transform="scale(0.015625)"/>
       <path id="ArialMT-53" d="M 288 1472 
L 859 1522 
Q 900 1178 1048 958 
Q 1197 738 1509 602 
Q 1822 466 2213 466 
Q 2559 466 2825 569 
Q 3091 672 3220 851 
Q 3350 1031 3350 1244 
Q 3350 1459 3225 1620 
Q 3100 1781 2813 1891 
Q 2628 1963 1997 2114 
Q 1366 2266 1113 2400 
Q 784 2572 623 2826 
Q 463 3081 463 3397 
Q 463 3744 659 4045 
Q 856 4347 1234 4503 
Q 1613 4659 2075 4659 
Q 2584 4659 2973 4495 
Q 3363 4331 3572 4012 
Q 3781 3694 3797 3291 
L 3216 3247 
Q 3169 3681 2898 3903 
Q 2628 4125 2100 4125 
Q 1550 4125 1298 3923 
Q 1047 3722 1047 3438 
Q 1047 3191 1225 3031 
Q 1400 2872 2139 2705 
Q 2878 2538 3153 2413 
Q 3553 2228 3743 1945 
Q 3934 1663 3934 1294 
Q 3934 928 3725 604 
Q 3516 281 3123 101 
Q 2731 -78 2241 -78 
Q 1619 -78 1198 103 
Q 778 284 539 648 
Q 300 1013 288 1472 
z
" transform="scale(0.015625)"/>
       <path id="ArialMT-28" d="M 1497 -1347 
Q 1031 -759 709 28 
Q 388 816 388 1659 
Q 388 2403 628 3084 
Q 909 3875 1497 4659 
L 1900 4659 
Q 1522 4009 1400 3731 
Q 1209 3300 1100 2831 
Q 966 2247 966 1656 
Q 966 153 1900 -1347 
L 1497 -1347 
z
" transform="scale(0.015625)"/>
       <path id="ArialMT-25" d="M 372 3481 
Q 372 3972 619 4315 
Q 866 4659 1334 4659 
Q 1766 4659 2048 4351 
Q 2331 4044 2331 3447 
Q 2331 2866 2045 2552 
Q 1759 2238 1341 2238 
Q 925 2238 648 2547 
Q 372 2856 372 3481 
z
M 1350 4272 
Q 1141 4272 1002 4090 
Q 863 3909 863 3425 
Q 863 2984 1003 2804 
Q 1144 2625 1350 2625 
Q 1563 2625 1702 2806 
Q 1841 2988 1841 3469 
Q 1841 3913 1700 4092 
Q 1559 4272 1350 4272 
z
M 1353 -169 
L 3859 4659 
L 4316 4659 
L 1819 -169 
L 1353 -169 
z
M 3334 1075 
Q 3334 1569 3581 1911 
Q 3828 2253 4300 2253 
Q 4731 2253 5014 1945 
Q 5297 1638 5297 1041 
Q 5297 459 5011 145 
Q 4725 -169 4303 -169 
Q 3888 -169 3611 142 
Q 3334 453 3334 1075 
z
M 4316 1866 
Q 4103 1866 3964 1684 
Q 3825 1503 3825 1019 
Q 3825 581 3965 400 
Q 4106 219 4313 219 
Q 4528 219 4667 400 
Q 4806 581 4806 1063 
Q 4806 1506 4665 1686 
Q 4525 1866 4316 1866 
z
" transform="scale(0.015625)"/>
       <path id="ArialMT-29" d="M 791 -1347 
L 388 -1347 
Q 1322 153 1322 1656 
Q 1322 2244 1188 2822 
Q 1081 3291 891 3722 
Q 769 4003 388 4659 
L 791 4659 
Q 1378 3875 1659 3084 
Q 1900 2403 1900 1659 
Q 1900 816 1576 28 
Q 1253 -759 791 -1347 
z
" transform="scale(0.015625)"/>
      </defs>
      <use xlink:href="#ArialMT-45"/>
      <use xlink:href="#ArialMT-6d" transform="translate(66.699219 0)"/>
      <use xlink:href="#ArialMT-70" transform="translate(150 0)"/>
      <use xlink:href="#ArialMT-74" transform="translate(205.615234 0)"/>
      <use xlink:href="#ArialMT-79" transform="translate(233.398438 0)"/>
      <use xlink:href="#ArialMT-20" transform="translate(283.398438 0)"/>
      <use xlink:href="#ArialMT-53" transform="translate(311.181641 0)"/>
      <use xlink:href="#ArialMT-75" transform="translate(377.880859 0)"/>
      <use xlink:href="#ArialMT-62" transform="translate(433.496094 0)"/>
      <use xlink:href="#ArialMT-6d" transform="translate(489.111328 0)"/>
      <use xlink:href="#ArialMT-69" transform="translate(572.412109 0)"/>
      <use xlink:href="#ArialMT-73" transform="translate(594.628906 0)"/>
      <use xlink:href="#ArialMT-73" transform="translate(644.628906 0)"/>
      <use xlink:href="#ArialMT-69" transform="translate(694.628906 0)"/>
      <use xlink:href="#ArialMT-6f" transform="translate(716.845703 0)"/>
      <use xlink:href="#ArialMT-6e" transform="translate(772.460938 0)"/>
      <use xlink:href="#ArialMT-73" transform="translate(828.076172 0)"/>
      <use xlink:href="#ArialMT-20" transform="translate(878.076172 0)"/>
      <use xlink:href="#ArialMT-28" transform="translate(905.859375 0)"/>
      <use xlink:href="#ArialMT-25" transform="translate(939.160156 0)"/>
      <use xlink:href="#ArialMT-29" transform="translate(1028.076172 0)"/>
     </g>
    </g>
   </g>
   <g id="patch_3">
    <path d="M 68.118516 293.51613 
L 68.118516 7.2 
" style="fill: none; stroke: #cccccc; stroke-width: 1.875; stroke-linejoin: miter; stroke-linecap: square"/>
   </g>
   <g id="patch_4">
    <path d="M 68.118516 293.51613 
L 543.963516 293.51613 
" style="fill: none; stroke: #cccccc; stroke-width: 1.875; stroke-linejoin: miter; stroke-linecap: square"/>
   </g>
   <g id="patch_5">
    <path d="M 89.747834 293.51613 
L 147.001911 293.51613 
L 147.001911 227.544671 
L 89.747834 227.544671 
z
" clip-path="url(#pbee743aac2)" style="fill: #b5dabd"/>
   </g>
   <g id="patch_6">
    <path d="M 248.786938 293.51613 
L 306.041016 293.51613 
L 306.041016 195.3506 
L 248.786938 195.3506 
z
" clip-path="url(#pbee743aac2)" style="fill: #85bd91"/>
   </g>
   <g id="patch_7">
    <path d="M 407.826042 293.51613 
L 465.08012 293.51613 
L 465.08012 81.914876 
L 407.826042 81.914876 
z
" clip-path="url(#pbee743aac2)" style="fill: #68a876"/>
   </g>
   <g id="patch_8">
    <path d="M 147.001911 293.51613 
L 204.255989 293.51613 
L 204.255989 236.252904 
L 147.001911 236.252904 
z
" clip-path="url(#pbee743aac2)" style="fill: #fb9494"/>
   </g>
   <g id="patch_9">
    <path d="M 306.041016 293.51613 
L 363.295093 293.51613 
L 363.295093 255.340646 
L 306.041016 255.340646 
z
" clip-path="url(#pbee743aac2)" style="fill: #f05353"/>
   </g>
   <g id="patch_10">
    <path d="M 465.08012 293.51613 
L 522.334197 293.51613 
L 522.334197 94.458249 
L 465.08012 94.458249 
z
" clip-path="url(#pbee743aac2)" style="fill: #e02f2f"/>
   </g>
   <g id="LineCollection_1">
    <path d="M 118.374873 247.336109 
L 118.374873 205.554185 
" clip-path="url(#pbee743aac2)" style="fill: none; stroke: #808080; stroke-width: 1.1"/>
    <path d="M 277.413977 217.165162 
L 277.413977 171.354581 
" clip-path="url(#pbee743aac2)" style="fill: none; stroke: #808080; stroke-width: 1.1"/>
    <path d="M 436.453081 101.547982 
L 436.453081 62.28177 
" clip-path="url(#pbee743aac2)" style="fill: none; stroke: #808080; stroke-width: 1.1"/>
   </g>
   <g id="line2d_6">
    <defs>
     <path id="m981c67cbaf" d="M 4 0 
L -4 -0 
" style="stroke: #808080"/>
    </defs>
    <g clip-path="url(#pbee743aac2)">
     <use xlink:href="#m981c67cbaf" x="118.374873" y="247.336109" style="fill: #4c72b0; stroke: #808080"/>
     <use xlink:href="#m981c67cbaf" x="277.413977" y="217.165162" style="fill: #4c72b0; stroke: #808080"/>
     <use xlink:href="#m981c67cbaf" x="436.453081" y="101.547982" style="fill: #4c72b0; stroke: #808080"/>
    </g>
   </g>
   <g id="line2d_7">
    <g clip-path="url(#pbee743aac2)">
     <use xlink:href="#m981c67cbaf" x="118.374873" y="205.554185" style="fill: #4c72b0; stroke: #808080"/>
     <use xlink:href="#m981c67cbaf" x="277.413977" y="171.354581" style="fill: #4c72b0; stroke: #808080"/>
     <use xlink:href="#m981c67cbaf" x="436.453081" y="62.28177" style="fill: #4c72b0; stroke: #808080"/>
    </g>
   </g>
   <g id="LineCollection_2">
    <path d="M 175.62895 258.067466 
L 175.62895 214.438342 
" clip-path="url(#pbee743aac2)" style="fill: none; stroke: #808080; stroke-width: 1.1"/>
    <path d="M 334.668054 271.701567 
L 334.668054 236.252904 
" clip-path="url(#pbee743aac2)" style="fill: none; stroke: #808080; stroke-width: 1.1"/>
    <path d="M 493.707159 118.999632 
L 493.707159 72.643687 
" clip-path="url(#pbee743aac2)" style="fill: none; stroke: #808080; stroke-width: 1.1"/>
   </g>
   <g id="line2d_8">
    <g clip-path="url(#pbee743aac2)">
     <use xlink:href="#m981c67cbaf" x="175.62895" y="258.067466" style="fill: #4c72b0; stroke: #808080"/>
     <use xlink:href="#m981c67cbaf" x="334.668054" y="271.701567" style="fill: #4c72b0; stroke: #808080"/>
     <use xlink:href="#m981c67cbaf" x="493.707159" y="118.999632" style="fill: #4c72b0; stroke: #808080"/>
    </g>
   </g>
   <g id="line2d_9">
    <g clip-path="url(#pbee743aac2)">
     <use xlink:href="#m981c67cbaf" x="175.62895" y="214.438342" style="fill: #4c72b0; stroke: #808080"/>
     <use xlink:href="#m981c67cbaf" x="334.668054" y="236.252904" style="fill: #4c72b0; stroke: #808080"/>
     <use xlink:href="#m981c67cbaf" x="493.707159" y="72.643687" style="fill: #4c72b0; stroke: #808080"/>
    </g>
   </g>
   <g id="legend_1">
    <g id="patch_11">
     <path d="M 79.668516 67.868437 
L 337.867734 67.868437 
Q 341.167734 67.868437 341.167734 64.568437 
L 341.167734 18.75 
Q 341.167734 15.45 337.867734 15.45 
L 79.668516 15.45 
Q 76.368516 15.45 76.368516 18.75 
L 76.368516 64.568437 
Q 76.368516 67.868437 79.668516 67.868437 
z
" style="fill: #ffffff; opacity: 0.8; stroke: #cccccc; stroke-width: 1.5; stroke-linejoin: miter"/>
    </g>
    <g id="patch_12">
     <path d="M 82.968516 34.061484 
L 115.968516 34.061484 
L 115.968516 22.511484 
L 82.968516 22.511484 
z
" style="fill: #b5dabd"/>
    </g>
    <g id="text_10">
     <!-- AGENTbench (Fixed) -->
     <g style="fill: #262626" transform="translate(129.168516 34.061484) scale(0.165 -0.165)">
      <defs>
       <path id="ArialMT-47" d="M 2638 1797 
L 2638 2334 
L 4578 2338 
L 4578 638 
Q 4131 281 3656 101 
Q 3181 -78 2681 -78 
Q 2006 -78 1454 211 
Q 903 500 622 1047 
Q 341 1594 341 2269 
Q 341 2938 620 3517 
Q 900 4097 1425 4378 
Q 1950 4659 2634 4659 
Q 3131 4659 3532 4498 
Q 3934 4338 4162 4050 
Q 4391 3763 4509 3300 
L 3963 3150 
Q 3859 3500 3706 3700 
Q 3553 3900 3268 4020 
Q 2984 4141 2638 4141 
Q 2222 4141 1919 4014 
Q 1616 3888 1430 3681 
Q 1244 3475 1141 3228 
Q 966 2803 966 2306 
Q 966 1694 1177 1281 
Q 1388 869 1791 669 
Q 2194 469 2647 469 
Q 3041 469 3416 620 
Q 3791 772 3984 944 
L 3984 1797 
L 2638 1797 
z
" transform="scale(0.015625)"/>
       <path id="ArialMT-4e" d="M 488 0 
L 488 4581 
L 1109 4581 
L 3516 984 
L 3516 4581 
L 4097 4581 
L 4097 0 
L 3475 0 
L 1069 3600 
L 1069 0 
L 488 0 
z
" transform="scale(0.015625)"/>
       <path id="ArialMT-54" d="M 1659 0 
L 1659 4041 
L 150 4041 
L 150 4581 
L 3781 4581 
L 3781 4041 
L 2266 4041 
L 2266 0 
L 1659 0 
z
" transform="scale(0.015625)"/>
       <path id="ArialMT-68" d="M 422 0 
L 422 4581 
L 984 4581 
L 984 2938 
Q 1378 3394 1978 3394 
Q 2347 3394 2619 3248 
Q 2891 3103 3008 2847 
Q 3125 2591 3125 2103 
L 3125 0 
L 2563 0 
L 2563 2103 
Q 2563 2525 2380 2717 
Q 2197 2909 1863 2909 
Q 1613 2909 1392 2779 
Q 1172 2650 1078 2428 
Q 984 2206 984 1816 
L 984 0 
L 422 0 
z
" transform="scale(0.015625)"/>
      </defs>
      <use xlink:href="#ArialMT-41"/>
      <use xlink:href="#ArialMT-47" transform="translate(66.699219 0)"/>
      <use xlink:href="#ArialMT-45" transform="translate(144.482422 0)"/>
      <use xlink:href="#ArialMT-4e" transform="translate(211.181641 0)"/>
      <use xlink:href="#ArialMT-54" transform="translate(283.398438 0)"/>
      <use xlink:href="#ArialMT-62" transform="translate(344.482422 0)"/>
      <use xlink:href="#ArialMT-65" transform="translate(400.097656 0)"/>
      <use xlink:href="#ArialMT-6e" transform="translate(455.712891 0)"/>
      <use xlink:href="#ArialMT-63" transform="translate(511.328125 0)"/>
      <use xlink:href="#ArialMT-68" transform="translate(561.328125 0)"/>
      <use xlink:href="#ArialMT-20" transform="translate(616.943359 0)"/>
      <use xlink:href="#ArialMT-28" transform="translate(644.726562 0)"/>
      <use xlink:href="#ArialMT-46" transform="translate(678.027344 0)"/>
      <use xlink:href="#ArialMT-69" transform="translate(739.111328 0)"/>
      <use xlink:href="#ArialMT-78" transform="translate(761.328125 0)"/>
      <use xlink:href="#ArialMT-65" transform="translate(811.328125 0)"/>
      <use xlink:href="#ArialMT-64" transform="translate(866.943359 0)"/>
      <use xlink:href="#ArialMT-29" transform="translate(922.558594 0)"/>
     </g>
    </g>
    <g id="patch_13">
     <path d="M 82.968516 57.795703 
L 115.968516 57.795703 
L 115.968516 46.245703 
L 82.968516 46.245703 
z
" style="fill: #fb9494"/>
    </g>
    <g id="text_11">
     <!-- SWE-Bench Verified (Fixed) -->
     <g style="fill: #262626" transform="translate(129.168516 57.795703) scale(0.165 -0.165)">
      <defs>
       <path id="ArialMT-57" d="M 1294 0 
L 78 4581 
L 700 4581 
L 1397 1578 
Q 1509 1106 1591 641 
Q 1766 1375 1797 1488 
L 2669 4581 
L 3400 4581 
L 4056 2263 
Q 4303 1400 4413 641 
Q 4500 1075 4641 1638 
L 5359 4581 
L 5969 4581 
L 4713 0 
L 4128 0 
L 3163 3491 
Q 3041 3928 3019 4028 
Q 2947 3713 2884 3491 
L 1913 0 
L 1294 0 
z
" transform="scale(0.015625)"/>
       <path id="ArialMT-2d" d="M 203 1375 
L 203 1941 
L 1931 1941 
L 1931 1375 
L 203 1375 
z
" transform="scale(0.015625)"/>
       <path id="ArialMT-42" d="M 469 0 
L 469 4581 
L 2188 4581 
Q 2713 4581 3030 4442 
Q 3347 4303 3526 4014 
Q 3706 3725 3706 3409 
Q 3706 3116 3547 2856 
Q 3388 2597 3066 2438 
Q 3481 2316 3704 2022 
Q 3928 1728 3928 1328 
Q 3928 1006 3792 729 
Q 3656 453 3456 303 
Q 3256 153 2954 76 
Q 2653 0 2216 0 
L 469 0 
z
M 1075 2656 
L 2066 2656 
Q 2469 2656 2644 2709 
Q 2875 2778 2992 2937 
Q 3109 3097 3109 3338 
Q 3109 3566 3000 3739 
Q 2891 3913 2687 3977 
Q 2484 4041 1991 4041 
L 1075 4041 
L 1075 2656 
z
M 1075 541 
L 2216 541 
Q 2509 541 2628 563 
Q 2838 600 2978 687 
Q 3119 775 3209 942 
Q 3300 1109 3300 1328 
Q 3300 1584 3169 1773 
Q 3038 1963 2805 2039 
Q 2572 2116 2134 2116 
L 1075 2116 
L 1075 541 
z
" transform="scale(0.015625)"/>
       <path id="ArialMT-56" d="M 1803 0 
L 28 4581 
L 684 4581 
L 1875 1253 
Q 2019 853 2116 503 
Q 2222 878 2363 1253 
L 3600 4581 
L 4219 4581 
L 2425 0 
L 1803 0 
z
" transform="scale(0.015625)"/>
       <path id="ArialMT-66" d="M 556 0 
L 556 2881 
L 59 2881 
L 59 3319 
L 556 3319 
L 556 3672 
Q 556 4006 616 4169 
Q 697 4388 901 4523 
Q 1106 4659 1475 4659 
Q 1713 4659 2000 4603 
L 1916 4113 
Q 1741 4144 1584 4144 
Q 1328 4144 1222 4034 
Q 1116 3925 1116 3625 
L 1116 3319 
L 1763 3319 
L 1763 2881 
L 1116 2881 
L 1116 0 
L 556 0 
z
" transform="scale(0.015625)"/>
      </defs>
      <use xlink:href="#ArialMT-53"/>
      <use xlink:href="#ArialMT-57" transform="translate(66.699219 0)"/>
      <use xlink:href="#ArialMT-45" transform="translate(161.083984 0)"/>
      <use xlink:href="#ArialMT-2d" transform="translate(227.783203 0)"/>
      <use xlink:href="#ArialMT-42" transform="translate(261.083984 0)"/>
      <use xlink:href="#ArialMT-65" transform="translate(327.783203 0)"/>
      <use xlink:href="#ArialMT-6e" transform="translate(383.398438 0)"/>
      <use xlink:href="#ArialMT-63" transform="translate(439.013672 0)"/>
      <use xlink:href="#ArialMT-68" transform="translate(489.013672 0)"/>
      <use xlink:href="#ArialMT-20" transform="translate(544.628906 0)"/>
      <use xlink:href="#ArialMT-56" transform="translate(572.412109 0)"/>
      <use xlink:href="#ArialMT-65" transform="translate(633.611328 0)"/>
      <use xlink:href="#ArialMT-72" transform="translate(689.226562 0)"/>
      <use xlink:href="#ArialMT-69" transform="translate(722.527344 0)"/>
      <use xlink:href="#ArialMT-66" transform="translate(744.744141 0)"/>
      <use xlink:href="#ArialMT-69" transform="translate(772.527344 0)"/>
      <use xlink:href="#ArialMT-65" transform="translate(794.744141 0)"/>
      <use xlink:href="#ArialMT-64" transform="translate(850.359375 0)"/>
      <use xlink:href="#ArialMT-20" transform="translate(905.974609 0)"/>
      <use xlink:href="#ArialMT-28" transform="translate(933.757812 0)"/>
      <use xlink:href="#ArialMT-46" transform="translate(967.058594 0)"/>
      <use xlink:href="#ArialMT-69" transform="translate(1028.142578 0)"/>
      <use xlink:href="#ArialMT-78" transform="translate(1050.359375 0)"/>
      <use xlink:href="#ArialMT-65" transform="translate(1100.359375 0)"/>
      <use xlink:href="#ArialMT-64" transform="translate(1155.974609 0)"/>
      <use xlink:href="#ArialMT-29" transform="translate(1211.589844 0)"/>
     </g>
    </g>
   </g>
  </g>
 </g>
 <defs>
  <clipPath id="pbee743aac2">
   <rect x="68.118516" y="7.2" width="475.845" height="286.31613"/>
  </clipPath>
 </defs>
</svg>
