<?xml version="1.0" encoding="utf-8" standalone="no"?>
<!DOCTYPE svg PUBLIC "-//W3C//DTD SVG 1.1//EN"
  "http://www.w3.org/Graphics/SVG/1.1/DTD/svg11.dtd">
<svg xmlns:xlink="http://www.w3.org/1999/xlink" width="893.52pt" height="407.52pt" viewBox="0 0 893.52 407.52" xmlns="http://www.w3.org/2000/svg" version="1.1">
 <metadata>
  <rdf:RDF xmlns:dc="http://purl.org/dc/elements/1.1/" xmlns:cc="http://creativecommons.org/ns#" xmlns:rdf="http://www.w3.org/1999/02/22-rdf-syntax-ns#">
   <cc:Work>
    <dc:type rdf:resource="http://purl.org/dc/dcmitype/StillImage"/>
    <dc:date>2026-04-18T21:37:45.204151</dc:date>
    <dc:format>image/svg+xml</dc:format>
    <dc:creator>
     <cc:Agent>
      <dc:title>Matplotlib v3.10.8, https://matplotlib.org/</dc:title>
     </cc:Agent>
    </dc:creator>
   </cc:Work>
  </rdf:RDF>
 </metadata>
 <defs>
  <style type="text/css">*{stroke-linejoin: round; stroke-linecap: butt}</style>
 </defs>
 <g id="figure_1">
  <g id="patch_1">
   <path d="M 0 407.52 
L 893.52 407.52 
L 893.52 0 
L 0 0 
z
" style="fill: #ffffff"/>
  </g>
  <g id="axes_1">
   <g id="patch_2">
    <path d="M 76.595 289.946446 
L 875.7 289.946446 
L 875.7 17.82 
L 76.595 17.82 
z
" style="fill: #ffffff"/>
   </g>
   <g id="matplotlib.axis_1">
    <g id="xtick_1">
     <g id="line2d_1"/>
     <g id="text_1">
      <!-- Sonnet 4.6 -->
      <g style="fill: #262626" transform="translate(85.647483 344.379888) rotate(-25) scale(0.165 -0.165)">
       <defs>
        <path id="ArialMT-53" d="M 288 1472 
L 859 1522 
Q 900 1178 1048 958 
Q 1197 738 1509 602 
Q 1822 466 2213 466 
Q 2559 466 2825 569 
Q 3091 672 3220 851 
Q 3350 1031 3350 1244 
Q 3350 1459 3225 1620 
Q 3100 1781 2813 1891 
Q 2628 1963 1997 2114 
Q 1366 2266 1113 2400 
Q 784 2572 623 2826 
Q 463 3081 463 3397 
Q 463 3744 659 4045 
Q 856 4347 1234 4503 
Q 1613 4659 2075 4659 
Q 2584 4659 2973 4495 
Q 3363 4331 3572 4012 
Q 3781 3694 3797 3291 
L 3216 3247 
Q 3169 3681 2898 3903 
Q 2628 4125 2100 4125 
Q 1550 4125 1298 3923 
Q 1047 3722 1047 3438 
Q 1047 3191 1225 3031 
Q 1400 2872 2139 2705 
Q 2878 2538 3153 2413 
Q 3553 2228 3743 1945 
Q 3934 1663 3934 1294 
Q 3934 928 3725 604 
Q 3516 281 3123 101 
Q 2731 -78 2241 -78 
Q 1619 -78 1198 103 
Q 778 284 539 648 
Q 300 1013 288 1472 
z
" transform="scale(0.015625)"/>
        <path id="ArialMT-6f" d="M 213 1659 
Q 213 2581 725 3025 
Q 1153 3394 1769 3394 
Q 2453 3394 2887 2945 
Q 3322 2497 3322 1706 
Q 3322 1066 3130 698 
Q 2938 331 2570 128 
Q 2203 -75 1769 -75 
Q 1072 -75 642 372 
Q 213 819 213 1659 
z
M 791 1659 
Q 791 1022 1069 705 
Q 1347 388 1769 388 
Q 2188 388 2466 706 
Q 2744 1025 2744 1678 
Q 2744 2294 2464 2611 
Q 2184 2928 1769 2928 
Q 1347 2928 1069 2612 
Q 791 2297 791 1659 
z
" transform="scale(0.015625)"/>
        <path id="ArialMT-6e" d="M 422 0 
L 422 3319 
L 928 3319 
L 928 2847 
Q 1294 3394 1984 3394 
Q 2284 3394 2536 3286 
Q 2788 3178 2913 3003 
Q 3038 2828 3088 2588 
Q 3119 2431 3119 2041 
L 3119 0 
L 2556 0 
L 2556 2019 
Q 2556 2363 2490 2533 
Q 2425 2703 2258 2804 
Q 2091 2906 1866 2906 
Q 1506 2906 1245 2678 
Q 984 2450 984 1813 
L 984 0 
L 422 0 
z
" transform="scale(0.015625)"/>
        <path id="ArialMT-65" d="M 2694 1069 
L 3275 997 
Q 3138 488 2766 206 
Q 2394 -75 1816 -75 
Q 1088 -75 661 373 
Q 234 822 234 1631 
Q 234 2469 665 2931 
Q 1097 3394 1784 3394 
Q 2450 3394 2872 2941 
Q 3294 2488 3294 1666 
Q 3294 1616 3291 1516 
L 816 1516 
Q 847 969 1125 678 
Q 1403 388 1819 388 
Q 2128 388 2347 550 
Q 2566 713 2694 1069 
z
M 847 1978 
L 2700 1978 
Q 2663 2397 2488 2606 
Q 2219 2931 1791 2931 
Q 1403 2931 1139 2672 
Q 875 2413 847 1978 
z
" transform="scale(0.015625)"/>
        <path id="ArialMT-74" d="M 1650 503 
L 1731 6 
Q 1494 -44 1306 -44 
Q 1000 -44 831 53 
Q 663 150 594 308 
Q 525 466 525 972 
L 525 2881 
L 113 2881 
L 113 3319 
L 525 3319 
L 525 4141 
L 1084 4478 
L 1084 3319 
L 1650 3319 
L 1650 2881 
L 1084 2881 
L 1084 941 
Q 1084 700 1114 631 
Q 1144 563 1211 522 
Q 1278 481 1403 481 
Q 1497 481 1650 503 
z
" transform="scale(0.015625)"/>
        <path id="ArialMT-20" transform="scale(0.015625)"/>
        <path id="ArialMT-34" d="M 2069 0 
L 2069 1097 
L 81 1097 
L 81 1613 
L 2172 4581 
L 2631 4581 
L 2631 1613 
L 3250 1613 
L 3250 1097 
L 2631 1097 
L 2631 0 
L 2069 0 
z
M 2069 1613 
L 2069 3678 
L 634 1613 
L 2069 1613 
z
" transform="scale(0.015625)"/>
        <path id="ArialMT-2e" d="M 581 0 
L 581 641 
L 1222 641 
L 1222 0 
L 581 0 
z
" transform="scale(0.015625)"/>
        <path id="ArialMT-36" d="M 3184 3459 
L 2625 3416 
Q 2550 3747 2413 3897 
Q 2184 4138 1850 4138 
Q 1581 4138 1378 3988 
Q 1113 3794 959 3422 
Q 806 3050 800 2363 
Q 1003 2672 1297 2822 
Q 1591 2972 1913 2972 
Q 2475 2972 2870 2558 
Q 3266 2144 3266 1488 
Q 3266 1056 3080 686 
Q 2894 316 2569 119 
Q 2244 -78 1831 -78 
Q 1128 -78 684 439 
Q 241 956 241 2144 
Q 241 3472 731 4075 
Q 1159 4600 1884 4600 
Q 2425 4600 2770 4297 
Q 3116 3994 3184 3459 
z
M 888 1484 
Q 888 1194 1011 928 
Q 1134 663 1356 523 
Q 1578 384 1822 384 
Q 2178 384 2434 671 
Q 2691 959 2691 1453 
Q 2691 1928 2437 2201 
Q 2184 2475 1800 2475 
Q 1419 2475 1153 2201 
Q 888 1928 888 1484 
z
" transform="scale(0.015625)"/>
       </defs>
       <use xlink:href="#ArialMT-53"/>
       <use xlink:href="#ArialMT-6f" transform="translate(66.699219 0)"/>
       <use xlink:href="#ArialMT-6e" transform="translate(122.314453 0)"/>
       <use xlink:href="#ArialMT-6e" transform="translate(177.929688 0)"/>
       <use xlink:href="#ArialMT-65" transform="translate(233.544922 0)"/>
       <use xlink:href="#ArialMT-74" transform="translate(289.160156 0)"/>
       <use xlink:href="#ArialMT-20" transform="translate(316.943359 0)"/>
       <use xlink:href="#ArialMT-34" transform="translate(344.726562 0)"/>
       <use xlink:href="#ArialMT-2e" transform="translate(400.341797 0)"/>
       <use xlink:href="#ArialMT-36" transform="translate(428.125 0)"/>
      </g>
     </g>
    </g>
    <g id="xtick_2">
     <g id="line2d_2"/>
     <g id="text_2">
      <!-- GPT-5.3 Codex -->
      <g style="fill: #262626" transform="translate(184.182372 358.708727) rotate(-25) scale(0.165 -0.165)">
       <defs>
        <path id="ArialMT-47" d="M 2638 1797 
L 2638 2334 
L 4578 2338 
L 4578 638 
Q 4131 281 3656 101 
Q 3181 -78 2681 -78 
Q 2006 -78 1454 211 
Q 903 500 622 1047 
Q 341 1594 341 2269 
Q 341 2938 620 3517 
Q 900 4097 1425 4378 
Q 1950 4659 2634 4659 
Q 3131 4659 3532 4498 
Q 3934 4338 4162 4050 
Q 4391 3763 4509 3300 
L 3963 3150 
Q 3859 3500 3706 3700 
Q 3553 3900 3268 4020 
Q 2984 4141 2638 4141 
Q 2222 4141 1919 4014 
Q 1616 3888 1430 3681 
Q 1244 3475 1141 3228 
Q 966 2803 966 2306 
Q 966 1694 1177 1281 
Q 1388 869 1791 669 
Q 2194 469 2647 469 
Q 3041 469 3416 620 
Q 3791 772 3984 944 
L 3984 1797 
L 2638 1797 
z
" transform="scale(0.015625)"/>
        <path id="ArialMT-50" d="M 494 0 
L 494 4581 
L 2222 4581 
Q 2678 4581 2919 4538 
Q 3256 4481 3484 4323 
Q 3713 4166 3852 3881 
Q 3991 3597 3991 3256 
Q 3991 2672 3619 2267 
Q 3247 1863 2275 1863 
L 1100 1863 
L 1100 0 
L 494 0 
z
M 1100 2403 
L 2284 2403 
Q 2872 2403 3119 2622 
Q 3366 2841 3366 3238 
Q 3366 3525 3220 3729 
Q 3075 3934 2838 4000 
Q 2684 4041 2272 4041 
L 1100 4041 
L 1100 2403 
z
" transform="scale(0.015625)"/>
        <path id="ArialMT-54" d="M 1659 0 
L 1659 4041 
L 150 4041 
L 150 4581 
L 3781 4581 
L 3781 4041 
L 2266 4041 
L 2266 0 
L 1659 0 
z
" transform="scale(0.015625)"/>
        <path id="ArialMT-2d" d="M 203 1375 
L 203 1941 
L 1931 1941 
L 1931 1375 
L 203 1375 
z
" transform="scale(0.015625)"/>
        <path id="ArialMT-35" d="M 266 1200 
L 856 1250 
Q 922 819 1161 601 
Q 1400 384 1738 384 
Q 2144 384 2425 690 
Q 2706 997 2706 1503 
Q 2706 1984 2436 2262 
Q 2166 2541 1728 2541 
Q 1456 2541 1237 2417 
Q 1019 2294 894 2097 
L 366 2166 
L 809 4519 
L 3088 4519 
L 3088 3981 
L 1259 3981 
L 1013 2750 
Q 1425 3038 1878 3038 
Q 2478 3038 2890 2622 
Q 3303 2206 3303 1553 
Q 3303 931 2941 478 
Q 2500 -78 1738 -78 
Q 1113 -78 717 272 
Q 322 622 266 1200 
z
" transform="scale(0.015625)"/>
        <path id="ArialMT-33" d="M 269 1209 
L 831 1284 
Q 928 806 1161 595 
Q 1394 384 1728 384 
Q 2125 384 2398 659 
Q 2672 934 2672 1341 
Q 2672 1728 2419 1979 
Q 2166 2231 1775 2231 
Q 1616 2231 1378 2169 
L 1441 2663 
Q 1497 2656 1531 2656 
Q 1891 2656 2178 2843 
Q 2466 3031 2466 3422 
Q 2466 3731 2256 3934 
Q 2047 4138 1716 4138 
Q 1388 4138 1169 3931 
Q 950 3725 888 3313 
L 325 3413 
Q 428 3978 793 4289 
Q 1159 4600 1703 4600 
Q 2078 4600 2393 4439 
Q 2709 4278 2876 4000 
Q 3044 3722 3044 3409 
Q 3044 3113 2884 2869 
Q 2725 2625 2413 2481 
Q 2819 2388 3044 2092 
Q 3269 1797 3269 1353 
Q 3269 753 2831 336 
Q 2394 -81 1725 -81 
Q 1122 -81 723 278 
Q 325 638 269 1209 
z
" transform="scale(0.015625)"/>
        <path id="ArialMT-43" d="M 3763 1606 
L 4369 1453 
Q 4178 706 3683 314 
Q 3188 -78 2472 -78 
Q 1731 -78 1267 223 
Q 803 525 561 1097 
Q 319 1669 319 2325 
Q 319 3041 592 3573 
Q 866 4106 1370 4382 
Q 1875 4659 2481 4659 
Q 3169 4659 3637 4309 
Q 4106 3959 4291 3325 
L 3694 3184 
Q 3534 3684 3231 3912 
Q 2928 4141 2469 4141 
Q 1941 4141 1586 3887 
Q 1231 3634 1087 3207 
Q 944 2781 944 2328 
Q 944 1744 1114 1308 
Q 1284 872 1643 656 
Q 2003 441 2422 441 
Q 2931 441 3284 734 
Q 3638 1028 3763 1606 
z
" transform="scale(0.015625)"/>
        <path id="ArialMT-64" d="M 2575 0 
L 2575 419 
Q 2259 -75 1647 -75 
Q 1250 -75 917 144 
Q 584 363 401 755 
Q 219 1147 219 1656 
Q 219 2153 384 2558 
Q 550 2963 881 3178 
Q 1213 3394 1622 3394 
Q 1922 3394 2156 3267 
Q 2391 3141 2538 2938 
L 2538 4581 
L 3097 4581 
L 3097 0 
L 2575 0 
z
M 797 1656 
Q 797 1019 1065 703 
Q 1334 388 1700 388 
Q 2069 388 2326 689 
Q 2584 991 2584 1609 
Q 2584 2291 2321 2609 
Q 2059 2928 1675 2928 
Q 1300 2928 1048 2622 
Q 797 2316 797 1656 
z
" transform="scale(0.015625)"/>
        <path id="ArialMT-78" d="M 47 0 
L 1259 1725 
L 138 3319 
L 841 3319 
L 1350 2541 
Q 1494 2319 1581 2169 
Q 1719 2375 1834 2534 
L 2394 3319 
L 3066 3319 
L 1919 1756 
L 3153 0 
L 2463 0 
L 1781 1031 
L 1600 1309 
L 728 0 
L 47 0 
z
" transform="scale(0.015625)"/>
       </defs>
       <use xlink:href="#ArialMT-47"/>
       <use xlink:href="#ArialMT-50" transform="translate(77.783203 0)"/>
       <use xlink:href="#ArialMT-54" transform="translate(144.482422 0)"/>
       <use xlink:href="#ArialMT-2d" transform="translate(200.066406 0)"/>
       <use xlink:href="#ArialMT-35" transform="translate(233.367188 0)"/>
       <use xlink:href="#ArialMT-2e" transform="translate(288.982422 0)"/>
       <use xlink:href="#ArialMT-33" transform="translate(316.765625 0)"/>
       <use xlink:href="#ArialMT-20" transform="translate(372.380859 0)"/>
       <use xlink:href="#ArialMT-43" transform="translate(400.164062 0)"/>
       <use xlink:href="#ArialMT-6f" transform="translate(472.380859 0)"/>
       <use xlink:href="#ArialMT-64" transform="translate(527.996094 0)"/>
       <use xlink:href="#ArialMT-65" transform="translate(583.611328 0)"/>
       <use xlink:href="#ArialMT-78" transform="translate(639.226562 0)"/>
      </g>
     </g>
    </g>
    <g id="xtick_3">
     <g id="line2d_3"/>
     <g id="text_3">
      <!-- GPT-5.3 Codex (Sorcar) -->
      <g style="fill: #262626" transform="translate(255.375532 386.009106) rotate(-25) scale(0.165 -0.165)">
       <defs>
        <path id="ArialMT-28" d="M 1497 -1347 
Q 1031 -759 709 28 
Q 388 816 388 1659 
Q 388 2403 628 3084 
Q 909 3875 1497 4659 
L 1900 4659 
Q 1522 4009 1400 3731 
Q 1209 3300 1100 2831 
Q 966 2247 966 1656 
Q 966 153 1900 -1347 
L 1497 -1347 
z
" transform="scale(0.015625)"/>
        <path id="ArialMT-72" d="M 416 0 
L 416 3319 
L 922 3319 
L 922 2816 
Q 1116 3169 1280 3281 
Q 1444 3394 1641 3394 
Q 1925 3394 2219 3213 
L 2025 2691 
Q 1819 2813 1613 2813 
Q 1428 2813 1281 2702 
Q 1134 2591 1072 2394 
Q 978 2094 978 1738 
L 978 0 
L 416 0 
z
" transform="scale(0.015625)"/>
        <path id="ArialMT-63" d="M 2588 1216 
L 3141 1144 
Q 3050 572 2676 248 
Q 2303 -75 1759 -75 
Q 1078 -75 664 370 
Q 250 816 250 1647 
Q 250 2184 428 2587 
Q 606 2991 970 3192 
Q 1334 3394 1763 3394 
Q 2303 3394 2647 3120 
Q 2991 2847 3088 2344 
L 2541 2259 
Q 2463 2594 2264 2762 
Q 2066 2931 1784 2931 
Q 1359 2931 1093 2626 
Q 828 2322 828 1663 
Q 828 994 1084 691 
Q 1341 388 1753 388 
Q 2084 388 2306 591 
Q 2528 794 2588 1216 
z
" transform="scale(0.015625)"/>
        <path id="ArialMT-61" d="M 2588 409 
Q 2275 144 1986 34 
Q 1697 -75 1366 -75 
Q 819 -75 525 192 
Q 231 459 231 875 
Q 231 1119 342 1320 
Q 453 1522 633 1644 
Q 813 1766 1038 1828 
Q 1203 1872 1538 1913 
Q 2219 1994 2541 2106 
Q 2544 2222 2544 2253 
Q 2544 2597 2384 2738 
Q 2169 2928 1744 2928 
Q 1347 2928 1158 2789 
Q 969 2650 878 2297 
L 328 2372 
Q 403 2725 575 2942 
Q 747 3159 1072 3276 
Q 1397 3394 1825 3394 
Q 2250 3394 2515 3294 
Q 2781 3194 2906 3042 
Q 3031 2891 3081 2659 
Q 3109 2516 3109 2141 
L 3109 1391 
Q 3109 606 3145 398 
Q 3181 191 3288 0 
L 2700 0 
Q 2613 175 2588 409 
z
M 2541 1666 
Q 2234 1541 1622 1453 
Q 1275 1403 1131 1340 
Q 988 1278 909 1158 
Q 831 1038 831 891 
Q 831 666 1001 516 
Q 1172 366 1500 366 
Q 1825 366 2078 508 
Q 2331 650 2450 897 
Q 2541 1088 2541 1459 
L 2541 1666 
z
" transform="scale(0.015625)"/>
        <path id="ArialMT-29" d="M 791 -1347 
L 388 -1347 
Q 1322 153 1322 1656 
Q 1322 2244 1188 2822 
Q 1081 3291 891 3722 
Q 769 4003 388 4659 
L 791 4659 
Q 1378 3875 1659 3084 
Q 1900 2403 1900 1659 
Q 1900 816 1576 28 
Q 1253 -759 791 -1347 
z
" transform="scale(0.015625)"/>
       </defs>
       <use xlink:href="#ArialMT-47"/>
       <use xlink:href="#ArialMT-50" transform="translate(77.783203 0)"/>
       <use xlink:href="#ArialMT-54" transform="translate(144.482422 0)"/>
       <use xlink:href="#ArialMT-2d" transform="translate(200.066406 0)"/>
       <use xlink:href="#ArialMT-35" transform="translate(233.367188 0)"/>
       <use xlink:href="#ArialMT-2e" transform="translate(288.982422 0)"/>
       <use xlink:href="#ArialMT-33" transform="translate(316.765625 0)"/>
       <use xlink:href="#ArialMT-20" transform="translate(372.380859 0)"/>
       <use xlink:href="#ArialMT-43" transform="translate(400.164062 0)"/>
       <use xlink:href="#ArialMT-6f" transform="translate(472.380859 0)"/>
       <use xlink:href="#ArialMT-64" transform="translate(527.996094 0)"/>
       <use xlink:href="#ArialMT-65" transform="translate(583.611328 0)"/>
       <use xlink:href="#ArialMT-78" transform="translate(639.226562 0)"/>
       <use xlink:href="#ArialMT-20" transform="translate(689.226562 0)"/>
       <use xlink:href="#ArialMT-28" transform="translate(717.009766 0)"/>
       <use xlink:href="#ArialMT-53" transform="translate(750.310547 0)"/>
       <use xlink:href="#ArialMT-6f" transform="translate(817.009766 0)"/>
       <use xlink:href="#ArialMT-72" transform="translate(872.625 0)"/>
       <use xlink:href="#ArialMT-63" transform="translate(905.925781 0)"/>
       <use xlink:href="#ArialMT-61" transform="translate(955.925781 0)"/>
       <use xlink:href="#ArialMT-72" transform="translate(1011.541016 0)"/>
       <use xlink:href="#ArialMT-29" transform="translate(1044.841797 0)"/>
      </g>
     </g>
    </g>
    <g id="xtick_4">
     <g id="line2d_4"/>
     <g id="text_4">
      <!-- GPT-5.4 Mini -->
      <g style="fill: #262626" transform="translate(458.515667 351.337835) rotate(-25) scale(0.165 -0.165)">
       <defs>
        <path id="ArialMT-4d" d="M 475 0 
L 475 4581 
L 1388 4581 
L 2472 1338 
Q 2622 884 2691 659 
Q 2769 909 2934 1394 
L 4031 4581 
L 4847 4581 
L 4847 0 
L 4263 0 
L 4263 3834 
L 2931 0 
L 2384 0 
L 1059 3900 
L 1059 0 
L 475 0 
z
" transform="scale(0.015625)"/>
        <path id="ArialMT-69" d="M 425 3934 
L 425 4581 
L 988 4581 
L 988 3934 
L 425 3934 
z
M 425 0 
L 425 3319 
L 988 3319 
L 988 0 
L 425 0 
z
" transform="scale(0.015625)"/>
       </defs>
       <use xlink:href="#ArialMT-47"/>
       <use xlink:href="#ArialMT-50" transform="translate(77.783203 0)"/>
       <use xlink:href="#ArialMT-54" transform="translate(144.482422 0)"/>
       <use xlink:href="#ArialMT-2d" transform="translate(200.066406 0)"/>
       <use xlink:href="#ArialMT-35" transform="translate(233.367188 0)"/>
       <use xlink:href="#ArialMT-2e" transform="translate(288.982422 0)"/>
       <use xlink:href="#ArialMT-34" transform="translate(316.765625 0)"/>
       <use xlink:href="#ArialMT-20" transform="translate(372.380859 0)"/>
       <use xlink:href="#ArialMT-4d" transform="translate(400.164062 0)"/>
       <use xlink:href="#ArialMT-69" transform="translate(483.464844 0)"/>
       <use xlink:href="#ArialMT-6e" transform="translate(505.681641 0)"/>
       <use xlink:href="#ArialMT-69" transform="translate(561.296875 0)"/>
      </g>
     </g>
    </g>
    <g id="xtick_5">
     <g id="line2d_5"/>
     <g id="text_5">
      <!-- Gemini 3 Pro -->
      <g style="fill: #262626" transform="translate(587.774177 351.340015) rotate(-25) scale(0.165 -0.165)">
       <defs>
        <path id="ArialMT-6d" d="M 422 0 
L 422 3319 
L 925 3319 
L 925 2853 
Q 1081 3097 1340 3245 
Q 1600 3394 1931 3394 
Q 2300 3394 2536 3241 
Q 2772 3088 2869 2813 
Q 3263 3394 3894 3394 
Q 4388 3394 4653 3120 
Q 4919 2847 4919 2278 
L 4919 0 
L 4359 0 
L 4359 2091 
Q 4359 2428 4304 2576 
Q 4250 2725 4106 2815 
Q 3963 2906 3769 2906 
Q 3419 2906 3187 2673 
Q 2956 2441 2956 1928 
L 2956 0 
L 2394 0 
L 2394 2156 
Q 2394 2531 2256 2718 
Q 2119 2906 1806 2906 
Q 1569 2906 1367 2781 
Q 1166 2656 1075 2415 
Q 984 2175 984 1722 
L 984 0 
L 422 0 
z
" transform="scale(0.015625)"/>
       </defs>
       <use xlink:href="#ArialMT-47"/>
       <use xlink:href="#ArialMT-65" transform="translate(77.783203 0)"/>
       <use xlink:href="#ArialMT-6d" transform="translate(133.398438 0)"/>
       <use xlink:href="#ArialMT-69" transform="translate(216.699219 0)"/>
       <use xlink:href="#ArialMT-6e" transform="translate(238.916016 0)"/>
       <use xlink:href="#ArialMT-69" transform="translate(294.53125 0)"/>
       <use xlink:href="#ArialMT-20" transform="translate(316.748047 0)"/>
       <use xlink:href="#ArialMT-33" transform="translate(344.53125 0)"/>
       <use xlink:href="#ArialMT-20" transform="translate(400.146484 0)"/>
       <use xlink:href="#ArialMT-50" transform="translate(427.929688 0)"/>
       <use xlink:href="#ArialMT-72" transform="translate(494.628906 0)"/>
       <use xlink:href="#ArialMT-6f" transform="translate(527.929688 0)"/>
      </g>
     </g>
    </g>
    <g id="xtick_6">
     <g id="line2d_6"/>
     <g id="text_6">
      <!-- Qwen 3.5 122B -->
      <g style="fill: #262626" transform="translate(701.216413 358.717444) rotate(-25) scale(0.165 -0.165)">
       <defs>
        <path id="ArialMT-51" d="M 3966 491 
Q 4388 200 4744 66 
L 4566 -356 
Q 4072 -178 3581 206 
Q 3072 -78 2456 -78 
Q 1834 -78 1328 222 
Q 822 522 548 1065 
Q 275 1609 275 2291 
Q 275 2969 550 3525 
Q 825 4081 1333 4372 
Q 1841 4663 2469 4663 
Q 3103 4663 3612 4361 
Q 4122 4059 4389 3517 
Q 4656 2975 4656 2294 
Q 4656 1728 4484 1276 
Q 4313 825 3966 491 
z
M 2631 1266 
Q 3156 1119 3497 828 
Q 4031 1316 4031 2294 
Q 4031 2850 3842 3265 
Q 3653 3681 3289 3911 
Q 2925 4141 2472 4141 
Q 1794 4141 1347 3677 
Q 900 3213 900 2291 
Q 900 1397 1342 919 
Q 1784 441 2472 441 
Q 2797 441 3084 563 
Q 2800 747 2484 825 
L 2631 1266 
z
" transform="scale(0.015625)"/>
        <path id="ArialMT-77" d="M 1034 0 
L 19 3319 
L 600 3319 
L 1128 1403 
L 1325 691 
Q 1338 744 1497 1375 
L 2025 3319 
L 2603 3319 
L 3100 1394 
L 3266 759 
L 3456 1400 
L 4025 3319 
L 4572 3319 
L 3534 0 
L 2950 0 
L 2422 1988 
L 2294 2553 
L 1622 0 
L 1034 0 
z
" transform="scale(0.015625)"/>
        <path id="ArialMT-31" d="M 2384 0 
L 1822 0 
L 1822 3584 
Q 1619 3391 1289 3197 
Q 959 3003 697 2906 
L 697 3450 
Q 1169 3672 1522 3987 
Q 1875 4303 2022 4600 
L 2384 4600 
L 2384 0 
z
" transform="scale(0.015625)"/>
        <path id="ArialMT-32" d="M 3222 541 
L 3222 0 
L 194 0 
Q 188 203 259 391 
Q 375 700 629 1000 
Q 884 1300 1366 1694 
Q 2113 2306 2375 2664 
Q 2638 3022 2638 3341 
Q 2638 3675 2398 3904 
Q 2159 4134 1775 4134 
Q 1369 4134 1125 3890 
Q 881 3647 878 3216 
L 300 3275 
Q 359 3922 746 4261 
Q 1134 4600 1788 4600 
Q 2447 4600 2831 4234 
Q 3216 3869 3216 3328 
Q 3216 3053 3103 2787 
Q 2991 2522 2730 2228 
Q 2469 1934 1863 1422 
Q 1356 997 1212 845 
Q 1069 694 975 541 
L 3222 541 
z
" transform="scale(0.015625)"/>
        <path id="ArialMT-42" d="M 469 0 
L 469 4581 
L 2188 4581 
Q 2713 4581 3030 4442 
Q 3347 4303 3526 4014 
Q 3706 3725 3706 3409 
Q 3706 3116 3547 2856 
Q 3388 2597 3066 2438 
Q 3481 2316 3704 2022 
Q 3928 1728 3928 1328 
Q 3928 1006 3792 729 
Q 3656 453 3456 303 
Q 3256 153 2954 76 
Q 2653 0 2216 0 
L 469 0 
z
M 1075 2656 
L 2066 2656 
Q 2469 2656 2644 2709 
Q 2875 2778 2992 2937 
Q 3109 3097 3109 3338 
Q 3109 3566 3000 3739 
Q 2891 3913 2687 3977 
Q 2484 4041 1991 4041 
L 1075 4041 
L 1075 2656 
z
M 1075 541 
L 2216 541 
Q 2509 541 2628 563 
Q 2838 600 2978 687 
Q 3119 775 3209 942 
Q 3300 1109 3300 1328 
Q 3300 1584 3169 1773 
Q 3038 1963 2805 2039 
Q 2572 2116 2134 2116 
L 1075 2116 
L 1075 541 
z
" transform="scale(0.015625)"/>
       </defs>
       <use xlink:href="#ArialMT-51"/>
       <use xlink:href="#ArialMT-77" transform="translate(77.783203 0)"/>
       <use xlink:href="#ArialMT-65" transform="translate(150 0)"/>
       <use xlink:href="#ArialMT-6e" transform="translate(205.615234 0)"/>
       <use xlink:href="#ArialMT-20" transform="translate(261.230469 0)"/>
       <use xlink:href="#ArialMT-33" transform="translate(289.013672 0)"/>
       <use xlink:href="#ArialMT-2e" transform="translate(344.628906 0)"/>
       <use xlink:href="#ArialMT-35" transform="translate(372.412109 0)"/>
       <use xlink:href="#ArialMT-20" transform="translate(428.027344 0)"/>
       <use xlink:href="#ArialMT-31" transform="translate(455.810547 0)"/>
       <use xlink:href="#ArialMT-32" transform="translate(511.425781 0)"/>
       <use xlink:href="#ArialMT-32" transform="translate(567.041016 0)"/>
       <use xlink:href="#ArialMT-42" transform="translate(622.65625 0)"/>
      </g>
     </g>
    </g>
   </g>
   <g id="matplotlib.axis_2">
    <g id="ytick_1">
     <g id="line2d_7">
      <path d="M 76.595 289.946446 
L 875.7 289.946446 
" clip-path="url(#p596d329d58)" style="fill: none; stroke: #d8d8d8; stroke-width: 0.8; stroke-linecap: square"/>
     </g>
     <g id="line2d_8"/>
     <g id="text_7">
      <!-- 0 -->
      <g style="fill: #262626" transform="translate(57.419453 295.851642) scale(0.165 -0.165)">
       <defs>
        <path id="ArialMT-30" d="M 266 2259 
Q 266 3072 433 3567 
Q 600 4063 929 4331 
Q 1259 4600 1759 4600 
Q 2128 4600 2406 4451 
Q 2684 4303 2865 4023 
Q 3047 3744 3150 3342 
Q 3253 2941 3253 2259 
Q 3253 1453 3087 958 
Q 2922 463 2592 192 
Q 2263 -78 1759 -78 
Q 1097 -78 719 397 
Q 266 969 266 2259 
z
M 844 2259 
Q 844 1131 1108 757 
Q 1372 384 1759 384 
Q 2147 384 2411 759 
Q 2675 1134 2675 2259 
Q 2675 3391 2411 3762 
Q 2147 4134 1753 4134 
Q 1366 4134 1134 3806 
Q 844 3388 844 2259 
z
" transform="scale(0.015625)"/>
       </defs>
       <use xlink:href="#ArialMT-30"/>
      </g>
     </g>
    </g>
    <g id="ytick_2">
     <g id="line2d_9">
      <path d="M 76.595 225.154435 
L 875.7 225.154435 
" clip-path="url(#p596d329d58)" style="fill: none; stroke: #d8d8d8; stroke-width: 0.8; stroke-linecap: square"/>
     </g>
     <g id="line2d_10"/>
     <g id="text_8">
      <!-- 25 -->
      <g style="fill: #262626" transform="translate(48.243906 231.059631) scale(0.165 -0.165)">
       <use xlink:href="#ArialMT-32"/>
       <use xlink:href="#ArialMT-35" transform="translate(55.615234 0)"/>
      </g>
     </g>
    </g>
    <g id="ytick_3">
     <g id="line2d_11">
      <path d="M 76.595 160.362424 
L 875.7 160.362424 
" clip-path="url(#p596d329d58)" style="fill: none; stroke: #d8d8d8; stroke-width: 0.8; stroke-linecap: square"/>
     </g>
     <g id="line2d_12"/>
     <g id="text_9">
      <!-- 50 -->
      <g style="fill: #262626" transform="translate(48.243906 166.26762) scale(0.165 -0.165)">
       <use xlink:href="#ArialMT-35"/>
       <use xlink:href="#ArialMT-30" transform="translate(55.615234 0)"/>
      </g>
     </g>
    </g>
    <g id="ytick_4">
     <g id="line2d_13">
      <path d="M 76.595 95.570413 
L 875.7 95.570413 
" clip-path="url(#p596d329d58)" style="fill: none; stroke: #d8d8d8; stroke-width: 0.8; stroke-linecap: square"/>
     </g>
     <g id="line2d_14"/>
     <g id="text_10">
      <!-- 75 -->
      <g style="fill: #262626" transform="translate(48.243906 101.475609) scale(0.165 -0.165)">
       <defs>
        <path id="ArialMT-37" d="M 303 3981 
L 303 4522 
L 3269 4522 
L 3269 4084 
Q 2831 3619 2401 2847 
Q 1972 2075 1738 1259 
Q 1569 684 1522 0 
L 944 0 
Q 953 541 1156 1306 
Q 1359 2072 1739 2783 
Q 2119 3494 2547 3981 
L 303 3981 
z
" transform="scale(0.015625)"/>
       </defs>
       <use xlink:href="#ArialMT-37"/>
       <use xlink:href="#ArialMT-35" transform="translate(55.615234 0)"/>
      </g>
     </g>
    </g>
    <g id="ytick_5">
     <g id="line2d_15">
      <path d="M 76.595 30.778402 
L 875.7 30.778402 
" clip-path="url(#p596d329d58)" style="fill: none; stroke: #d8d8d8; stroke-width: 0.8; stroke-linecap: square"/>
     </g>
     <g id="line2d_16"/>
     <g id="text_11">
      <!-- 100 -->
      <g style="fill: #262626" transform="translate(39.068359 36.683598) scale(0.165 -0.165)">
       <use xlink:href="#ArialMT-31"/>
       <use xlink:href="#ArialMT-30" transform="translate(55.615234 0)"/>
       <use xlink:href="#ArialMT-30" transform="translate(111.230469 0)"/>
      </g>
     </g>
    </g>
    <g id="text_12">
     <!-- Empty Submissions (%) -->
     <g style="fill: #262626" transform="translate(31.279922 249.404161) rotate(-90) scale(0.18 -0.18)">
      <defs>
       <path id="ArialMT-45" d="M 506 0 
L 506 4581 
L 3819 4581 
L 3819 4041 
L 1113 4041 
L 1113 2638 
L 3647 2638 
L 3647 2100 
L 1113 2100 
L 1113 541 
L 3925 541 
L 3925 0 
L 506 0 
z
" transform="scale(0.015625)"/>
       <path id="ArialMT-70" d="M 422 -1272 
L 422 3319 
L 934 3319 
L 934 2888 
Q 1116 3141 1344 3267 
Q 1572 3394 1897 3394 
Q 2322 3394 2647 3175 
Q 2972 2956 3137 2557 
Q 3303 2159 3303 1684 
Q 3303 1175 3120 767 
Q 2938 359 2589 142 
Q 2241 -75 1856 -75 
Q 1575 -75 1351 44 
Q 1128 163 984 344 
L 984 -1272 
L 422 -1272 
z
M 931 1641 
Q 931 1000 1190 694 
Q 1450 388 1819 388 
Q 2194 388 2461 705 
Q 2728 1022 2728 1688 
Q 2728 2322 2467 2637 
Q 2206 2953 1844 2953 
Q 1484 2953 1207 2617 
Q 931 2281 931 1641 
z
" transform="scale(0.015625)"/>
       <path id="ArialMT-79" d="M 397 -1278 
L 334 -750 
Q 519 -800 656 -800 
Q 844 -800 956 -737 
Q 1069 -675 1141 -563 
Q 1194 -478 1313 -144 
Q 1328 -97 1363 -6 
L 103 3319 
L 709 3319 
L 1400 1397 
Q 1534 1031 1641 628 
Q 1738 1016 1872 1384 
L 2581 3319 
L 3144 3319 
L 1881 -56 
Q 1678 -603 1566 -809 
Q 1416 -1088 1222 -1217 
Q 1028 -1347 759 -1347 
Q 597 -1347 397 -1278 
z
" transform="scale(0.015625)"/>
       <path id="ArialMT-75" d="M 2597 0 
L 2597 488 
Q 2209 -75 1544 -75 
Q 1250 -75 995 37 
Q 741 150 617 320 
Q 494 491 444 738 
Q 409 903 409 1263 
L 409 3319 
L 972 3319 
L 972 1478 
Q 972 1038 1006 884 
Q 1059 663 1231 536 
Q 1403 409 1656 409 
Q 1909 409 2131 539 
Q 2353 669 2445 892 
Q 2538 1116 2538 1541 
L 2538 3319 
L 3100 3319 
L 3100 0 
L 2597 0 
z
" transform="scale(0.015625)"/>
       <path id="ArialMT-62" d="M 941 0 
L 419 0 
L 419 4581 
L 981 4581 
L 981 2947 
Q 1338 3394 1891 3394 
Q 2197 3394 2470 3270 
Q 2744 3147 2920 2923 
Q 3097 2700 3197 2384 
Q 3297 2069 3297 1709 
Q 3297 856 2875 390 
Q 2453 -75 1863 -75 
Q 1275 -75 941 416 
L 941 0 
z
M 934 1684 
Q 934 1088 1097 822 
Q 1363 388 1816 388 
Q 2184 388 2453 708 
Q 2722 1028 2722 1663 
Q 2722 2313 2464 2622 
Q 2206 2931 1841 2931 
Q 1472 2931 1203 2611 
Q 934 2291 934 1684 
z
" transform="scale(0.015625)"/>
       <path id="ArialMT-73" d="M 197 991 
L 753 1078 
Q 800 744 1014 566 
Q 1228 388 1613 388 
Q 2000 388 2187 545 
Q 2375 703 2375 916 
Q 2375 1106 2209 1216 
Q 2094 1291 1634 1406 
Q 1016 1563 777 1677 
Q 538 1791 414 1992 
Q 291 2194 291 2438 
Q 291 2659 392 2848 
Q 494 3038 669 3163 
Q 800 3259 1026 3326 
Q 1253 3394 1513 3394 
Q 1903 3394 2198 3281 
Q 2494 3169 2634 2976 
Q 2775 2784 2828 2463 
L 2278 2388 
Q 2241 2644 2061 2787 
Q 1881 2931 1553 2931 
Q 1166 2931 1000 2803 
Q 834 2675 834 2503 
Q 834 2394 903 2306 
Q 972 2216 1119 2156 
Q 1203 2125 1616 2013 
Q 2213 1853 2448 1751 
Q 2684 1650 2818 1456 
Q 2953 1263 2953 975 
Q 2953 694 2789 445 
Q 2625 197 2315 61 
Q 2006 -75 1616 -75 
Q 969 -75 630 194 
Q 291 463 197 991 
z
" transform="scale(0.015625)"/>
       <path id="ArialMT-25" d="M 372 3481 
Q 372 3972 619 4315 
Q 866 4659 1334 4659 
Q 1766 4659 2048 4351 
Q 2331 4044 2331 3447 
Q 2331 2866 2045 2552 
Q 1759 2238 1341 2238 
Q 925 2238 648 2547 
Q 372 2856 372 3481 
z
M 1350 4272 
Q 1141 4272 1002 4090 
Q 863 3909 863 3425 
Q 863 2984 1003 2804 
Q 1144 2625 1350 2625 
Q 1563 2625 1702 2806 
Q 1841 2988 1841 3469 
Q 1841 3913 1700 4092 
Q 1559 4272 1350 4272 
z
M 1353 -169 
L 3859 4659 
L 4316 4659 
L 1819 -169 
L 1353 -169 
z
M 3334 1075 
Q 3334 1569 3581 1911 
Q 3828 2253 4300 2253 
Q 4731 2253 5014 1945 
Q 5297 1638 5297 1041 
Q 5297 459 5011 145 
Q 4725 -169 4303 -169 
Q 3888 -169 3611 142 
Q 3334 453 3334 1075 
z
M 4316 1866 
Q 4103 1866 3964 1684 
Q 3825 1503 3825 1019 
Q 3825 581 3965 400 
Q 4106 219 4313 219 
Q 4528 219 4667 400 
Q 4806 581 4806 1063 
Q 4806 1506 4665 1686 
Q 4525 1866 4316 1866 
z
" transform="scale(0.015625)"/>
      </defs>
      <use xlink:href="#ArialMT-45"/>
      <use xlink:href="#ArialMT-6d" transform="translate(66.699219 0)"/>
      <use xlink:href="#ArialMT-70" transform="translate(150 0)"/>
      <use xlink:href="#ArialMT-74" transform="translate(205.615234 0)"/>
      <use xlink:href="#ArialMT-79" transform="translate(233.398438 0)"/>
      <use xlink:href="#ArialMT-20" transform="translate(283.398438 0)"/>
      <use xlink:href="#ArialMT-53" transform="translate(311.181641 0)"/>
      <use xlink:href="#ArialMT-75" transform="translate(377.880859 0)"/>
      <use xlink:href="#ArialMT-62" transform="translate(433.496094 0)"/>
      <use xlink:href="#ArialMT-6d" transform="translate(489.111328 0)"/>
      <use xlink:href="#ArialMT-69" transform="translate(572.412109 0)"/>
      <use xlink:href="#ArialMT-73" transform="translate(594.628906 0)"/>
      <use xlink:href="#ArialMT-73" transform="translate(644.628906 0)"/>
      <use xlink:href="#ArialMT-69" transform="translate(694.628906 0)"/>
      <use xlink:href="#ArialMT-6f" transform="translate(716.845703 0)"/>
      <use xlink:href="#ArialMT-6e" transform="translate(772.460938 0)"/>
      <use xlink:href="#ArialMT-73" transform="translate(828.076172 0)"/>
      <use xlink:href="#ArialMT-20" transform="translate(878.076172 0)"/>
      <use xlink:href="#ArialMT-28" transform="translate(905.859375 0)"/>
      <use xlink:href="#ArialMT-25" transform="translate(939.160156 0)"/>
      <use xlink:href="#ArialMT-29" transform="translate(1028.076172 0)"/>
     </g>
    </g>
   </g>
   <g id="patch_3">
    <path d="M 112.917955 289.946446 
L 193.061128 289.946446 
L 193.061128 121.487218 
L 112.917955 121.487218 
z
" clip-path="url(#p596d329d58)" style="fill: #b5dabd"/>
   </g>
   <g id="patch_4">
    <path d="M 242.181138 289.946446 
L 322.324312 289.946446 
L 322.324312 113.712176 
L 242.181138 113.712176 
z
" clip-path="url(#p596d329d58)" style="fill: #b5dabd"/>
   </g>
   <g id="patch_5">
    <path d="M 371.444321 289.946446 
L 451.587495 289.946446 
L 451.587495 140.665653 
L 371.444321 140.665653 
z
" clip-path="url(#p596d329d58)" style="fill: #b5dabd"/>
   </g>
   <g id="patch_6">
    <path d="M 500.707505 289.946446 
L 580.850679 289.946446 
L 580.850679 133.14978 
L 500.707505 133.14978 
z
" clip-path="url(#p596d329d58)" style="fill: #b5dabd"/>
   </g>
   <g id="patch_7">
    <path d="M 629.970688 289.946446 
L 710.113862 289.946446 
L 710.113862 195.35011 
L 629.970688 195.35011 
z
" clip-path="url(#p596d329d58)" style="fill: #b5dabd"/>
   </g>
   <g id="patch_8">
    <path d="M 759.233872 289.946446 
L 839.377045 289.946446 
L 839.377045 159.58492 
L 759.233872 159.58492 
z
" clip-path="url(#p596d329d58)" style="fill: #b5dabd"/>
   </g>
   <g id="LineCollection_1">
    <path d="M 152.989541 138.592309 
L 152.989541 104.382127 
" clip-path="url(#p596d329d58)" style="fill: none; stroke: #808080; stroke-width: 1.1"/>
    <path d="M 282.252725 130.558099 
L 282.252725 96.866253 
" clip-path="url(#p596d329d58)" style="fill: none; stroke: #808080; stroke-width: 1.1"/>
    <path d="M 411.515908 158.548248 
L 411.515908 122.783058 
" clip-path="url(#p596d329d58)" style="fill: none; stroke: #808080; stroke-width: 1.1"/>
    <path d="M 540.779092 150.773207 
L 540.779092 115.526353 
" clip-path="url(#p596d329d58)" style="fill: none; stroke: #808080; stroke-width: 1.1"/>
    <path d="M 670.042275 212.714369 
L 670.042275 177.985851 
" clip-path="url(#p596d329d58)" style="fill: none; stroke: #808080; stroke-width: 1.1"/>
    <path d="M 799.305459 178.245019 
L 799.305459 140.924821 
" clip-path="url(#p596d329d58)" style="fill: none; stroke: #808080; stroke-width: 1.1"/>
   </g>
   <g id="line2d_17">
    <defs>
     <path id="m6c13f2dc77" d="M 4 0 
L -4 -0 
" style="stroke: #808080; stroke-width: 1.1"/>
    </defs>
    <g clip-path="url(#p596d329d58)">
     <use xlink:href="#m6c13f2dc77" x="152.989541" y="138.592309" style="fill: #1f77b4; stroke: #808080; stroke-width: 1.1"/>
     <use xlink:href="#m6c13f2dc77" x="282.252725" y="130.558099" style="fill: #1f77b4; stroke: #808080; stroke-width: 1.1"/>
     <use xlink:href="#m6c13f2dc77" x="411.515908" y="158.548248" style="fill: #1f77b4; stroke: #808080; stroke-width: 1.1"/>
     <use xlink:href="#m6c13f2dc77" x="540.779092" y="150.773207" style="fill: #1f77b4; stroke: #808080; stroke-width: 1.1"/>
     <use xlink:href="#m6c13f2dc77" x="670.042275" y="212.714369" style="fill: #1f77b4; stroke: #808080; stroke-width: 1.1"/>
     <use xlink:href="#m6c13f2dc77" x="799.305459" y="178.245019" style="fill: #1f77b4; stroke: #808080; stroke-width: 1.1"/>
    </g>
   </g>
   <g id="line2d_18">
    <g clip-path="url(#p596d329d58)">
     <use xlink:href="#m6c13f2dc77" x="152.989541" y="104.382127" style="fill: #1f77b4; stroke: #808080; stroke-width: 1.1"/>
     <use xlink:href="#m6c13f2dc77" x="282.252725" y="96.866253" style="fill: #1f77b4; stroke: #808080; stroke-width: 1.1"/>
     <use xlink:href="#m6c13f2dc77" x="411.515908" y="122.783058" style="fill: #1f77b4; stroke: #808080; stroke-width: 1.1"/>
     <use xlink:href="#m6c13f2dc77" x="540.779092" y="115.526353" style="fill: #1f77b4; stroke: #808080; stroke-width: 1.1"/>
     <use xlink:href="#m6c13f2dc77" x="670.042275" y="177.985851" style="fill: #1f77b4; stroke: #808080; stroke-width: 1.1"/>
     <use xlink:href="#m6c13f2dc77" x="799.305459" y="140.924821" style="fill: #1f77b4; stroke: #808080; stroke-width: 1.1"/>
    </g>
   </g>
   <g id="patch_9">
    <path d="M 76.595 289.946446 
L 76.595 17.82 
" style="fill: none; stroke: #cccccc; stroke-width: 1.875; stroke-linejoin: miter; stroke-linecap: square"/>
   </g>
   <g id="patch_10">
    <path d="M 76.595 289.946446 
L 875.7 289.946446 
" style="fill: none; stroke: #cccccc; stroke-width: 1.875; stroke-linejoin: miter; stroke-linecap: square"/>
   </g>
  </g>
 </g>
 <defs>
  <clipPath id="p596d329d58">
   <rect x="76.595" y="17.82" width="799.105" height="272.126446"/>
  </clipPath>
 </defs>
</svg>
