<?xml version="1.0" encoding="UTF-8" standalone="no"?>
<!-- Created with Inkscape (http://www.inkscape.org/) -->

<svg
   version="1.1"
   id="svg12086"
   width="895.42499"
   height="619.90002"
   viewBox="0 0 895.42498 619.90002"
   sodipodi:docname="tweet4.svg"
   inkscape:export-filename="../../../../tweet2.png"
   inkscape:export-xdpi="143.47"
   inkscape:export-ydpi="143.47"
   inkscape:version="1.2.2 (1:1.2.2+202305151915+b0a8486541)"
   xmlns:inkscape="http://www.inkscape.org/namespaces/inkscape"
   xmlns:sodipodi="http://sodipodi.sourceforge.net/DTD/sodipodi-0.dtd"
   xmlns="http://www.w3.org/2000/svg"
   xmlns:svg="http://www.w3.org/2000/svg">
  <defs
     id="defs12090">
    <clipPath
       clipPathUnits="userSpaceOnUse"
       id="clipPath12118">
      <path
         d="M 0,0 H 1077 V 564 H 0 Z"
         id="path12116" />
    </clipPath>
    <clipPath
       clipPathUnits="userSpaceOnUse"
       id="clipPath12132">
      <path
         d="M 0,0 H 1077 V 564 H 0 Z"
         id="path12130" />
    </clipPath>
    <clipPath
       clipPathUnits="userSpaceOnUse"
       id="clipPath12146">
      <path
         d="M 0,0 H 1077 V 564 H 0 Z"
         id="path12144" />
    </clipPath>
    <clipPath
       clipPathUnits="userSpaceOnUse"
       id="clipPath12160">
      <path
         d="M 0,0 H 1077 V 564 H 0 Z"
         id="path12158" />
    </clipPath>
    <clipPath
       clipPathUnits="userSpaceOnUse"
       id="clipPath12174">
      <path
         d="M 0,0 H 1077 V 564 H 0 Z"
         id="path12172" />
    </clipPath>
    <clipPath
       clipPathUnits="userSpaceOnUse"
       id="clipPath12188">
      <path
         d="M 0,0 H 1077 V 564 H 0 Z"
         id="path12186" />
    </clipPath>
    <clipPath
       clipPathUnits="userSpaceOnUse"
       id="clipPath12202">
      <path
         d="M 0,0 H 1077 V 564 H 0 Z"
         id="path12200" />
    </clipPath>
    <clipPath
       clipPathUnits="userSpaceOnUse"
       id="clipPath12544">
      <g
         id="g12548">
        <path
           d="M 64.836,7.207 H 1069.797 V 451.113 H 64.836 Z"
           id="path12546" />
      </g>
    </clipPath>
    <clipPath
       clipPathUnits="userSpaceOnUse"
       id="clipPath12550">
      <g
         id="g12554">
        <path
           d="M 64.836,7.207 H 1069.797 V 451.113 H 64.836 Z"
           id="path12552" />
      </g>
    </clipPath>
    <clipPath
       clipPathUnits="userSpaceOnUse"
       id="clipPath12556">
      <g
         id="g12560">
        <path
           d="M 64.836,7.207 H 1069.797 V 451.113 H 64.836 Z"
           id="path12558" />
      </g>
    </clipPath>
    <clipPath
       clipPathUnits="userSpaceOnUse"
       id="clipPath12562">
      <g
         id="g12566">
        <path
           d="M 64.836,7.207 H 1069.797 V 451.113 H 64.836 Z"
           id="path12564" />
      </g>
    </clipPath>
    <clipPath
       clipPathUnits="userSpaceOnUse"
       id="clipPath12568">
      <g
         id="g12572">
        <path
           d="M 64.836,7.207 H 1069.797 V 451.113 H 64.836 Z"
           id="path12570" />
      </g>
    </clipPath>
    <clipPath
       clipPathUnits="userSpaceOnUse"
       id="clipPath14224">
      <g
         id="g14228">
        <path
           d="M 64.836,7.211 H 1069.797 V 451.344 H 64.836 Z"
           id="path14226" />
      </g>
    </clipPath>
    <clipPath
       clipPathUnits="userSpaceOnUse"
       id="clipPath13629">
      <path
         d="M 0,0 H 1077 V 562 H 0 Z"
         id="path13627" />
    </clipPath>
    <clipPath
       clipPathUnits="userSpaceOnUse"
       id="clipPath14218">
      <g
         id="g14222">
        <path
           d="M 64.836,7.211 H 1069.797 V 451.344 H 64.836 Z"
           id="path14220" />
      </g>
    </clipPath>
    <clipPath
       clipPathUnits="userSpaceOnUse"
       id="clipPath13643">
      <path
         d="M 0,0 H 1077 V 562 H 0 Z"
         id="path13641" />
    </clipPath>
    <clipPath
       clipPathUnits="userSpaceOnUse"
       id="clipPath14212">
      <g
         id="g14216">
        <path
           d="M 64.836,7.211 H 1069.797 V 451.344 H 64.836 Z"
           id="path14214" />
      </g>
    </clipPath>
    <clipPath
       clipPathUnits="userSpaceOnUse"
       id="clipPath13657">
      <path
         d="M 0,0 H 1077 V 562 H 0 Z"
         id="path13655" />
    </clipPath>
    <clipPath
       clipPathUnits="userSpaceOnUse"
       id="clipPath14206">
      <g
         id="g14210">
        <path
           d="M 64.836,7.211 H 1069.797 V 451.344 H 64.836 Z"
           id="path14208" />
      </g>
    </clipPath>
    <clipPath
       clipPathUnits="userSpaceOnUse"
       id="clipPath13671">
      <path
         d="M 0,0 H 1077 V 562 H 0 Z"
         id="path13669" />
    </clipPath>
    <clipPath
       clipPathUnits="userSpaceOnUse"
       id="clipPath14182">
      <g
         id="g14186">
        <path
           d="M 64.836,7.211 H 1069.797 V 451.344 H 64.836 Z"
           id="path14184" />
      </g>
    </clipPath>
    <clipPath
       clipPathUnits="userSpaceOnUse"
       id="clipPath13727">
      <path
         d="M 0,0 H 1077 V 562 H 0 Z"
         id="path13725" />
    </clipPath>
    <clipPath
       clipPathUnits="userSpaceOnUse"
       id="clipPath14176">
      <g
         id="g14180">
        <path
           d="M 64.836,7.211 H 1069.797 V 451.344 H 64.836 Z"
           id="path14178" />
      </g>
    </clipPath>
    <clipPath
       clipPathUnits="userSpaceOnUse"
       id="clipPath13741">
      <path
         d="M 0,0 H 1077 V 562 H 0 Z"
         id="path13739" />
    </clipPath>
    <clipPath
       clipPathUnits="userSpaceOnUse"
       id="clipPath14170">
      <g
         id="g14174">
        <path
           d="M 64.836,7.211 H 1069.797 V 451.344 H 64.836 Z"
           id="path14172" />
      </g>
    </clipPath>
    <clipPath
       clipPathUnits="userSpaceOnUse"
       id="clipPath13755">
      <path
         d="M 0,0 H 1077 V 562 H 0 Z"
         id="path13753" />
    </clipPath>
    <clipPath
       clipPathUnits="userSpaceOnUse"
       id="clipPath14164">
      <g
         id="g14168">
        <path
           d="M 64.836,7.211 H 1069.797 V 451.344 H 64.836 Z"
           id="path14166" />
      </g>
    </clipPath>
    <clipPath
       clipPathUnits="userSpaceOnUse"
       id="clipPath13769">
      <path
         d="M 0,0 H 1077 V 562 H 0 Z"
         id="path13767" />
    </clipPath>
  </defs>
  <sodipodi:namedview
     id="namedview12088"
     pagecolor="#ffffff"
     bordercolor="#666666"
     borderopacity="1.0"
     inkscape:showpageshadow="2"
     inkscape:pageopacity="0.0"
     inkscape:pagecheckerboard="0"
     inkscape:deskcolor="#d1d1d1"
     showgrid="false"
     inkscape:zoom="1"
     inkscape:cx="330"
     inkscape:cy="183"
     inkscape:window-width="1920"
     inkscape:window-height="1115"
     inkscape:window-x="0"
     inkscape:window-y="1080"
     inkscape:window-maximized="1"
     inkscape:current-layer="g12094">
    <inkscape:page
       x="0"
       y="0"
       id="page12092"
       width="895.42499"
       height="619.90002" />
    <inkscape:page
       x="1180.7982"
       y="-113.78012"
       id="page12366"
       width="777.33325"
       height="695.99994" />
  </sodipodi:namedview>
  <g
     id="g12094"
     inkscape:groupmode="layer"
     inkscape:label="Page 1"
     transform="matrix(1.3333333,0,0,1.3333333,-275.20174,-113.7801)">
    <text
       xml:space="preserve"
       transform="matrix(0,-1.000157,0.99984304,0,0,0)"
       style="font-variant:normal;font-weight:normal;font-size:18.0129px;font-family:'DejaVu Sans';-inkscape-font-specification:DejaVuSans;writing-mode:lr-tb;fill:#000000;fill-opacity:1;fill-rule:nonzero;stroke:none;stroke-width:0.999843"
       id="text12316"
       x="-372.07468"
       y="276.37802"><tspan
         sodipodi:role="line"
         id="tspan12314"
         style="stroke-width:0.999843"
         x="-372.07468"
         y="276.37802">Scrubbing Success</tspan></text>
    <g
       id="g12318"
       transform="matrix(0.999686,0,0,-0.82260524,56.24141,83.717341)">
      <path
         d="M 231.10826,-450.83166 V -6.9256573"
         style="fill:none;stroke:#000000;stroke-width:0.800699;stroke-linecap:square;stroke-linejoin:miter;stroke-miterlimit:10;stroke-dasharray:none;stroke-opacity:1"
         id="path12320" />
    </g>
    <g
       id="g12138"
       clip-path="url(#clipPath12562)"
       transform="translate(56.249898,3.7500164)">
      <g
         id="g12140">
        <g
           id="g12142"
           clip-path="url(#clipPath12146)">
          <g
             id="g12148" />
        </g>
      </g>
    </g>
    <g
       id="g31558"
       transform="matrix(1,0,0,0.82878598,56.249898,80.795436)">
      <g
         id="g13621"
         clip-path="url(#clipPath14224)">
        <g
           id="g13623">
          <g
             id="g13625"
             clip-path="url(#clipPath13629)">
            <g
               id="g13631">
              <path
                 d="M 244.867,91.809 H 352.351 V 451.344 H 244.867 Z"
                 style="fill:#aa8dd8;fill-opacity:1;fill-rule:nonzero;stroke:none"
                 id="path13633" />
            </g>
          </g>
        </g>
      </g>
      <g
         id="g13635"
         clip-path="url(#clipPath14218)">
        <g
           id="g13637">
          <g
             id="g13639"
             clip-path="url(#clipPath13643)">
            <g
               id="g13645">
              <path
                 d="M 379.219,36.82 H 486.703 V 451.343 H 379.219 Z"
                 style="fill:#aa8dd8;fill-opacity:1;fill-rule:nonzero;stroke:none"
                 id="path13647" />
            </g>
          </g>
        </g>
      </g>
      <g
         id="g13649"
         clip-path="url(#clipPath14212)">
        <g
           id="g13651">
          <g
             id="g13653"
             clip-path="url(#clipPath13657)">
            <g
               id="g13659">
              <path
                 d="m 513.574,28.359 h 107.48 v 422.984 h -107.48 z"
                 style="fill:#aa8dd8;fill-opacity:1;fill-rule:nonzero;stroke:none"
                 id="path13661" />
            </g>
          </g>
        </g>
      </g>
      <g
         id="g13663"
         clip-path="url(#clipPath14206)">
        <g
           id="g13665">
          <g
             id="g13667"
             clip-path="url(#clipPath13671)">
            <g
               id="g13673">
              <path
                 d="M 647.926,32.59 H 755.41 V 451.344 H 647.926 Z"
                 style="fill:#aa8dd8;fill-opacity:1;fill-rule:nonzero;stroke:none"
                 id="path13675" />
            </g>
          </g>
        </g>
      </g>
      <g
         id="g13719"
         clip-path="url(#clipPath14182)">
        <g
           id="g13721">
          <g
             id="g13723"
             clip-path="url(#clipPath13727)">
            <g
               id="g13729">
              <path
                 d="M 244.867,341.367 H 352.351 V 451.344 H 244.867 Z"
                 style="fill:#606060;fill-opacity:1;fill-rule:nonzero;stroke:none"
                 id="path13731" />
            </g>
          </g>
        </g>
      </g>
      <g
         id="g13733"
         clip-path="url(#clipPath14176)">
        <g
           id="g13735">
          <g
             id="g13737"
             clip-path="url(#clipPath13741)">
            <g
               id="g13743">
              <path
                 d="M 379.219,66.43 H 486.703 V 451.344 H 379.219 Z"
                 style="fill:#606060;fill-opacity:1;fill-rule:nonzero;stroke:none"
                 id="path13745" />
            </g>
          </g>
        </g>
      </g>
      <g
         id="g13747"
         clip-path="url(#clipPath14170)">
        <g
           id="g13749">
          <g
             id="g13751"
             clip-path="url(#clipPath13755)">
            <g
               id="g13757">
              <path
                 d="m 513.574,36.82 h 107.48 v 414.523 h -107.48 z"
                 style="fill:#606060;fill-opacity:1;fill-rule:nonzero;stroke:none"
                 id="path13759" />
            </g>
          </g>
        </g>
      </g>
      <g
         id="g13761"
         clip-path="url(#clipPath14164)">
        <g
           id="g13763">
          <g
             id="g13765"
             clip-path="url(#clipPath13769)">
            <g
               id="g13771">
              <path
                 d="M 647.926,36.82 H 755.41 V 451.343 H 647.926 Z"
                 style="fill:#606060;fill-opacity:1;fill-rule:nonzero;stroke:none"
                 id="path13773" />
            </g>
          </g>
        </g>
      </g>
    </g>
    <g
       id="g12322"
       transform="matrix(0.6366732,0,0,1,140.12015,905.66134)">
      <path
         d="M 231.10082,-451.113 H 1070.1992"
         style="fill:none;stroke:#000000;stroke-width:0.731531;stroke-linecap:square;stroke-linejoin:miter;stroke-miterlimit:10;stroke-dasharray:none;stroke-opacity:1"
         id="path12324" />
    </g>
    <path
       d="m 482.7539,493.53502 -5.473,0.992 -2.176,-21.183 c -16.519,22.508 -42.89,35.019 -69.824,27.226 -10.558,-3.054 -20.523,-9.597 -26.906,-18.476 -5.613,-7.813 -8.797,-12.055 -11.316,-22.36 l 3.757,-1.82 c 5.368,18.434 17.911,32.391 36.036,38.125 26.175,8.285 51.621,-5.43 65.429,-28.23 l -24.273,2.097 -0.336,-5.16 32.18,-2.848 z"
       style="fill:#000000;fill-opacity:1;fill-rule:nonzero;stroke:none"
       id="path12326" />
    <path
       d="m 616.8979,493.53502 -5.472,0.992 -2.176,-21.183 c -16.52,22.508 -42.891,35.019 -69.824,27.226 -10.559,-3.054 -20.524,-9.597 -26.906,-18.476 -5.614,-7.813 -8.797,-12.055 -11.317,-22.36 l 3.758,-1.82 c 5.367,18.434 17.91,32.391 36.035,38.125 26.176,8.285 51.621,-5.43 65.43,-28.23 l -24.274,2.097 -0.336,-5.16 32.18,-2.848 z"
       style="fill:#000000;fill-opacity:1;fill-rule:nonzero;stroke:none"
       id="path12328" />
    <path
       d="m 751.0429,493.53502 -5.473,0.992 -2.175,-21.183 c -16.52,22.508 -42.891,35.019 -69.825,27.226 -10.558,-3.054 -20.523,-9.597 -26.906,-18.476 -5.613,-7.813 -8.793,-12.055 -11.316,-22.36 l 3.757,-1.82 c 5.368,18.434 17.911,32.391 36.036,38.125 26.175,8.285 51.621,-5.43 65.429,-28.23 l -24.269,2.097 -0.34,-5.16 32.18,-2.848 z"
       style="fill:#000000;fill-opacity:1;fill-rule:nonzero;stroke:none"
       id="path12330" />
    <text
       xml:space="preserve"
       transform="scale(0.99984303,1.000157)"
       style="font-variant:normal;font-size:16.0115px;font-family:CairoFont-1;-inkscape-font-specification:CairoFont-1-0;writing-mode:lr-tb;fill:#f46d43;fill-opacity:1;fill-rule:nonzero;stroke:none;stroke-width:0.999843"
       id="text12340"
       x="390.16867"
       y="522.75922"><tspan
         x="390.16867 394.74796 404.41885 413.44934 419.53369 429.12457 438.31516 446.22482 455.81567"
         y="522.75922"
         sodipodi:role="line"
         id="tspan12336"
         style="stroke-width:0.999843">Increase </tspan><tspan
         x="379.20734 388.15775 397.86069 407.48358 413.53592 422.79056 431.29263 437.44104 441.28381 449.19348 453.2764 461.04196"
         y="542.77356"
         sodipodi:role="line"
         id="tspan12338"
         style="stroke-width:0.999843">context size</tspan></text>
    <text
       xml:space="preserve"
       transform="scale(0.99984303,1.000157)"
       style="font-variant:normal;font-size:16.0115px;font-family:CairoFont-1;-inkscape-font-specification:CairoFont-1-0;writing-mode:lr-tb;fill:#126eff;fill-opacity:1;fill-rule:nonzero;stroke:none;stroke-width:0.999843"
       id="text12346"
       x="496.1759"
       y="523.07947"><tspan
         x="496.1759 506.69543 517.02283 527.35028 531.19299 537.22931 546.93225 556.82739 563.0238 572.6947 581.88531 596.79199 606.38287 616.05377"
         y="523.07947"
         sodipodi:role="line"
         id="tspan12342"
         style="stroke-width:0.999843">Add tournament</tspan><tspan
         x="523.60114 531.5108 540.70135 555.60803 565.75934 570.83496 574.91785 584.58881"
         y="543.09381"
         sodipodi:role="line"
         id="tspan12344"
         style="stroke-width:0.999843">sampling</tspan></text>
    <text
       xml:space="preserve"
       transform="scale(0.99984303,1.000157)"
       style="font-variant:normal;font-size:16.0115px;font-family:CairoFont-1;-inkscape-font-specification:CairoFont-1-0;writing-mode:lr-tb;fill:#ff1241;fill-opacity:1;fill-rule:nonzero;stroke:none;stroke-width:0.999843"
       id="text12352"
       x="675.92377"
       y="523.07947"><tspan
         x="675.92377 686.4433 696.77069 707.09808"
         y="523.07947"
         sodipodi:role="line"
         id="tspan12348"
         style="stroke-width:0.999843">Add </tspan><tspan
         x="670.17566 679.20612 688.39673 697.42719 707.09808"
         y="543.09381"
         sodipodi:role="line"
         id="tspan12350"
         style="stroke-width:0.999843">cache</tspan></text>
  </g>
  <g
     id="g12368"
     inkscape:groupmode="layer"
     inkscape:label="Page 2"
     transform="matrix(1.3333333,0,0,1.3333333,1180.7983,-113.7801)">
    <g
       id="g12370" />
  </g>
</svg>
