<?xml version="1.0" encoding="utf-8"?>
<!-- Generator: Adobe Illustrator 23.0.3, SVG Export Plug-In . SVG Version: 6.00 Build 0)  -->
<svg version="1.1" xmlns="http://www.w3.org/2000/svg" xmlns:xlink="http://www.w3.org/1999/xlink" x="0px" y="0px"
	 viewBox="0 0 849 200" style="enable-background:new 0 0 849 200;" xml:space="preserve">
<style type="text/css">
	.st0{fill:#191D34;}
	.st1{fill:none;stroke:#191D34;stroke-width:0.9755;stroke-miterlimit:10;}
	.st2{fill:none;stroke:#191D34;stroke-width:10.4513;stroke-linecap:round;stroke-linejoin:round;stroke-miterlimit:10;}
	.st3{fill:none;stroke:#191D34;stroke-width:6.9675;stroke-linecap:round;stroke-linejoin:round;stroke-miterlimit:10;}
</style>
<g id="Layer_1">
</g>
<g id="Layer_2">
	<g>
		<g>
			<path id="Path_241" class="st0" d="M247.7,83.3c0.1-1.8,0.8-3.6,2.1-4.9c0.7-0.6,1.4-1.1,2.2-1.5c0.9-0.3,1.8-0.5,2.7-0.6h26.1
				c2.8,0,5.3,1.7,6.4,4.3c0.3,0.9,0.5,1.8,0.6,2.7v6.3H281v-6.3h-26.1v34.4H281v-6.3h6.9v6.3c0,2.8-1.7,5.3-4.3,6.4
				c-0.9,0.3-1.8,0.5-2.7,0.6h-26.1c-2.8,0-5.3-1.7-6.4-4.3c-0.3-0.9-0.5-1.8-0.6-2.7L247.7,83.3"/>
			<path id="Path_242" class="st0" d="M340,76.4v48.1h-6.8V104h-27.6v20.6h-7V76.4h7v20.7h27.5V76.4H340"/>
			<path id="Path_243" class="st0" d="M373.6,76.4l18.6,48.1h-6.8l-4.3-11h-21.7l-4.3,11h-6.8l18.6-48.1L373.6,76.4 M362,106.7h16.4
				l-8.2-21.3L362,106.7z"/>
			<rect id="Rectangle_110" x="400.4" y="76.4" class="st0" width="6.8" height="48.1"/>
			<path id="Path_244" class="st0" d="M426.6,124.5h-6.8V76.4h6.8l28.9,37.4V76.4h6.8v48.1h-6.8l-28.9-37.3V124.5"/>
			<path id="Path_245" class="st0" d="M481.7,104c-2.8,0-5.3-1.7-6.4-4.3c-0.3-0.9-0.5-1.8-0.6-2.7V83.3c0.1-1.8,0.8-3.6,2.1-4.9
				c0.7-0.6,1.4-1.1,2.2-1.5c0.9-0.3,1.8-0.5,2.7-0.6h23.4c2.8,0,5.3,1.7,6.4,4.3c0.3,0.9,0.5,1.8,0.6,2.7v6.3h-6.8v-6.3h-23.4V97
				h23.4c2.8,0,5.3,1.7,6.4,4.3c0.3,0.9,0.5,1.8,0.6,2.7v13.7c0,2.8-1.7,5.3-4.3,6.4c-0.9,0.3-1.8,0.5-2.7,0.6h-24
				c-2.8,0-5.3-1.7-6.4-4.3c-0.3-0.9-0.5-1.8-0.6-2.7v-6.3h6.8v6.3h24V104H481.7"/>
			<path id="Path_246" class="st0" d="M524.3,76.4h35.1v6.8h-28.3v13.9h24.1v6.8h-24.1v13.7h28.3v6.8h-35.1V76.4"/>
			<path id="Path_247" class="st0" d="M569.7,83.3c0.1-1.8,0.8-3.6,2.1-4.9c0.7-0.6,1.4-1.1,2.2-1.5c0.9-0.3,1.8-0.5,2.7-0.6h26.1
				c2.8,0,5.3,1.7,6.4,4.3c0.3,0.9,0.5,1.8,0.6,2.7v6.3H603v-6.3h-26.1v34.4H603v-6.3h6.9v6.3c0,2.8-1.7,5.3-4.3,6.4
				c-0.9,0.3-1.8,0.5-2.7,0.6h-26.1c-2.8,0-5.3-1.7-6.4-4.3c-0.3-0.9-0.5-1.8-0.6-2.7L569.7,83.3"/>
			<path id="Path_248" class="st0" d="M620.7,76.4h6.8v41.2H655V76.4h6.8v41.2c0,2.8-1.7,5.3-4.3,6.4c-0.9,0.3-1.8,0.5-2.7,0.6
				h-27.5c-2.8,0-5.3-1.7-6.4-4.3c-0.3-0.9-0.5-1.8-0.6-2.7V76.4"/>
			<path id="Path_249" class="st0" d="M712.4,93.6c0,6.7-2.8,10.6-8.6,11.5l9.1,19.5h-7.6l-8.9-19.2h-15v19.2h-6.8V76.4H701
				c7.7,0,11.6,3.9,11.6,11.8v5.4 M681.1,98.5h19.1c1.4,0.1,2.9-0.3,4-1.2c0.9-1.1,1.3-2.6,1.2-4v-4.8c0.1-1.4-0.3-2.9-1.2-4
				c-1.1-0.9-2.6-1.3-4-1.2h-19.1V98.5z"/>
			<rect id="Rectangle_111" x="723.9" y="76.4" class="st0" width="6.8" height="48.1"/>
			<path id="Path_250" class="st0" d="M738.9,76.4h38.6v6.8h-15.8v41.2h-6.8V83.3H739L738.9,76.4"/>
			<path id="Path_251" class="st0" d="M788.9,76.4l14,22.5l14-22.5h8l-18.6,29v19.1h-6.8v-19l-18.6-29L788.9,76.4"/>
		</g>
		<g id="logo" transform="translate(239.518 78.025)">
			<line id="Line_108" class="st1" x1="-70.7" y1="62.7" x2="-138.4" y2="-54.4"/>
			<line id="Line_109" class="st1" x1="-206" y1="-15.4" x2="-70.7" y2="62.7"/>
			<line id="Line_110" class="st1" x1="-70.7" y1="-15.4" x2="-206" y2="62.7"/>
			<line id="Line_111" class="st1" x1="-138.4" y1="101.8" x2="-138.4" y2="-54.4"/>
			<line id="Line_112" class="st1" x1="-70.7" y1="62.7" x2="-206" y2="62.7"/>
			<line id="Line_113" class="st1" x1="-138.4" y1="-54.4" x2="-206" y2="62.7"/>
			<line id="Line_114" class="st1" x1="-70.7" y1="-15.4" x2="-206" y2="-15.4"/>
			<line id="Line_115" class="st1" x1="-138.4" y1="101.8" x2="-70.7" y2="-15.4"/>
			<line id="Line_116" class="st1" x1="-206" y1="-15.4" x2="-138.4" y2="101.8"/>
			<path id="Path_238" class="st1" d="M-70.7,62.7v-78.1l-67.6-39l-67.6,39v78.1l67.6,39.1L-70.7,62.7z"/>
			<line id="Line_117" class="st1" x1="-206" y1="23.7" x2="-70.7" y2="23.7"/>
			<line id="Line_118" class="st1" x1="-172.8" y1="82" x2="-104.1" y2="-34.5"/>
			<line id="Line_119" class="st1" x1="-105.7" y1="83" x2="-171.2" y2="-35.5"/>
			<path id="Path_239" class="st2" d="M-105.1,4.2l-11-19.1l-44.4-0.5l-12.2,19.6l67.6,39l-12.2,19.5h-44.2l-11.2-19.5"/>
			<path id="Path_240" class="st3" d="M-104.6-34.5l-34.3-19.9l-67.6,39v78.1l67.6,39.1l32.8-18.9"/>
		</g>
	</g>
</g>
</svg>
