<?xml version="1.0" encoding="UTF-8" standalone="no"?>
<!DOCTYPE svg PUBLIC "-//W3C//DTD SVG 1.1//EN"
"http://www.w3.org/Graphics/SVG/1.1/DTD/svg11.dtd">


<!-- Page 1 -->
<svg x="0" y="0" width="796" height="498" viewBox="0 0 796 498" version="1.1" xmlns="http://www.w3.org/2000/svg" xmlns:xlink="http://www.w3.org/1999/xlink"
style="display: block;margin-left: auto;margin-right: auto;">
<defs>

<style type="text/css"><![CDATA[

.g4_1{
fill: none;
stroke: #9F9F9F;
stroke-width: 18;
stroke-linecap: butt;
stroke-linejoin: miter;
}
.g6_1{
fill: #FFCCCC;
stroke: #000000;
stroke-width: 1;
stroke-linecap: butt;
stroke-linejoin: miter;
}
.g9_1{
fill: #CCFFCC;
stroke: #000000;
stroke-width: 1;
stroke-linecap: butt;
stroke-linejoin: miter;
}
.g10_1{
fill: #E6FFE6;
stroke: #008000;
stroke-width: 1;
stroke-linecap: butt;
stroke-linejoin: miter;
}
.g11_1{
fill: none;
stroke: #000000;
stroke-width: 1;
stroke-linecap: butt;
stroke-linejoin: miter;
stroke-dasharray: 5,5;
}
.g2_1{
fill: none;
stroke: #9F9F9F;
stroke-width: 5;
stroke-linecap: butt;
stroke-linejoin: miter;
}
.g3_1{
fill: #9F9F9F;
stroke: #9F9F9F;
stroke-width: 5;
stroke-linecap: butt;
stroke-linejoin: miter;
}
.g5_1{
fill: #CCFFCC;
}
.g1_1{
fill: #FFCCCC;
}
.g7_1{
fill: #CCCCFF;
stroke: #000000;
stroke-width: 1;
stroke-linecap: butt;
stroke-linejoin: miter;
}
.g8_1{
fill: none;
stroke: #000000;
stroke-width: 1;
stroke-linecap: butt;
stroke-linejoin: miter;
}

.s4_1{
font-size: 15.22px;
font-family: CMR10_p;
fill: #000000;
}
.s6_1{
font-size: 15.22px;
font-family: CMCSC10_10;
fill: #000000;
}
.s8_1{
font-size: 15.22px;
font-family: CMMI10_11;
fill: #000000;
}
.s9_1{
font-size: 15.22px;
font-family: CMSY10_12;
fill: #000000;
}
.s12_1{
font-size: 7.61px;
font-family: CMR5_15;
fill: #000000;
}
.s7_1{
font-size: 10.65px;
font-family: NimbusMonL-Regu_e;
fill: #000000;
}
.s5_1{
font-size: 13.70px;
font-family: CMBX9_q;
fill: #000000;
}
.s1_1{
font-size: 13.70px;
font-family: NimbusMonL-Bold_d;
fill: #000000;
}
.s2_1{
font-size: 13.70px;
font-family: NimbusMonL-Regu_e;
fill: #000000;
}
.s11_1{
font-size: 10.65px;
font-family: CMTI7_14;
fill: #000000;
}
.s10_1{
font-size: 10.65px;
font-family: CMR7_13;
fill: #000000;
}
.s13_1{
font-size: 10.65px;
font-family: CMMI7_16;
fill: #000000;
}
.s3_1{
font-size: 15.22px;
font-family: CMBX10_o;
fill: #000000;
}

]]></style>

</defs>
<path d="M0,0
L0,498
L796,498
L796,0 Z " 
fill="#FFFFFF" stroke="none" />
<text 
x="5" 
y="31" 
dx="0,0,0,0,0" 
class="s1_1"
>class</text>

<path d="M54,36l17,0L71,20L54,20l0,16Z" class="g1_1" />
<text 
x="58" 
y="31" 
dx="0" 
class="s2_1"
>a</text>

<text 
x="79" 
y="31" 
dx="0,0,0,0,0,0,0" 
class="s1_1"
>extends</text>

<text 
x="145" 
y="31" 
dx="0,0,0,0,0,0,0,0,0,0,0,0,0,0,0,0,0,4.8" 
class="s2_1"
>SQLiteOpenHelper {</text>

<text 
x="21" 
y="51" 
dx="0,0,0,0,0,0,0,0,0,0,0,0,0,0" 
class="s2_1"
>SQLiteDatabase</text>

<path d="M144,55l18,0l0,-17l-18,0l0,17Z" class="g1_1" />
<text 
x="149" 
y="51" 
dx="0,0,1.1" 
class="s2_1"
>b ;</text>

<text 
x="21" 
y="67" 
dx="0,0,0,0,0,0" 
class="s1_1"
>public</text>

<path d="M79,72l17,0L96,57L79,57l0,15Z" class="g1_1" />
<text 
x="83" 
y="67" 
dx="0,0,1.1,0,0,0,0,0,0,0,0,4.8,0,0,0,0,0,0,0,0,4.8" 
class="s2_1"
>a (Context context) {</text>

<text 
x="37" 
y="84" 
dx="0,0,0,0,0" 
class="s1_1"
>super</text>

<text 
x="79" 
y="84" 
dx="0,0,0,0,0,0,0,0,0,0,4.8,0,0,0,0,0,0,0,0" 
class="s2_1"
>(context, "app.db",</text>

<text 
x="243" 
y="84" 
dx="0,0,0,0" 
class="s1_1"
>null</text>

<text 
x="276" 
y="84" 
dx="0,0,4.8,0,0" 
class="s2_1"
>, 1);</text>

<path d="M37,109l18,0L55,91L37,91l0,18Z" class="g1_1" />
<text 
x="42" 
y="104" 
dx="0" 
class="s2_1"
>b</text>

<text 
x="63" 
y="104" 
dx="0,0,4.8,0,0,0,0,0,0,0,0,0,0,0,0,0,0,0,0,0,0,0,0,0" 
class="s2_1"
>= getWritableDatabase();</text>

<text 
x="21" 
y="121" 
dx="0" 
class="s2_1"
>}</text>

<text 
x="21" 
y="138" 
dx="0,0,0,0,0,0" 
class="s2_1"
>Cursor</text>

<path d="M79,142l17,0l0,-15l-17,0l0,15Z" class="g1_1" />
<text 
x="83" 
y="138" 
dx="0,0,1.1,0,0,0,0,0,0,0,4.8,0,0,0,0" 
class="s2_1"
>c (String str){</text>

<text 
x="37" 
y="157" 
dx="0,0,0,0,0,0" 
class="s1_1"
>return</text>

<path d="M95,162l17,0l0,-18l-17,0l0,18Z" class="g1_1" />
<text 
x="100" 
y="157" 
dx="0,0,1.1,0,0,0,0,0,0,0,0,0,0,0,0,0,0" 
class="s2_1"
>b .rawQuery(str);</text>

<text 
x="21" 
y="174" 
dx="0" 
class="s2_1"
>}</text>

<text 
x="5" 
y="191" 
dx="0" 
class="s2_1"
>}</text>

<text 
x="5" 
y="218" 
dx="0,0,0" 
class="s3_1"
>(a)</text>

<text 
x="32" 
y="218" 
dx="0,0,0,1.3,0,0,0,0,0,0,0,1.3,0,0,0,0,0,0,0,0,0,0,0,1.3,0,0,0,0,0,0,0,0,0,0,1.3,-0.4,0,1.3,0,0,0,0,0,0,0" 
class="s4_1"
>An Android application obfuscated by ProGuard</text>

<path d="M366.5,105.5l39,0" class="g2_1" />
<path d="M395.3,116.6l11,-11.1l-11,-11.1Z" class="g3_1" />
<path d="M366,105l30,0" class="g4_1" />
<text 
x="333" 
y="135" 
dx="0,0,0,0,0,-0.5,0,2,0,0,0,0,0" 
class="s5_1"
>Derive graph,</text>

<text 
x="333" 
y="152" 
dx="0,0,0,0,2,0,0,0,0,0,0,0,0,-0.4,0" 
class="s5_1"
>and constraints</text>

<text 
x="5" 
y="290" 
dx="0,0,0,0,0" 
class="s1_1"
>class</text>

<path d="M54,297l141,0l0,-20L54,277l0,20Z" class="g5_1" />
<text 
x="58" 
y="290" 
dx="0,0,0,0,0,0,0,0,0,4.8,0,0,0,0,0,0" 
class="s2_1"
>DBHelper extends</text>

<text 
x="203" 
y="290" 
dx="0,0,0,0,0,0,0,0,0,0,0,0,0,0,0,0,0,4.8" 
class="s2_1"
>SQLiteOpenHelper {</text>

<text 
x="21" 
y="312" 
dx="0,0,0,0,0,0,0,0,0,0,0,0,0,0" 
class="s2_1"
>SQLiteDatabase</text>

<path d="M144,317l26,0l0,-18l-26,0l0,18Z" class="g5_1" />
<text 
x="149" 
y="312" 
dx="0,0,0,1.1" 
class="s2_1"
>db ;</text>

<text 
x="21" 
y="332" 
dx="0,0,0,0,0,0" 
class="s1_1"
>public</text>

<path d="M79,338l74,0l0,-20l-74,0l0,20Z" class="g5_1" />
<text 
x="83" 
y="332" 
dx="0,0,0,0,0,0,0,0,0,1.1,0,0,0,0,0,0,0,0,4.8,0,0,0,0,0,0,0,0,4.8" 
class="s2_1"
>DBHelper (Context context) {</text>

<text 
x="37" 
y="352" 
dx="0,0,0,0,0" 
class="s1_1"
>super</text>

<text 
x="79" 
y="352" 
dx="0,0,0,0,0,0,0,0,0,0,4.8,0,0,0,0,0,0,0,0" 
class="s2_1"
>(context, "app.db",</text>

<text 
x="243" 
y="352" 
dx="0,0,0,0" 
class="s1_1"
>null</text>

<text 
x="276" 
y="352" 
dx="0,0,4.8,0,0" 
class="s2_1"
>, 1);</text>

<path d="M37,376l26,0l0,-18l-26,0l0,18Z" class="g5_1" />
<text 
x="42" 
y="371" 
dx="0,0" 
class="s2_1"
>db</text>

<text 
x="71" 
y="371" 
dx="0,0,4.8,0,0,0,0,0,0,0,0,0,0,0,0,0,0,0,0,0,0,0,0,0" 
class="s2_1"
>= getWritableDatabase();</text>

<text 
x="21" 
y="388" 
dx="0" 
class="s2_1"
>}</text>

<text 
x="21" 
y="407" 
dx="0,0,0,0,0,0" 
class="s2_1"
>Cursor</text>

<path d="M79,414l66,0l0,-19l-66,0l0,19Z" class="g5_1" />
<text 
x="83" 
y="407" 
dx="0,0,0,0,0,0,0,0,1.1,0,0,0,0,0,0,0,4.8,0,0,0,0" 
class="s2_1"
>execSQL (String str){</text>

<text 
x="37" 
y="429" 
dx="0,0,0,0,0,0" 
class="s1_1"
>return</text>

<path d="M95,433l26,0l0,-18l-26,0l0,18Z" class="g5_1" />
<text 
x="100" 
y="429" 
dx="0,0,0,1.1,0,0,0,0,0,0,0,0,0,0,0,0,0,0" 
class="s2_1"
>db .rawQuery(str);</text>

<text 
x="21" 
y="445" 
dx="0" 
class="s2_1"
>}</text>

<text 
x="5" 
y="462" 
dx="0" 
class="s2_1"
>}</text>

<text 
x="5" 
y="489" 
dx="0,0,0" 
class="s3_1"
>(d)</text>

<text 
x="33" 
y="489" 
dx="0,0,0,0,0,0,0,0,0,0,0,0,0,1.3,0,0,0,0,0,0,0,1.3,0,0,0,0,0,0,0,0,0,0,0,1.3,0,0,0,0" 
class="s4_1"
>Deobfuscated Android application using</text>

<text 
x="305" 
y="489" 
dx="0,0,0,0,0,0,0" 
class="s6_1"
>DeGuard</text>

<path d="M366.5,370.5l-40,0" class="g2_1" />
<path d="M336.9,359.8l-11.1,11.1l11.1,11Z" class="g3_1" />
<path d="M366,370l-31,0" class="g4_1" />
<text 
x="313" 
y="400" 
dx="0,0,0,0,0,0" 
class="s5_1"
>Rename</text>

<text 
x="313" 
y="417" 
dx="0,0,0,0,-0.5,0,0,0,0,0" 
class="s5_1"
>identiﬁers</text>

<path d="M689.4,43c0,-5.8,-5.2,-10.5,-11.7,-10.5C671.3,32.5,666,37.2,666,43c0,5.8,5.3,10.5,11.7,10.5c6.5,0,11.7,-4.7,11.7,-10.5Z" class="g6_1" />
<text 
x="674" 
y="45" 
dx="0" 
class="s7_1"
>a</text>

<path d="M504.5,52.5l112,0l0,-19l-112,0l0,19Z" class="g7_1" />
<text 
x="509" 
y="45" 
dx="0,0,0,0,0,0,0,0,0,0,0,0,0,0,0,0" 
class="s7_1"
>SQLiteOpenHelper</text>

<path d="M689.6,86.3c0,-6.5,-5.3,-11.8,-11.9,-11.8c-6.5,0,-11.8,5.3,-11.8,11.8c0,6.5,5.3,11.8,11.8,11.8c6.6,0,11.9,-5.3,11.9,-11.8Z" class="g6_1" />
<text 
x="674" 
y="89" 
dx="0" 
class="s7_1"
>b</text>

<path d="M498.5,95.5l131,0l0,-19l-131,0l0,19Z" class="g7_1" />
<text 
x="503" 
y="89" 
dx="0,0,0,0,0,0,0,0,0,0,0,0,0,0,0,0,0,0,0" 
class="s7_1"
>getWritableDatabase</text>

<path d="M617.5,42.5l48,0" class="g8_1" />
<text 
x="619" 
y="37" 
dx="0,0,0,0,0,0,0" 
class="s7_1"
>extends</text>

<path d="M677.5,53.5l0,21" class="g8_1" />
<text 
x="621" 
y="67" 
dx="0,0,0,0,0,0,0,0" 
class="s7_1"
>field-in</text>

<path d="M665.5,86.5l-35,0" class="g8_1" />
<text 
x="635" 
y="97" 
dx="0,0,0,0" 
class="s7_1"
>gets</text>

<text 
x="509" 
y="150" 
dx="0" 
class="s8_1"
>C</text>

<text 
x="525" 
y="150" 
dx="0" 
class="s4_1"
>=</text>

<text 
x="541" 
y="150" 
dx="0" 
class="s9_1"
>{</text>

<path d="M576.7,146.9c0,-6,-4.8,-10.8,-10.8,-10.8c-6,0,-10.9,4.8,-10.9,10.8c0,6,4.9,10.9,10.9,10.9c6,0,10.8,-4.9,10.8,-10.9Z" class="g6_1" />
<text 
x="562" 
y="149" 
dx="0" 
class="s10_1"
>a</text>

<text 
x="580" 
y="150" 
dx="0" 
class="s4_1"
>=</text>

<path d="M594.5,156.5l87,0l0,-19l-87,0l0,19Z" class="g7_1" />
<text 
x="599" 
y="149" 
dx="0,0,0,0,0,0,0,0,0,0,0,0" 
class="s7_1"
>MainActivity</text>

<text 
x="685" 
y="153" 
dx="0" 
class="s8_1"
>,</text>

<text 
x="691" 
y="153" 
dx="0,0,-1.3,0,-1.3" 
class="s9_1"
>· · ·</text>

<text 
x="713" 
y="150" 
dx="0" 
class="s9_1"
>}</text>

<text 
x="487" 
y="16" 
dx="0,0,0,0,0,0,0,0,0,0,1.3,0,0,0.4,0,0,0,0,0,0,0,1.3,0,0,0,0,0" 
class="s4_1"
>(partial) Dependency graph:</text>

<text 
x="487" 
y="124" 
dx="0,0,0,0,0,0,0,1.3,0,0,0,0,0,0,0,0,-0.4,0,0" 
class="s4_1"
>Naming constraints:</text>

<text 
x="466" 
y="176" 
dx="0,0,0" 
class="s3_1"
>(b)</text>

<text 
x="494" 
y="176" 
dx="0,0,0,0.4,0,0,0,0,0,0,0,1.3,0,0,0,0,0,0,1.3,0,0,0,0,0,0,0,0,0,1.3,0,0,0,1.3,0,0,0,0,0,0,0,0,-0.4,0" 
class="s4_1"
>Dependency graph, features, and constraints</text>

<path d="M586.5,193.5l0,31" class="g2_1" />
<path d="M575.1,214.2l11.1,11.1l11,-11.1Z" class="g3_1" />
<path d="M586,193l0,22" class="g4_1" />
<text 
x="512" 
y="212" 
dx="0,0,0,0,0,0,0" 
class="s5_1"
>Predict</text>

<path d="M634.6,302.6c0,-5.1,-17.6,-9.2,-39.4,-9.2c-21.7,0,-39.4,4.1,-39.4,9.2c0,5.1,17.7,9.2,39.4,9.2c21.8,0,39.4,-4.1,39.4,-9.2Z" class="g9_1" />
<text 
x="569" 
y="305" 
dx="0,0,0,0,0,0,0,0" 
class="s7_1"
>DBHelper</text>

<path d="M395.5,312.5l113,0l0,-19l-113,0l0,19Z" class="g7_1" />
<text 
x="400" 
y="305" 
dx="0,0,0,0,0,0,0,0,0,0,0,0,0,0,0,0" 
class="s7_1"
>SQLiteOpenHelper</text>

<path d="M605.6,345.9c0,-5.7,-4.7,-10.3,-10.4,-10.3c-5.7,0,-10.3,4.6,-10.3,10.3c0,5.7,4.6,10.3,10.3,10.3c5.7,0,10.4,-4.6,10.4,-10.3Z" class="g9_1" />
<text 
x="588" 
y="349" 
dx="0,0" 
class="s7_1"
>db</text>

<path d="M415.5,355.5l132,0l0,-19l-132,0l0,19Z" class="g7_1" />
<text 
x="420" 
y="348" 
dx="0,0,0,0,0,0,0,0,0,0,0,0,0,0,0,0,0,0,0" 
class="s7_1"
>getWritableDatabase</text>

<path d="M508.5,302.5l47,0" class="g8_1" />
<text 
x="509" 
y="297" 
dx="0,0,0,0,0,0,0" 
class="s7_1"
>extends</text>

<path d="M595.5,312.5l0,23" class="g8_1" />
<text 
x="538" 
y="327" 
dx="0,0,0,0,0,0,0,0" 
class="s7_1"
>field-in</text>

<path d="M584.5,345.5l-37,0" class="g8_1" />
<text 
x="553" 
y="357" 
dx="0,0,0,0" 
class="s7_1"
>gets</text>

<path d="M552.5,276.5l198,0l0,-14l-198,0l0,14Z" class="g10_1" />
<text 
x="555" 
y="241" 
dx="0,0,0,0" 
class="s11_1"
>name</text>

<text 
x="585" 
y="242" 
dx="0" 
class="s12_1"
>1</text>

<text 
x="661" 
y="241" 
dx="0,0,0,0" 
class="s11_1"
>name</text>

<text 
x="692" 
y="242" 
dx="0" 
class="s12_1"
>2</text>

<text 
x="717" 
y="241" 
dx="0,0,0,0,0,0" 
class="s11_1"
>weight</text>

<path d="M553.5,248.5l201,0" class="g8_1" />
<text 
x="555" 
y="261" 
dx="0,0,0,0,0,0,0,0,0,0,0,0,0,0,0,0,0,1.7,0,0,0,0,0,0" 
class="s7_1"
>SQLiteOpenHelper DBUtils</text>

<text 
x="717" 
y="261" 
dx="0" 
class="s10_1"
>0</text>

<text 
x="723" 
y="261" 
dx="0" 
class="s13_1"
>.</text>

<text 
x="727" 
y="261" 
dx="0" 
class="s10_1"
>3</text>

<text 
x="555" 
y="273" 
dx="0,0,0,0,0,0,0,0,0,0,0,0,0,0,0,0,0,1.7,0,0,0,0,0,0,0" 
class="s7_1"
>SQLiteOpenHelper DBHelper</text>

<text 
x="717" 
y="273" 
dx="0" 
class="s10_1"
>0</text>

<text 
x="723" 
y="273" 
dx="0" 
class="s13_1"
>.</text>

<text 
x="727" 
y="273" 
dx="0" 
class="s10_1"
>2</text>

<path d="M631.5,346.5l152,0l0,-14l-152,0l0,14Z" class="g10_1" />
<text 
x="637" 
y="311" 
dx="0,0,0,0" 
class="s11_1"
>name</text>

<text 
x="667" 
y="313" 
dx="0" 
class="s12_1"
>1</text>

<text 
x="692" 
y="311" 
dx="0,0,0,0" 
class="s11_1"
>name</text>

<text 
x="722" 
y="313" 
dx="0" 
class="s12_1"
>2</text>

<text 
x="748" 
y="311" 
dx="0,0,0,0,0,0" 
class="s11_1"
>weight</text>

<path d="M634.5,318.5l150,0" class="g8_1" />
<text 
x="637" 
y="331" 
dx="0,0,0,0,0,0,0" 
class="s7_1"
>DBUtils</text>

<text 
x="692" 
y="331" 
dx="0,0,0,0,0,0,0,0" 
class="s7_1"
>instance</text>

<text 
x="748" 
y="331" 
dx="0" 
class="s10_1"
>0</text>

<text 
x="754" 
y="331" 
dx="0" 
class="s13_1"
>.</text>

<text 
x="757" 
y="331" 
dx="0" 
class="s10_1"
>5</text>

<text 
x="637" 
y="343" 
dx="0,0,0,0,0,0,0,0,0,1.7,0" 
class="s7_1"
>DBHelper db</text>

<text 
x="748" 
y="343" 
dx="0" 
class="s10_1"
>0</text>

<text 
x="754" 
y="343" 
dx="0" 
class="s13_1"
>.</text>

<text 
x="757" 
y="343" 
dx="0" 
class="s10_1"
>4</text>

<text 
x="637" 
y="355" 
dx="0,0,0,0,0,0,0" 
class="s7_1"
>DBUtils</text>

<text 
x="692" 
y="355" 
dx="0,0" 
class="s7_1"
>db</text>

<text 
x="748" 
y="355" 
dx="0" 
class="s10_1"
>0</text>

<text 
x="754" 
y="355" 
dx="0" 
class="s13_1"
>.</text>

<text 
x="757" 
y="355" 
dx="0" 
class="s10_1"
>2</text>

<text 
x="637" 
y="367" 
dx="0,0,0,0,0,0,0,0,0,1.7,0,0,0,0,0,0,0" 
class="s7_1"
>DBHelper instance</text>

<text 
x="748" 
y="367" 
dx="0" 
class="s10_1"
>0</text>

<text 
x="754" 
y="367" 
dx="0" 
class="s13_1"
>.</text>

<text 
x="757" 
y="367" 
dx="0" 
class="s10_1"
>2</text>

<path d="M484.5,411.5l221,0l0,-14l-221,0l0,14Z" class="g10_1" />
<text 
x="489" 
y="388" 
dx="0,0,0,0" 
class="s11_1"
>name</text>

<text 
x="519" 
y="390" 
dx="0" 
class="s12_1"
>1</text>

<text 
x="615" 
y="388" 
dx="0,0,0,0" 
class="s11_1"
>name</text>

<text 
x="645" 
y="390" 
dx="0" 
class="s12_1"
>2</text>

<text 
x="670" 
y="388" 
dx="0,0,0,0,0,0" 
class="s11_1"
>weight</text>

<path d="M487.5,395.5l220,0" class="g8_1" />
<text 
x="489" 
y="408" 
dx="0,0,0,0,0,0,0,0,0,0,0,0,0,0,0,0,0,0,0,0,1.7,0" 
class="s7_1"
>getWritableDatabase db</text>

<text 
x="670" 
y="408" 
dx="0" 
class="s10_1"
>0</text>

<text 
x="676" 
y="408" 
dx="0" 
class="s13_1"
>.</text>

<text 
x="680" 
y="408" 
dx="0" 
class="s10_1"
>7</text>

<text 
x="489" 
y="420" 
dx="0,0,0,0,0,0,0,0,0,0,0,0,0,0,0,0,0,0,0,0,1.7,0,0,0,0,0,0,0" 
class="s7_1"
>getWritableDatabase instance</text>

<text 
x="670" 
y="420" 
dx="0" 
class="s10_1"
>0</text>

<text 
x="676" 
y="420" 
dx="0" 
class="s13_1"
>.</text>

<text 
x="680" 
y="420" 
dx="0" 
class="s10_1"
>4</text>

<path d="M532.1,284.9l11.5,-30" class="g11_1" />
<path d="M595.2,323.7l30.3,13.5" class="g11_1" />
<path d="M566.1,364.4l29.1,10.3" class="g11_1" />
<text 
x="466" 
y="440" 
dx="0,0,0" 
class="s3_1"
>(c)</text>

<text 
x="492" 
y="440" 
dx="0,0,0,0,0,0,1.3,0,0,0,0,1.3,0,0,0,0,0,0,0,0,0,1.3,0,0,0,0,-0.4,0,0,1.3,0,0,0,-0.4,0,0,0,0,0" 
class="s4_1"
>Graph with predicted unknown identiﬁers</text>



<!-- Any embedded fonts defined here -->
<style type="text/css" ><![CDATA[

@font-face {
	font-family: CMSY10_12;
	src: url("fonts/CMSY10_12.woff") format("woff");
}

@font-face {
	font-family: CMMI7_16;
	src: url("fonts/CMMI7_16.woff") format("woff");
}

@font-face {
	font-family: CMMI10_11;
	src: url("fonts/CMMI10_11.woff") format("woff");
}

@font-face {
	font-family: NimbusMonL-Regu_e;
	src: url("fonts/NimbusMonL-Regu_e.woff") format("woff");
}

@font-face {
	font-family: NimbusMonL-Bold_d;
	src: url("fonts/NimbusMonL-Bold_d.woff") format("woff");
}

@font-face {
	font-family: CMTI7_14;
	src: url("fonts/CMTI7_14.woff") format("woff");
}

@font-face {
	font-family: CMBX10_o;
	src: url("fonts/CMBX10_o.woff") format("woff");
}

@font-face {
	font-family: CMR5_15;
	src: url("fonts/CMR5_15.woff") format("woff");
}

@font-face {
	font-family: CMCSC10_10;
	src: url("fonts/CMCSC10_10.woff") format("woff");
}

@font-face {
	font-family: CMR7_13;
	src: url("fonts/CMR7_13.woff") format("woff");
}

@font-face {
	font-family: CMR10_p;
	src: url("fonts/CMR10_p.woff") format("woff");
}

@font-face {
	font-family: CMBX9_q;
	src: url("fonts/CMBX9_q.woff") format("woff");
}

]]></style>

<title>paper Page1</title>
</svg>
