<svg version="1.2" xmlns="http://www.w3.org/2000/svg" viewBox="0 0 123 24" width="123" height="24"><defs><clipPath clipPathUnits="userSpaceOnUse" id="cp1"><path d="m0 0h136v24h-136z"/></clipPath></defs><style></style><g clip-path="url(#cp1)"><path  d="m75.5 18.6c-0.7 3.5-3.4 3.7-3.9 3.7q-0.5 0-0.9-0.1-0.5-0.2-0.9-0.5-0.3-0.4-0.5-0.8-0.2-0.5-0.1-1 0-0.2 0-0.3 0-0.2 0-0.3 0.1-0.2 0.1-0.3 0-0.2 0-0.3l1.7-8.4h-2l-1.8 8.5v0.1q0 0.2 0 0.3-0.1 0.2-0.1 0.3 0 0.2 0 0.3 0 0.2 0 0.4-0.1 0.7 0.2 1.4 0.3 0.8 0.8 1.3 0.5 0.6 1.2 0.9 0.8 0.2 1.5 0.2 0.6 0 1.1-0.1 0.6-0.1 1.1-0.3 0.5-0.2 0.9-0.5 0.5-0.3 0.9-0.7l-0.3 1.4h1.9l2.7-13.5h-2z"/><path  d="m89.1 10.1q-0.6 0-1.1 0.1-0.5 0.1-1 0.3-0.5 0.3-0.9 0.6-0.4 0.3-0.8 0.8l0.3-1.6h-1.9l-2.7 13.5h2l1.6-8.3q0.1-0.7 0.5-1.3 0.3-0.7 0.9-1.2 0.5-0.5 1.2-0.8 0.6-0.3 1.4-0.3 0.2 0 0.5 0 0.3 0.1 0.5 0.2 0.3 0.1 0.5 0.3 0.2 0.2 0.4 0.4l1.6-1.4q-0.3-0.3-0.7-0.5-0.3-0.3-0.7-0.5-0.4-0.1-0.8-0.2-0.4-0.1-0.8-0.1z"/><path  d="m56.3 12h6.8l-9 10.3-0.4 1.6h9.6l0.4-1.7h-7.2l9-10.3 0.4-1.6h-9.2z"/><path  d="m92.3 23.8l-0.1 0.1h2l2.7-13.6h-1.9z"/><path  d="m119.1 10.1q-0.5 0-1 0.1-0.6 0.1-1 0.3-0.5 0.1-1 0.4-0.4 0.3-0.8 0.7l1.6-7.6h-2.1l-4 19.8h2l1.7-8.3c0.7-3.5 3.4-3.6 4-3.6q0.5-0.1 1 0.1 0.4 0.1 0.8 0.5 0.3 0.3 0.5 0.8 0.2 0.4 0.2 0.9 0 0.2-0.1 0.3 0 0.2 0 0.3 0 0.2-0.1 0.3 0 0.2 0 0.3l-1.7 8.4h2l1.8-8.5q0-0.2 0.1-0.4 0-0.1 0-0.3 0-0.1 0-0.3 0.1-0.2 0.1-0.3 0-0.8-0.3-1.5-0.3-0.8-0.9-1.3-0.6-0.5-1.3-0.8-0.7-0.3-1.5-0.3z"/><path  d="m106 10.1c-3.6 0-6.1 2.5-6.9 6.9q0 0.3-0.1 0.5 0 0.3 0 0.6 0 0.2-0.1 0.5 0 0.3 0.1 0.5c0 3.1 1.8 4.9 4.8 4.9q0.6 0 1.2-0.1 0.6-0.1 1.2-0.4 0.6-0.2 1.1-0.6 0.5-0.4 1-0.8l-1.1-1.4q-0.3 0.4-0.7 0.6-0.4 0.3-0.8 0.5-0.4 0.2-0.9 0.4-0.4 0.1-0.9 0.1-0.6 0-1.2-0.3-0.5-0.2-0.9-0.7-0.4-0.4-0.6-1-0.2-0.6-0.1-1.2 0-0.2 0-0.5 0-0.2 0-0.5 0-0.2 0.1-0.5 0-0.2 0-0.5 0.1-0.5 0.2-1 0.2-0.6 0.4-1 0.2-0.5 0.5-1 0.3-0.4 0.7-0.8 0.3-0.3 0.6-0.6 0.3-0.2 0.7-0.4 0.4-0.2 0.8-0.3 0.4 0 0.8 0 0.4-0.1 0.8 0 0.4 0.1 0.8 0.3 0.3 0.2 0.6 0.5 0.3 0.3 0.5 0.6l1.4-1.2q-0.3-0.5-0.7-0.9-0.5-0.4-1-0.7-0.5-0.2-1.1-0.4-0.6-0.1-1.2-0.1z"/><path  d="m95.7 6.5h2l0.6-2.4h-2.1z"/><path  d="m76.5 6.5h1.9l0.6-2.4h-2.1z"/><path  d="m71.2 6.5h2l0.5-2.4h-2z"/><path  d="m44.7 11.8h-4.4l1.5-7.7h-37.8l-4 19.8h15.1l1-5h-8.9l0.5-2.7h8.9l1-4.4h-9l0.6-2.7h14.1l-3 14.8h6.2l2.9-14.8h5.3l-3 14.8h6.2l1.5-7.7h4.4l-1.4 7.7h6.2l3.9-19.8h-6.2z"/></g></svg>