<svg xmlns="http://www.w3.org/2000/svg" xmlns:xlink="http://www.w3.org/1999/xlink" viewBox="0 0 136 24"><defs><style>.a{clip-path:url(#b);}</style><clipPath id="b"><rect width="136" height="24"/></clipPath></defs><g id="a" class="a"><g transform="translate(0 4.1)"><g transform="translate(53.712 -0.1)"><path d="M85.272,15.4c-.7,3.493-3.406,3.668-3.93,3.668A2.185,2.185,0,0,1,78.9,16.707a6.851,6.851,0,0,1,.175-1.223L80.73,7.1H78.721l-1.747,8.559v.087a5.155,5.155,0,0,0-.175,1.223,3.6,3.6,0,0,0,3.755,3.843,5.067,5.067,0,0,0,3.93-1.572l-.262,1.4h1.921L88.852,7.1H86.844Z" transform="translate(-63.438 -0.812)"/><path d="M100.822,6.9a4.564,4.564,0,0,0-3.755,1.747l.262-1.572H95.407L92.7,20.612h2.009l1.659-8.3a4.332,4.332,0,0,1,3.93-3.668,2.441,2.441,0,0,1,1.921.961h0l1.572-1.4h0A3.783,3.783,0,0,0,100.822,6.9Z" transform="translate(-65.451 -0.786)"/><path d="M64.12,8.847h6.725l-9,10.218h0L61.5,20.724h9.607l.349-1.747H64.295l9-10.218h0L73.64,7.1h-9.17Z" transform="translate(-61.5 -0.812)"/><path d="M105.687,20.637l-.087.087h2.009L110.316,7.1h-1.921Z" transform="translate(-67.085 -0.812)"/><path d="M135.2,6.014A5.129,5.129,0,0,0,131.354,7.5l1.572-7.6h-2.009L126.9,19.725h2.009l1.659-8.3c.7-3.493,3.406-3.668,4.017-3.668a2.226,2.226,0,0,1,2.445,2.358,6.849,6.849,0,0,1-.175,1.223L135.2,19.725h2.009l1.747-8.559a6.741,6.741,0,0,0,.175-1.31A3.839,3.839,0,0,0,135.2,6.014Z" transform="translate(-69.782 0.1)"/><path d="M120.374,6.9c-3.581,0-6.114,2.533-6.9,6.9a9.231,9.231,0,0,0-.175,2.1c0,3.057,1.834,4.891,4.8,4.891a6.343,6.343,0,0,0,4.541-1.921h0l-1.135-1.4h0a4.111,4.111,0,0,1-3.231,1.572A2.82,2.82,0,0,1,115.4,15.9a15.591,15.591,0,0,1,.175-2.009,7.284,7.284,0,0,1,1.747-3.843,4.048,4.048,0,0,1,2.969-1.31,2.8,2.8,0,0,1,2.62,1.485h0L124.392,9h0A4.678,4.678,0,0,0,120.374,6.9Z" transform="translate(-68.06 -0.786)"/><path d="M109.6,2.445h2.009L112.133,0h-2.009Z" transform="translate(-67.591 0.087)"/><path d="M87.6,2.445h1.921L90.045,0H88.037Z" transform="translate(-64.805 0.087)"/><path d="M81.5,2.445h2.009L84.033,0H82.024Z" transform="translate(-64.033 0.087)"/></g><g transform="translate(0 -0.013)"><path d="M44.716,7.686H40.262L41.834,0H4.017L0,19.825H15.109l.961-4.978H7.162l.524-2.707h8.908l.961-4.454H8.646L9.17,4.978H23.319L20.262,19.825h6.2L29.432,4.978h5.24L31.7,19.825h6.2l1.485-7.686h4.454l-1.485,7.686h6.2L52.489,0h-6.2Z"/></g></g></g></svg>