<?xml version="1.0" encoding="UTF-8" standalone="no"?>
<svg
   version="1.2"
   viewBox="0 0 146.75616 23.843407"
   width="146.75616"
   height="23.843407"
   id="svg11"
   sodipodi:docname="eth-logo.svg"
   inkscape:version="1.3.2 (1:1.3.2+202311252150+091e20ef0f)"
   xmlns:inkscape="http://www.inkscape.org/namespaces/inkscape"
   xmlns:sodipodi="http://sodipodi.sourceforge.net/DTD/sodipodi-0.dtd"
   xmlns="http://www.w3.org/2000/svg"
   xmlns:svg="http://www.w3.org/2000/svg">
  <sodipodi:namedview
     id="namedview11"
     pagecolor="#ffffff"
     bordercolor="#666666"
     borderopacity="1.0"
     inkscape:showpageshadow="2"
     inkscape:pageopacity="0.0"
     inkscape:pagecheckerboard="0"
     inkscape:deskcolor="#d1d1d1"
     inkscape:zoom="9.8937461"
     inkscape:cx="77.877479"
     inkscape:cy="19.05244"
     inkscape:window-width="2560"
     inkscape:window-height="1355"
     inkscape:window-x="2560"
     inkscape:window-y="0"
     inkscape:window-maximized="1"
     inkscape:current-layer="svg11" />
  <defs
     id="defs1">
    <clipPath
       clipPathUnits="userSpaceOnUse"
       id="cp1">
      <path
         d="M 0,0 H 136 V 24 H 0 Z"
         id="path1" />
    </clipPath>
  </defs>
  <style
     id="style1" />
  <g
     clip-path="url(#cp1)"
     id="g11"
     transform="matrix(1.1921703,0,0,1.1921703,-4.5337195e-7,-4.7686812)">
    <path
       d="m 75.5,18.6 c -0.7,3.5 -3.4,3.7 -3.9,3.7 q -0.5,0 -0.9,-0.1 -0.5,-0.2 -0.9,-0.5 -0.3,-0.4 -0.5,-0.8 -0.2,-0.5 -0.1,-1 0,-0.2 0,-0.3 0,-0.2 0,-0.3 0.1,-0.2 0.1,-0.3 0,-0.2 0,-0.3 L 71,10.3 h -2 l -1.8,8.5 v 0.1 q 0,0.2 0,0.3 -0.1,0.2 -0.1,0.3 0,0.2 0,0.3 0,0.2 0,0.4 -0.1,0.7 0.2,1.4 0.3,0.8 0.8,1.3 0.5,0.6 1.2,0.9 0.8,0.2 1.5,0.2 0.6,0 1.1,-0.1 0.6,-0.1 1.1,-0.3 0.5,-0.2 0.9,-0.5 0.5,-0.3 0.9,-0.7 l -0.3,1.4 h 1.9 l 2.7,-13.5 h -2 z"
       id="path2" />
    <path
       d="m 89.1,10.1 q -0.6,0 -1.1,0.1 -0.5,0.1 -1,0.3 -0.5,0.3 -0.9,0.6 -0.4,0.3 -0.8,0.8 l 0.3,-1.6 H 83.7 L 81,23.8 h 2 l 1.6,-8.3 q 0.1,-0.7 0.5,-1.3 0.3,-0.7 0.9,-1.2 0.5,-0.5 1.2,-0.8 0.6,-0.3 1.4,-0.3 0.2,0 0.5,0 0.3,0.1 0.5,0.2 0.3,0.1 0.5,0.3 0.2,0.2 0.4,0.4 l 1.6,-1.4 q -0.3,-0.3 -0.7,-0.5 -0.3,-0.3 -0.7,-0.5 -0.4,-0.1 -0.8,-0.2 -0.4,-0.1 -0.8,-0.1 z"
       id="path3" />
    <path
       d="m 56.3,12 h 6.8 l -9,10.3 -0.4,1.6 h 9.6 l 0.4,-1.7 h -7.2 l 9,-10.3 0.4,-1.6 h -9.2 z"
       id="path4" />
    <path
       d="m 92.3,23.8 -0.1,0.1 h 2 L 96.9,10.3 H 95 Z"
       id="path5" />
    <path
       d="m 119.1,10.1 q -0.5,0 -1,0.1 -0.6,0.1 -1,0.3 -0.5,0.1 -1,0.4 -0.4,0.3 -0.8,0.7 L 116.9,4 h -2.1 l -4,19.8 h 2 l 1.7,-8.3 c 0.7,-3.5 3.4,-3.6 4,-3.6 q 0.5,-0.1 1,0.1 0.4,0.1 0.8,0.5 0.3,0.3 0.5,0.8 0.2,0.4 0.2,0.9 0,0.2 -0.1,0.3 0,0.2 0,0.3 0,0.2 -0.1,0.3 0,0.2 0,0.3 l -1.7,8.4 h 2 l 1.8,-8.5 q 0,-0.2 0.1,-0.4 0,-0.1 0,-0.3 0,-0.1 0,-0.3 0.1,-0.2 0.1,-0.3 0,-0.8 -0.3,-1.5 -0.3,-0.8 -0.9,-1.3 -0.6,-0.5 -1.3,-0.8 -0.7,-0.3 -1.5,-0.3 z"
       id="path6" />
    <path
       d="m 106,10.1 c -3.6,0 -6.1,2.5 -6.9,6.9 q 0,0.3 -0.1,0.5 0,0.3 0,0.6 0,0.2 -0.1,0.5 0,0.3 0.1,0.5 c 0,3.1 1.8,4.9 4.8,4.9 q 0.6,0 1.2,-0.1 0.6,-0.1 1.2,-0.4 0.6,-0.2 1.1,-0.6 0.5,-0.4 1,-0.8 l -1.1,-1.4 q -0.3,0.4 -0.7,0.6 -0.4,0.3 -0.8,0.5 -0.4,0.2 -0.9,0.4 -0.4,0.1 -0.9,0.1 -0.6,0 -1.2,-0.3 -0.5,-0.2 -0.9,-0.7 -0.4,-0.4 -0.6,-1 -0.2,-0.6 -0.1,-1.2 0,-0.2 0,-0.5 0,-0.2 0,-0.5 0,-0.2 0.1,-0.5 0,-0.2 0,-0.5 0.1,-0.5 0.2,-1 0.2,-0.6 0.4,-1 0.2,-0.5 0.5,-1 0.3,-0.4 0.7,-0.8 0.3,-0.3 0.6,-0.6 0.3,-0.2 0.7,-0.4 0.4,-0.2 0.8,-0.3 0.4,0 0.8,0 0.4,-0.1 0.8,0 0.4,0.1 0.8,0.3 0.3,0.2 0.6,0.5 0.3,0.3 0.5,0.6 l 1.4,-1.2 q -0.3,-0.5 -0.7,-0.9 -0.5,-0.4 -1,-0.7 -0.5,-0.2 -1.1,-0.4 -0.6,-0.1 -1.2,-0.1 z"
       id="path7" />
    <path
       d="m 95.7,6.5 h 2 l 0.6,-2.4 h -2.1 z"
       id="path8" />
    <path
       d="m 76.5,6.5 h 1.9 L 79,4.1 h -2.1 z"
       id="path9" />
    <path
       d="m 71.2,6.5 h 2 l 0.5,-2.4 h -2 z"
       id="path10" />
    <path
       d="M 44.7,11.8 H 40.3 L 41.8,4.1 H 4 L 0,23.9 h 15.1 l 1,-5 H 7.2 l 0.5,-2.7 h 8.9 l 1,-4.4 h -9 L 9.2,9.1 h 14.1 l -3,14.8 h 6.2 L 29.4,9.1 h 5.3 l -3,14.8 h 6.2 l 1.5,-7.7 h 4.4 l -1.4,7.7 h 6.2 L 52.5,4.1 h -6.2 z"
       id="path11" />
  </g>
</svg>
