<?xml version="1.0" encoding="UTF-8"?>
<!DOCTYPE svg PUBLIC "-//W3C//DTD SVG 1.1//EN" "http://www.w3.org/Graphics/SVG/1.1/DTD/svg11.dtd">
<svg version="1.1" xmlns="http://www.w3.org/2000/svg" xmlns:xlink="http://www.w3.org/1999/xlink" x="0" y="0" width="40" height="40" viewBox="0, 0, 40, 40">
  <g id="surface1">
    <path d="M-10.196,-12.485 L50.196,-12.485 L50.196,49.17 L-10.196,49.17 L-10.196,-12.485 z" fill="#E8EDF7"/>
    <path d="M-8.075,33.782 L0.675,32.653 L7.238,31.509 L12.706,30.235 L17.105,28.88 L19.894,27.782 L19.738,27.755 L17.343,26.528 L15.328,25.274 L13.562,23.86 L12.238,22.45 L11.195,20.88 L10.546,19.31 L10.257,17.743 L10.316,16.173 L10.675,14.755 L11.367,13.349 L12.394,12.021 L13.644,10.927 L15.206,10.001 L16.925,9.356 L18.8,9.009 L20.675,8.981 L22.55,9.274 L24.425,9.927 L26.019,10.837 L27.394,12.021 L28.425,13.349 L29.117,14.759 L29.495,16.329 L29.519,17.899 L29.195,19.466 L28.507,21.036 L27.55,22.45 L26.144,23.938 L24.238,25.431 L22.081,26.728 L19.894,27.782 L20.206,27.899 L20.675,28.11 L25.675,29.845 L30.831,31.146 L36.769,32.282 L44.113,33.345 L53.488,34.345" fill-opacity="0" stroke="#B1B1B1" stroke-width="3" stroke-linejoin="round"/>
  </g>
</svg>
