<?xml version="1.0" encoding="UTF-8" standalone="no"?>
<svg
   xmlns:dc="http://purl.org/dc/elements/1.1/"
   xmlns:cc="http://creativecommons.org/ns#"
   xmlns:rdf="http://www.w3.org/1999/02/22-rdf-syntax-ns#"
   xmlns:svg="http://www.w3.org/2000/svg"
   xmlns="http://www.w3.org/2000/svg"
   xmlns:sodipodi="http://sodipodi.sourceforge.net/DTD/sodipodi-0.dtd"
   xmlns:inkscape="http://www.inkscape.org/namespaces/inkscape"
   version="1.1"
   id="svg29"
   xml:space="preserve"
   width="200"
   height="200"
   viewBox="0 0 199.99999 200"
   sodipodi:docname="iclr_logo.svg"
   inkscape:version="0.92.5 (2060ec1f9f, 2020-04-08)"><metadata
     id="metadata865"><rdf:RDF><cc:Work
         rdf:about=""><dc:format>image/svg+xml</dc:format><dc:type
           rdf:resource="http://purl.org/dc/dcmitype/StillImage" /><dc:title></dc:title></cc:Work></rdf:RDF></metadata><sodipodi:namedview
     pagecolor="#ffffff"
     bordercolor="#666666"
     borderopacity="1"
     objecttolerance="10"
     gridtolerance="10"
     guidetolerance="10"
     inkscape:pageopacity="0"
     inkscape:pageshadow="2"
     inkscape:window-width="2560"
     inkscape:window-height="1355"
     id="namedview863"
     showgrid="false"
     lock-margins="true"
     fit-margin-top="5"
     fit-margin-left="5"
     fit-margin-right="5"
     fit-margin-bottom="5"
     inkscape:zoom="3.2801897"
     inkscape:cx="21.581372"
     inkscape:cy="43.344008"
     inkscape:window-x="0"
     inkscape:window-y="0"
     inkscape:window-maximized="1"
     inkscape:current-layer="g35" /><defs
     id="defs33"><linearGradient
       x1="0"
       y1="0"
       x2="1"
       y2="0"
       gradientUnits="userSpaceOnUse"
       gradientTransform="matrix(-35.480942,39.171368,39.171368,35.480942,44.017578,29.877322)"
       spreadMethod="pad"
       id="linearGradient59"><stop
         style="stop-opacity:1;stop-color:#58c9ed"
         offset="0"
         id="stop49" /><stop
         style="stop-opacity:1;stop-color:#58c9ed"
         offset="0.149313"
         id="stop51" /><stop
         style="stop-opacity:1;stop-color:#60c332"
         offset="0.469817"
         id="stop53" /><stop
         style="stop-opacity:1;stop-color:#cae31c"
         offset="0.828086"
         id="stop55" /><stop
         style="stop-opacity:1;stop-color:#cae31c"
         offset="1"
         id="stop57" /></linearGradient><clipPath
       clipPathUnits="userSpaceOnUse"
       id="clipPath69"><path
         d="M 0,108 H 216 V 0 H 0 Z"
         id="path67"
         inkscape:connector-curvature="0" /></clipPath></defs><g
     id="g35"
     transform="matrix(1.3333333,0,0,-1.3333333,3.1866667,220.83467)"><g
       id="g37"
       transform="matrix(2.2142405,0,0,2.2142405,-3.9378203,-26.118528)"><g
         id="g39"><g
           id="g45"><g
             id="g47"><path
               d="m 14.723,51.63933 4.631,-0.002 v 3.947 l 4.903,4.904 h 6.391 v 7.076 h -7.075 l -0.001,-6.391 -4.905,-4.904 h -3.944 z m -2.041,14.804 v 1.851 l -1.852,-0.001 v -1.421 l -1.581,-1.582 -2.95,-10e-4 -0.001,-3.377 h 3.379 l 0.002,2.949 1.58,1.582 z m 28.936,-18.667 2.23,2.231 h 2.004 v 2.608 h -2.608 v -2.004 l -2.231,-2.23 -4.158,-0.002 v -4.76 l 4.763,0.001 z m 6.538,-10.339 v 4.761 h -4.76 l -0.002,-4.158 -2.23,-2.23 H 39.16 v -2.609 h 2.611 v 2.005 l 2.228,2.23 z m -43.382,15.01 -1.798,-1.796 H 1.36 v -2.105 l 2.104,0.001 v 1.616 l 1.799,1.798 h 3.35 v 3.84 H 4.775 Z m 14.675,-12.67 -2.526,-2.527 h -4.71 v -5.394 h 5.393 l 0.002,4.709 2.528,2.529 h 2.268 l 0.001,2.954 h -2.956 z m 8.727,-2.439 -2.527,-2.526 h -2.268 l -0.002,-2.956 h 2.956 v 2.271 l 2.526,2.527 h 4.71 v 5.394 h -5.393 z m 12.208,19.714 -5.674,-0.002 v -4.987 l -2.571,-2.572 h -3.945 v -4.631 h 4.63 v 3.946 l 2.571,2.571 h 4.989 z m -9.199,-5.016 v 4.978 l 3.051,3.051 h 5.374 v 6.061 l -6.058,-10e-4 v -5.374 l -3.053,-3.053 h -4.978 v -4.975 l -2.943,-2.947 h -2.896 l -0.002,-3.582 h 3.582 v 2.898 l 2.945,2.944 z m -12.027,26.003 h -1.25 v -1.251 h 1.25 z m -2.221,-4.355 h -3.1 v -3.099 l 3.1,0.001 z m -3.935,3.139 h -2.299 v -2.299 h 2.299 z m 33.38,-43.944 h 2.112 v 2.113 h -2.112 z m -33.697,16.873 h -2.111 v -2.111 h 2.111 z m 5.34,10.904 h -2.11 v -2.11 h 2.11 z m 5.651,14.384 h -4.342 v -4.344 h 4.342 z m 11.272,-2.017 h -4.205 v -4.204 h 4.205 z m -14.212,-4.753 h -5.564 v -5.565 l 5.564,0.001 z m 27.741,-11.032 -2.796,-0.002 v -2.794 l 2.796,0.001 z m -4.875,5.463 -2.247,-10e-4 -10e-4,-2.247 h 2.248 z m -14.892,10.203 h -2.741 v -2.741 l 2.741,0.001 z m -16.24,-13.336 h -2.322 v -2.321 h 2.322 z m 27.075,-18.871 h -2.32 l -0.002,-2.323 h 2.324 z"
               style="fill:url(#linearGradient59);stroke:none"
               id="path61"
               inkscape:connector-curvature="0" /></g></g></g></g><g
       id="g63"
       transform="matrix(2.2142405,0,0,2.2142405,-3.9378203,-14.304825)"><g
         id="g65"
         clip-path="url(#clipPath69)"><path
           d="m 59.051,31.396 h -2.965 v 2.966 h 2.965 z m -4.48,13.482 h -1.606 v 1.606 l 1.606,10e-4 z m -5.843,15.027 h -2.842 v 2.841 h 2.842 z m -7.684,7.766 h -1.653 v 1.651 h 1.653 z M 66.872,37.54 c -3.761,3.601 -0.976,3.62 -0.902,5.838 0.076,2.217 -1.781,2.631 -1.781,2.631 0.803,1.887 0.903,2.323 0.903,2.323 -1.705,1.303 -2.006,2.91 -2.006,2.91 1.704,2.607 2.904,5.602 2.904,5.602 0,0 -11.263,3.608 -15.514,6.334 -1.604,0.666 -1.203,3.145 -1.203,3.145 -11.034,14.144 -27.564,7.022 -27.564,7.022 v -0.402 c 0,0 1.256,-0.15 3.251,-0.709 l 2.768,-0.002 v -0.906 c 1.014,-0.381 2.113,-0.845 3.265,-1.411 h 6.52 L 37.511,65.78 c 0.708,-0.566 1.413,-1.176 2.109,-1.833 h 3.601 l 0.001,-3.983 c 0.889,-1.153 1.742,-2.407 2.54,-3.774 0.494,-0.773 0.951,-1.545 1.381,-2.32 h 3.234 v -4.543 l 2.588,-0.002 v -2.84 l -1.296,-0.018 c 0,0 0.014,-3.034 0.015,-4.498 L 48.24,41.968 v -3.497 h 3.498 v 3.406 H 55.24 V 35.264 H 52.632 C 53.275,26.02 50.98,19.376 50.98,19.376 c 1.405,3.913 5.116,7.173 10.201,8.997 4.788,1.715 9.454,5.566 5.691,9.167"
           style="fill:#41485b;fill-opacity:1;fill-rule:nonzero;stroke:none"
           id="path71"
           inkscape:connector-curvature="0" /><g
           id="g79"
           transform="translate(140.4336,64.8364)" /></g></g></g></svg>