<?xml version="1.0" encoding="UTF-8" standalone="no"?>
<!-- Generator: Adobe Illustrator 19.2.0, SVG Export Plug-In . SVG Version: 6.00 Build 0)  -->

<svg
   xmlns:dc="http://purl.org/dc/elements/1.1/"
   xmlns:cc="http://creativecommons.org/ns#"
   xmlns:rdf="http://www.w3.org/1999/02/22-rdf-syntax-ns#"
   xmlns:svg="http://www.w3.org/2000/svg"
   xmlns="http://www.w3.org/2000/svg"
   xmlns:sodipodi="http://sodipodi.sourceforge.net/DTD/sodipodi-0.dtd"
   xmlns:inkscape="http://www.inkscape.org/namespaces/inkscape"
   version="1.1"
   id="Layer_1"
   x="0px"
   y="0px"
   viewBox="183 130 148.7 148.69999"
   xml:space="preserve"
   sodipodi:docname="silq.svg"
   width="148.7"
   height="148.7"
   inkscape:version="0.92.5 (2060ec1f9f, 2020-04-08)"><metadata
   id="metadata35"><rdf:RDF><cc:Work
       rdf:about=""><dc:format>image/svg+xml</dc:format><dc:type
         rdf:resource="http://purl.org/dc/dcmitype/StillImage" /><dc:title></dc:title></cc:Work></rdf:RDF></metadata><defs
   id="defs33" /><sodipodi:namedview
   pagecolor="#ffffff"
   bordercolor="#666666"
   borderopacity="1"
   objecttolerance="10"
   gridtolerance="10"
   guidetolerance="10"
   inkscape:pageopacity="0"
   inkscape:pageshadow="2"
   inkscape:window-width="2560"
   inkscape:window-height="1355"
   id="namedview31"
   showgrid="false"
   fit-margin-top="0"
   fit-margin-left="0"
   fit-margin-right="0"
   fit-margin-bottom="0"
   inkscape:zoom="2.9727994"
   inkscape:cx="143.91301"
   inkscape:cy="21.994622"
   inkscape:window-x="0"
   inkscape:window-y="0"
   inkscape:window-maximized="1"
   inkscape:current-layer="g28" />
<style
   type="text/css"
   id="style2">
	.st0{fill:#00728D;}
	.st1{fill:#32B9DC;}
	.st2{fill:#0286AA;}
</style>
<g
   id="g28"
   transform="translate(-36.703571,-25.699994)">
	
	<path
   class="st1"
   d="m 363.3732,185.63638 c 4.4,5.1 -2.5,20.4 -23.8,40.1 -7.3,-6.3 -15.4,-12.5 -24.1,-18.4 -4,-2.7 -8.1,-5.2 -12.1,-7.7 29.9,-16.1 54.2,-20.8 60,-14 z"
   id="path16"
   inkscape:connector-curvature="0"
   style="fill:#32b9dc" />
	<path
   class="st0"
   d="m 296.2732,156.03638 c 7.2,0 14.9,11.6 19.7,29.6 -6.5,2.8 -13.1,6.1 -19.7,9.8 -6.3,-3.5 -13,-6.9 -19.7,-9.8 4.8,-18.1 12.4,-29.6 19.7,-29.6 z"
   id="path18"
   inkscape:connector-curvature="0"
   style="fill:#00728d" />
	<path
   class="st2"
   d="m 227.9732,191.03638 c -0.3,-2.4 0.1,-4.2 1.2,-5.5 1.6,-1.9 4.9,-2.9 9.6,-2.9 10.8,0 28.8,5.3 50.4,16.9 -4.1,2.5 -8.2,5 -12.1,7.7 -8.8,6 -16.9,12.2 -24.1,18.4 -15.8,-14.5 -24,-27.1 -25,-34.6 z"
   id="path20"
   inkscape:connector-curvature="0"
   style="fill:#0286aa" />
	<path
   class="st0"
   d="m 229.0732,275.23638 c -1.1,-1.3 -1.5,-3.1 -1.2,-5.5 1,-7.5 9.2,-20.1 25,-34.6 3.7,3.2 7.6,6.4 11.7,9.5 0.6,9.6 1.9,18.4 3.6,26.3 -23.4,9.4 -35.7,8.2 -39.1,4.3 z"
   id="path22"
   inkscape:connector-curvature="0"
   style="fill:#00728d" />
	<path
   class="st2"
   d="m 296.2732,304.73638 c -9.6,0 -20.8,-20.3 -24.1,-54.6 1.6,1.1 3.2,2.2 4.8,3.3 12.5,8.4 26,16 38.9,21.6 -4.7,18.2 -12.4,29.7 -19.6,29.7 z"
   id="path24"
   inkscape:connector-curvature="0"
   style="fill:#0286aa" />
	<path
   class="st1"
   d="m 363.3732,275.23638 c -7.2,8.4 -42.8,-0.8 -82.4,-27.5 -8.7,-5.9 -16.3,-11.7 -22.8,-17.3 6.5,-5.6 14.1,-11.4 22.8,-17.3 5.2,-3.5 10.3,-6.7 15.3,-9.6 5.2,3 10.3,6.2 15.3,9.6 9.3,6.3 17.9,12.9 25.4,19.6 23.4,20.8 31,37.1 26.4,42.5 z"
   id="path26"
   inkscape:connector-curvature="0"
   style="fill:#32b9dc" />
</g>
</svg>