<?xml version="1.0" encoding="UTF-8"?>
<svg xmlns="http://www.w3.org/2000/svg" xmlns:xlink="http://www.w3.org/1999/xlink" width="194.272pt" height="167.648pt" viewBox="0 0 194.272 167.648" version="1.1">
<defs>
<clipPath id="clip1">
  <path d="M 0 8 L 194.273438 8 L 194.273438 167.648438 L 0 167.648438 Z M 0 8 "/>
</clipPath>
</defs>
<g id="surface1">
<path style=" stroke:none;fill-rule:nonzero;fill:rgb(29.801941%,44.703674%,69.018555%);fill-opacity:0.25;" d="M 29.679688 153.695312 C 29.71875 153.675781 29.796875 153.675781 29.816406 153.675781 C 29.835938 153.675781 29.628906 153.675781 29.816406 153.675781 C 30.003906 153.675781 30.800781 153.6875 31.175781 153.667969 C 31.554688 153.648438 32.160156 153.625 32.535156 153.535156 C 32.914062 153.445312 33.519531 153.242188 33.894531 153.027344 C 34.273438 152.816406 34.878906 152.359375 35.257812 151.996094 C 35.632812 151.632812 36.238281 150.921875 36.617188 150.410156 C 36.992188 149.902344 37.597656 148.960938 37.976562 148.328125 C 38.355469 147.691406 38.960938 146.566406 39.335938 145.832031 C 39.714844 145.097656 40.320312 143.839844 40.695312 143.035156 C 41.074219 142.230469 41.679688 140.878906 42.054688 140.03125 C 42.433594 139.179688 43.039062 137.78125 43.417969 136.910156 C 43.792969 136.039062 44.398438 134.621094 44.777344 133.746094 C 45.152344 132.871094 45.757812 131.464844 46.136719 130.605469 C 46.515625 129.742188 47.121094 128.371094 47.496094 127.53125 C 47.875 126.695312 48.480469 125.371094 48.855469 124.570312 C 49.234375 123.765625 49.839844 122.507812 50.214844 121.746094 C 50.59375 120.984375 51.199219 119.796875 51.578125 119.082031 C 51.953125 118.371094 52.558594 117.261719 52.9375 116.597656 C 53.3125 115.933594 53.917969 114.910156 54.296875 114.300781 C 54.675781 113.691406 55.28125 112.753906 55.65625 112.199219 C 56.035156 111.640625 56.640625 110.792969 57.015625 110.289062 C 57.394531 109.789062 58 109.027344 58.375 108.578125 C 58.753906 108.128906 59.359375 107.453125 59.738281 107.058594 C 60.113281 106.664062 60.71875 106.074219 61.097656 105.734375 C 61.472656 105.390625 62.078125 104.882812 62.457031 104.589844 C 62.835938 104.296875 63.4375 103.871094 63.816406 103.625 C 64.195312 103.382812 64.800781 103.03125 65.175781 102.835938 C 65.554688 102.636719 66.160156 102.359375 66.535156 102.207031 C 66.914062 102.054688 67.519531 101.847656 67.898438 101.734375 C 68.273438 101.625 68.878906 101.484375 69.257812 101.414062 C 69.632812 101.34375 70.238281 101.265625 70.617188 101.230469 C 70.996094 101.199219 71.597656 101.179688 71.976562 101.183594 C 72.355469 101.1875 72.960938 101.21875 73.335938 101.257812 C 73.714844 101.292969 74.320312 101.378906 74.695312 101.449219 C 75.074219 101.515625 75.679688 101.648438 76.058594 101.746094 C 76.433594 101.84375 77.039062 102.019531 77.417969 102.144531 C 77.792969 102.265625 78.398438 102.484375 78.777344 102.632812 C 79.15625 102.777344 79.757812 103.035156 80.136719 103.203125 C 80.515625 103.371094 81.121094 103.660156 81.496094 103.851562 C 81.875 104.039062 82.480469 104.355469 82.855469 104.5625 C 83.234375 104.769531 83.839844 105.113281 84.21875 105.335938 C 84.59375 105.554688 85.199219 105.921875 85.578125 106.15625 C 85.953125 106.390625 86.558594 106.777344 86.9375 107.019531 C 87.316406 107.265625 87.917969 107.664062 88.296875 107.917969 C 88.675781 108.171875 89.28125 108.582031 89.65625 108.839844 C 90.035156 109.097656 90.640625 109.515625 91.015625 109.773438 C 91.394531 110.035156 92 110.457031 92.378906 110.71875 C 92.753906 110.976562 93.359375 111.394531 93.738281 111.65625 C 94.113281 111.914062 94.71875 112.324219 95.097656 112.578125 C 95.472656 112.828125 96.078125 113.230469 96.457031 113.472656 C 96.835938 113.714844 97.441406 114.097656 97.816406 114.332031 C 98.195312 114.5625 98.800781 114.921875 99.175781 115.136719 C 99.554688 115.351562 100.160156 115.6875 100.539062 115.882812 C 100.914062 116.078125 101.519531 116.375 101.898438 116.546875 C 102.273438 116.71875 102.878906 116.976562 103.257812 117.117188 C 103.632812 117.261719 104.238281 117.46875 104.617188 117.578125 C 104.996094 117.691406 105.601562 117.839844 105.976562 117.914062 C 106.355469 117.984375 106.960938 118.074219 107.335938 118.101562 C 107.714844 118.128906 108.320312 118.140625 108.699219 118.121094 C 109.074219 118.101562 109.679688 118.03125 110.058594 117.957031 C 110.433594 117.878906 111.039062 117.714844 111.417969 117.578125 C 111.792969 117.441406 112.398438 117.171875 112.777344 116.964844 C 113.15625 116.761719 113.761719 116.378906 114.136719 116.097656 C 114.515625 115.816406 115.121094 115.304688 115.496094 114.941406 C 115.875 114.574219 116.480469 113.925781 116.859375 113.472656 C 117.234375 113.019531 117.839844 112.21875 118.21875 111.664062 C 118.59375 111.113281 119.199219 110.148438 119.578125 109.492188 C 119.953125 108.835938 120.558594 107.699219 120.9375 106.929688 C 121.316406 106.160156 121.921875 104.835938 122.296875 103.945312 C 122.675781 103.058594 123.28125 101.539062 123.65625 100.523438 C 124.035156 99.511719 124.640625 97.789062 125.015625 96.648438 C 125.394531 95.503906 126 93.570312 126.378906 92.296875 C 126.753906 91.023438 127.359375 88.878906 127.738281 87.472656 C 128.113281 86.070312 128.71875 83.710938 129.097656 82.175781 C 129.476562 80.644531 130.082031 78.082031 130.457031 76.425781 C 130.835938 74.773438 131.441406 72.019531 131.816406 70.257812 C 132.195312 68.496094 132.800781 65.574219 133.175781 63.722656 C 133.554688 61.867188 134.160156 58.816406 134.539062 56.898438 C 134.914062 54.980469 135.519531 51.84375 135.898438 49.894531 C 136.273438 47.949219 136.878906 44.792969 137.257812 42.863281 C 137.636719 40.933594 138.242188 37.839844 138.617188 35.984375 C 138.996094 34.128906 139.601562 31.199219 139.976562 29.492188 C 140.355469 27.785156 140.960938 25.152344 141.335938 23.679688 C 141.714844 22.207031 142.320312 20.019531 142.699219 18.882812 C 143.074219 17.75 143.679688 16.183594 144.058594 15.5 C 144.433594 14.820312 145.039062 14.070312 145.417969 13.96875 C 145.796875 13.867188 146.402344 14.15625 146.777344 14.761719 C 147.15625 15.367188 147.761719 16.90625 148.136719 18.34375 C 148.515625 19.78125 149.121094 22.761719 149.496094 25.128906 C 149.875 27.496094 150.480469 32.0625 150.859375 35.402344 C 151.234375 38.746094 151.839844 44.933594 152.21875 49.207031 C 152.59375 53.480469 153.199219 61.167969 153.578125 66.207031 C 153.957031 71.25 154.5625 80.0625 154.9375 85.542969 C 155.316406 91.023438 155.921875 100.292969 156.296875 105.707031 C 156.675781 111.121094 157.28125 119.847656 157.65625 124.558594 C 158.035156 129.273438 158.640625 136.257812 159.019531 139.667969 C 159.394531 143.082031 160 147.3125 160.378906 149.164062 C 160.753906 151.019531 161.359375 152.402344 161.738281 153.027344 C 162.117188 153.652344 162.71875 153.578125 163.097656 153.667969 C 163.476562 153.757812 164.269531 153.675781 164.457031 153.675781 C 164.648438 153.679688 164.4375 153.675781 164.457031 153.675781 C 164.476562 153.675781 164.554688 153.675781 164.59375 153.675781 L 29.679688 153.675781 Z M 29.679688 153.695312 "/>
<path style=" stroke:none;fill-rule:nonzero;fill:rgb(86.665344%,51.763916%,32.154846%);fill-opacity:0.25;" d="M 29.679688 153.695312 C 29.71875 153.675781 29.796875 153.675781 29.816406 153.675781 C 29.835938 153.675781 29.628906 153.675781 29.816406 153.675781 C 30.003906 153.675781 30.800781 153.679688 31.175781 153.675781 C 31.554688 153.671875 32.160156 153.675781 32.535156 153.652344 C 32.914062 153.625 33.519531 153.578125 33.894531 153.492188 C 34.273438 153.40625 34.878906 153.21875 35.257812 153.03125 C 35.632812 152.84375 36.238281 152.453125 36.617188 152.132812 C 36.992188 151.8125 37.597656 151.183594 37.976562 150.722656 C 38.355469 150.257812 38.960938 149.394531 39.335938 148.792969 C 39.714844 148.191406 40.320312 147.109375 40.695312 146.386719 C 41.074219 145.660156 41.679688 144.398438 42.054688 143.570312 C 42.433594 142.746094 43.039062 141.335938 43.417969 140.433594 C 43.792969 139.527344 44.398438 138.015625 44.777344 137.0625 C 45.152344 136.105469 45.757812 134.53125 46.136719 133.546875 C 46.515625 132.5625 47.121094 130.957031 47.496094 129.964844 C 47.875 128.972656 48.480469 127.375 48.855469 126.394531 C 49.234375 125.414062 49.839844 123.847656 50.214844 122.894531 C 50.59375 121.941406 51.199219 120.429688 51.578125 119.515625 C 51.953125 118.601562 52.558594 117.167969 52.9375 116.304688 C 53.3125 115.4375 53.917969 114.09375 54.296875 113.285156 C 54.675781 112.480469 55.28125 111.234375 55.65625 110.492188 C 56.035156 109.75 56.640625 108.613281 57.015625 107.941406 C 57.394531 107.269531 58 106.246094 58.375 105.644531 C 58.753906 105.039062 59.359375 104.132812 59.738281 103.605469 C 60.113281 103.074219 60.71875 102.285156 61.097656 101.828125 C 61.472656 101.371094 62.078125 100.699219 62.457031 100.3125 C 62.835938 99.929688 63.4375 99.371094 63.816406 99.058594 C 64.195312 98.742188 64.800781 98.296875 65.175781 98.050781 C 65.554688 97.804688 66.160156 97.464844 66.535156 97.285156 C 66.914062 97.105469 67.519531 96.867188 67.898438 96.75 C 68.273438 96.632812 68.878906 96.492188 69.257812 96.433594 C 69.632812 96.375 70.238281 96.328125 70.617188 96.324219 C 70.996094 96.320312 71.597656 96.359375 71.976562 96.40625 C 72.355469 96.457031 72.960938 96.574219 73.335938 96.667969 C 73.714844 96.765625 74.320312 96.957031 74.695312 97.09375 C 75.074219 97.234375 75.679688 97.492188 76.058594 97.667969 C 76.433594 97.847656 77.039062 98.164062 77.417969 98.378906 C 77.792969 98.589844 78.398438 98.960938 78.777344 99.207031 C 79.15625 99.449219 79.757812 99.867188 80.136719 100.140625 C 80.515625 100.410156 81.121094 100.867188 81.496094 101.160156 C 81.875 101.457031 82.480469 101.945312 82.855469 102.257812 C 83.234375 102.574219 83.839844 103.089844 84.21875 103.417969 C 84.59375 103.746094 85.199219 104.285156 85.578125 104.621094 C 85.953125 104.960938 86.558594 105.511719 86.9375 105.859375 C 87.316406 106.203125 87.917969 106.761719 88.296875 107.113281 C 88.675781 107.460938 89.28125 108.019531 89.65625 108.367188 C 90.035156 108.714844 90.640625 109.273438 91.015625 109.613281 C 91.394531 109.957031 92 110.503906 92.378906 110.835938 C 92.753906 111.171875 93.359375 111.699219 93.738281 112.023438 C 94.113281 112.34375 94.71875 112.847656 95.097656 113.152344 C 95.472656 113.457031 96.078125 113.933594 96.457031 114.21875 C 96.835938 114.503906 97.441406 114.945312 97.816406 115.207031 C 98.195312 115.46875 98.800781 115.867188 99.175781 116.101562 C 99.554688 116.332031 100.160156 116.683594 100.539062 116.886719 C 100.914062 117.085938 101.519531 117.382812 101.898438 117.550781 C 102.273438 117.714844 102.878906 117.953125 103.257812 118.078125 C 103.632812 118.203125 104.238281 118.375 104.617188 118.457031 C 104.996094 118.539062 105.601562 118.636719 105.976562 118.667969 C 106.355469 118.703125 106.960938 118.71875 107.335938 118.703125 C 107.714844 118.683594 108.320312 118.617188 108.699219 118.542969 C 109.074219 118.46875 109.679688 118.304688 110.058594 118.171875 C 110.433594 118.039062 111.039062 117.777344 111.417969 117.578125 C 111.792969 117.378906 112.398438 117.011719 112.777344 116.746094 C 113.15625 116.476562 113.761719 115.996094 114.136719 115.65625 C 114.515625 115.316406 115.121094 114.714844 115.496094 114.300781 C 115.875 113.882812 116.480469 113.15625 116.859375 112.660156 C 117.234375 112.164062 117.839844 111.304688 118.21875 110.726562 C 118.59375 110.144531 119.199219 109.148438 119.578125 108.480469 C 119.953125 107.8125 120.558594 106.675781 120.9375 105.917969 C 121.316406 105.160156 121.921875 103.875 122.296875 103.023438 C 122.675781 102.175781 123.28125 100.738281 123.65625 99.796875 C 124.035156 98.851562 124.640625 97.265625 125.015625 96.226562 C 125.394531 95.191406 126 93.449219 126.378906 92.320312 C 126.753906 91.191406 127.359375 89.300781 127.738281 88.078125 C 128.113281 86.859375 128.71875 84.824219 129.097656 83.515625 C 129.476562 82.210938 130.082031 80.039062 130.457031 78.652344 C 130.835938 77.265625 131.441406 74.972656 131.816406 73.515625 C 132.195312 72.058594 132.800781 69.660156 133.175781 68.144531 C 133.554688 66.632812 134.160156 64.15625 134.539062 62.601562 C 134.914062 61.050781 135.519531 58.523438 135.898438 56.953125 C 136.273438 55.386719 136.878906 52.851562 137.257812 51.296875 C 137.636719 49.746094 138.242188 47.253906 138.617188 45.75 C 138.996094 44.246094 139.601562 41.867188 139.976562 40.460938 C 140.355469 39.050781 140.960938 36.859375 141.335938 35.601562 C 141.714844 34.34375 142.320312 32.433594 142.699219 31.390625 C 143.074219 30.351562 143.679688 28.835938 144.058594 28.085938 C 144.433594 27.335938 145.039062 26.351562 145.417969 25.980469 C 145.796875 25.609375 146.402344 25.300781 146.777344 25.40625 C 147.15625 25.511719 147.761719 26.050781 148.136719 26.734375 C 148.515625 27.417969 149.121094 28.972656 149.496094 30.34375 C 149.875 31.710938 150.480469 34.453125 150.859375 36.597656 C 151.234375 38.746094 151.839844 42.820312 152.21875 45.804688 C 152.59375 48.789062 153.199219 54.28125 153.578125 58.105469 C 153.957031 61.929688 154.5625 68.804688 154.9375 73.375 C 155.316406 77.945312 155.921875 85.976562 156.296875 91.042969 C 156.675781 96.109375 157.28125 104.777344 157.65625 109.894531 C 158.035156 115.007812 158.640625 123.398438 159.019531 127.910156 C 159.394531 132.425781 160 139.222656 160.378906 142.421875 C 160.753906 145.625 161.359375 149.441406 161.738281 150.984375 C 162.117188 152.527344 162.71875 153.179688 163.097656 153.554688 C 163.476562 153.925781 164.269531 153.660156 164.457031 153.675781 C 164.648438 153.695312 164.4375 153.675781 164.457031 153.675781 C 164.476562 153.675781 164.554688 153.675781 164.59375 153.675781 L 29.679688 153.675781 Z M 29.679688 153.695312 "/>
<path style="fill:none;stroke-width:1.19553;stroke-linecap:butt;stroke-linejoin:miter;stroke:rgb(29.801941%,44.703674%,69.018555%);stroke-opacity:1;stroke-miterlimit:10;" d="M 16.191406 13.972219 C 16.191406 13.972219 16.289062 13.972219 16.328125 13.972219 C 16.367188 13.972219 16.425781 13.972219 16.464844 13.972219 C 16.503906 13.972219 16.566406 13.972219 16.601562 13.972219 C 16.640625 13.972219 16.703125 13.972219 16.742188 13.972219 C 16.777344 13.972219 16.839844 13.972219 16.878906 13.972219 C 16.917969 13.972219 16.976562 13.972219 17.015625 13.972219 C 17.054688 13.972219 17.117188 13.972219 17.152344 13.972219 C 17.191406 13.972219 17.253906 13.972219 17.292969 13.972219 C 17.328125 13.972219 17.390625 13.972219 17.429688 13.972219 C 17.46875 13.972219 17.527344 13.972219 17.566406 13.972219 C 17.605469 13.972219 17.667969 13.972219 17.703125 13.972219 C 17.742188 13.972219 17.804688 13.972219 17.84375 13.972219 C 17.878906 13.972219 17.941406 13.972219 17.980469 13.972219 C 18.019531 13.972219 18.078125 13.972219 18.117188 13.972219 C 18.15625 13.972219 18.214844 13.972219 18.253906 13.972219 C 18.292969 13.972219 18.355469 13.972219 18.390625 13.972219 C 18.429688 13.972219 18.492188 13.972219 18.53125 13.972219 C 18.570312 13.972219 18.628906 13.972219 18.667969 13.972219 C 18.707031 13.972219 18.765625 13.972219 18.804688 13.972219 C 18.84375 13.972219 18.90625 13.972219 18.941406 13.972219 C 18.980469 13.972219 19.042969 13.972219 19.082031 13.972219 C 19.117188 13.972219 19.179688 13.972219 19.21875 13.972219 C 19.257812 13.972219 19.316406 13.972219 19.355469 13.972219 C 19.394531 13.972219 19.457031 13.972219 19.492188 13.972219 C 19.53125 13.972219 19.59375 13.972219 19.632812 13.972219 C 19.667969 13.972219 19.730469 13.972219 19.769531 13.972219 C 19.808594 13.972219 19.867188 13.972219 19.90625 13.972219 C 19.945312 13.972219 20.007812 13.972219 20.042969 13.972219 C 20.082031 13.972219 20.144531 13.972219 20.183594 13.972219 C 20.21875 13.972219 20.28125 13.972219 20.320312 13.972219 C 20.359375 13.972219 20.417969 13.972219 20.457031 13.972219 C 20.496094 13.972219 20.554688 13.972219 20.59375 13.972219 C 20.632812 13.972219 20.695312 13.972219 20.730469 13.972219 C 20.769531 13.972219 20.832031 13.972219 20.871094 13.972219 C 20.90625 13.972219 20.96875 13.972219 21.007812 13.972219 C 21.046875 13.972219 21.105469 13.972219 21.144531 13.972219 C 21.183594 13.972219 21.246094 13.972219 21.28125 13.972219 C 21.320312 13.972219 21.382812 13.972219 21.421875 13.972219 C 21.457031 13.972219 21.519531 13.972219 21.558594 13.972219 C 21.597656 13.972219 21.65625 13.972219 21.695312 13.972219 C 21.734375 13.972219 21.796875 13.972219 21.832031 13.972219 C 21.871094 13.972219 21.933594 13.972219 21.972656 13.972219 C 22.007812 13.972219 22.070312 13.972219 22.109375 13.972219 C 22.148438 13.972219 22.207031 13.972219 22.246094 13.972219 C 22.285156 13.972219 22.347656 13.972219 22.382812 13.972219 C 22.421875 13.972219 22.484375 13.972219 22.523438 13.972219 C 22.558594 13.972219 22.621094 13.972219 22.660156 13.972219 C 22.699219 13.972219 22.757812 13.972219 22.796875 13.972219 C 22.835938 13.972219 22.894531 13.972219 22.933594 13.972219 C 22.972656 13.972219 23.035156 13.972219 23.070312 13.972219 C 23.109375 13.972219 23.171875 13.972219 23.210938 13.972219 C 23.246094 13.972219 23.308594 13.972219 23.347656 13.972219 C 23.386719 13.972219 23.445312 13.972219 23.484375 13.972219 C 23.523438 13.972219 23.585938 13.972219 23.621094 13.972219 C 23.660156 13.972219 23.722656 13.972219 23.761719 13.972219 C 23.796875 13.972219 23.859375 13.972219 23.898438 13.972219 C 23.9375 13.972219 23.996094 13.972219 24.035156 13.972219 C 24.074219 13.972219 24.136719 13.972219 24.171875 13.972219 C 24.210938 13.972219 24.273438 13.972219 24.3125 13.972219 C 24.347656 13.972219 24.410156 13.972219 24.449219 13.972219 C 24.488281 13.972219 24.546875 13.972219 24.585938 13.972219 C 24.625 13.972219 24.6875 13.972219 24.722656 13.972219 C 24.761719 13.972219 24.824219 13.972219 24.863281 13.972219 C 24.898438 13.972219 24.960938 13.972219 25 13.972219 C 25.039062 13.972219 25.097656 13.972219 25.136719 13.972219 C 25.175781 13.972219 25.234375 13.972219 25.273438 13.972219 C 25.3125 13.972219 25.375 13.972219 25.410156 13.972219 C 25.449219 13.972219 25.511719 13.972219 25.550781 13.972219 C 25.585938 13.972219 25.648438 13.972219 25.6875 13.972219 C 25.726562 13.972219 25.785156 13.972219 25.824219 13.972219 C 25.863281 13.972219 25.925781 13.972219 25.960938 13.972219 C 26 13.972219 26.0625 13.972219 26.101562 13.972219 C 26.136719 13.972219 26.199219 13.972219 26.238281 13.972219 C 26.277344 13.972219 26.335938 13.972219 26.375 13.972219 C 26.414062 13.972219 26.476562 13.972219 26.511719 13.972219 C 26.550781 13.972219 26.613281 13.972219 26.652344 13.972219 C 26.6875 13.972219 26.75 13.972219 26.789062 13.972219 C 26.828125 13.972219 26.886719 13.972219 26.925781 13.972219 C 26.964844 13.972219 27.027344 13.972219 27.0625 13.972219 C 27.101562 13.972219 27.164062 13.972219 27.203125 13.972219 C 27.238281 13.972219 27.300781 13.972219 27.339844 13.972219 C 27.378906 13.972219 27.4375 13.972219 27.476562 13.972219 C 27.515625 13.972219 27.574219 13.972219 27.613281 13.972219 C 27.652344 13.972219 27.714844 13.972219 27.75 13.972219 C 27.789062 13.972219 27.851562 13.972219 27.890625 13.972219 C 27.925781 13.972219 27.988281 13.972219 28.027344 13.972219 C 28.066406 13.972219 28.125 13.972219 28.164062 13.972219 C 28.203125 13.972219 28.265625 13.972219 28.300781 13.972219 C 28.339844 13.972219 28.402344 13.972219 28.441406 13.972219 C 28.476562 13.972219 28.539062 13.972219 28.578125 13.972219 C 28.617188 13.972219 28.675781 13.972219 28.714844 13.972219 C 28.753906 13.972219 28.816406 13.972219 28.851562 13.972219 C 28.890625 13.972219 28.953125 13.972219 28.992188 13.972219 C 29.027344 13.972219 29.089844 13.972219 29.128906 13.972219 C 29.167969 13.972219 29.226562 13.972219 29.265625 13.972219 C 29.304688 13.972219 29.367188 13.972219 29.402344 13.972219 C 29.441406 13.972219 29.503906 13.972219 29.542969 13.972219 C 29.578125 13.972219 29.640625 13.972219 29.679688 13.972219 C 29.71875 13.972219 29.796875 13.972219 29.816406 13.972219 C 29.835938 13.972219 29.628906 13.972219 29.816406 13.972219 C 30.003906 13.972219 30.800781 13.9605 31.175781 13.980031 C 31.554688 13.999562 32.160156 14.023 32.535156 14.112844 C 32.914062 14.202687 33.519531 14.405812 33.894531 14.620656 C 34.273438 14.831594 34.878906 15.288625 35.257812 15.651906 C 35.632812 16.015187 36.238281 16.726125 36.617188 17.237844 C 36.992188 17.745656 37.597656 18.687062 37.976562 19.319875 C 38.355469 19.956594 38.960938 21.081594 39.335938 21.815969 C 39.714844 22.550344 40.320312 23.808156 40.695312 24.612844 C 41.074219 25.417531 41.679688 26.769094 42.054688 27.61675 C 42.433594 28.468312 43.039062 29.86675 43.417969 30.737844 C 43.792969 31.608937 44.398438 33.026906 44.777344 33.901906 C 45.152344 34.776906 45.757812 36.183156 46.136719 37.042531 C 46.515625 37.905812 47.121094 39.276906 47.496094 40.11675 C 47.875 40.952687 48.480469 42.276906 48.855469 43.077687 C 49.234375 43.882375 49.839844 45.140187 50.214844 45.901906 C 50.59375 46.663625 51.199219 47.851125 51.578125 48.565969 C 51.953125 49.276906 52.558594 50.386281 52.9375 51.050344 C 53.3125 51.714406 53.917969 52.737844 54.296875 53.347219 C 54.675781 53.956594 55.28125 54.894094 55.65625 55.448781 C 56.035156 56.007375 56.640625 56.855031 57.015625 57.358937 C 57.394531 57.858937 58 58.620656 58.375 59.069875 C 58.753906 59.519094 59.359375 60.194875 59.738281 60.589406 C 60.113281 60.983937 60.71875 61.573781 61.097656 61.913625 C 61.472656 62.257375 62.078125 62.765187 62.457031 63.058156 C 62.835938 63.351125 63.4375 63.776906 63.816406 64.023 C 64.195312 64.265187 64.800781 64.61675 65.175781 64.812062 C 65.554688 65.011281 66.160156 65.288625 66.535156 65.440969 C 66.914062 65.593312 67.519531 65.800344 67.898438 65.913625 C 68.273438 66.023 68.878906 66.163625 69.257812 66.233937 C 69.632812 66.30425 70.238281 66.382375 70.617188 66.417531 C 70.996094 66.448781 71.597656 66.468312 71.976562 66.464406 C 72.355469 66.4605 72.960938 66.42925 73.335938 66.390187 C 73.714844 66.355031 74.320312 66.269094 74.695312 66.198781 C 75.074219 66.132375 75.679688 65.999562 76.058594 65.901906 C 76.433594 65.80425 77.039062 65.628469 77.417969 65.503469 C 77.792969 65.382375 78.398438 65.163625 78.777344 65.015187 C 79.15625 64.870656 79.757812 64.612844 80.136719 64.444875 C 80.515625 64.276906 81.121094 63.987844 81.496094 63.796437 C 81.875 63.608937 82.480469 63.292531 82.855469 63.0855 C 83.234375 62.878469 83.839844 62.534719 84.21875 62.312062 C 84.59375 62.093312 85.199219 61.726125 85.578125 61.49175 C 85.953125 61.257375 86.558594 60.870656 86.9375 60.628469 C 87.316406 60.382375 87.917969 59.983937 88.296875 59.730031 C 88.675781 59.476125 89.28125 59.065969 89.65625 58.808156 C 90.035156 58.550344 90.640625 58.132375 91.015625 57.874562 C 91.394531 57.612844 92 57.190969 92.378906 56.92925 C 92.753906 56.671437 93.359375 56.253469 93.738281 55.99175 C 94.113281 55.733937 94.71875 55.323781 95.097656 55.069875 C 95.472656 54.819875 96.078125 54.417531 96.457031 54.175344 C 96.835938 53.933156 97.441406 53.550344 97.816406 53.315969 C 98.195312 53.0855 98.800781 52.726125 99.175781 52.511281 C 99.554688 52.296437 100.160156 51.9605 100.539062 51.765187 C 100.914062 51.569875 101.519531 51.273 101.898438 51.101125 C 102.273438 50.92925 102.878906 50.671437 103.257812 50.530812 C 103.632812 50.386281 104.238281 50.17925 104.617188 50.069875 C 104.996094 49.956594 105.601562 49.808156 105.976562 49.733937 C 106.355469 49.663625 106.960938 49.573781 107.335938 49.546437 C 107.714844 49.519094 108.320312 49.507375 108.699219 49.526906 C 109.074219 49.546437 109.679688 49.61675 110.058594 49.690969 C 110.433594 49.769094 111.039062 49.933156 111.417969 50.069875 C 111.792969 50.206594 112.398438 50.476125 112.777344 50.683156 C 113.15625 50.886281 113.761719 51.269094 114.136719 51.550344 C 114.515625 51.831594 115.121094 52.343312 115.496094 52.706594 C 115.875 53.073781 116.480469 53.722219 116.859375 54.175344 C 117.234375 54.628469 117.839844 55.42925 118.21875 55.983937 C 118.59375 56.534719 119.199219 57.499562 119.578125 58.155812 C 119.953125 58.812062 120.558594 59.948781 120.9375 60.718312 C 121.316406 61.487844 121.921875 62.812062 122.296875 63.702687 C 122.675781 64.589406 123.28125 66.108937 123.65625 67.124562 C 124.035156 68.136281 124.640625 69.858937 125.015625 70.999562 C 125.394531 72.144094 126 74.077687 126.378906 75.351125 C 126.753906 76.624562 127.359375 78.769094 127.738281 80.175344 C 128.113281 81.577687 128.71875 83.937062 129.097656 85.472219 C 129.476562 87.003469 130.082031 89.565969 130.457031 91.222219 C 130.835938 92.874562 131.441406 95.628469 131.816406 97.390187 C 132.195312 99.151906 132.800781 102.073781 133.175781 103.925344 C 133.554688 105.780812 134.160156 108.831594 134.539062 110.749562 C 134.914062 112.667531 135.519531 115.80425 135.898438 117.753469 C 136.273438 119.698781 136.878906 122.855031 137.257812 124.784719 C 137.636719 126.714406 138.242188 129.808156 138.617188 131.663625 C 138.996094 133.519094 139.601562 136.448781 139.976562 138.155812 C 140.355469 139.862844 140.960938 142.495656 141.335938 143.968312 C 141.714844 145.440969 142.320312 147.628469 142.699219 148.765187 C 143.074219 149.898 143.679688 151.464406 144.058594 152.148 C 144.433594 152.827687 145.039062 153.577687 145.417969 153.67925 C 145.796875 153.780812 146.402344 153.49175 146.777344 152.886281 C 147.15625 152.280812 147.761719 150.74175 148.136719 149.30425 C 148.515625 147.86675 149.121094 144.886281 149.496094 142.519094 C 149.875 140.151906 150.480469 135.5855 150.859375 132.245656 C 151.234375 128.901906 151.839844 122.714406 152.21875 118.440969 C 152.59375 114.167531 153.199219 106.480031 153.578125 101.440969 C 153.957031 96.398 154.5625 87.5855 154.9375 82.105031 C 155.316406 76.624562 155.921875 67.355031 156.296875 61.940969 C 156.675781 56.526906 157.28125 47.800344 157.65625 43.089406 C 158.035156 38.374562 158.640625 31.390187 159.019531 27.980031 C 159.394531 24.565969 160 20.3355 160.378906 18.483937 C 160.753906 16.628469 161.359375 15.245656 161.738281 14.620656 C 162.117188 13.995656 162.71875 14.069875 163.097656 13.980031 C 163.476562 13.890187 164.269531 13.972219 164.457031 13.972219 C 164.648438 13.968312 164.4375 13.972219 164.457031 13.972219 C 164.476562 13.972219 164.558594 13.972219 164.59375 13.972219 C 164.632812 13.972219 164.695312 13.972219 164.734375 13.972219 C 164.773438 13.972219 164.832031 13.972219 164.871094 13.972219 C 164.910156 13.972219 164.96875 13.972219 165.007812 13.972219 C 165.046875 13.972219 165.109375 13.972219 165.144531 13.972219 C 165.183594 13.972219 165.246094 13.972219 165.285156 13.972219 C 165.320312 13.972219 165.382812 13.972219 165.421875 13.972219 C 165.460938 13.972219 165.519531 13.972219 165.558594 13.972219 C 165.597656 13.972219 165.660156 13.972219 165.695312 13.972219 C 165.734375 13.972219 165.796875 13.972219 165.835938 13.972219 C 165.871094 13.972219 165.933594 13.972219 165.972656 13.972219 C 166.011719 13.972219 166.070312 13.972219 166.109375 13.972219 C 166.148438 13.972219 166.210938 13.972219 166.246094 13.972219 C 166.285156 13.972219 166.347656 13.972219 166.386719 13.972219 C 166.421875 13.972219 166.484375 13.972219 166.523438 13.972219 C 166.5625 13.972219 166.621094 13.972219 166.660156 13.972219 C 166.699219 13.972219 166.757812 13.972219 166.796875 13.972219 C 166.835938 13.972219 166.898438 13.972219 166.933594 13.972219 C 166.972656 13.972219 167.035156 13.972219 167.074219 13.972219 C 167.113281 13.972219 167.171875 13.972219 167.210938 13.972219 C 167.25 13.972219 167.308594 13.972219 167.347656 13.972219 C 167.386719 13.972219 167.449219 13.972219 167.484375 13.972219 C 167.523438 13.972219 167.585938 13.972219 167.625 13.972219 C 167.660156 13.972219 167.722656 13.972219 167.761719 13.972219 C 167.800781 13.972219 167.859375 13.972219 167.898438 13.972219 C 167.9375 13.972219 168 13.972219 168.035156 13.972219 C 168.074219 13.972219 168.136719 13.972219 168.175781 13.972219 C 168.210938 13.972219 168.273438 13.972219 168.3125 13.972219 C 168.351562 13.972219 168.410156 13.972219 168.449219 13.972219 C 168.488281 13.972219 168.550781 13.972219 168.585938 13.972219 C 168.625 13.972219 168.6875 13.972219 168.726562 13.972219 C 168.761719 13.972219 168.824219 13.972219 168.863281 13.972219 C 168.902344 13.972219 168.960938 13.972219 169 13.972219 C 169.039062 13.972219 169.097656 13.972219 169.136719 13.972219 C 169.175781 13.972219 169.238281 13.972219 169.273438 13.972219 C 169.3125 13.972219 169.375 13.972219 169.414062 13.972219 C 169.449219 13.972219 169.511719 13.972219 169.550781 13.972219 C 169.589844 13.972219 169.648438 13.972219 169.6875 13.972219 C 169.726562 13.972219 169.789062 13.972219 169.824219 13.972219 C 169.863281 13.972219 169.925781 13.972219 169.964844 13.972219 C 170 13.972219 170.0625 13.972219 170.101562 13.972219 C 170.140625 13.972219 170.199219 13.972219 170.238281 13.972219 C 170.277344 13.972219 170.339844 13.972219 170.375 13.972219 C 170.414062 13.972219 170.476562 13.972219 170.515625 13.972219 C 170.550781 13.972219 170.613281 13.972219 170.652344 13.972219 C 170.691406 13.972219 170.75 13.972219 170.789062 13.972219 C 170.828125 13.972219 170.890625 13.972219 170.925781 13.972219 C 170.964844 13.972219 171.027344 13.972219 171.066406 13.972219 C 171.101562 13.972219 171.164062 13.972219 171.203125 13.972219 C 171.242188 13.972219 171.300781 13.972219 171.339844 13.972219 C 171.378906 13.972219 171.4375 13.972219 171.476562 13.972219 C 171.515625 13.972219 171.578125 13.972219 171.613281 13.972219 C 171.652344 13.972219 171.714844 13.972219 171.753906 13.972219 C 171.789062 13.972219 171.851562 13.972219 171.890625 13.972219 C 171.929688 13.972219 171.988281 13.972219 172.027344 13.972219 C 172.066406 13.972219 172.128906 13.972219 172.164062 13.972219 C 172.203125 13.972219 172.265625 13.972219 172.304688 13.972219 C 172.339844 13.972219 172.402344 13.972219 172.441406 13.972219 C 172.480469 13.972219 172.539062 13.972219 172.578125 13.972219 C 172.617188 13.972219 172.679688 13.972219 172.714844 13.972219 C 172.753906 13.972219 172.816406 13.972219 172.855469 13.972219 C 172.890625 13.972219 172.953125 13.972219 172.992188 13.972219 C 173.03125 13.972219 173.089844 13.972219 173.128906 13.972219 C 173.167969 13.972219 173.230469 13.972219 173.265625 13.972219 C 173.304688 13.972219 173.367188 13.972219 173.40625 13.972219 C 173.441406 13.972219 173.503906 13.972219 173.542969 13.972219 C 173.582031 13.972219 173.640625 13.972219 173.679688 13.972219 C 173.71875 13.972219 173.777344 13.972219 173.816406 13.972219 C 173.855469 13.972219 173.917969 13.972219 173.953125 13.972219 C 173.992188 13.972219 174.054688 13.972219 174.09375 13.972219 C 174.128906 13.972219 174.191406 13.972219 174.230469 13.972219 C 174.269531 13.972219 174.328125 13.972219 174.367188 13.972219 C 174.40625 13.972219 174.46875 13.972219 174.503906 13.972219 C 174.542969 13.972219 174.605469 13.972219 174.644531 13.972219 C 174.679688 13.972219 174.742188 13.972219 174.78125 13.972219 C 174.820312 13.972219 174.878906 13.972219 174.917969 13.972219 C 174.957031 13.972219 175.019531 13.972219 175.054688 13.972219 C 175.09375 13.972219 175.15625 13.972219 175.195312 13.972219 C 175.230469 13.972219 175.292969 13.972219 175.332031 13.972219 C 175.371094 13.972219 175.429688 13.972219 175.46875 13.972219 C 175.507812 13.972219 175.570312 13.972219 175.605469 13.972219 C 175.644531 13.972219 175.707031 13.972219 175.746094 13.972219 C 175.78125 13.972219 175.84375 13.972219 175.882812 13.972219 C 175.921875 13.972219 175.980469 13.972219 176.019531 13.972219 C 176.058594 13.972219 176.117188 13.972219 176.15625 13.972219 C 176.195312 13.972219 176.257812 13.972219 176.292969 13.972219 C 176.332031 13.972219 176.394531 13.972219 176.433594 13.972219 C 176.46875 13.972219 176.53125 13.972219 176.570312 13.972219 C 176.609375 13.972219 176.667969 13.972219 176.707031 13.972219 C 176.746094 13.972219 176.808594 13.972219 176.84375 13.972219 C 176.882812 13.972219 176.945312 13.972219 176.984375 13.972219 C 177.019531 13.972219 177.082031 13.972219 177.121094 13.972219 C 177.160156 13.972219 177.21875 13.972219 177.257812 13.972219 C 177.296875 13.972219 177.359375 13.972219 177.394531 13.972219 C 177.433594 13.972219 177.496094 13.972219 177.535156 13.972219 C 177.570312 13.972219 177.632812 13.972219 177.671875 13.972219 C 177.710938 13.972219 177.769531 13.972219 177.808594 13.972219 C 177.847656 13.972219 177.910156 13.972219 177.945312 13.972219 C 177.984375 13.972219 178.085938 13.972219 178.085938 13.972219 " transform="matrix(1,0,0,-1,0,167.648)"/>
<g clip-path="url(#clip1)" clip-rule="nonzero">
<path style="fill:none;stroke-width:1.19553;stroke-linecap:butt;stroke-linejoin:miter;stroke:rgb(86.665344%,51.763916%,32.154846%);stroke-opacity:1;stroke-miterlimit:10;" d="M 16.191406 13.972219 C 16.191406 13.972219 16.289062 13.972219 16.328125 13.972219 C 16.367188 13.972219 16.425781 13.972219 16.464844 13.972219 C 16.503906 13.972219 16.566406 13.972219 16.601562 13.972219 C 16.640625 13.972219 16.703125 13.972219 16.742188 13.972219 C 16.777344 13.972219 16.839844 13.972219 16.878906 13.972219 C 16.917969 13.972219 16.976562 13.972219 17.015625 13.972219 C 17.054688 13.972219 17.117188 13.972219 17.152344 13.972219 C 17.191406 13.972219 17.253906 13.972219 17.292969 13.972219 C 17.328125 13.972219 17.390625 13.972219 17.429688 13.972219 C 17.46875 13.972219 17.527344 13.972219 17.566406 13.972219 C 17.605469 13.972219 17.667969 13.972219 17.703125 13.972219 C 17.742188 13.972219 17.804688 13.972219 17.84375 13.972219 C 17.878906 13.972219 17.941406 13.972219 17.980469 13.972219 C 18.019531 13.972219 18.078125 13.972219 18.117188 13.972219 C 18.15625 13.972219 18.214844 13.972219 18.253906 13.972219 C 18.292969 13.972219 18.355469 13.972219 18.390625 13.972219 C 18.429688 13.972219 18.492188 13.972219 18.53125 13.972219 C 18.570312 13.972219 18.628906 13.972219 18.667969 13.972219 C 18.707031 13.972219 18.765625 13.972219 18.804688 13.972219 C 18.84375 13.972219 18.90625 13.972219 18.941406 13.972219 C 18.980469 13.972219 19.042969 13.972219 19.082031 13.972219 C 19.117188 13.972219 19.179688 13.972219 19.21875 13.972219 C 19.257812 13.972219 19.316406 13.972219 19.355469 13.972219 C 19.394531 13.972219 19.457031 13.972219 19.492188 13.972219 C 19.53125 13.972219 19.59375 13.972219 19.632812 13.972219 C 19.667969 13.972219 19.730469 13.972219 19.769531 13.972219 C 19.808594 13.972219 19.867188 13.972219 19.90625 13.972219 C 19.945312 13.972219 20.007812 13.972219 20.042969 13.972219 C 20.082031 13.972219 20.144531 13.972219 20.183594 13.972219 C 20.21875 13.972219 20.28125 13.972219 20.320312 13.972219 C 20.359375 13.972219 20.417969 13.972219 20.457031 13.972219 C 20.496094 13.972219 20.554688 13.972219 20.59375 13.972219 C 20.632812 13.972219 20.695312 13.972219 20.730469 13.972219 C 20.769531 13.972219 20.832031 13.972219 20.871094 13.972219 C 20.90625 13.972219 20.96875 13.972219 21.007812 13.972219 C 21.046875 13.972219 21.105469 13.972219 21.144531 13.972219 C 21.183594 13.972219 21.246094 13.972219 21.28125 13.972219 C 21.320312 13.972219 21.382812 13.972219 21.421875 13.972219 C 21.457031 13.972219 21.519531 13.972219 21.558594 13.972219 C 21.597656 13.972219 21.65625 13.972219 21.695312 13.972219 C 21.734375 13.972219 21.796875 13.972219 21.832031 13.972219 C 21.871094 13.972219 21.933594 13.972219 21.972656 13.972219 C 22.007812 13.972219 22.070312 13.972219 22.109375 13.972219 C 22.148438 13.972219 22.207031 13.972219 22.246094 13.972219 C 22.285156 13.972219 22.347656 13.972219 22.382812 13.972219 C 22.421875 13.972219 22.484375 13.972219 22.523438 13.972219 C 22.558594 13.972219 22.621094 13.972219 22.660156 13.972219 C 22.699219 13.972219 22.757812 13.972219 22.796875 13.972219 C 22.835938 13.972219 22.894531 13.972219 22.933594 13.972219 C 22.972656 13.972219 23.035156 13.972219 23.070312 13.972219 C 23.109375 13.972219 23.171875 13.972219 23.210938 13.972219 C 23.246094 13.972219 23.308594 13.972219 23.347656 13.972219 C 23.386719 13.972219 23.445312 13.972219 23.484375 13.972219 C 23.523438 13.972219 23.585938 13.972219 23.621094 13.972219 C 23.660156 13.972219 23.722656 13.972219 23.761719 13.972219 C 23.796875 13.972219 23.859375 13.972219 23.898438 13.972219 C 23.9375 13.972219 23.996094 13.972219 24.035156 13.972219 C 24.074219 13.972219 24.136719 13.972219 24.171875 13.972219 C 24.210938 13.972219 24.273438 13.972219 24.3125 13.972219 C 24.347656 13.972219 24.410156 13.972219 24.449219 13.972219 C 24.488281 13.972219 24.546875 13.972219 24.585938 13.972219 C 24.625 13.972219 24.6875 13.972219 24.722656 13.972219 C 24.761719 13.972219 24.824219 13.972219 24.863281 13.972219 C 24.898438 13.972219 24.960938 13.972219 25 13.972219 C 25.039062 13.972219 25.097656 13.972219 25.136719 13.972219 C 25.175781 13.972219 25.234375 13.972219 25.273438 13.972219 C 25.3125 13.972219 25.375 13.972219 25.410156 13.972219 C 25.449219 13.972219 25.511719 13.972219 25.550781 13.972219 C 25.585938 13.972219 25.648438 13.972219 25.6875 13.972219 C 25.726562 13.972219 25.785156 13.972219 25.824219 13.972219 C 25.863281 13.972219 25.925781 13.972219 25.960938 13.972219 C 26 13.972219 26.0625 13.972219 26.101562 13.972219 C 26.136719 13.972219 26.199219 13.972219 26.238281 13.972219 C 26.277344 13.972219 26.335938 13.972219 26.375 13.972219 C 26.414062 13.972219 26.476562 13.972219 26.511719 13.972219 C 26.550781 13.972219 26.613281 13.972219 26.652344 13.972219 C 26.6875 13.972219 26.75 13.972219 26.789062 13.972219 C 26.828125 13.972219 26.886719 13.972219 26.925781 13.972219 C 26.964844 13.972219 27.027344 13.972219 27.0625 13.972219 C 27.101562 13.972219 27.164062 13.972219 27.203125 13.972219 C 27.238281 13.972219 27.300781 13.972219 27.339844 13.972219 C 27.378906 13.972219 27.4375 13.972219 27.476562 13.972219 C 27.515625 13.972219 27.574219 13.972219 27.613281 13.972219 C 27.652344 13.972219 27.714844 13.972219 27.75 13.972219 C 27.789062 13.972219 27.851562 13.972219 27.890625 13.972219 C 27.925781 13.972219 27.988281 13.972219 28.027344 13.972219 C 28.066406 13.972219 28.125 13.972219 28.164062 13.972219 C 28.203125 13.972219 28.265625 13.972219 28.300781 13.972219 C 28.339844 13.972219 28.402344 13.972219 28.441406 13.972219 C 28.476562 13.972219 28.539062 13.972219 28.578125 13.972219 C 28.617188 13.972219 28.675781 13.972219 28.714844 13.972219 C 28.753906 13.972219 28.816406 13.972219 28.851562 13.972219 C 28.890625 13.972219 28.953125 13.972219 28.992188 13.972219 C 29.027344 13.972219 29.089844 13.972219 29.128906 13.972219 C 29.167969 13.972219 29.226562 13.972219 29.265625 13.972219 C 29.304688 13.972219 29.367188 13.972219 29.402344 13.972219 C 29.441406 13.972219 29.503906 13.972219 29.542969 13.972219 C 29.578125 13.972219 29.640625 13.972219 29.679688 13.972219 C 29.71875 13.972219 29.796875 13.972219 29.816406 13.972219 C 29.835938 13.972219 29.628906 13.972219 29.816406 13.972219 C 30.003906 13.972219 30.800781 13.968312 31.175781 13.972219 C 31.554688 13.976125 32.160156 13.972219 32.535156 13.995656 C 32.914062 14.023 33.519531 14.069875 33.894531 14.155812 C 34.273438 14.24175 34.878906 14.42925 35.257812 14.61675 C 35.632812 14.80425 36.238281 15.194875 36.617188 15.515187 C 36.992188 15.8355 37.597656 16.464406 37.976562 16.925344 C 38.355469 17.390187 38.960938 18.253469 39.335938 18.855031 C 39.714844 19.456594 40.320312 20.538625 40.695312 21.261281 C 41.074219 21.987844 41.679688 23.249562 42.054688 24.077687 C 42.433594 24.901906 43.039062 26.312062 43.417969 27.214406 C 43.792969 28.120656 44.398438 29.632375 44.777344 30.5855 C 45.152344 31.542531 45.757812 33.11675 46.136719 34.101125 C 46.515625 35.0855 47.121094 36.690969 47.496094 37.683156 C 47.875 38.675344 48.480469 40.273 48.855469 41.253469 C 49.234375 42.233937 49.839844 43.800344 50.214844 44.753469 C 50.59375 45.706594 51.199219 47.218312 51.578125 48.132375 C 51.953125 49.046437 52.558594 50.480031 52.9375 51.343312 C 53.3125 52.2105 53.917969 53.55425 54.296875 54.362844 C 54.675781 55.167531 55.28125 56.413625 55.65625 57.155812 C 56.035156 57.898 56.640625 59.034719 57.015625 59.706594 C 57.394531 60.378469 58 61.401906 58.375 62.003469 C 58.753906 62.608937 59.359375 63.515187 59.738281 64.042531 C 60.113281 64.573781 60.71875 65.362844 61.097656 65.819875 C 61.472656 66.276906 62.078125 66.948781 62.457031 67.3355 C 62.835938 67.718312 63.4375 68.276906 63.816406 68.589406 C 64.195312 68.905812 64.800781 69.351125 65.175781 69.597219 C 65.554688 69.843312 66.160156 70.183156 66.535156 70.362844 C 66.914062 70.542531 67.519531 70.780812 67.898438 70.898 C 68.273438 71.015187 68.878906 71.155812 69.257812 71.214406 C 69.632812 71.273 70.238281 71.319875 70.617188 71.323781 C 70.996094 71.327687 71.597656 71.288625 71.976562 71.24175 C 72.355469 71.190969 72.960938 71.073781 73.335938 70.980031 C 73.714844 70.882375 74.320312 70.690969 74.695312 70.55425 C 75.074219 70.413625 75.679688 70.155812 76.058594 69.980031 C 76.433594 69.800344 77.039062 69.483937 77.417969 69.269094 C 77.792969 69.058156 78.398438 68.687062 78.777344 68.440969 C 79.15625 68.198781 79.757812 67.780812 80.136719 67.507375 C 80.515625 67.237844 81.121094 66.780812 81.496094 66.487844 C 81.875 66.190969 82.480469 65.702687 82.855469 65.390187 C 83.234375 65.073781 83.839844 64.558156 84.21875 64.230031 C 84.59375 63.901906 85.199219 63.362844 85.578125 63.026906 C 85.953125 62.687062 86.558594 62.136281 86.9375 61.788625 C 87.316406 61.444875 87.917969 60.886281 88.296875 60.534719 C 88.675781 60.187062 89.28125 59.628469 89.65625 59.280812 C 90.035156 58.933156 90.640625 58.374562 91.015625 58.034719 C 91.394531 57.690969 92 57.144094 92.378906 56.812062 C 92.753906 56.476125 93.359375 55.948781 93.738281 55.624562 C 94.113281 55.30425 94.71875 54.800344 95.097656 54.495656 C 95.472656 54.190969 96.078125 53.714406 96.457031 53.42925 C 96.835938 53.144094 97.441406 52.702687 97.816406 52.440969 C 98.195312 52.17925 98.800781 51.780812 99.175781 51.546437 C 99.554688 51.315969 100.160156 50.964406 100.539062 50.761281 C 100.914062 50.562062 101.519531 50.265187 101.898438 50.097219 C 102.273438 49.933156 102.878906 49.694875 103.257812 49.569875 C 103.632812 49.444875 104.238281 49.273 104.617188 49.190969 C 104.996094 49.108937 105.601562 49.011281 105.976562 48.980031 C 106.355469 48.944875 106.960938 48.92925 107.335938 48.944875 C 107.714844 48.964406 108.320312 49.030812 108.699219 49.105031 C 109.074219 49.17925 109.679688 49.343312 110.058594 49.476125 C 110.433594 49.608937 111.039062 49.870656 111.417969 50.069875 C 111.792969 50.269094 112.398438 50.636281 112.777344 50.901906 C 113.15625 51.171437 113.761719 51.651906 114.136719 51.99175 C 114.515625 52.331594 115.121094 52.933156 115.496094 53.347219 C 115.875 53.765187 116.480469 54.49175 116.859375 54.987844 C 117.234375 55.483937 117.839844 56.343312 118.21875 56.921437 C 118.59375 57.503469 119.199219 58.499562 119.578125 59.167531 C 119.953125 59.8355 120.558594 60.972219 120.9375 61.730031 C 121.316406 62.487844 121.921875 63.773 122.296875 64.624562 C 122.675781 65.472219 123.28125 66.909719 123.65625 67.851125 C 124.035156 68.796437 124.640625 70.382375 125.015625 71.421437 C 125.394531 72.456594 126 74.198781 126.378906 75.327687 C 126.753906 76.456594 127.359375 78.347219 127.738281 79.569875 C 128.113281 80.788625 128.71875 82.823781 129.097656 84.132375 C 129.476562 85.437062 130.082031 87.608937 130.457031 88.995656 C 130.835938 90.382375 131.441406 92.675344 131.816406 94.132375 C 132.195312 95.589406 132.800781 97.987844 133.175781 99.503469 C 133.554688 101.015187 134.160156 103.49175 134.539062 105.046437 C 134.914062 106.597219 135.519531 109.124562 135.898438 110.694875 C 136.273438 112.261281 136.878906 114.796437 137.257812 116.351125 C 137.636719 117.901906 138.242188 120.394094 138.617188 121.898 C 138.996094 123.401906 139.601562 125.780812 139.976562 127.187062 C 140.355469 128.597219 140.960938 130.788625 141.335938 132.046437 C 141.714844 133.30425 142.320312 135.214406 142.699219 136.257375 C 143.074219 137.296437 143.679688 138.812062 144.058594 139.562062 C 144.433594 140.312062 145.039062 141.296437 145.417969 141.667531 C 145.796875 142.038625 146.402344 142.347219 146.777344 142.24175 C 147.15625 142.136281 147.761719 141.597219 148.136719 140.913625 C 148.515625 140.230031 149.121094 138.675344 149.496094 137.30425 C 149.875 135.937062 150.480469 133.194875 150.859375 131.050344 C 151.234375 128.901906 151.839844 124.827687 152.21875 121.843312 C 152.59375 118.858937 153.199219 113.36675 153.578125 109.542531 C 153.957031 105.718312 154.5625 98.843312 154.9375 94.273 C 155.316406 89.702687 155.921875 81.671437 156.296875 76.605031 C 156.675781 71.538625 157.28125 62.870656 157.65625 57.753469 C 158.035156 52.640187 158.640625 44.249562 159.019531 39.737844 C 159.394531 35.222219 160 28.425344 160.378906 25.226125 C 160.753906 22.023 161.359375 18.206594 161.738281 16.663625 C 162.117188 15.120656 162.71875 14.468312 163.097656 14.093312 C 163.476562 13.722219 164.269531 13.987844 164.457031 13.972219 C 164.648438 13.952687 164.4375 13.972219 164.457031 13.972219 C 164.476562 13.972219 164.558594 13.972219 164.59375 13.972219 C 164.632812 13.972219 164.695312 13.972219 164.734375 13.972219 C 164.773438 13.972219 164.832031 13.972219 164.871094 13.972219 C 164.910156 13.972219 164.96875 13.972219 165.007812 13.972219 C 165.046875 13.972219 165.109375 13.972219 165.144531 13.972219 C 165.183594 13.972219 165.246094 13.972219 165.285156 13.972219 C 165.320312 13.972219 165.382812 13.972219 165.421875 13.972219 C 165.460938 13.972219 165.519531 13.972219 165.558594 13.972219 C 165.597656 13.972219 165.660156 13.972219 165.695312 13.972219 C 165.734375 13.972219 165.796875 13.972219 165.835938 13.972219 C 165.871094 13.972219 165.933594 13.972219 165.972656 13.972219 C 166.011719 13.972219 166.070312 13.972219 166.109375 13.972219 C 166.148438 13.972219 166.210938 13.972219 166.246094 13.972219 C 166.285156 13.972219 166.347656 13.972219 166.386719 13.972219 C 166.421875 13.972219 166.484375 13.972219 166.523438 13.972219 C 166.5625 13.972219 166.621094 13.972219 166.660156 13.972219 C 166.699219 13.972219 166.757812 13.972219 166.796875 13.972219 C 166.835938 13.972219 166.898438 13.972219 166.933594 13.972219 C 166.972656 13.972219 167.035156 13.972219 167.074219 13.972219 C 167.113281 13.972219 167.171875 13.972219 167.210938 13.972219 C 167.25 13.972219 167.308594 13.972219 167.347656 13.972219 C 167.386719 13.972219 167.449219 13.972219 167.484375 13.972219 C 167.523438 13.972219 167.585938 13.972219 167.625 13.972219 C 167.660156 13.972219 167.722656 13.972219 167.761719 13.972219 C 167.800781 13.972219 167.859375 13.972219 167.898438 13.972219 C 167.9375 13.972219 168 13.972219 168.035156 13.972219 C 168.074219 13.972219 168.136719 13.972219 168.175781 13.972219 C 168.210938 13.972219 168.273438 13.972219 168.3125 13.972219 C 168.351562 13.972219 168.410156 13.972219 168.449219 13.972219 C 168.488281 13.972219 168.550781 13.972219 168.585938 13.972219 C 168.625 13.972219 168.6875 13.972219 168.726562 13.972219 C 168.761719 13.972219 168.824219 13.972219 168.863281 13.972219 C 168.902344 13.972219 168.960938 13.972219 169 13.972219 C 169.039062 13.972219 169.097656 13.972219 169.136719 13.972219 C 169.175781 13.972219 169.238281 13.972219 169.273438 13.972219 C 169.3125 13.972219 169.375 13.972219 169.414062 13.972219 C 169.449219 13.972219 169.511719 13.972219 169.550781 13.972219 C 169.589844 13.972219 169.648438 13.972219 169.6875 13.972219 C 169.726562 13.972219 169.789062 13.972219 169.824219 13.972219 C 169.863281 13.972219 169.925781 13.972219 169.964844 13.972219 C 170 13.972219 170.0625 13.972219 170.101562 13.972219 C 170.140625 13.972219 170.199219 13.972219 170.238281 13.972219 C 170.277344 13.972219 170.339844 13.972219 170.375 13.972219 C 170.414062 13.972219 170.476562 13.972219 170.515625 13.972219 C 170.550781 13.972219 170.613281 13.972219 170.652344 13.972219 C 170.691406 13.972219 170.75 13.972219 170.789062 13.972219 C 170.828125 13.972219 170.890625 13.972219 170.925781 13.972219 C 170.964844 13.972219 171.027344 13.972219 171.066406 13.972219 C 171.101562 13.972219 171.164062 13.972219 171.203125 13.972219 C 171.242188 13.972219 171.300781 13.972219 171.339844 13.972219 C 171.378906 13.972219 171.4375 13.972219 171.476562 13.972219 C 171.515625 13.972219 171.578125 13.972219 171.613281 13.972219 C 171.652344 13.972219 171.714844 13.972219 171.753906 13.972219 C 171.789062 13.972219 171.851562 13.972219 171.890625 13.972219 C 171.929688 13.972219 171.988281 13.972219 172.027344 13.972219 C 172.066406 13.972219 172.128906 13.972219 172.164062 13.972219 C 172.203125 13.972219 172.265625 13.972219 172.304688 13.972219 C 172.339844 13.972219 172.402344 13.972219 172.441406 13.972219 C 172.480469 13.972219 172.539062 13.972219 172.578125 13.972219 C 172.617188 13.972219 172.679688 13.972219 172.714844 13.972219 C 172.753906 13.972219 172.816406 13.972219 172.855469 13.972219 C 172.890625 13.972219 172.953125 13.972219 172.992188 13.972219 C 173.03125 13.972219 173.089844 13.972219 173.128906 13.972219 C 173.167969 13.972219 173.230469 13.972219 173.265625 13.972219 C 173.304688 13.972219 173.367188 13.972219 173.40625 13.972219 C 173.441406 13.972219 173.503906 13.972219 173.542969 13.972219 C 173.582031 13.972219 173.640625 13.972219 173.679688 13.972219 C 173.71875 13.972219 173.777344 13.972219 173.816406 13.972219 C 173.855469 13.972219 173.917969 13.972219 173.953125 13.972219 C 173.992188 13.972219 174.054688 13.972219 174.09375 13.972219 C 174.128906 13.972219 174.191406 13.972219 174.230469 13.972219 C 174.269531 13.972219 174.328125 13.972219 174.367188 13.972219 C 174.40625 13.972219 174.46875 13.972219 174.503906 13.972219 C 174.542969 13.972219 174.605469 13.972219 174.644531 13.972219 C 174.679688 13.972219 174.742188 13.972219 174.78125 13.972219 C 174.820312 13.972219 174.878906 13.972219 174.917969 13.972219 C 174.957031 13.972219 175.019531 13.972219 175.054688 13.972219 C 175.09375 13.972219 175.15625 13.972219 175.195312 13.972219 C 175.230469 13.972219 175.292969 13.972219 175.332031 13.972219 C 175.371094 13.972219 175.429688 13.972219 175.46875 13.972219 C 175.507812 13.972219 175.570312 13.972219 175.605469 13.972219 C 175.644531 13.972219 175.707031 13.972219 175.746094 13.972219 C 175.78125 13.972219 175.84375 13.972219 175.882812 13.972219 C 175.921875 13.972219 175.980469 13.972219 176.019531 13.972219 C 176.058594 13.972219 176.117188 13.972219 176.15625 13.972219 C 176.195312 13.972219 176.257812 13.972219 176.292969 13.972219 C 176.332031 13.972219 176.394531 13.972219 176.433594 13.972219 C 176.46875 13.972219 176.53125 13.972219 176.570312 13.972219 C 176.609375 13.972219 176.667969 13.972219 176.707031 13.972219 C 176.746094 13.972219 176.808594 13.972219 176.84375 13.972219 C 176.882812 13.972219 176.945312 13.972219 176.984375 13.972219 C 177.019531 13.972219 177.082031 13.972219 177.121094 13.972219 C 177.160156 13.972219 177.21875 13.972219 177.257812 13.972219 C 177.296875 13.972219 177.359375 13.972219 177.394531 13.972219 C 177.433594 13.972219 177.496094 13.972219 177.535156 13.972219 C 177.570312 13.972219 177.632812 13.972219 177.671875 13.972219 C 177.710938 13.972219 177.769531 13.972219 177.808594 13.972219 C 177.847656 13.972219 177.910156 13.972219 177.945312 13.972219 C 177.984375 13.972219 178.085938 13.972219 178.085938 13.972219 " transform="matrix(1,0,0,-1,0,167.648)"/>
</g>
</g>
</svg>
