<?xml version="1.0" standalone="no"?>
<!DOCTYPE svg PUBLIC "-//W3C//DTD SVG 20010904//EN"
 "http://www.w3.org/TR/2001/REC-SVG-20010904/DTD/svg10.dtd">
<svg version="1.0" xmlns="http://www.w3.org/2000/svg"
 width="700.000000pt" height="700.000000pt" viewBox="0 0 700.000000 700.000000"
 preserveAspectRatio="xMidYMid meet">
<metadata>
Created by potrace 1.11, written by Peter Selinger 2001-2013
</metadata>
<g transform="translate(0.000000,700.000000) scale(0.100000,-0.100000)"
fill="#000000" stroke="none">
<path d="M192 6327 l-192 -193 377 -377 c439 -437 464 -460 603 -579 298 -253
536 -351 905 -374 112 -7 3592 -12 3633 -5 l22 3 0 273 0 273 -1814 0 c-998 0
-1822 2 -1833 5 -10 3 -47 9 -83 12 -123 13 -249 67 -378 162 -121 89 -241
202 -649 608 -211 209 -386 381 -390 382 -5 2 -95 -84 -201 -190z"/>
<path d="M2704 3761 c-2 -2 -4 -126 -4 -275 l0 -271 2048 0 2047 0 0 275 0
275 -2043 0 c-1124 0 -2045 -2 -2048 -4z"/>
<path d="M1296 2693 l-197 -198 178 -174 c98 -95 225 -214 283 -264 58 -50
107 -93 110 -96 10 -12 150 -111 157 -111 4 0 14 -6 22 -14 28 -25 178 -96
258 -122 82 -27 186 -51 262 -60 25 -3 64 -8 86 -11 22 -3 616 -6 1320 -8
1360 -2 1401 -4 1547 -51 203 -65 284 -132 896 -739 211 -209 385 -382 388
-384 2 -2 92 84 199 192 l196 195 -325 324 c-408 406 -505 501 -636 614 -265
229 -483 335 -780 378 -114 16 -337 19 -1475 21 -926 2 -1280 5 -1335 14 -195
31 -325 98 -515 265 -95 83 -83 71 -282 269 l-160 157 -197 -197z"/>
</g>
</svg>
