<svg xmlns="http://www.w3.org/2000/svg" xmlns:xlink="http://www.w3.org/1999/xlink" viewBox="0 0 32 32"><defs><style>.a{clip-path:url(#b);}.b{fill:#0079af;}</style><clipPath id="b"><rect width="32" height="32"/></clipPath></defs><g id="a" class="a"><g transform="translate(0 2.171)"><path class="b" d="M25.324,12.4H9.477C6.1,12.4,5.1,11.392,2.154,8.449L0,6.295,1.795,4.5,3.949,6.654c2.8,2.8,3.231,3.231,5.528,3.231H25.324Z" transform="translate(0 -4.5)"/></g><g transform="translate(12.349 14.787)"><rect class="b" width="18.719" height="2.513"/></g><g transform="translate(5.025 18.788)"><path class="b" d="M32.18,34.628l-2.154-2.154c-2.8-2.8-3.231-3.231-5.6-3.231h-10.1c-3.374,0-4.379-1.005-7.323-3.949L8.795,23.5c2.8,2.8,3.231,3.231,5.6,3.231H24.5c3.374,0,4.379,1.005,7.323,3.949l2.154,2.154Z" transform="translate(-7 -23.5)"/></g></g></svg>