<svg xmlns="http://www.w3.org/2000/svg" xmlns:xlink="http://www.w3.org/1999/xlink" viewBox="0 0 33 33"><defs><style>.a{clip-path:url(#b);}.b,.e{fill:none;}.b{stroke:#c3c3c3;stroke-width:2px;}.c{fill:#0079af;}.d{stroke:none;}</style><clipPath id="b"><rect width="33" height="33"/></clipPath></defs><g id="a" class="a"><g class="b" transform="translate(1 1)"><circle class="d" cx="15.37" cy="15.37" r="15.37"/><circle class="e" cx="15.37" cy="15.37" r="14.37"/></g><path class="c" d="M1.413,0,9.891,8.482A1.275,1.275,0,0,1,8.478,9.9H2.826A2.826,2.826,0,0,1,0,7.069V1.417A1.275,1.275,0,0,1,1.413,0Z" transform="translate(14.795 23.136) rotate(-135)"/><path class="c" d="M1.413,0,9.891,8.482A1.275,1.275,0,0,1,8.478,9.9H2.826A2.826,2.826,0,0,1,0,7.069V1.417A1.275,1.275,0,0,1,1.413,0Z" transform="translate(14.795 23.136) rotate(-135)"/></g></svg>