<svg xmlns="http://www.w3.org/2000/svg" xmlns:xlink="http://www.w3.org/1999/xlink" viewBox="0 0 33 33"><defs><style>.a{clip-path:url(#b);}.b{fill:none;}.c{fill:#ff3100;}.d,.e{stroke:none;}.e{fill:#c3c3c3;}</style><clipPath id="b"><rect width="33" height="33"/></clipPath></defs><g id="a" class="a"><g class="b" transform="translate(3)"><path class="d" d="M5.652,0H18.37l8.478,8.478v18.37A5.652,5.652,0,0,1,21.2,32.5H5.652A5.652,5.652,0,0,1,0,26.848V5.652A5.652,5.652,0,0,1,5.652,0Z"/><path class="e" d="M 21.19565391540527 30.5 C 23.20946311950684 30.5 24.84782218933105 28.86164093017578 24.84782218933105 26.84782981872559 L 24.84782218933105 9.306679725646973 L 17.5411434173584 2 L 5.652173042297363 2 C 3.638362884521484 2 2.000003099441528 3.638360023498535 2.000003099441528 5.652170181274414 L 2.000003099441528 26.84782981872559 C 2.000003099441528 28.86164093017578 3.638362884521484 30.5 5.652173042297363 30.5 L 21.19565391540527 30.5 M 21.19565391540527 32.5 L 5.652173042297363 32.5 C 2.530563116073608 32.5 3.002014182129642e-06 29.96944046020508 3.002014182129642e-06 26.84782981872559 L 3.002014182129642e-06 5.652170181274414 C 3.002014182129642e-06 2.530570030212402 2.530563116073608 0 5.652173042297363 0 L 18.36956214904785 0 L 26.84782218933105 8.478260040283203 L 26.84782218933105 26.84782981872559 C 26.84782218933105 29.96944046020508 24.31726264953613 32.5 21.19565391540527 32.5 Z"/></g><path class="c" d="M1.413,1,9.891,9.479a1.275,1.275,0,0,1-1.413,1.413H2.826A2.826,2.826,0,0,1,0,8.066V2.414A1.275,1.275,0,0,1,1.413,1Z" transform="translate(20 -0.997)"/></g></svg>