<?xml version="1.0" encoding="utf-8"?>
<svg viewBox="0 0 500 500" xmlns="http://www.w3.org/2000/svg">
  <path fill-rule="evenodd" clip-rule="evenodd" d="M 190.194 428.418 C 194.955 437.327 199.717 445.383 204.282 452.521 C 155.851 441.619 113.812 413.805 84.755 375.614 C 103.935 364.794 128.507 353.585 158.065 345.393 C 166.45 378.327 178.324 406.168 190.194 428.418 Z M 226.81 408.877 C 216.485 389.536 206.164 365.404 198.719 336.787 C 214.744 334.407 231.871 333.024 249.999 333.024 C 268.154 333.024 285.285 334.407 301.307 336.787 C 293.865 365.404 283.514 389.536 273.219 408.877 C 264.942 424.377 256.698 436.773 249.999 445.823 C 243.33 436.773 235.083 424.377 226.81 408.877 Z M 187.732 249.999 C 187.732 266.161 188.837 281.521 190.748 295.993 C 209.236 293.173 229.021 291.51 249.999 291.51 C 271.005 291.51 290.793 293.173 309.277 295.993 C 311.187 281.521 312.267 266.161 312.267 249.999 C 312.267 233.837 311.187 218.506 309.277 204.004 C 290.793 206.855 271.005 208.489 249.999 208.489 C 229.021 208.489 209.236 206.855 190.748 204.004 C 188.837 218.506 187.732 233.837 187.732 249.999 Z M 150.01 195.454 C 147.604 212.584 146.221 230.794 146.221 249.999 C 146.221 269.233 147.604 287.414 150.01 304.545 C 114.781 314.011 85.584 327.35 63.03 340.191 C 49.829 312.932 42.44 282.323 42.44 249.999 C 42.44 217.675 49.829 187.096 63.03 159.806 C 85.584 172.649 114.781 185.987 150.01 195.454 Z M 198.719 163.24 C 214.744 165.621 231.871 166.975 249.999 166.975 C 268.154 166.975 285.285 165.621 301.307 163.24 C 293.865 134.624 283.514 110.465 273.219 91.12 C 264.942 75.62 256.698 63.252 249.999 54.202 C 243.33 63.252 235.083 75.62 226.81 91.12 C 216.485 110.465 206.164 134.624 198.719 163.24 Z M 349.988 195.454 C 352.421 212.584 353.779 230.794 353.779 249.999 C 353.779 269.233 352.421 287.414 349.988 304.545 C 385.245 314.011 414.441 327.35 436.996 340.191 C 450.17 312.932 457.56 282.323 457.56 249.999 C 457.56 217.675 450.17 187.096 436.996 159.806 C 414.441 172.649 385.245 185.987 349.988 195.454 Z M 415.274 124.414 C 396.065 135.234 371.49 146.413 341.963 154.634 C 333.549 121.67 321.705 93.86 309.831 71.609 C 305.074 62.67 300.312 54.616 295.746 47.503 C 344.178 58.383 386.187 86.222 415.274 124.414 Z M 158.065 154.605 C 128.507 146.413 103.935 135.234 84.755 124.414 C 113.812 86.222 155.851 58.383 204.282 47.503 C 199.717 54.616 194.955 62.67 190.194 71.609 C 178.324 93.86 166.45 121.67 158.065 154.605 Z M 341.963 345.393 C 333.549 378.327 321.705 406.168 309.831 428.418 C 305.074 437.327 300.312 445.383 295.746 452.521 C 344.178 441.619 386.187 413.805 415.274 375.585 C 396.094 364.794 371.49 353.585 341.963 345.393 Z M 249.999 499.071 C 387.57 499.071 499.071 387.57 499.071 249.999 C 499.071 112.458 387.57 0.928 249.999 0.928 C 112.456 0.928 0.928 112.458 0.928 249.999 C 0.928 387.57 112.456 499.071 249.999 499.071 Z" style="fill: rgb(0, 121, 175);" transform="matrix(1, 0, 0, 1, -3.552713678800501e-15, 0)"/>
</svg>