<?xml version="1.0" encoding="UTF-8" standalone="no"?>
<!-- Created with Inkscape (http://www.inkscape.org/) -->

<svg
   version="1.1"
   id="svg12086"
   width="895.42499"
   height="619.90002"
   viewBox="0 0 895.42498 619.90002"
   sodipodi:docname="tweet2.svg"
   inkscape:export-filename="../../../../tweet2.png"
   inkscape:export-xdpi="143.47"
   inkscape:export-ydpi="143.47"
   inkscape:version="1.2.2 (1:1.2.2+202305151915+b0a8486541)"
   xmlns:inkscape="http://www.inkscape.org/namespaces/inkscape"
   xmlns:sodipodi="http://sodipodi.sourceforge.net/DTD/sodipodi-0.dtd"
   xmlns="http://www.w3.org/2000/svg"
   xmlns:svg="http://www.w3.org/2000/svg">
  <defs
     id="defs12090">
    <clipPath
       clipPathUnits="userSpaceOnUse"
       id="clipPath12118">
      <path
         d="M 0,0 H 1077 V 564 H 0 Z"
         id="path12116" />
    </clipPath>
    <clipPath
       clipPathUnits="userSpaceOnUse"
       id="clipPath12132">
      <path
         d="M 0,0 H 1077 V 564 H 0 Z"
         id="path12130" />
    </clipPath>
    <clipPath
       clipPathUnits="userSpaceOnUse"
       id="clipPath12146">
      <path
         d="M 0,0 H 1077 V 564 H 0 Z"
         id="path12144" />
    </clipPath>
    <clipPath
       clipPathUnits="userSpaceOnUse"
       id="clipPath12160">
      <path
         d="M 0,0 H 1077 V 564 H 0 Z"
         id="path12158" />
    </clipPath>
    <clipPath
       clipPathUnits="userSpaceOnUse"
       id="clipPath12174">
      <path
         d="M 0,0 H 1077 V 564 H 0 Z"
         id="path12172" />
    </clipPath>
    <clipPath
       clipPathUnits="userSpaceOnUse"
       id="clipPath12188">
      <path
         d="M 0,0 H 1077 V 564 H 0 Z"
         id="path12186" />
    </clipPath>
    <clipPath
       clipPathUnits="userSpaceOnUse"
       id="clipPath12202">
      <path
         d="M 0,0 H 1077 V 564 H 0 Z"
         id="path12200" />
    </clipPath>
    <clipPath
       clipPathUnits="userSpaceOnUse"
       id="clipPath12544">
      <g
         id="g12548">
        <path
           d="M 64.836,7.207 H 1069.797 V 451.113 H 64.836 Z"
           id="path12546" />
      </g>
    </clipPath>
    <clipPath
       clipPathUnits="userSpaceOnUse"
       id="clipPath12550">
      <g
         id="g12554">
        <path
           d="M 64.836,7.207 H 1069.797 V 451.113 H 64.836 Z"
           id="path12552" />
      </g>
    </clipPath>
    <clipPath
       clipPathUnits="userSpaceOnUse"
       id="clipPath12556">
      <g
         id="g12560">
        <path
           d="M 64.836,7.207 H 1069.797 V 451.113 H 64.836 Z"
           id="path12558" />
      </g>
    </clipPath>
    <clipPath
       clipPathUnits="userSpaceOnUse"
       id="clipPath12562">
      <g
         id="g12566">
        <path
           d="M 64.836,7.207 H 1069.797 V 451.113 H 64.836 Z"
           id="path12564" />
      </g>
    </clipPath>
    <clipPath
       clipPathUnits="userSpaceOnUse"
       id="clipPath12568">
      <g
         id="g12572">
        <path
           d="M 64.836,7.207 H 1069.797 V 451.113 H 64.836 Z"
           id="path12570" />
      </g>
    </clipPath>
  </defs>
  <sodipodi:namedview
     id="namedview12088"
     pagecolor="#ffffff"
     bordercolor="#666666"
     borderopacity="1.0"
     inkscape:showpageshadow="2"
     inkscape:pageopacity="0.0"
     inkscape:pagecheckerboard="0"
     inkscape:deskcolor="#d1d1d1"
     showgrid="false"
     inkscape:zoom="1"
     inkscape:cx="365"
     inkscape:cy="218"
     inkscape:window-width="1920"
     inkscape:window-height="1115"
     inkscape:window-x="0"
     inkscape:window-y="1080"
     inkscape:window-maximized="1"
     inkscape:current-layer="g12094">
    <inkscape:page
       x="0"
       y="0"
       id="page12092"
       width="895.42499"
       height="619.90002" />
    <inkscape:page
       x="1180.7982"
       y="-113.78012"
       id="page12366"
       width="777.33325"
       height="695.99994" />
  </sodipodi:namedview>
  <g
     id="g12094"
     inkscape:groupmode="layer"
     inkscape:label="Page 1"
     transform="matrix(1.3333333,0,0,1.3333333,-275.20174,-113.7801)">
    <g
       id="g12721"
       transform="translate(56.249898,3.7500164)">
      <g
         id="g12124"
         clip-path="url(#clipPath12568)">
        <g
           id="g12126">
          <g
             id="g12128"
             clip-path="url(#clipPath12132)">
            <g
               id="g12134">
              <path
                 d="M 244.867,104.441 H 352.351 V 451.113 H 244.867 Z"
                 style="fill:#aa8dd8;fill-opacity:1;fill-rule:nonzero;stroke:none"
                 id="path12136" />
            </g>
          </g>
        </g>
      </g>
      <g
         id="g12138"
         clip-path="url(#clipPath12562)">
        <g
           id="g12140">
          <g
             id="g12142"
             clip-path="url(#clipPath12146)">
            <g
               id="g12148">
              <path
                 d="m 379.219,387.699 h 107.484 v 63.414 H 379.219 Z"
                 style="fill:#aa8dd8;fill-opacity:1;fill-rule:nonzero;stroke:none"
                 id="path12150" />
            </g>
          </g>
        </g>
      </g>
      <g
         id="g12152"
         clip-path="url(#clipPath12556)">
        <g
           id="g12154">
          <g
             id="g12156"
             clip-path="url(#clipPath12160)">
            <g
               id="g12162">
              <path
                 d="m 513.574,413.066 h 107.48 v 38.047 h -107.48 z"
                 style="fill:#aa8dd8;fill-opacity:1;fill-rule:nonzero;stroke:none"
                 id="path12164" />
            </g>
          </g>
        </g>
      </g>
      <g
         id="g12166"
         clip-path="url(#clipPath12550)">
        <g
           id="g12168">
          <g
             id="g12170"
             clip-path="url(#clipPath12174)">
            <g
               id="g12176">
              <path
                 d="M 647.926,434.203 H 755.41 v 16.91 H 647.926 Z"
                 style="fill:#aa8dd8;fill-opacity:1;fill-rule:nonzero;stroke:none"
                 id="path12178" />
            </g>
          </g>
        </g>
      </g>
      <text
         xml:space="preserve"
         transform="matrix(0,-1.000157,0.99984305,0,0,0)"
         style="font-variant:normal;font-weight:normal;font-size:18.0129px;font-family:'DejaVu Sans';-inkscape-font-specification:DejaVuSans;writing-mode:lr-tb;fill:#000000;fill-opacity:1;fill-rule:nonzero;stroke:none;stroke-width:0.999843"
         id="text12316"
         x="-368.32526"
         y="220.11929"><tspan
           x="-368.32526 -356.90506 -345.48489 -334.479 -323.47314 -317.1326 -312.14304 -300.74088 -289.32068 -283.6106 -272.19043 -260.78827 -250.89917 -241.0101 -229.93217 -220.56546"
           y="220.11929"
           sodipodi:role="line"
           id="tspan12314"
           style="stroke-width:0.999843">Spoofing Success</tspan></text>
      <g
         id="g12318"
         transform="matrix(0.999686,0,0,-0.82260524,-0.0084877,79.967325)">
        <path
           d="M 231.10826,-450.83166 V -6.9256573"
           style="fill:none;stroke:#000000;stroke-width:0.800699;stroke-linecap:square;stroke-linejoin:miter;stroke-miterlimit:10;stroke-dasharray:none;stroke-opacity:1"
           id="path12320" />
      </g>
      <g
         id="g12322"
         transform="matrix(0.6366732,0,0,1,83.870253,901.91132)">
        <path
           d="M 231.10082,-451.113 H 1070.1992"
           style="fill:none;stroke:#000000;stroke-width:0.731531;stroke-linecap:square;stroke-linejoin:miter;stroke-miterlimit:10;stroke-dasharray:none;stroke-opacity:1"
           id="path12324" />
      </g>
      <path
         d="m 426.504,489.785 -5.473,0.992 -2.176,-21.183 c -16.519,22.508 -42.89,35.019 -69.824,27.226 -10.558,-3.054 -20.523,-9.597 -26.906,-18.476 -5.613,-7.813 -8.797,-12.055 -11.316,-22.36 l 3.757,-1.82 c 5.368,18.434 17.911,32.391 36.036,38.125 26.175,8.285 51.621,-5.43 65.429,-28.23 l -24.273,2.097 -0.336,-5.16 32.18,-2.848 z"
         style="fill:#000000;fill-opacity:1;fill-rule:nonzero;stroke:none"
         id="path12326" />
      <path
         d="m 560.648,489.785 -5.472,0.992 L 553,469.594 c -16.52,22.508 -42.891,35.019 -69.824,27.226 -10.559,-3.054 -20.524,-9.597 -26.906,-18.476 -5.614,-7.813 -8.797,-12.055 -11.317,-22.36 l 3.758,-1.82 c 5.367,18.434 17.91,32.391 36.035,38.125 26.176,8.285 51.621,-5.43 65.43,-28.23 l -24.274,2.097 -0.336,-5.16 32.18,-2.848 z"
         style="fill:#000000;fill-opacity:1;fill-rule:nonzero;stroke:none"
         id="path12328" />
      <path
         d="m 694.793,489.785 -5.473,0.992 -2.175,-21.183 c -16.52,22.508 -42.891,35.019 -69.825,27.226 -10.558,-3.054 -20.523,-9.597 -26.906,-18.476 -5.613,-7.813 -8.793,-12.055 -11.316,-22.36 l 3.757,-1.82 c 5.368,18.434 17.911,32.391 36.036,38.125 26.175,8.285 51.621,-5.43 65.429,-28.23 l -24.269,2.097 -0.34,-5.16 32.18,-2.848 z"
         style="fill:#000000;fill-opacity:1;fill-rule:nonzero;stroke:none"
         id="path12330" />
      <text
         xml:space="preserve"
         transform="scale(0.99984303,1.000157)"
         style="font-variant:normal;font-size:16.0115px;font-family:CairoFont-1;-inkscape-font-specification:CairoFont-1-0;writing-mode:lr-tb;fill:#f46d43;fill-opacity:1;fill-rule:nonzero;stroke:none;stroke-width:0.999843"
         id="text12340"
         x="333.90994"
         y="519.00977"><tspan
           x="333.90994 338.48923 348.16013 357.19061 363.27496 372.86584 382.05643 389.96609 399.55695"
           y="519.00977"
           sodipodi:role="line"
           id="tspan12336"
           style="stroke-width:0.999843">Increase </tspan><tspan
           x="322.94861 331.89902 341.60196 351.22485 357.27719 366.53183 375.03391 381.18231 385.02509 392.93475 397.01767 404.78323"
           y="539.02411"
           sodipodi:role="line"
           id="tspan12338"
           style="stroke-width:0.999843">context size</tspan></text>
      <text
         xml:space="preserve"
         transform="scale(0.99984303,1.000157)"
         style="font-variant:normal;font-size:16.0115px;font-family:CairoFont-1;-inkscape-font-specification:CairoFont-1-0;writing-mode:lr-tb;fill:#126eff;fill-opacity:1;fill-rule:nonzero;stroke:none;stroke-width:0.999843"
         id="text12346"
         x="439.91718"
         y="519.33002"><tspan
           x="439.91718 450.43671 460.7641 471.09152 474.93427 480.97058 490.67352 500.56863 506.76508 516.43597 525.62659 540.53326 550.12415 559.79504"
           y="519.33002"
           sodipodi:role="line"
           id="tspan12342"
           style="stroke-width:0.999843">Add tournament</tspan><tspan
           x="467.34238 475.25204 484.44263 499.3493 509.50058 514.57623 518.65912 528.33008"
           y="539.34436"
           sodipodi:role="line"
           id="tspan12344"
           style="stroke-width:0.999843">sampling</tspan></text>
      <text
         xml:space="preserve"
         transform="scale(0.99984303,1.000157)"
         style="font-variant:normal;font-size:16.0115px;font-family:CairoFont-1;-inkscape-font-specification:CairoFont-1-0;writing-mode:lr-tb;fill:#ff1241;fill-opacity:1;fill-rule:nonzero;stroke:none;stroke-width:0.999843"
         id="text12352"
         x="619.66504"
         y="519.33002"><tspan
           x="619.66504 630.18457 640.51196 650.83936"
           y="519.33002"
           sodipodi:role="line"
           id="tspan12348"
           style="stroke-width:0.999843">Add </tspan><tspan
           x="613.91693 622.94739 632.138 641.16846 650.83936"
           y="539.34436"
           sodipodi:role="line"
           id="tspan12350"
           style="stroke-width:0.999843">cache</tspan></text>
    </g>
  </g>
  <g
     id="g12368"
     inkscape:groupmode="layer"
     inkscape:label="Page 2"
     transform="matrix(1.3333333,0,0,1.3333333,1180.7983,-113.7801)">
    <g
       id="g12370" />
  </g>
</svg>
